<?xml version="1.0" encoding="UTF-8"?>
<svg xmlns="http://www.w3.org/2000/svg"
     xmlns:xlink="http://www.w3.org/1999/xlink"
     xmlns:gadfly="http://www.gadflyjl.org/ns"
     version="1.2"
     width="200mm" height="120mm" viewBox="0 0 200 120"
     stroke="none"
     fill="#000000"
     stroke-width="0.3"
     font-size="3.88"
>
<g class="plotroot xscalable yscalable" id="fig-4ff3b3b48d154ba09addaf5efc872721-element-1">
  <g font-size="3.88" font-family="'PT Sans','Helvetica Neue','Helvetica',sans-serif" fill="#564A55" stroke="none" id="fig-4ff3b3b48d154ba09addaf5efc872721-element-2">
    <text x="111.08" y="112" text-anchor="middle">Simulation Step</text>
  </g>
  <g class="guide xlabels" font-size="2.82" font-family="'PT Sans Caption','Helvetica Neue','Helvetica',sans-serif" fill="#6C606B" id="fig-4ff3b3b48d154ba09addaf5efc872721-element-3">
    <text x="29.16" y="104.39" text-anchor="middle">0</text>
    <text x="70.12" y="104.39" text-anchor="middle">5.0×10³</text>
    <text x="111.08" y="104.39" text-anchor="middle">1.0×10⁴</text>
    <text x="152.04" y="104.39" text-anchor="middle">1.5×10⁴</text>
    <text x="193" y="104.39" text-anchor="middle">2.0×10⁴</text>
  </g>
  <g clip-path="url(#fig-4ff3b3b48d154ba09addaf5efc872721-element-5)" id="fig-4ff3b3b48d154ba09addaf5efc872721-element-4">
    <g pointer-events="visible" opacity="1" fill="none" stroke="none" class="guide background" id="fig-4ff3b3b48d154ba09addaf5efc872721-element-6">
      <rect x="27.16" y="12.61" width="167.84" height="88.1"/>
    </g>
    <g class="guide ygridlines xfixed" stroke-dasharray="0.5,0.5" stroke-width="0.2" stroke="#D0D0E0" id="fig-4ff3b3b48d154ba09addaf5efc872721-element-7">
      <path fill="none" d="M27.16,98.72 L 195 98.72"/>
      <path fill="none" d="M27.16,81.89 L 195 81.89"/>
      <path fill="none" d="M27.16,65.07 L 195 65.07"/>
      <path fill="none" d="M27.16,48.25 L 195 48.25"/>
      <path fill="none" d="M27.16,31.43 L 195 31.43"/>
      <path fill="none" d="M27.16,14.61 L 195 14.61"/>
    </g>
    <g class="guide xgridlines yfixed" stroke-dasharray="0.5,0.5" stroke-width="0.2" stroke="#D0D0E0" id="fig-4ff3b3b48d154ba09addaf5efc872721-element-8">
      <path fill="none" d="M29.16,12.61 L 29.16 100.72"/>
      <path fill="none" d="M70.12,12.61 L 70.12 100.72"/>
      <path fill="none" d="M111.08,12.61 L 111.08 100.72"/>
      <path fill="none" d="M152.04,12.61 L 152.04 100.72"/>
      <path fill="none" d="M193,12.61 L 193 100.72"/>
    </g>
    <g class="plotpanel" id="fig-4ff3b3b48d154ba09addaf5efc872721-element-9">
      <g stroke-width="0.3" fill="none" class="geometry" stroke="#00BFFF" id="fig-4ff3b3b48d154ba09addaf5efc872721-element-10">
        <path fill="none" d="M29.25,75.6 L 29.33 77.39 29.41 76.09 29.49 74.96 29.57 75.73 29.66 76.37 29.74 76.17 29.82 76.01 29.9 76.46 29.98 77.24 30.07 78.05 30.15 79.1 30.23 80.32 30.31 81.39 30.39 81.92 30.48 81.65 30.56 81.35 30.64 81.39 30.72 81.53 30.8 56.36 30.89 50.34 30.97 47.61 31.05 47.56 31.13 47.66 31.21 47.83 31.29 47.93 31.38 47.95 31.46 47.71 31.54 47.6 31.62 47.26 31.7 46.96 31.79 47.4 31.87 47.51 31.95 46.78 32.03 46.99 32.11 48.15 32.2 47.83 32.28 48.08 32.36 47.91 32.44 39.49 32.52 37.87 32.61 36.52 32.69 37.25 32.77 36.75 32.85 36.64 32.93 36.81 33.02 37.01 33.1 37.15 33.18 37.36 33.26 37.22 33.34 37.57 33.42 37.18 33.51 36.36 33.59 37.48 33.67 37.33 33.75 36.79 33.83 36.64 33.92 36.51 34 37.32 34.08 34.92 34.16 32.75 34.24 32.45 34.33 32.68 34.41 33.79 34.49 33.4 34.57 33.18 34.65 33.17 34.74 32.56 34.82 33.07 34.9 32.48 34.98 33.31 35.06 32.26 35.14 33.01 35.23 32.6 35.31 33.08 35.39 33.32 35.47 33.03 35.55 32.93 35.64 32.02 35.72 31.44 35.8 30.95 35.88 32.53 35.96 32.06 36.05 31.97 36.13 30.6 36.21 31.42 36.29 32.02 36.37 32.21 36.46 31.06 36.54 31.56 36.62 32.85 36.7 32.01 36.78 31.64 36.87 31.25 36.95 30.99 37.03 31.91 37.11 31.83 37.19 31.43 37.27 31.51 37.36 30.68 37.44 31.57 37.52 31.1 37.6 30.64 37.68 31.04 37.77 31.04 37.85 30.77 37.93 31.3 38.01 30.91 38.09 30.66 38.18 31 38.26 31.33 38.34 31.39 38.42 32.25 38.5 31.1 38.59 31.43 38.67 31.36 38.75 30.93 38.83 30.67 38.91 30.93 39 31.41 39.08 31.08 39.16 30.82 39.24 31.03 39.32 31.08 39.4 31.5 39.49 32.23 39.57 31.38 39.65 32 39.73 32.21 39.81 31.99 39.9 31.34 39.98 31.32 40.06 30.74 40.14 30.28 40.22 31.17 40.31 31.42 40.39 31.09 40.47 30.34 40.55 30.7 40.63 31.1 40.72 31.04 40.8 30.54 40.88 30.53 40.96 31.32 41.04 30.78 41.12 30.47 41.21 31.1 41.29 30.47 41.37 31 41.45 31.04 41.53 30.62 41.62 30.47 41.7 30.95 41.78 31.46 41.86 31.37 41.94 31.43 42.03 30.92 42.11 31.47 42.19 31.73 42.27 32.27 42.35 31.49 42.44 31.21 42.52 32.24 42.6 31.28 42.68 30.92 42.76 31.56 42.85 31.67 42.93 30.94 43.01 32.14 43.09 31.68 43.17 31.74 43.25 31.35 43.34 31.28 43.42 31 43.5 31.87 43.58 31.16 43.66 31.81 43.75 32.09 43.83 31.54 43.91 31.42 43.99 31.98 44.07 31.78 44.16 30.81 44.24 31.45 44.32 31.56 44.4 31.81 44.48 31.64 44.57 31.26 44.65 30.25 44.73 31.31 44.81 30.57 44.89 31.25 44.98 31.08 45.06 31.77 45.14 31.78 45.22 31.38 45.3 31.14 45.38 31.46 45.47 31.48 45.55 32.68 45.63 31.58 45.71 31.89 45.79 31.86 45.88 31.32 45.96 31.61 46.04 31.48 46.12 31.24 46.2 32.05 46.29 31.5 46.37 31.82 46.45 31.48 46.53 31.54 46.61 31.94 46.7 31.42 46.78 31.9 46.86 32.7 46.94 31.19 47.02 30.93 47.1 31.57 47.19 30.92 47.27 31.81 47.35 31.06 47.43 31.83 47.51 31.85 47.6 30.82 47.68 31.72 47.76 30.49 47.84 32.2 47.92 30.87 48.01 31.14 48.09 31.73 48.17 30.49 48.25 31.03 48.33 31.09 48.42 31.74 48.5 31.5 48.58 31.44 48.66 30.63 48.74 30.69 48.83 31.08 48.91 30.47 48.99 31.68 49.07 31.39 49.15 31.43 49.23 31.02 49.32 31.22 49.4 31.51 49.48 30.28 49.56 31.49 49.64 30.5 49.73 31.14 49.81 30.99 49.89 31.38 49.97 31.24 50.05 30.98 50.14 29.56 50.22 30.18 50.3 30.77 50.38 30.6 50.46 30.39 50.55 30.09 50.63 30.73 50.71 30.18 50.79 30.64 50.87 30.19 50.96 30.02 51.04 30.28 51.12 30.33 51.2 29.86 51.28 30.48 51.36 30.96 51.45 30.66 51.53 30.59 51.61 31.26 51.69 30.62 51.77 31.09 51.86 30.18 51.94 30.13 52.02 30.37 52.1 31.15 52.18 31.66 52.27 30.76 52.35 30.79 52.43 31.18 52.51 30.69 52.59 31.11 52.68 31.12 52.76 30.81 52.84 30.48 52.92 31.3 53 32.04 53.08 32.53 53.17 30.7 53.25 31.37 53.33 32.33 53.41 31.75 53.49 31.05 53.58 30.84 53.66 30.69 53.74 30.99 53.82 31.42 53.9 31.59 53.99 31.32 54.07 31.83 54.15 31.47 54.23 31.28 54.31 31.62 54.4 30.52 54.48 30.41 54.56 31.79 54.64 31.22 54.72 31.46 54.81 30.77 54.89 31.72 54.97 30.74 55.05 32.82 55.13 30.8 55.21 30.79 55.3 31.43 55.38 31.53 55.46 31.65 55.54 31.94 55.62 31.85 55.71 32.15 55.79 32.02 55.87 31.39 55.95 31.25 56.03 31.8 56.12 31.6 56.2 31.76 56.28 31.45 56.36 31.24 56.44 30.44 56.53 31.5 56.61 31.34 56.69 31.42 56.77 31.63 56.85 30.73 56.94 31.06 57.02 31.72 57.1 31.09 57.18 30.71 57.26 31.56 57.34 31.23 57.43 31.5 57.51 31.44 57.59 31.19 57.67 31.63 57.75 31.09 57.84 31.09 57.92 31.14 58 31.54 58.08 31.72 58.16 31.22 58.25 30.83 58.33 30.75 58.41 31.01 58.49 31.54 58.57 31.74 58.66 32.02 58.74 32.04 58.82 32.04 58.9 31.12 58.98 31.65 59.06 31.52 59.15 31.63 59.23 30.35 59.31 30.95 59.39 31.15 59.47 31.38 59.56 31.52 59.64 32.29 59.72 31.11 59.8 31.76 59.88 30.96 59.97 31.47 60.05 31.54 60.13 30.8 60.21 30.87 60.29 31.33 60.38 31.6 60.46 31.47 60.54 30.85 60.62 31.68 60.7 32.08 60.79 31 60.87 31.21 60.95 31.41 61.03 30.58 61.11 30.78 61.19 30.99 61.28 30.89 61.36 30.88 61.44 30.58 61.52 31.28 61.6 31.78 61.69 31.51 61.77 31.38 61.85 31.6 61.93 31.32 62.01 31.01 62.1 31.03 62.18 31.49 62.26 31.3 62.34 31.6 62.42 32.8 62.51 31.99 62.59 31.51 62.67 31.57 62.75 31.96 62.83 31.52 62.92 32.05 63 31.11 63.08 32.45 63.16 31.69 63.24 32.36 63.32 32.1 63.41 31.62 63.49 31.75 63.57 32.56 63.65 32.33 63.73 32.31 63.82 31.79 63.9 32.22 63.98 32.03 64.06 31.77 64.14 31.17 64.23 31.34 64.31 32.62 64.39 32.54 64.47 31.51 64.55 31.46 64.64 31.37 64.72 31.93 64.8 30.81 64.88 31.39 64.96 31.26 65.04 30.99 65.13 31.27 65.21 31.36 65.29 32.13 65.37 31.85 65.45 30.81 65.54 31.63 65.62 31.82 65.7 32.36 65.78 31.5 65.86 31.14 65.95 32.09 66.03 31.01 66.11 31.72 66.19 31.75 66.27 31.91 66.36 31.05 66.44 32.29 66.52 32.53 66.6 32.08 66.68 31.91 66.77 32.26 66.85 31.69 66.93 31.85 67.01 31.03 67.09 30.68 67.17 31.25 67.26 31.51 67.34 32.31 67.42 32.17 67.5 31.88 67.58 31.03 67.67 32.17 67.75 32.12 67.83 32.06 67.91 31.19 67.99 31.04 68.08 32.98 68.16 32.76 68.24 32.65 68.32 32.78 68.4 31.96 68.49 30.79 68.57 30.78 68.65 31.8 68.73 31.37 68.81 32.04 68.89 31.19 68.98 31.75 69.06 32.42 69.14 32.65 69.22 30.32 69.3 32.18 69.39 32.64 69.47 31.38 69.55 31.68 69.63 32.22 69.71 31.62 69.8 31.6 69.88 31.83 69.96 31.89 70.04 31.46 70.12 32.41 70.21 31.14 70.29 30.67 70.37 32.69 70.45 31.87 70.53 31.82 70.62 31.1 70.7 32 70.78 31.64 70.86 31.99 70.94 32.57 71.02 31.89 71.11 32.46 71.19 30.95 71.27 31.85 71.35 31.54 71.43 31.82 71.52 31.21 71.6 31.81 71.68 31.66 71.76 31.23 71.84 31.36 71.93 31.46 72.01 31.88 72.09 32.9 72.17 31.68 72.25 31.86 72.34 30.7 72.42 32.04 72.5 31.29 72.58 31.3 72.66 31.64 72.75 32.04 72.83 31.58 72.91 31.45 72.99 32.6 73.07 31.61 73.15 31.29 73.24 32.12 73.32 32.36 73.4 32.42 73.48 31.64 73.56 31.26 73.65 31.27 73.73 32.34 73.81 31.92 73.89 31.4 73.97 32.72 74.06 31.24 74.14 30.84 74.22 30.08 74.3 31.72 74.38 30.77 74.47 31.51 74.55 31.92 74.63 31.74 74.71 31.71 74.79 31.29 74.87 31.67 74.96 30.93 75.04 31.81 75.12 31.86 75.2 31.13 75.28 31.64 75.37 30.67 75.45 30.92 75.53 31.38 75.61 31.61 75.69 31.88 75.78 31.86 75.86 31.46 75.94 31.96 76.02 31.74 76.1 31.64 76.19 32.22 76.27 32.51 76.35 30.45 76.43 32.03 76.51 31.52 76.6 31.64 76.68 31.52 76.76 31.62 76.84 32.57 76.92 32.2 77 30.38 77.09 31.78 77.17 32.58 77.25 31.82 77.33 32.44 77.41 31.1 77.5 31.36 77.58 31.18 77.66 32.34 77.74 32.01 77.82 31.71 77.91 31.76 77.99 32.21 78.07 31.24 78.15 31.62 78.23 31.33 78.32 31.95 78.4 31.5 78.48 31.55 78.56 31.18 78.64 31.66 78.73 31.06 78.81 32.1 78.89 31.94 78.97 33 79.05 32.36 79.13 31.56 79.22 31.95 79.3 32.12 79.38 31.62 79.46 31.66 79.54 32.24 79.63 31.85 79.71 31.38 79.79 31.38 79.87 31.32 79.95 31.62 80.04 31.29 80.12 32.06 80.2 32.73 80.28 31.97 80.36 32.35 80.45 31.09 80.53 31.63 80.61 32.31 80.69 31.83 80.77 31.52 80.85 30.84 80.94 32.31 81.02 31.73 81.1 31.28 81.18 31.79 81.26 31.29 81.35 31.87 81.43 31.12 81.51 32.5 81.59 31.66 81.67 31.27 81.76 31.68 81.84 31.95 81.92 32.03 82 31.67 82.08 32.13 82.17 30.85 82.25 31.66 82.33 32.49 82.41 32.29 82.49 31.19 82.58 32.34 82.66 31.55 82.74 31.31 82.82 31.08 82.9 31.42 82.98 31.9 83.07 32.19 83.15 30.67 83.23 31.39 83.31 31.26 83.39 30.93 83.48 32.47 83.56 31.69 83.64 31.54 83.72 31.92 83.8 31.03 83.89 31.76 83.97 31.41 84.05 31.98 84.13 30.87 84.21 31.2 84.3 31.82 84.38 30.96 84.46 32.58 84.54 31.76 84.62 31.5 84.71 31.75 84.79 31.95 84.87 31.84 84.95 30.74 85.03 30.98 85.11 31.81 85.2 31.77 85.28 31.06 85.36 32.07 85.44 31.6 85.52 32.07 85.61 31.21 85.69 31.25 85.77 31.87 85.85 31.98 85.93 32.39 86.02 31.78 86.1 31.78 86.18 31.59 86.26 32.26 86.34 32.1 86.43 32.61 86.51 32.42 86.59 31.48 86.67 31.86 86.75 32.19 86.83 32.28 86.92 32.22 87 32.01 87.08 32.23 87.16 31.83 87.24 31.98 87.33 31.64 87.41 32.94 87.49 31.95 87.57 31.79 87.65 31.23 87.74 31.47 87.82 31.59 87.9 30.97 87.98 31.76 88.06 32.18 88.15 32.22 88.23 32.39 88.31 32.15 88.39 31.97 88.47 32.11 88.56 31.58 88.64 31.65 88.72 31.98 88.8 31.94 88.88 31.91 88.96 31.62 89.05 31.31 89.13 31.28 89.21 32.2 89.29 31.14 89.37 31.38 89.46 31.68 89.54 31.14 89.62 31.21 89.7 31.03 89.78 31.59 89.87 31.7 89.95 32.02 90.03 31.62 90.11 31.47 90.19 31.66 90.28 31.29 90.36 32.03 90.44 31.47 90.52 31.19 90.6 31.86 90.69 31.82 90.77 31.16 90.85 31.55 90.93 31.42 91.01 32.05 91.09 31.13 91.18 31.26 91.26 32.89 91.34 31.85 91.42 31.55 91.5 31.78 91.59 31.71 91.67 32.06 91.75 32.25 91.83 32.63 91.91 31.47 92 31.54 92.08 32.02 92.16 31.16 92.24 31.34 92.32 30.91 92.41 31.04 92.49 32.04 92.57 31.58 92.65 30.79 92.73 32.34 92.81 31.88 92.9 31.26 92.98 31.82 93.06 32.57 93.14 31.23 93.22 31.94 93.31 31.88 93.39 31.86 93.47 31.02 93.55 31.91 93.63 31.88 93.72 31.59 93.8 32.38 93.88 32.66 93.96 31.65 94.04 32.15 94.13 32.94 94.21 31.52 94.29 30.73 94.37 32.11 94.45 30.96 94.54 31.43 94.62 31.51 94.7 31.37 94.78 31.88 94.86 32.63 94.94 31.63 95.03 31.25 95.11 31.47 95.19 31.02 95.27 31.71 95.35 31.67 95.44 32.02 95.52 31.98 95.6 32.12 95.68 31.78 95.76 31.79 95.85 31.86 95.93 31.61 96.01 31.65 96.09 31.64 96.17 31.11 96.26 31.2 96.34 31.41 96.42 32.11 96.5 32.06 96.58 31.8 96.67 31.62 96.75 32.46 96.83 31.61 96.91 31.37 96.99 31.17 97.07 31.45 97.16 31.01 97.24 31.57 97.32 31.89 97.4 31.36 97.48 31.77 97.57 32.44 97.65 32.3 97.73 32.2 97.81 32.18 97.89 31.72 97.98 31.75 98.06 32.17 98.14 31.81 98.22 30.98 98.3 32.43 98.39 32.03 98.47 31.45 98.55 31.86 98.63 32.38 98.71 32.42 98.79 30.76 98.88 30.74 98.96 31.98 99.04 32.42 99.12 31.76 99.2 32.54 99.29 31.75 99.37 31.22 99.45 31.65 99.53 31.86 99.61 31.55 99.7 31.98 99.78 31.46 99.86 32.11 99.94 31.73 100.02 31.88 100.11 32.16 100.19 31.89 100.27 32.64 100.35 32.33 100.43 31.43 100.52 31.94 100.6 32.63 100.68 32.49 100.76 31.45 100.84 31.62 100.92 32.06 101.01 31.08 101.09 32.02 101.17 31.78 101.25 31.68 101.33 32.35 101.42 31.67 101.5 31.63 101.58 32.01 101.66 32.6 101.74 32.25 101.83 31.13 101.91 30.76 101.99 31.74 102.07 31.67 102.15 31.26 102.24 31.06 102.32 31.68 102.4 32.33 102.48 31.51 102.56 32.27 102.64 31.73 102.73 31.69 102.81 32.77 102.89 32.44 102.97 31.41 103.05 32.13 103.14 31.54 103.22 31.61 103.3 31.84 103.38 32.12 103.46 31.39 103.55 32 103.63 32.18 103.71 31.88 103.79 31.64 103.87 31.9 103.96 32.4 104.04 31.5 104.12 31.54 104.2 30.93 104.28 31.29 104.37 32 104.45 31.9 104.53 32.23 104.61 32.17 104.69 32.09 104.77 31.97 104.86 31.69 104.94 31.35 105.02 31.69 105.1 31.59 105.18 32.09 105.27 32.3 105.35 32.19 105.43 32.46 105.51 31.6 105.59 31.44 105.68 32.03 105.76 31.97 105.84 32.58 105.92 31.98 106 30.96 106.09 31.5 106.17 32.06 106.25 31.81 106.33 31.92 106.41 33.24 106.5 31.34 106.58 31.11 106.66 31.69 106.74 31.16 106.82 32.15 106.9 31.92 106.99 30.78 107.07 31.15 107.15 31.85 107.23 31.48 107.31 30.87 107.4 31.29 107.48 31.3 107.56 32.17 107.64 31.85 107.72 31.28 107.81 31.63 107.89 31.56 107.97 31.37 108.05 31.69 108.13 31.76 108.22 31.89 108.3 31.24 108.38 31.15 108.46 31.84 108.54 31.24 108.62 31.76 108.71 30.75 108.79 31.61 108.87 31.6 108.95 32.01 109.03 31.25 109.12 32.21 109.2 31.81 109.28 32.09 109.36 31.2 109.44 31.23 109.53 31.28 109.61 32.48 109.69 31.75 109.77 31.98 109.85 31.7 109.94 31.87 110.02 31.05 110.1 32.73 110.18 31.8 110.26 31.08 110.35 31.7 110.43 31.94 110.51 31.71 110.59 32.43 110.67 31.83 110.75 32.28 110.84 31.57 110.92 31.53 111 31.64 111.08 31.07 111.16 32.01 111.25 31.93 111.33 31.74 111.41 31.31 111.49 31.07 111.57 30.36 111.66 31.77 111.74 31.52 111.82 32.21 111.9 31.08 111.98 32.08 112.07 32.03 112.15 31.58 112.23 32.32 112.31 32.15 112.39 31.53 112.48 31.72 112.56 32.43 112.64 31.05 112.72 31.08 112.8 31.82 112.88 32.22 112.97 31.69 113.05 33.06 113.13 33.1 113.21 31.73 113.29 31.45 113.38 31.42 113.46 31.97 113.54 31.29 113.62 31.18 113.7 31.66 113.79 31.63 113.87 32.11 113.95 31.57 114.03 30.85 114.11 31.82 114.2 31.95 114.28 30.98 114.36 32.29 114.44 31.61 114.52 31.42 114.6 31.9 114.69 32.47 114.77 30.65 114.85 31.22 114.93 32.57 115.01 32.49 115.1 31.5 115.18 32.26 115.26 31.4 115.34 32.01 115.42 31.36 115.51 31.77 115.59 32.23 115.67 31.98 115.75 31.56 115.83 31.51 115.92 31.32 116 30.55 116.08 31.22 116.16 31.67 116.24 31.47 116.33 30.6 116.41 32.2 116.49 31.59 116.57 31.65 116.65 32.27 116.73 31.44 116.82 31.57 116.9 31.78 116.98 31.4 117.06 30.62 117.14 31.55 117.23 32.11 117.31 31.58 117.39 31.8 117.47 31 117.55 31.51 117.64 32 117.72 32.2 117.8 31.3 117.88 31.05 117.96 32.04 118.05 31.65 118.13 31.6 118.21 32.32 118.29 31.69 118.37 31.77 118.46 31.87 118.54 31.65 118.62 31.71 118.7 31.12 118.78 31.73 118.86 31.77 118.95 31.31 119.03 31.28 119.11 32.01 119.19 31.84 119.27 31.47 119.36 31.87 119.44 31.99 119.52 32.68 119.6 31.49 119.68 31.2 119.77 32.33 119.85 32.34 119.93 32.33 120.01 32.55 120.09 32.1 120.18 31.46 120.26 30.87 120.34 31.96 120.42 31.19 120.5 31.49 120.58 32.15 120.67 32.21 120.75 32.21 120.83 31.6 120.91 31.12 120.99 32.47 121.08 32.46 121.16 31.18 121.24 31.44 121.32 31.73 121.4 31.28 121.49 31.65 121.57 31.78 121.65 31.8 121.73 31.18 121.81 31.3 121.9 31.27 121.98 32.04 122.06 31.96 122.14 32.35 122.22 31.26 122.31 31.12 122.39 32.23 122.47 31.48 122.55 30.56 122.63 30.98 122.71 31.38 122.8 30.61 122.88 31.72 122.96 32.07 123.04 31.64 123.12 32 123.21 31.56 123.29 31.12 123.37 31.54 123.45 31.39 123.53 31.18 123.62 32.39 123.7 31.3 123.78 31.12 123.86 31.45 123.94 31.39 124.03 31.24 124.11 31.42 124.19 31.79 124.27 31 124.35 31.95 124.44 31.74 124.52 31.46 124.6 31.33 124.68 31.05 124.76 32.08 124.84 31.57 124.93 31.73 125.01 32.06 125.09 31.34 125.17 31.97 125.25 31.68 125.34 32.01 125.42 32.39 125.5 31.3 125.58 31.44 125.66 31.7 125.75 31.56 125.83 32.18 125.91 32.21 125.99 32.49 126.07 32.19 126.16 32.02 126.24 31.71 126.32 32.37 126.4 32.47 126.48 31.96 126.56 31.42 126.65 31.64 126.73 32.17 126.81 32.11 126.89 31.35 126.97 31.09 127.06 31.4 127.14 32.01 127.22 32.26 127.3 31.86 127.38 31.16 127.47 31.88 127.55 31.57 127.63 32.38 127.71 31.86 127.79 31.66 127.88 32.26 127.96 31.39 128.04 32.33 128.12 32.06 128.2 31.31 128.29 32.29 128.37 32.22 128.45 31.42 128.53 31.24 128.61 31.29 128.69 32.37 128.78 32.08 128.86 32.49 128.94 33.1 129.02 32.69 129.1 31.49 129.19 32.25 129.27 32.32 129.35 30.99 129.43 31.3 129.51 31.01 129.6 31.06 129.68 31.63 129.76 31.92 129.84 32.49 129.92 31.54 130.01 31.45 130.09 32.67 130.17 31.99 130.25 31.92 130.33 31.9 130.42 31.27 130.5 31.79 130.58 31.62 130.66 31.52 130.74 31.79 130.82 32.17 130.91 32.03 130.99 32.4 131.07 30.92 131.15 32.45 131.23 33.1 131.32 31.36 131.4 31.95 131.48 32.17 131.56 31.42 131.64 31.98 131.73 31.63 131.81 31.17 131.89 31.27 131.97 30.87 132.05 31.15 132.14 31.82 132.22 30.92 132.3 31.3 132.38 31.66 132.46 31.32 132.54 31.65 132.63 32.02 132.71 31.73 132.79 31.23 132.87 31.13 132.95 31.35 133.04 31.56 133.12 32.1 133.2 31.82 133.28 31.73 133.36 31.67 133.45 32.13 133.53 31.82 133.61 32.45 133.69 32.35 133.77 32.48 133.86 32.66 133.94 31.96 134.02 31.38 134.1 31.98 134.18 31.75 134.27 31.8 134.35 31.78 134.43 32.19 134.51 32.11 134.59 31.73 134.67 32.13 134.76 30.54 134.84 31.04 134.92 31.44 135 31.69 135.08 31.73 135.17 32.61 135.25 31.54 135.33 32.19 135.41 31.63 135.49 30.87 135.58 31.28 135.66 31.57 135.74 31.24 135.82 32.07 135.9 32.36 135.99 32.31 136.07 31.52 136.15 31.82 136.23 31.02 136.31 31.33 136.4 31.22 136.48 31 136.56 31.79 136.64 32.02 136.72 32.12 136.8 32.24 136.89 31.56 136.97 31.68 137.05 30.88 137.13 32.52 137.21 31.84 137.3 32.31 137.38 31.72 137.46 30.99 137.54 31.93 137.62 31.79 137.71 31.58 137.79 32.05 137.87 32.09 137.95 31.72 138.03 32.13 138.12 31.06 138.2 31.07 138.28 31.78 138.36 32.02 138.44 31.75 138.52 32.55 138.61 31.5 138.69 31.49 138.77 31.33 138.85 31.84 138.93 32.32 139.02 32.77 139.1 31.25 139.18 31.39 139.26 31.34 139.34 30.95 139.43 31.16 139.51 31.53 139.59 31.24 139.67 31.61 139.75 32.57 139.84 31.53 139.92 32.38 140 32.2 140.08 31.67 140.16 31.12 140.25 31.79 140.33 31.61 140.41 31.37 140.49 31.38 140.57 31.32 140.65 31.55 140.74 30.9 140.82 32.25 140.9 31.16 140.98 31.84 141.06 31.76 141.15 32.3 141.23 32.85 141.31 32.14 141.39 31.37 141.47 31.41 141.56 32.17 141.64 32.2 141.72 32.66 141.8 31.58 141.88 32.06 141.97 31.87 142.05 31.05 142.13 31.28 142.21 31.45 142.29 31.66 142.37 31.5 142.46 31.61 142.54 32.14 142.62 31.62 142.7 32.02 142.78 31.38 142.87 31.22 142.95 31.45 143.03 31.57 143.11 32.29 143.19 31.42 143.28 31.44 143.36 31.15 143.44 32.1 143.52 33.15 143.6 31.49 143.69 31.81 143.77 30.83 143.85 31.74 143.93 32.53 144.01 31.42 144.1 30.94 144.18 32.26 144.26 31.4 144.34 30.91 144.42 33.06 144.5 32.13 144.59 32.05 144.67 31.69 144.75 31.24 144.83 30.75 144.91 31.38 145 31.21 145.08 31.57 145.16 31.93 145.24 31.65 145.32 31.85 145.41 31.59 145.49 31.55 145.57 31.42 145.65 31.36 145.73 32.07 145.82 30.95 145.9 31.57 145.98 32.38 146.06 32.31 146.14 30.85 146.23 32.19 146.31 32.64 146.39 31.31 146.47 31.44 146.55 31.4 146.63 31.19 146.72 31.2 146.8 31.42 146.88 31.05 146.96 32.74 147.04 31.36 147.13 31.78 147.21 31.25 147.29 31.22 147.37 32.03 147.45 32.16 147.54 31.31 147.62 30.64 147.7 31.51 147.78 31.91 147.86 32.12 147.95 31.21 148.03 32.56 148.11 32.14 148.19 31.44 148.27 31.64 148.35 31.69 148.44 31.6 148.52 30.66 148.6 31.8 148.68 31.97 148.76 31.76 148.85 31.41 148.93 31.86 149.01 31.39 149.09 31.95 149.17 31.8 149.26 31.49 149.34 31.41 149.42 31.96 149.5 31.98 149.58 31.25 149.67 31.19 149.75 31.18 149.83 31.17 149.91 31.03 149.99 31.25 150.08 32.25 150.16 31.94 150.24 31.25 150.32 33.09 150.4 31.73 150.48 31.74 150.57 31.26 150.65 31.23 150.73 31.8 150.81 31.72 150.89 32.04 150.98 32.13 151.06 32 151.14 31.98 151.22 32.55 151.3 32.55 151.39 31.62 151.47 32.13 151.55 32.07 151.63 32.19 151.71 31.59 151.8 31.05 151.88 31.86 151.96 31.49 152.04 31.66 152.12 31.26 152.21 31.65 152.29 32.23 152.37 31.53 152.45 31.36 152.53 32.22 152.61 31.34 152.7 31.3 152.78 32.37 152.86 31.06 152.94 31.82 153.02 31.93 153.11 31.76 153.19 31.82 153.27 31.57 153.35 31.43 153.43 31.07 153.52 31.16 153.6 31.97 153.68 30.89 153.76 30.93 153.84 31 153.93 31.47 154.01 32.68 154.09 32.29 154.17 31.49 154.25 32.31 154.33 32.61 154.42 30.79 154.5 30.44 154.58 31.05 154.66 31.28 154.74 31.69 154.83 31.5 154.91 32.07 154.99 31.34 155.07 32.29 155.15 31.47 155.24 32.37 155.32 30.39 155.4 31.57 155.48 30.95 155.56 32.01 155.65 31.32 155.73 31.45 155.81 31.13 155.89 31.7 155.97 31.66 156.06 31.96 156.14 31.38 156.22 31.34 156.3 31.23 156.38 31.49 156.46 31.21 156.55 31.43 156.63 30.94 156.71 31.41 156.79 31.96 156.87 31.91 156.96 32.03 157.04 31.51 157.12 31.18 157.2 31.81 157.28 31.16 157.37 31.32 157.45 31.52 157.53 32.25 157.61 31.66 157.69 31.84 157.78 31.49 157.86 31.91 157.94 32.38 158.02 31.65 158.1 30.59 158.19 31.47 158.27 31.24 158.35 32.22 158.43 31.82 158.51 32.51 158.59 31.66 158.68 30.78 158.76 31.52 158.84 31.5 158.92 29.84 159 31.28 159.09 30.94 159.17 32.72 159.25 30.36 159.33 31.65 159.41 31.38 159.5 31.79 159.58 31.5 159.66 31.75 159.74 31.55 159.82 31.68 159.91 31.35 159.99 31.47 160.07 30.84 160.15 31.7 160.23 31.93 160.31 32.47 160.4 31.92 160.48 31.41 160.56 31.97 160.64 31.99 160.72 32.1 160.81 32.03 160.89 30.91 160.97 30.98 161.05 31.03 161.13 31.49 161.22 30.46 161.3 32.47 161.38 31.31 161.46 30.78 161.54 32.44 161.63 31.13 161.71 31.55 161.79 31.19 161.87 31.15 161.95 32.41 162.04 31.91 162.12 31.92 162.2 31.82 162.28 32.33 162.36 31.51 162.44 31.62 162.53 31.06 162.61 31.54 162.69 31.22 162.77 32.02 162.85 31.54 162.94 32.14 163.02 31.37 163.1 32.06 163.18 31.88 163.26 31.61 163.35 32.02 163.43 32.14 163.51 32.34 163.59 31.2 163.67 31.64 163.76 32.29 163.84 32.1 163.92 31.37 164 31.42 164.08 31.74 164.17 31.63 164.25 31.3 164.33 31.48 164.41 32.06 164.49 32.11 164.57 32.14 164.66 30.86 164.74 31.76 164.82 30.82 164.9 31.53 164.98 31.67 165.07 30.64 165.15 31.96 165.23 31.86 165.31 32.17 165.39 30.8 165.48 32.05 165.56 31.4 165.64 31.89 165.72 32.16 165.8 32.96 165.89 32.13 165.97 32.66 166.05 30.94 166.13 31.37 166.21 32.01 166.29 32.02 166.38 31.6 166.46 31.41 166.54 31.76 166.62 31.37 166.7 31.72 166.79 32.17 166.87 31.18 166.95 32.02 167.03 32.32 167.11 31.26 167.2 31.81 167.28 31.16 167.36 32.47 167.44 32.51 167.52 32.18 167.61 32.06 167.69 31.6 167.77 31.28 167.85 32.28 167.93 31.39 168.02 31.94 168.1 32.16 168.18 31.26 168.26 31.08 168.34 31.86 168.42 31.5 168.51 31.46 168.59 31.25 168.67 31.75 168.75 31.46 168.83 31.77 168.92 31.59 169 32.06 169.08 30.46 169.16 31.76 169.24 32.51 169.33 31.25 169.41 31.54 169.49 31.42 169.57 32.82 169.65 33.01 169.74 31.51 169.82 30.84 169.9 31.76 169.98 31.34 170.06 31.23 170.15 32.5 170.23 31.3 170.31 31.57 170.39 30.47 170.47 32.37 170.55 31.32 170.64 30.5 170.72 31.84 170.8 31.83 170.88 32.53 170.96 31.58 171.05 31.63 171.13 31.93 171.21 32.29 171.29 31.64 171.37 32.29 171.46 32 171.54 31.74 171.62 31.36 171.7 31.43 171.78 31.97 171.87 31.85 171.95 32.25 172.03 32.05 172.11 31.32 172.19 31.19 172.27 32.06 172.36 31.96 172.44 31.47 172.52 31.41 172.6 31.67 172.68 31.64 172.77 32.26 172.85 31.6 172.93 31.96 173.01 32.56 173.09 31.7 173.18 31.6 173.26 31.25 173.34 31.77 173.42 32.04 173.5 31.76 173.59 32.05 173.67 32.12 173.75 32.85 173.83 31.79 173.91 32.55 174 31.77 174.08 31 174.16 31.99 174.24 31.94 174.32 31.85 174.4 32.09 174.49 31.59 174.57 32.37 174.65 31.97 174.73 31.88 174.81 31.77 174.9 31.21 174.98 32.37 175.06 31.99 175.14 32.05 175.22 31.89 175.31 30.89 175.39 30.97 175.47 31.99 175.55 31.25 175.63 30.63 175.72 31.36 175.8 32.01 175.88 31.55 175.96 32.07 176.04 33.05 176.12 32.36 176.21 31.5 176.29 32.35 176.37 31.83 176.45 30.48 176.53 31.22 176.62 32.61 176.7 31.16 176.78 31.25 176.86 31.07 176.94 31.85 177.03 32.04 177.11 32.24 177.19 31.69 177.27 32.01 177.35 31.33 177.44 32.19 177.52 32.04 177.6 31.25 177.68 32.33 177.76 31.91 177.85 31.17 177.93 32.18 178.01 31.53 178.09 31.12 178.17 31.29 178.25 31.15 178.34 31.38 178.42 31.58 178.5 31.76 178.58 32.32 178.66 31.65 178.75 31.52 178.83 31.02 178.91 31.12 178.99 30.53 179.07 32.31 179.16 32.01 179.24 32.25 179.32 31.87 179.4 31.41 179.48 32.09 179.57 32.15 179.65 31.76 179.73 32.6 179.81 32.03 179.89 32.23 179.98 32.28 180.06 30.76 180.14 32.12 180.22 32.24 180.3 32.13 180.38 32.03 180.47 31.64 180.55 31.68 180.63 31.48 180.71 32.04 180.79 31.53 180.88 31.63 180.96 31.1 181.04 32.23 181.12 31.78 181.2 31.4 181.29 32.26 181.37 31.55 181.45 32.1 181.53 31.74 181.61 31.2 181.7 31 181.78 31.76 181.86 31.42 181.94 32.14 182.02 32.7 182.1 31.65 182.19 31.63 182.27 31.66 182.35 32.52 182.43 32.02 182.51 32.69 182.6 32.41 182.68 31.23 182.76 30.72 182.84 30.53 182.92 31.65 183.01 31.25 183.09 32.38 183.17 31.48 183.25 31.38 183.33 32.16 183.42 32.16 183.5 32.56 183.58 31.47 183.66 31.34 183.74 31.66 183.83 31.82 183.91 30.8 183.99 31.66 184.07 31.67 184.15 33.35 184.23 32.4 184.32 31.66 184.4 31.12 184.48 32.25 184.56 31.78 184.64 30.78 184.73 31.73 184.81 32.04 184.89 31.38 184.97 31.45 185.05 31.97 185.14 31.12 185.22 31.16 185.3 32.02 185.38 31.96 185.46 31.7 185.55 31.98 185.63 31.28 185.71 31.76 185.79 31.17 185.87 31.88 185.96 31.51 186.04 31.81 186.12 31.36 186.2 31.88 186.28 31.97 186.36 31.51 186.45 30.93 186.53 31.26 186.61 31.51 186.69 31.25 186.77 31.74 186.86 31.93 186.94 31.31 187.02 32.02 187.1 32.54 187.18 32.76 187.27 32.75 187.35 32.1 187.43 31.45 187.51 31.66 187.59 31.55 187.68 30.87 187.76 31.52 187.84 31.05 187.92 31.87 188 31.15 188.08 31.39 188.17 32.02 188.25 31.92 188.33 31.84 188.41 32.14 188.49 32.17 188.58 32.08 188.66 30.99 188.74 31.71 188.82 32.22 188.9 31.88 188.99 31.19 189.07 31.95 189.15 30.76 189.23 31.43 189.31 32.08 189.4 32.51 189.48 31.19 189.56 30.85 189.64 31.4 189.72 31.37 189.81 31.81 189.89 31.15 189.97 31.17 190.05 32.18 190.13 32.09 190.21 31.74 190.3 32.66 190.38 32.65 190.46 31.67 190.54 31.69 190.62 32.27 190.71 32.41 190.79 31.82 190.87 31.51 190.95 31.08 191.03 32.09 191.12 32.29 191.2 32.15 191.28 32.34 191.36 32.1 191.44 31.94 191.53 32.09 191.61 32.1 191.69 31.86 191.77 31.97 191.85 31.82 191.94 31.65 192.02 32.08 192.1 32.48 192.18 31.66 192.26 32.57 192.34 32.17 192.43 32.45 192.51 31.51 192.59 32.37 192.67 32.46 192.75 31.47 192.84 31.91 192.92 32.37 193 31.8"/>
      </g>
    </g>
  </g>
  <g class="guide ylabels" font-size="2.82" font-family="'PT Sans Caption','Helvetica Neue','Helvetica',sans-serif" fill="#6C606B" id="fig-4ff3b3b48d154ba09addaf5efc872721-element-11">
    <text x="26.17" y="98.72" text-anchor="end" dy="0.35em">-12×10⁴</text>
    <text x="26.17" y="81.89" text-anchor="end" dy="0.35em">-11×10⁴</text>
    <text x="26.17" y="65.07" text-anchor="end" dy="0.35em">-1×10⁴</text>
    <text x="26.17" y="48.25" text-anchor="end" dy="0.35em">-9×10³</text>
    <text x="26.17" y="31.43" text-anchor="end" dy="0.35em">-8×10³</text>
    <text x="26.17" y="14.61" text-anchor="end" dy="0.35em">-7×10³</text>
  </g>
  <g font-size="3.88" font-family="'PT Sans','Helvetica Neue','Helvetica',sans-serif" fill="#564A55" stroke="none" id="fig-4ff3b3b48d154ba09addaf5efc872721-element-12">
    <text x="8.81" y="54.66" text-anchor="middle" dy="0.35em" transform="rotate(-90, 8.81, 56.66)">temp-1.304</text>
  </g>
  <g font-size="3.88" font-family="'PT Sans','Helvetica Neue','Helvetica',sans-serif" fill="#564A55" stroke="none" id="fig-4ff3b3b48d154ba09addaf5efc872721-element-13">
    <text x="111.08" y="10.61" text-anchor="middle">Total Energies (T = 1.304) vs. Simulation Step for Liquid Argon</text>
  </g>
</g>
<defs>
<clipPath id="fig-4ff3b3b48d154ba09addaf5efc872721-element-5">
  <path d="M27.16,12.61 L 195 12.61 195 100.72 27.16 100.72" />
</clipPath
></defs>
</svg>
