<?xml version="1.0" encoding="UTF-8"?>
<svg xmlns="http://www.w3.org/2000/svg"
     xmlns:xlink="http://www.w3.org/1999/xlink"
     xmlns:gadfly="http://www.gadflyjl.org/ns"
     version="1.2"
     width="200mm" height="120mm" viewBox="0 0 200 120"
     stroke="none"
     fill="#000000"
     stroke-width="0.3"
     font-size="3.88"
>
<g class="plotroot xscalable yscalable" id="fig-906af332872441318857edec2f9f09e9-element-1">
  <g font-size="3.88" font-family="'PT Sans','Helvetica Neue','Helvetica',sans-serif" fill="#564A55" stroke="none" id="fig-906af332872441318857edec2f9f09e9-element-2">
    <text x="87.89" y="112" text-anchor="middle">Velocity</text>
  </g>
  <g class="guide xlabels" font-size="2.82" font-family="'PT Sans Caption','Helvetica Neue','Helvetica',sans-serif" fill="#6C606B" id="fig-906af332872441318857edec2f9f09e9-element-3">
    <text x="35.14" y="104.39" text-anchor="middle">0.0</text>
    <text x="35.14" y="104.39" text-anchor="middle">0.1</text>
    <text x="35.14" y="104.39" text-anchor="middle">0.2</text>
    <text x="35.14" y="104.39" text-anchor="middle">0.3</text>
    <text x="35.14" y="104.39" text-anchor="middle">0.4</text>
    <text x="35.14" y="104.39" text-anchor="middle">0.5</text>
    <text x="35.14" y="104.39" text-anchor="middle">0.6</text>
    <text x="35.14" y="104.39" text-anchor="middle">0.7</text>
    <text x="35.14" y="104.39" text-anchor="middle">0.8</text>
    <text x="35.14" y="104.39" text-anchor="middle">0.9</text>
    <text x="35.14" y="104.39" text-anchor="middle">1.0</text>
  </g>
  <g class="guide colorkey" id="fig-906af332872441318857edec2f9f09e9-element-4">
    <g class="color_Measured_speed_histogram_for_T_=_1.069" id="fig-906af332872441318857edec2f9f09e9-element-5">
      <g fill="#4C404B" font-size="2.82" font-family="'PT Sans','Helvetica Neue','Helvetica',sans-serif" id="fig-906af332872441318857edec2f9f09e9-element-6">
        <text x="146.44" y="58.48" dy="0.35em">Measured speed histogram for T = 1.069</text>
      </g>
      <g fill="#00BFFF" stroke="none" id="fig-906af332872441318857edec2f9f09e9-element-7">
        <rect x="143.63" y="57.57" width="1.81" height="1.81"/>
      </g>
    </g>
    <g fill="#362A35" font-size="3.88" font-family="'PT Sans','Helvetica Neue','Helvetica',sans-serif" stroke="none" id="fig-906af332872441318857edec2f9f09e9-element-8">
      <text x="143.63" y="54.66">Color</text>
    </g>
  </g>
  <g clip-path="url(#fig-906af332872441318857edec2f9f09e9-element-10)" id="fig-906af332872441318857edec2f9f09e9-element-9">
    <g pointer-events="visible" opacity="1" fill="none" stroke="none" class="guide background" id="fig-906af332872441318857edec2f9f09e9-element-11">
      <rect x="33.14" y="12.61" width="109.48" height="88.1"/>
    </g>
    <g class="guide ygridlines xfixed" stroke-dasharray="0.5,0.5" stroke-width="0.2" stroke="#D0D0E0" id="fig-906af332872441318857edec2f9f09e9-element-12">
      <path fill="none" d="M33.14,98.71 L 142.63 98.71"/>
      <path fill="none" d="M33.14,70.68 L 142.63 70.68"/>
      <path fill="none" d="M33.14,42.65 L 142.63 42.65"/>
      <path fill="none" d="M33.14,14.61 L 142.63 14.61"/>
    </g>
    <g class="guide xgridlines yfixed" stroke-dasharray="0.5,0.5" stroke-width="0.2" stroke="#D0D0E0" id="fig-906af332872441318857edec2f9f09e9-element-13">
      <path fill="none" d="M35.14,12.61 L 35.14 100.71"/>
      <path fill="none" d="M35.14,12.61 L 35.14 100.71"/>
      <path fill="none" d="M35.14,12.61 L 35.14 100.71"/>
      <path fill="none" d="M35.14,12.61 L 35.14 100.71"/>
      <path fill="none" d="M35.14,12.61 L 35.14 100.71"/>
      <path fill="none" d="M35.14,12.61 L 35.14 100.71"/>
      <path fill="none" d="M35.14,12.61 L 35.14 100.71"/>
      <path fill="none" d="M35.14,12.61 L 35.14 100.71"/>
      <path fill="none" d="M35.14,12.61 L 35.14 100.71"/>
      <path fill="none" d="M35.14,12.61 L 35.14 100.71"/>
      <path fill="none" d="M35.14,12.61 L 35.14 100.71"/>
    </g>
    <g class="plotpanel" id="fig-906af332872441318857edec2f9f09e9-element-14">
      <g stroke="none" fill="#00BFFF" shape-rendering="crispEdges" id="fig-906af332872441318857edec2f9f09e9-element-15">
        <g class="geometry" id="fig-906af332872441318857edec2f9f09e9-element-16">
          <rect x="35.14" y="27.9" width="1.05" height="70.82" fill="#00BFFF"/>
          <rect x="36.2" y="98.71" width="1.05" height="0.01" fill="#00BFFF"/>
          <rect x="37.25" y="98.71" width="1.05" height="0.01" fill="#00BFFF"/>
          <rect x="38.31" y="98.71" width="1.05" height="0.01" fill="#00BFFF"/>
          <rect x="39.36" y="98.71" width="1.05" height="0.01" fill="#00BFFF"/>
          <rect x="40.42" y="98.71" width="1.05" height="0.01" fill="#00BFFF"/>
          <rect x="41.47" y="98.71" width="1.05" height="0.01" fill="#00BFFF"/>
          <rect x="42.53" y="98.71" width="1.05" height="0.01" fill="#00BFFF"/>
          <rect x="43.58" y="98.71" width="1.05" height="0.01" fill="#00BFFF"/>
          <rect x="44.64" y="98.71" width="1.05" height="0.01" fill="#00BFFF"/>
          <rect x="45.69" y="98.71" width="1.05" height="0.01" fill="#00BFFF"/>
          <rect x="46.75" y="98.71" width="1.05" height="0.01" fill="#00BFFF"/>
          <rect x="47.8" y="98.71" width="1.05" height="0.01" fill="#00BFFF"/>
          <rect x="48.86" y="98.71" width="1.05" height="0.01" fill="#00BFFF"/>
          <rect x="49.91" y="98.71" width="1.05" height="0.01" fill="#00BFFF"/>
          <rect x="50.97" y="98.71" width="1.05" height="0.01" fill="#00BFFF"/>
          <rect x="52.02" y="98.71" width="1.05" height="0.01" fill="#00BFFF"/>
          <rect x="53.08" y="98.71" width="1.05" height="0.01" fill="#00BFFF"/>
          <rect x="54.13" y="98.71" width="1.05" height="0.01" fill="#00BFFF"/>
          <rect x="55.19" y="98.71" width="1.05" height="0.01" fill="#00BFFF"/>
          <rect x="56.24" y="98.71" width="1.05" height="0.01" fill="#00BFFF"/>
          <rect x="57.3" y="98.71" width="1.05" height="0.01" fill="#00BFFF"/>
          <rect x="58.35" y="98.71" width="1.05" height="0.01" fill="#00BFFF"/>
          <rect x="59.41" y="98.71" width="1.05" height="0.01" fill="#00BFFF"/>
          <rect x="60.46" y="98.71" width="1.05" height="0.01" fill="#00BFFF"/>
          <rect x="61.52" y="98.71" width="1.05" height="0.01" fill="#00BFFF"/>
          <rect x="62.57" y="98.71" width="1.05" height="0.01" fill="#00BFFF"/>
          <rect x="63.63" y="98.71" width="1.05" height="0.01" fill="#00BFFF"/>
          <rect x="64.68" y="98.71" width="1.05" height="0.01" fill="#00BFFF"/>
          <rect x="65.73" y="98.71" width="1.05" height="0.01" fill="#00BFFF"/>
          <rect x="66.79" y="98.71" width="1.05" height="0.01" fill="#00BFFF"/>
          <rect x="67.84" y="98.71" width="1.05" height="0.01" fill="#00BFFF"/>
          <rect x="68.9" y="98.71" width="1.05" height="0.01" fill="#00BFFF"/>
          <rect x="69.95" y="98.71" width="1.05" height="0.01" fill="#00BFFF"/>
          <rect x="71.01" y="98.71" width="1.05" height="0.01" fill="#00BFFF"/>
          <rect x="72.06" y="98.71" width="1.05" height="0.01" fill="#00BFFF"/>
          <rect x="73.12" y="98.71" width="1.05" height="0.01" fill="#00BFFF"/>
          <rect x="74.17" y="98.71" width="1.05" height="0.01" fill="#00BFFF"/>
          <rect x="75.23" y="98.71" width="1.05" height="0.01" fill="#00BFFF"/>
          <rect x="76.28" y="98.71" width="1.05" height="0.01" fill="#00BFFF"/>
          <rect x="77.34" y="98.71" width="1.05" height="0.01" fill="#00BFFF"/>
          <rect x="78.39" y="98.71" width="1.05" height="0.01" fill="#00BFFF"/>
          <rect x="79.45" y="98.71" width="1.05" height="0.01" fill="#00BFFF"/>
          <rect x="80.5" y="98.71" width="1.05" height="0.01" fill="#00BFFF"/>
          <rect x="81.56" y="98.71" width="1.05" height="0.01" fill="#00BFFF"/>
          <rect x="82.61" y="98.71" width="1.05" height="0.01" fill="#00BFFF"/>
          <rect x="83.67" y="98.71" width="1.05" height="0.01" fill="#00BFFF"/>
          <rect x="84.72" y="98.71" width="1.05" height="0.01" fill="#00BFFF"/>
          <rect x="85.78" y="98.71" width="1.05" height="0.01" fill="#00BFFF"/>
          <rect x="86.83" y="98.71" width="1.05" height="0.01" fill="#00BFFF"/>
          <rect x="87.89" y="98.71" width="1.05" height="0.01" fill="#00BFFF"/>
          <rect x="88.94" y="98.71" width="1.05" height="0.01" fill="#00BFFF"/>
          <rect x="90" y="98.71" width="1.05" height="0.01" fill="#00BFFF"/>
          <rect x="91.05" y="98.71" width="1.05" height="0.01" fill="#00BFFF"/>
          <rect x="92.11" y="98.71" width="1.05" height="0.01" fill="#00BFFF"/>
          <rect x="93.16" y="98.71" width="1.05" height="0.01" fill="#00BFFF"/>
          <rect x="94.21" y="98.71" width="1.05" height="0.01" fill="#00BFFF"/>
          <rect x="95.27" y="98.71" width="1.05" height="0.01" fill="#00BFFF"/>
          <rect x="96.32" y="98.71" width="1.05" height="0.01" fill="#00BFFF"/>
          <rect x="97.38" y="98.71" width="1.05" height="0.01" fill="#00BFFF"/>
          <rect x="98.43" y="98.71" width="1.05" height="0.01" fill="#00BFFF"/>
          <rect x="99.49" y="98.71" width="1.05" height="0.01" fill="#00BFFF"/>
          <rect x="100.54" y="98.71" width="1.05" height="0.01" fill="#00BFFF"/>
          <rect x="101.6" y="98.71" width="1.05" height="0.01" fill="#00BFFF"/>
          <rect x="102.65" y="98.71" width="1.05" height="0.01" fill="#00BFFF"/>
          <rect x="103.71" y="98.71" width="1.05" height="0.01" fill="#00BFFF"/>
          <rect x="104.76" y="98.71" width="1.05" height="0.01" fill="#00BFFF"/>
          <rect x="105.82" y="98.71" width="1.05" height="0.01" fill="#00BFFF"/>
          <rect x="106.87" y="98.71" width="1.05" height="0.01" fill="#00BFFF"/>
          <rect x="107.93" y="98.71" width="1.05" height="0.01" fill="#00BFFF"/>
          <rect x="108.98" y="98.71" width="1.05" height="0.01" fill="#00BFFF"/>
          <rect x="110.04" y="98.71" width="1.05" height="0.01" fill="#00BFFF"/>
          <rect x="111.09" y="98.71" width="1.05" height="0.01" fill="#00BFFF"/>
          <rect x="112.15" y="98.71" width="1.05" height="0.01" fill="#00BFFF"/>
          <rect x="113.2" y="98.71" width="1.05" height="0.01" fill="#00BFFF"/>
          <rect x="114.26" y="98.71" width="1.05" height="0.01" fill="#00BFFF"/>
          <rect x="115.31" y="98.71" width="1.05" height="0.01" fill="#00BFFF"/>
          <rect x="116.37" y="98.71" width="1.05" height="0.01" fill="#00BFFF"/>
          <rect x="117.42" y="98.71" width="1.05" height="0.01" fill="#00BFFF"/>
          <rect x="118.48" y="98.71" width="1.05" height="0.01" fill="#00BFFF"/>
          <rect x="119.53" y="98.71" width="1.05" height="0.01" fill="#00BFFF"/>
          <rect x="120.59" y="98.71" width="1.05" height="0.01" fill="#00BFFF"/>
          <rect x="121.64" y="98.71" width="1.05" height="0.01" fill="#00BFFF"/>
          <rect x="122.69" y="98.71" width="1.05" height="0.01" fill="#00BFFF"/>
          <rect x="123.75" y="98.71" width="1.05" height="0.01" fill="#00BFFF"/>
          <rect x="124.8" y="98.71" width="1.05" height="0.01" fill="#00BFFF"/>
          <rect x="125.86" y="98.71" width="1.05" height="0.01" fill="#00BFFF"/>
          <rect x="126.91" y="98.71" width="1.05" height="0.01" fill="#00BFFF"/>
          <rect x="127.97" y="98.71" width="1.05" height="0.01" fill="#00BFFF"/>
          <rect x="129.02" y="98.71" width="1.05" height="0.01" fill="#00BFFF"/>
          <rect x="130.08" y="98.71" width="1.05" height="0.01" fill="#00BFFF"/>
          <rect x="131.13" y="98.71" width="1.05" height="0.01" fill="#00BFFF"/>
          <rect x="132.19" y="98.71" width="1.05" height="0.01" fill="#00BFFF"/>
          <rect x="133.24" y="98.71" width="1.05" height="0.01" fill="#00BFFF"/>
          <rect x="134.3" y="98.71" width="1.05" height="0.01" fill="#00BFFF"/>
          <rect x="135.35" y="98.71" width="1.05" height="0.01" fill="#00BFFF"/>
          <rect x="136.41" y="98.71" width="1.05" height="0.01" fill="#00BFFF"/>
          <rect x="137.46" y="98.71" width="1.05" height="0.01" fill="#00BFFF"/>
          <rect x="138.52" y="98.71" width="1.05" height="0.01" fill="#00BFFF"/>
          <rect x="139.57" y="98.63" width="1.05" height="0.08" fill="#00BFFF"/>
        </g>
      </g>
    </g>
  </g>
  <g class="guide ylabels" font-size="2.82" font-family="'PT Sans Caption','Helvetica Neue','Helvetica',sans-serif" fill="#6C606B" id="fig-906af332872441318857edec2f9f09e9-element-17">
    <text x="32.14" y="98.71" text-anchor="end" dy="0.35em">0</text>
    <text x="32.14" y="70.68" text-anchor="end" dy="0.35em">5.0×10⁻²⁹</text>
    <text x="32.14" y="42.65" text-anchor="end" dy="0.35em">1.0×10⁻²⁸</text>
    <text x="32.14" y="14.61" text-anchor="end" dy="0.35em">1.50×10⁻²⁸</text>
  </g>
  <g font-size="3.88" font-family="'PT Sans','Helvetica Neue','Helvetica',sans-serif" fill="#564A55" stroke="none" id="fig-906af332872441318857edec2f9f09e9-element-18">
    <text x="8.81" y="54.66" text-anchor="middle" dy="0.35em" transform="rotate(-90, 8.81, 56.66)">Probability</text>
  </g>
  <g font-size="3.88" font-family="'PT Sans','Helvetica Neue','Helvetica',sans-serif" fill="#564A55" stroke="none" id="fig-906af332872441318857edec2f9f09e9-element-19">
    <text x="87.89" y="10.61" text-anchor="middle">Temperature Distribution for T=1.069 vs. Boltzmann Distribution</text>
  </g>
</g>
<defs>
<clipPath id="fig-906af332872441318857edec2f9f09e9-element-10">
  <path d="M33.14,12.61 L 142.63 12.61 142.63 100.71 33.14 100.71" />
</clipPath
></defs>
</svg>
