<?xml version="1.0" encoding="UTF-8"?>
<svg xmlns="http://www.w3.org/2000/svg"
     xmlns:xlink="http://www.w3.org/1999/xlink"
     xmlns:gadfly="http://www.gadflyjl.org/ns"
     version="1.2"
     width="200mm" height="120mm" viewBox="0 0 200 120"
     stroke="none"
     fill="#000000"
     stroke-width="0.3"
     font-size="3.88"
>
<g class="plotroot xscalable yscalable" id="fig-1022fd333ff144f99547d613643b691c-element-1">
  <g font-size="3.88" font-family="'PT Sans','Helvetica Neue','Helvetica',sans-serif" fill="#564A55" stroke="none" id="fig-1022fd333ff144f99547d613643b691c-element-2">
    <text x="90.22" y="112" text-anchor="middle">Width of Pocket</text>
  </g>
  <g class="guide xlabels" font-size="2.82" font-family="'PT Sans Caption','Helvetica Neue','Helvetica',sans-serif" fill="#6C606B" id="fig-1022fd333ff144f99547d613643b691c-element-3">
    <text x="20.63" y="104.39" text-anchor="middle">0.17</text>
    <text x="48.47" y="104.39" text-anchor="middle">0.18</text>
    <text x="76.3" y="104.39" text-anchor="middle">0.19</text>
    <text x="104.13" y="104.39" text-anchor="middle">0.20</text>
    <text x="131.97" y="104.39" text-anchor="middle">0.21</text>
    <text x="159.8" y="104.39" text-anchor="middle">0.22</text>
  </g>
  <g class="guide colorkey" id="fig-1022fd333ff144f99547d613643b691c-element-4">
    <g fill="#4C404B" font-size="2.82" font-family="'PT Sans','Helvetica Neue','Helvetica',sans-serif" id="fig-1022fd333ff144f99547d613643b691c-element-5">
      <text x="165.61" y="56.66" dy="0.35em" id="fig-1022fd333ff144f99547d613643b691c-element-6" class="color_Escape_Probability">Escape Probability</text>
      <text x="165.61" y="60.29" dy="0.35em" id="fig-1022fd333ff144f99547d613643b691c-element-7" class="color_Confinement_Probability">Confinement Probability</text>
    </g>
    <g stroke="none" id="fig-1022fd333ff144f99547d613643b691c-element-8">
      <rect x="162.8" y="55.76" width="1.81" height="1.81" id="fig-1022fd333ff144f99547d613643b691c-element-9" class="color_Escape_Probability" fill="#00BFFF"/>
      <rect x="162.8" y="59.38" width="1.81" height="1.81" id="fig-1022fd333ff144f99547d613643b691c-element-10" class="color_Confinement_Probability" fill="#D4CA3A"/>
    </g>
    <g fill="#362A35" font-size="3.88" font-family="'PT Sans','Helvetica Neue','Helvetica',sans-serif" stroke="none" id="fig-1022fd333ff144f99547d613643b691c-element-11">
      <text x="162.8" y="52.84" id="fig-1022fd333ff144f99547d613643b691c-element-12">Color</text>
    </g>
  </g>
  <g clip-path="url(#fig-1022fd333ff144f99547d613643b691c-element-14)" id="fig-1022fd333ff144f99547d613643b691c-element-13">
    <g pointer-events="visible" opacity="1" fill="none" stroke="none" class="guide background" id="fig-1022fd333ff144f99547d613643b691c-element-15">
      <rect x="18.63" y="12.61" width="143.17" height="88.1" id="fig-1022fd333ff144f99547d613643b691c-element-16"/>
    </g>
    <g class="guide ygridlines xfixed" stroke-dasharray="0.5,0.5" stroke-width="0.2" stroke="#D0D0E0" id="fig-1022fd333ff144f99547d613643b691c-element-17">
      <path fill="none" d="M18.63,98.71 L 161.8 98.71" id="fig-1022fd333ff144f99547d613643b691c-element-18"/>
      <path fill="none" d="M18.63,56.66 L 161.8 56.66" id="fig-1022fd333ff144f99547d613643b691c-element-19"/>
      <path fill="none" d="M18.63,14.61 L 161.8 14.61" id="fig-1022fd333ff144f99547d613643b691c-element-20"/>
    </g>
    <g class="guide xgridlines yfixed" stroke-dasharray="0.5,0.5" stroke-width="0.2" stroke="#D0D0E0" id="fig-1022fd333ff144f99547d613643b691c-element-21">
      <path fill="none" d="M20.63,12.61 L 20.63 100.71" id="fig-1022fd333ff144f99547d613643b691c-element-22"/>
      <path fill="none" d="M48.47,12.61 L 48.47 100.71" id="fig-1022fd333ff144f99547d613643b691c-element-23"/>
      <path fill="none" d="M76.3,12.61 L 76.3 100.71" id="fig-1022fd333ff144f99547d613643b691c-element-24"/>
      <path fill="none" d="M104.13,12.61 L 104.13 100.71" id="fig-1022fd333ff144f99547d613643b691c-element-25"/>
      <path fill="none" d="M131.97,12.61 L 131.97 100.71" id="fig-1022fd333ff144f99547d613643b691c-element-26"/>
      <path fill="none" d="M159.8,12.61 L 159.8 100.71" id="fig-1022fd333ff144f99547d613643b691c-element-27"/>
    </g>
    <g class="plotpanel" id="fig-1022fd333ff144f99547d613643b691c-element-28">
      <g class="geometry" id="fig-1022fd333ff144f99547d613643b691c-element-29">
        <g class="color_Confinement_Probability" stroke="#FFFFFF" stroke-width="0.3" fill="#D4CA3A" id="fig-1022fd333ff144f99547d613643b691c-element-30">
          <circle cx="48.47" cy="16.82" r="0.9" id="fig-1022fd333ff144f99547d613643b691c-element-31"/>
          <circle cx="51.25" cy="16.78" r="0.9" id="fig-1022fd333ff144f99547d613643b691c-element-32"/>
          <circle cx="54.03" cy="16.76" r="0.9" id="fig-1022fd333ff144f99547d613643b691c-element-33"/>
          <circle cx="56.82" cy="16.71" r="0.9" id="fig-1022fd333ff144f99547d613643b691c-element-34"/>
          <circle cx="59.6" cy="16.7" r="0.9" id="fig-1022fd333ff144f99547d613643b691c-element-35"/>
          <circle cx="62.38" cy="16.65" r="0.9" id="fig-1022fd333ff144f99547d613643b691c-element-36"/>
          <circle cx="65.17" cy="16.63" r="0.9" id="fig-1022fd333ff144f99547d613643b691c-element-37"/>
          <circle cx="67.95" cy="16.59" r="0.9" id="fig-1022fd333ff144f99547d613643b691c-element-38"/>
          <circle cx="70.73" cy="16.58" r="0.9" id="fig-1022fd333ff144f99547d613643b691c-element-39"/>
          <circle cx="73.52" cy="16.55" r="0.9" id="fig-1022fd333ff144f99547d613643b691c-element-40"/>
          <circle cx="76.3" cy="16.55" r="0.9" id="fig-1022fd333ff144f99547d613643b691c-element-41"/>
          <circle cx="79.08" cy="16.53" r="0.9" id="fig-1022fd333ff144f99547d613643b691c-element-42"/>
          <circle cx="81.87" cy="16.53" r="0.9" id="fig-1022fd333ff144f99547d613643b691c-element-43"/>
          <circle cx="84.65" cy="16.51" r="0.9" id="fig-1022fd333ff144f99547d613643b691c-element-44"/>
          <circle cx="87.43" cy="16.52" r="0.9" id="fig-1022fd333ff144f99547d613643b691c-element-45"/>
          <circle cx="90.22" cy="16.51" r="0.9" id="fig-1022fd333ff144f99547d613643b691c-element-46"/>
          <circle cx="93" cy="16.52" r="0.9" id="fig-1022fd333ff144f99547d613643b691c-element-47"/>
          <circle cx="95.78" cy="16.51" r="0.9" id="fig-1022fd333ff144f99547d613643b691c-element-48"/>
          <circle cx="98.57" cy="16.51" r="0.9" id="fig-1022fd333ff144f99547d613643b691c-element-49"/>
          <circle cx="101.35" cy="16.5" r="0.9" id="fig-1022fd333ff144f99547d613643b691c-element-50"/>
          <circle cx="104.13" cy="16.5" r="0.9" id="fig-1022fd333ff144f99547d613643b691c-element-51"/>
          <circle cx="106.92" cy="16.48" r="0.9" id="fig-1022fd333ff144f99547d613643b691c-element-52"/>
          <circle cx="109.7" cy="16.48" r="0.9" id="fig-1022fd333ff144f99547d613643b691c-element-53"/>
          <circle cx="112.48" cy="16.45" r="0.9" id="fig-1022fd333ff144f99547d613643b691c-element-54"/>
          <circle cx="115.27" cy="16.45" r="0.9" id="fig-1022fd333ff144f99547d613643b691c-element-55"/>
          <circle cx="118.05" cy="16.41" r="0.9" id="fig-1022fd333ff144f99547d613643b691c-element-56"/>
          <circle cx="120.83" cy="16.4" r="0.9" id="fig-1022fd333ff144f99547d613643b691c-element-57"/>
          <circle cx="123.62" cy="16.36" r="0.9" id="fig-1022fd333ff144f99547d613643b691c-element-58"/>
          <circle cx="126.4" cy="16.35" r="0.9" id="fig-1022fd333ff144f99547d613643b691c-element-59"/>
          <circle cx="129.18" cy="16.31" r="0.9" id="fig-1022fd333ff144f99547d613643b691c-element-60"/>
          <circle cx="131.97" cy="16.31" r="0.9" id="fig-1022fd333ff144f99547d613643b691c-element-61"/>
          <circle cx="134.75" cy="16.27" r="0.9" id="fig-1022fd333ff144f99547d613643b691c-element-62"/>
          <circle cx="137.53" cy="16.27" r="0.9" id="fig-1022fd333ff144f99547d613643b691c-element-63"/>
          <circle cx="140.32" cy="16.25" r="0.9" id="fig-1022fd333ff144f99547d613643b691c-element-64"/>
          <circle cx="143.1" cy="16.24" r="0.9" id="fig-1022fd333ff144f99547d613643b691c-element-65"/>
          <circle cx="145.88" cy="16.23" r="0.9" id="fig-1022fd333ff144f99547d613643b691c-element-66"/>
          <circle cx="148.67" cy="16.23" r="0.9" id="fig-1022fd333ff144f99547d613643b691c-element-67"/>
          <circle cx="151.45" cy="16.22" r="0.9" id="fig-1022fd333ff144f99547d613643b691c-element-68"/>
          <circle cx="154.23" cy="16.23" r="0.9" id="fig-1022fd333ff144f99547d613643b691c-element-69"/>
          <circle cx="157.02" cy="16.22" r="0.9" id="fig-1022fd333ff144f99547d613643b691c-element-70"/>
          <circle cx="159.8" cy="16.22" r="0.9" id="fig-1022fd333ff144f99547d613643b691c-element-71"/>
        </g>
      </g>
      <g class="geometry" id="fig-1022fd333ff144f99547d613643b691c-element-72">
        <g class="color_Escape_Probability" stroke="#FFFFFF" stroke-width="0.3" fill="#00BFFF" id="fig-1022fd333ff144f99547d613643b691c-element-73">
          <circle cx="48.47" cy="96.5" r="0.9" id="fig-1022fd333ff144f99547d613643b691c-element-74"/>
          <circle cx="51.25" cy="96.55" r="0.9" id="fig-1022fd333ff144f99547d613643b691c-element-75"/>
          <circle cx="54.03" cy="96.56" r="0.9" id="fig-1022fd333ff144f99547d613643b691c-element-76"/>
          <circle cx="56.82" cy="96.61" r="0.9" id="fig-1022fd333ff144f99547d613643b691c-element-77"/>
          <circle cx="59.6" cy="96.63" r="0.9" id="fig-1022fd333ff144f99547d613643b691c-element-78"/>
          <circle cx="62.38" cy="96.68" r="0.9" id="fig-1022fd333ff144f99547d613643b691c-element-79"/>
          <circle cx="65.17" cy="96.69" r="0.9" id="fig-1022fd333ff144f99547d613643b691c-element-80"/>
          <circle cx="67.95" cy="96.73" r="0.9" id="fig-1022fd333ff144f99547d613643b691c-element-81"/>
          <circle cx="70.73" cy="96.74" r="0.9" id="fig-1022fd333ff144f99547d613643b691c-element-82"/>
          <circle cx="73.52" cy="96.77" r="0.9" id="fig-1022fd333ff144f99547d613643b691c-element-83"/>
          <circle cx="76.3" cy="96.78" r="0.9" id="fig-1022fd333ff144f99547d613643b691c-element-84"/>
          <circle cx="79.08" cy="96.8" r="0.9" id="fig-1022fd333ff144f99547d613643b691c-element-85"/>
          <circle cx="81.87" cy="96.8" r="0.9" id="fig-1022fd333ff144f99547d613643b691c-element-86"/>
          <circle cx="84.65" cy="96.81" r="0.9" id="fig-1022fd333ff144f99547d613643b691c-element-87"/>
          <circle cx="87.43" cy="96.81" r="0.9" id="fig-1022fd333ff144f99547d613643b691c-element-88"/>
          <circle cx="90.22" cy="96.81" r="0.9" id="fig-1022fd333ff144f99547d613643b691c-element-89"/>
          <circle cx="93" cy="96.81" r="0.9" id="fig-1022fd333ff144f99547d613643b691c-element-90"/>
          <circle cx="95.78" cy="96.82" r="0.9" id="fig-1022fd333ff144f99547d613643b691c-element-91"/>
          <circle cx="98.57" cy="96.81" r="0.9" id="fig-1022fd333ff144f99547d613643b691c-element-92"/>
          <circle cx="101.35" cy="96.82" r="0.9" id="fig-1022fd333ff144f99547d613643b691c-element-93"/>
          <circle cx="104.13" cy="96.82" r="0.9" id="fig-1022fd333ff144f99547d613643b691c-element-94"/>
          <circle cx="106.92" cy="96.84" r="0.9" id="fig-1022fd333ff144f99547d613643b691c-element-95"/>
          <circle cx="109.7" cy="96.84" r="0.9" id="fig-1022fd333ff144f99547d613643b691c-element-96"/>
          <circle cx="112.48" cy="96.88" r="0.9" id="fig-1022fd333ff144f99547d613643b691c-element-97"/>
          <circle cx="115.27" cy="96.88" r="0.9" id="fig-1022fd333ff144f99547d613643b691c-element-98"/>
          <circle cx="118.05" cy="96.92" r="0.9" id="fig-1022fd333ff144f99547d613643b691c-element-99"/>
          <circle cx="120.83" cy="96.92" r="0.9" id="fig-1022fd333ff144f99547d613643b691c-element-100"/>
          <circle cx="123.62" cy="96.97" r="0.9" id="fig-1022fd333ff144f99547d613643b691c-element-101"/>
          <circle cx="126.4" cy="96.98" r="0.9" id="fig-1022fd333ff144f99547d613643b691c-element-102"/>
          <circle cx="129.18" cy="97.01" r="0.9" id="fig-1022fd333ff144f99547d613643b691c-element-103"/>
          <circle cx="131.97" cy="97.02" r="0.9" id="fig-1022fd333ff144f99547d613643b691c-element-104"/>
          <circle cx="134.75" cy="97.05" r="0.9" id="fig-1022fd333ff144f99547d613643b691c-element-105"/>
          <circle cx="137.53" cy="97.06" r="0.9" id="fig-1022fd333ff144f99547d613643b691c-element-106"/>
          <circle cx="140.32" cy="97.08" r="0.9" id="fig-1022fd333ff144f99547d613643b691c-element-107"/>
          <circle cx="143.1" cy="97.09" r="0.9" id="fig-1022fd333ff144f99547d613643b691c-element-108"/>
          <circle cx="145.88" cy="97.1" r="0.9" id="fig-1022fd333ff144f99547d613643b691c-element-109"/>
          <circle cx="148.67" cy="97.1" r="0.9" id="fig-1022fd333ff144f99547d613643b691c-element-110"/>
          <circle cx="151.45" cy="97.11" r="0.9" id="fig-1022fd333ff144f99547d613643b691c-element-111"/>
          <circle cx="154.23" cy="97.1" r="0.9" id="fig-1022fd333ff144f99547d613643b691c-element-112"/>
          <circle cx="157.02" cy="97.11" r="0.9" id="fig-1022fd333ff144f99547d613643b691c-element-113"/>
          <circle cx="159.8" cy="97.11" r="0.9" id="fig-1022fd333ff144f99547d613643b691c-element-114"/>
        </g>
      </g>
      <g stroke-width="0.3" fill="none" class="geometry color_Confinement_Probability" stroke="#D4CA3A" id="fig-1022fd333ff144f99547d613643b691c-element-115">
        <path fill="none" d="M48.47,16.82 L 51.25 16.78 54.03 16.76 56.82 16.71 59.6 16.7 62.38 16.65 65.17 16.63 67.95 16.59 70.73 16.58 73.52 16.55 76.3 16.55 79.08 16.53 81.87 16.53 84.65 16.51 87.43 16.52 90.22 16.51 93 16.52 95.78 16.51 98.57 16.51 101.35 16.5 104.13 16.5 106.92 16.48 109.7 16.48 112.48 16.45 115.27 16.45 118.05 16.41 120.83 16.4 123.62 16.36 126.4 16.35 129.18 16.31 131.97 16.31 134.75 16.27 137.53 16.27 140.32 16.25 143.1 16.24 145.88 16.23 148.67 16.23 151.45 16.22 154.23 16.23 157.02 16.22 159.8 16.22" id="fig-1022fd333ff144f99547d613643b691c-element-116"/>
      </g>
      <g stroke-width="0.3" fill="none" class="geometry color_Escape_Probability" stroke="#00BFFF" id="fig-1022fd333ff144f99547d613643b691c-element-117">
        <path fill="none" d="M48.47,96.5 L 51.25 96.55 54.03 96.56 56.82 96.61 59.6 96.63 62.38 96.68 65.17 96.69 67.95 96.73 70.73 96.74 73.52 96.77 76.3 96.78 79.08 96.8 81.87 96.8 84.65 96.81 87.43 96.81 90.22 96.81 93 96.81 95.78 96.82 98.57 96.81 101.35 96.82 104.13 96.82 106.92 96.84 109.7 96.84 112.48 96.88 115.27 96.88 118.05 96.92 120.83 96.92 123.62 96.97 126.4 96.98 129.18 97.01 131.97 97.02 134.75 97.05 137.53 97.06 140.32 97.08 143.1 97.09 145.88 97.1 148.67 97.1 151.45 97.11 154.23 97.1 157.02 97.11 159.8 97.11" id="fig-1022fd333ff144f99547d613643b691c-element-118"/>
      </g>
    </g>
  </g>
  <g class="guide ylabels" font-size="2.82" font-family="'PT Sans Caption','Helvetica Neue','Helvetica',sans-serif" fill="#6C606B" id="fig-1022fd333ff144f99547d613643b691c-element-119">
    <text x="17.63" y="98.71" text-anchor="end" dy="0.35em" id="fig-1022fd333ff144f99547d613643b691c-element-120">0.0</text>
    <text x="17.63" y="56.66" text-anchor="end" dy="0.35em" id="fig-1022fd333ff144f99547d613643b691c-element-121">0.5</text>
    <text x="17.63" y="14.61" text-anchor="end" dy="0.35em" id="fig-1022fd333ff144f99547d613643b691c-element-122">1.0</text>
  </g>
  <g font-size="3.88" font-family="'PT Sans','Helvetica Neue','Helvetica',sans-serif" fill="#564A55" stroke="none" id="fig-1022fd333ff144f99547d613643b691c-element-123">
    <text x="8.81" y="54.66" text-anchor="middle" dy="0.35em" transform="rotate(-90, 8.81, 56.66)" id="fig-1022fd333ff144f99547d613643b691c-element-124">Probability</text>
  </g>
  <g font-size="3.88" font-family="'PT Sans','Helvetica Neue','Helvetica',sans-serif" fill="#564A55" stroke="none" id="fig-1022fd333ff144f99547d613643b691c-element-125">
    <text x="90.22" y="10.61" text-anchor="middle" id="fig-1022fd333ff144f99547d613643b691c-element-126">Leakage probability through potential barrier vs. width of pocket</text>
  </g>
</g>
<defs>
<clipPath id="fig-1022fd333ff144f99547d613643b691c-element-14">
  <path d="M18.63,12.61 L 161.8 12.61 161.8 100.71 18.63 100.71" />
</clipPath
></defs>
</svg>
