<?xml version="1.0" encoding="UTF-8"?>
<svg xmlns="http://www.w3.org/2000/svg"
     xmlns:xlink="http://www.w3.org/1999/xlink"
     xmlns:gadfly="http://www.gadflyjl.org/ns"
     version="1.2"
     width="200mm" height="120mm" viewBox="0 0 200 120"
     stroke="none"
     fill="#000000"
     stroke-width="0.3"
     font-size="3.88"
>
<g class="plotroot xscalable yscalable" id="fig-acd505f930b346e2ad956dd89bff62b2-element-1">
  <g font-size="3.88" font-family="'PT Sans','Helvetica Neue','Helvetica',sans-serif" fill="#564A55" stroke="none" id="fig-acd505f930b346e2ad956dd89bff62b2-element-2">
    <text x="73.48" y="112" text-anchor="middle">Number of Steps</text>
  </g>
  <g class="guide xlabels" font-size="2.82" font-family="'PT Sans Caption','Helvetica Neue','Helvetica',sans-serif" fill="#6C606B" id="fig-acd505f930b346e2ad956dd89bff62b2-element-3">
    <text x="21.07" y="104.39" text-anchor="middle">0.000</text>
    <text x="47.27" y="104.39" text-anchor="middle">0.002</text>
    <text x="73.48" y="104.39" text-anchor="middle">0.004</text>
    <text x="99.68" y="104.39" text-anchor="middle">0.006</text>
    <text x="125.88" y="104.39" text-anchor="middle">0.008</text>
  </g>
  <g class="guide colorkey" id="fig-acd505f930b346e2ad956dd89bff62b2-element-4">
    <g fill="#4C404B" font-size="2.82" font-family="'PT Sans','Helvetica Neue','Helvetica',sans-serif" id="fig-acd505f930b346e2ad956dd89bff62b2-element-5">
      <text x="131.69" y="56.66" dy="0.35em" id="fig-acd505f930b346e2ad956dd89bff62b2-element-6" class="color_log(T)">log(T)</text>
      <text x="131.69" y="60.29" dy="0.35em" id="fig-acd505f930b346e2ad956dd89bff62b2-element-7" class="color_Linear_Regression_of_log(T),_a_=_798.0978525631548">Linear Regression of log(T), a = 798.0978525631548</text>
    </g>
    <g stroke="none" id="fig-acd505f930b346e2ad956dd89bff62b2-element-8">
      <rect x="128.88" y="55.76" width="1.81" height="1.81" id="fig-acd505f930b346e2ad956dd89bff62b2-element-9" class="color_log(T)" fill="#00BFFF"/>
      <rect x="128.88" y="59.38" width="1.81" height="1.81" id="fig-acd505f930b346e2ad956dd89bff62b2-element-10" class="color_Linear_Regression_of_log(T),_a_=_798.0978525631548" fill="#D4CA3A"/>
    </g>
    <g fill="#362A35" font-size="3.88" font-family="'PT Sans','Helvetica Neue','Helvetica',sans-serif" stroke="none" id="fig-acd505f930b346e2ad956dd89bff62b2-element-11">
      <text x="128.88" y="52.84" id="fig-acd505f930b346e2ad956dd89bff62b2-element-12">Color</text>
    </g>
  </g>
  <g clip-path="url(#fig-acd505f930b346e2ad956dd89bff62b2-element-14)" id="fig-acd505f930b346e2ad956dd89bff62b2-element-13">
    <g pointer-events="visible" opacity="1" fill="none" stroke="none" class="guide background" id="fig-acd505f930b346e2ad956dd89bff62b2-element-15">
      <rect x="19.07" y="12.61" width="108.81" height="88.1" id="fig-acd505f930b346e2ad956dd89bff62b2-element-16"/>
    </g>
    <g class="guide ygridlines xfixed" stroke-dasharray="0.5,0.5" stroke-width="0.2" stroke="#D0D0E0" id="fig-acd505f930b346e2ad956dd89bff62b2-element-17">
      <path fill="none" d="M19.07,98.71 L 127.88 98.71" id="fig-acd505f930b346e2ad956dd89bff62b2-element-18"/>
      <path fill="none" d="M19.07,70.68 L 127.88 70.68" id="fig-acd505f930b346e2ad956dd89bff62b2-element-19"/>
      <path fill="none" d="M19.07,42.65 L 127.88 42.65" id="fig-acd505f930b346e2ad956dd89bff62b2-element-20"/>
      <path fill="none" d="M19.07,14.61 L 127.88 14.61" id="fig-acd505f930b346e2ad956dd89bff62b2-element-21"/>
    </g>
    <g class="guide xgridlines yfixed" stroke-dasharray="0.5,0.5" stroke-width="0.2" stroke="#D0D0E0" id="fig-acd505f930b346e2ad956dd89bff62b2-element-22">
      <path fill="none" d="M21.07,12.61 L 21.07 100.72" id="fig-acd505f930b346e2ad956dd89bff62b2-element-23"/>
      <path fill="none" d="M47.27,12.61 L 47.27 100.72" id="fig-acd505f930b346e2ad956dd89bff62b2-element-24"/>
      <path fill="none" d="M73.48,12.61 L 73.48 100.72" id="fig-acd505f930b346e2ad956dd89bff62b2-element-25"/>
      <path fill="none" d="M99.68,12.61 L 99.68 100.72" id="fig-acd505f930b346e2ad956dd89bff62b2-element-26"/>
      <path fill="none" d="M125.88,12.61 L 125.88 100.72" id="fig-acd505f930b346e2ad956dd89bff62b2-element-27"/>
    </g>
    <g class="plotpanel" id="fig-acd505f930b346e2ad956dd89bff62b2-element-28">
      <g stroke-width="0.3" fill="none" class="geometry color_Linear_Regression_of_log(T),_a_=_798.0978525631548" stroke="#D4CA3A" id="fig-acd505f930b346e2ad956dd89bff62b2-element-29">
        <path fill="none" d="M26.97,73.28 L 27.62 73.06 28.28 72.83 28.93 72.61 29.59 72.39 30.24 72.16 30.9 71.94 31.55 71.72 32.21 71.49 32.86 71.27 33.52 71.04 34.17 70.82 34.83 70.6 35.48 70.37 36.14 70.15 36.79 69.93 37.45 69.7 38.1 69.48 38.76 69.25 39.41 69.03 40.07 68.81 40.72 68.58 41.38 68.36 42.03 68.14 42.69 67.91 43.34 67.69 44 67.46 44.65 67.24 45.31 67.02 45.96 66.79 46.62 66.57 47.27 66.35 47.93 66.12 48.58 65.9 49.24 65.67 49.89 65.45 50.55 65.23 51.2 65 51.86 64.78 52.51 64.56 53.17 64.33 53.82 64.11 54.48 63.88 55.13 63.66 55.79 63.44 56.44 63.21 57.1 62.99 57.75 62.77 58.41 62.54 59.06 62.32 59.72 62.09 60.37 61.87 61.03 61.65 61.68 61.42 62.34 61.2 62.99 60.98 63.65 60.75 64.31 60.53 64.96 60.3 65.62 60.08 66.27 59.86 66.93 59.63 67.58 59.41 68.24 59.19 68.89 58.96 69.55 58.74 70.2 58.51 70.86 58.29 71.51 58.07 72.17 57.84 72.82 57.62 73.48 57.4 74.13 57.17 74.79 56.95 75.44 56.72 76.1 56.5 76.75 56.28 77.41 56.05 78.06 55.83 78.72 55.61 79.37 55.38 80.03 55.16 80.68 54.93 81.34 54.71 81.99 54.49 82.65 54.26 83.3 54.04 83.96 53.82 84.61 53.59 85.27 53.37 85.92 53.14 86.58 52.92 87.23 52.7 87.89 52.47 88.54 52.25 89.2 52.03 89.85 51.8 90.51 51.58 91.16 51.36 91.82 51.13 92.47 50.91 93.13 50.68 93.78 50.46 94.44 50.24 95.09 50.01 95.75 49.79 96.4 49.57 97.06 49.34 97.71 49.12 98.37 48.89 99.02 48.67 99.68 48.45 100.33 48.22 100.99 48 101.64 47.78 102.3 47.55 102.95 47.33 103.61 47.1 104.26 46.88 104.92 46.66 105.57 46.43 106.23 46.21 106.88 45.99" id="fig-acd505f930b346e2ad956dd89bff62b2-element-30"/>
      </g>
      <g stroke-width="0.3" fill="none" class="geometry color_log(T)" stroke="#00BFFF" id="fig-acd505f930b346e2ad956dd89bff62b2-element-31">
        <path fill="none" d="M26.97,95.98 L 27.62 92.08 28.28 89 28.93 86.38 29.59 84.15 30.24 82.13 30.9 80.51 31.55 78.9 32.21 77.47 32.86 76.3 33.52 75.21 34.17 73.91 34.83 73.16 35.48 72.01 36.14 71.45 36.79 70.35 37.45 69.72 38.1 69.22 38.76 68.29 39.41 67.55 40.07 67.21 40.72 66.82 41.38 66.11 42.03 65.35 42.69 64.81 43.34 64.52 44 64.33 44.65 64.04 45.31 63.57 45.96 62.99 46.62 62.41 47.27 61.92 47.93 61.56 48.58 61.32 49.24 61.18 49.89 61.07 50.55 60.95 51.2 60.77 51.86 60.52 52.51 60.2 53.17 59.82 53.82 59.42 54.48 59.03 55.13 58.66 55.79 58.32 56.44 58.04 57.1 57.81 57.75 57.62 58.41 57.48 59.06 57.38 59.72 57.31 60.37 57.27 61.03 57.24 61.68 57.21 62.34 57.19 62.99 57.16 63.65 57.12 64.31 57.07 64.96 56.99 65.62 56.89 66.27 56.78 66.93 56.64 67.58 56.48 68.24 56.31 68.89 56.12 69.55 55.93 70.2 55.73 70.86 55.53 71.51 55.33 72.17 55.13 72.82 54.94 73.48 54.75 74.13 54.57 74.79 54.41 75.44 54.25 76.1 54.09 76.75 53.95 77.41 53.82 78.06 53.69 78.72 53.58 79.37 53.47 80.03 53.37 80.68 53.27 81.34 53.19 81.99 53.11 82.65 53.04 83.3 52.98 83.96 52.92 84.61 52.87 85.27 52.82 85.92 52.78 86.58 52.75 87.23 52.72 87.89 52.68 88.54 52.66 89.2 52.64 89.85 52.62 90.51 52.6 91.16 52.59 91.82 52.57 92.47 52.56 93.13 52.55 93.78 52.53 94.44 52.52 95.09 52.51 95.75 52.5 96.4 52.48 97.06 52.47 97.71 52.45 98.37 52.44 99.02 52.42 99.68 52.41 100.33 52.39 100.99 52.37 101.64 52.35 102.3 52.33 102.95 52.3 103.61 52.28 104.26 52.25 104.92 52.22 105.57 52.19 106.23 52.16 106.88 52.13" id="fig-acd505f930b346e2ad956dd89bff62b2-element-32"/>
      </g>
    </g>
  </g>
  <g class="guide ylabels" font-size="2.82" font-family="'PT Sans Caption','Helvetica Neue','Helvetica',sans-serif" fill="#6C606B" id="fig-acd505f930b346e2ad956dd89bff62b2-element-33">
    <text x="18.07" y="98.71" text-anchor="end" dy="0.35em" id="fig-acd505f930b346e2ad956dd89bff62b2-element-34">-15</text>
    <text x="18.07" y="70.68" text-anchor="end" dy="0.35em" id="fig-acd505f930b346e2ad956dd89bff62b2-element-35">-10</text>
    <text x="18.07" y="42.65" text-anchor="end" dy="0.35em" id="fig-acd505f930b346e2ad956dd89bff62b2-element-36">-5</text>
    <text x="18.07" y="14.61" text-anchor="end" dy="0.35em" id="fig-acd505f930b346e2ad956dd89bff62b2-element-37">0</text>
  </g>
  <g font-size="3.88" font-family="'PT Sans','Helvetica Neue','Helvetica',sans-serif" fill="#564A55" stroke="none" id="fig-acd505f930b346e2ad956dd89bff62b2-element-38">
    <text x="8.81" y="54.66" text-anchor="middle" dy="0.35em" transform="rotate(-90, 8.81, 56.66)" id="fig-acd505f930b346e2ad956dd89bff62b2-element-39">log(Probability)</text>
  </g>
  <g font-size="3.88" font-family="'PT Sans','Helvetica Neue','Helvetica',sans-serif" fill="#564A55" stroke="none" id="fig-acd505f930b346e2ad956dd89bff62b2-element-40">
    <text x="73.48" y="10.61" text-anchor="middle" id="fig-acd505f930b346e2ad956dd89bff62b2-element-41">Log of Leakage Probability vs. Time for Φground initial state, s = 0.1</text>
  </g>
</g>
<defs>
<clipPath id="fig-acd505f930b346e2ad956dd89bff62b2-element-14">
  <path d="M19.07,12.61 L 127.88 12.61 127.88 100.72 19.07 100.72" />
</clipPath
></defs>
</svg>
