<?xml version="1.0" encoding="UTF-8"?>
<svg xmlns="http://www.w3.org/2000/svg"
     xmlns:xlink="http://www.w3.org/1999/xlink"
     xmlns:gadfly="http://www.gadflyjl.org/ns"
     version="1.2"
     width="200mm" height="120mm" viewBox="0 0 200 120"
     stroke="none"
     fill="#000000"
     stroke-width="0.3"
     font-size="3.88"
>
<g class="plotroot xscalable yscalable" id="fig-40b3a5dd99e54ad7a7362cb2efe70ede-element-1">
  <g font-size="3.88" font-family="'PT Sans','Helvetica Neue','Helvetica',sans-serif" fill="#564A55" stroke="none" id="fig-40b3a5dd99e54ad7a7362cb2efe70ede-element-2">
    <text x="73.48" y="112" text-anchor="middle">Number of Steps</text>
  </g>
  <g class="guide xlabels" font-size="2.82" font-family="'PT Sans Caption','Helvetica Neue','Helvetica',sans-serif" fill="#6C606B" id="fig-40b3a5dd99e54ad7a7362cb2efe70ede-element-3">
    <text x="21.07" y="104.39" text-anchor="middle">0.000</text>
    <text x="47.27" y="104.39" text-anchor="middle">0.002</text>
    <text x="73.48" y="104.39" text-anchor="middle">0.004</text>
    <text x="99.68" y="104.39" text-anchor="middle">0.006</text>
    <text x="125.88" y="104.39" text-anchor="middle">0.008</text>
  </g>
  <g class="guide colorkey" id="fig-40b3a5dd99e54ad7a7362cb2efe70ede-element-4">
    <g fill="#4C404B" font-size="2.82" font-family="'PT Sans','Helvetica Neue','Helvetica',sans-serif" id="fig-40b3a5dd99e54ad7a7362cb2efe70ede-element-5">
      <text x="131.69" y="56.66" dy="0.35em" id="fig-40b3a5dd99e54ad7a7362cb2efe70ede-element-6" class="color_log(T)">log(T)</text>
      <text x="131.69" y="60.29" dy="0.35em" id="fig-40b3a5dd99e54ad7a7362cb2efe70ede-element-7" class="color_Linear_Regression_of_log(T),_a_=_713.0279179076393">Linear Regression of log(T), a = 713.0279179076393</text>
    </g>
    <g stroke="none" id="fig-40b3a5dd99e54ad7a7362cb2efe70ede-element-8">
      <rect x="128.88" y="55.76" width="1.81" height="1.81" id="fig-40b3a5dd99e54ad7a7362cb2efe70ede-element-9" class="color_log(T)" fill="#00BFFF"/>
      <rect x="128.88" y="59.38" width="1.81" height="1.81" id="fig-40b3a5dd99e54ad7a7362cb2efe70ede-element-10" class="color_Linear_Regression_of_log(T),_a_=_713.0279179076393" fill="#D4CA3A"/>
    </g>
    <g fill="#362A35" font-size="3.88" font-family="'PT Sans','Helvetica Neue','Helvetica',sans-serif" stroke="none" id="fig-40b3a5dd99e54ad7a7362cb2efe70ede-element-11">
      <text x="128.88" y="52.84" id="fig-40b3a5dd99e54ad7a7362cb2efe70ede-element-12">Color</text>
    </g>
  </g>
  <g clip-path="url(#fig-40b3a5dd99e54ad7a7362cb2efe70ede-element-14)" id="fig-40b3a5dd99e54ad7a7362cb2efe70ede-element-13">
    <g pointer-events="visible" opacity="1" fill="none" stroke="none" class="guide background" id="fig-40b3a5dd99e54ad7a7362cb2efe70ede-element-15">
      <rect x="19.07" y="12.61" width="108.81" height="88.1" id="fig-40b3a5dd99e54ad7a7362cb2efe70ede-element-16"/>
    </g>
    <g class="guide ygridlines xfixed" stroke-dasharray="0.5,0.5" stroke-width="0.2" stroke="#D0D0E0" id="fig-40b3a5dd99e54ad7a7362cb2efe70ede-element-17">
      <path fill="none" d="M19.07,98.71 L 127.88 98.71" id="fig-40b3a5dd99e54ad7a7362cb2efe70ede-element-18"/>
      <path fill="none" d="M19.07,81.89 L 127.88 81.89" id="fig-40b3a5dd99e54ad7a7362cb2efe70ede-element-19"/>
      <path fill="none" d="M19.07,65.07 L 127.88 65.07" id="fig-40b3a5dd99e54ad7a7362cb2efe70ede-element-20"/>
      <path fill="none" d="M19.07,48.25 L 127.88 48.25" id="fig-40b3a5dd99e54ad7a7362cb2efe70ede-element-21"/>
      <path fill="none" d="M19.07,31.43 L 127.88 31.43" id="fig-40b3a5dd99e54ad7a7362cb2efe70ede-element-22"/>
      <path fill="none" d="M19.07,14.61 L 127.88 14.61" id="fig-40b3a5dd99e54ad7a7362cb2efe70ede-element-23"/>
    </g>
    <g class="guide xgridlines yfixed" stroke-dasharray="0.5,0.5" stroke-width="0.2" stroke="#D0D0E0" id="fig-40b3a5dd99e54ad7a7362cb2efe70ede-element-24">
      <path fill="none" d="M21.07,12.61 L 21.07 100.72" id="fig-40b3a5dd99e54ad7a7362cb2efe70ede-element-25"/>
      <path fill="none" d="M47.27,12.61 L 47.27 100.72" id="fig-40b3a5dd99e54ad7a7362cb2efe70ede-element-26"/>
      <path fill="none" d="M73.48,12.61 L 73.48 100.72" id="fig-40b3a5dd99e54ad7a7362cb2efe70ede-element-27"/>
      <path fill="none" d="M99.68,12.61 L 99.68 100.72" id="fig-40b3a5dd99e54ad7a7362cb2efe70ede-element-28"/>
      <path fill="none" d="M125.88,12.61 L 125.88 100.72" id="fig-40b3a5dd99e54ad7a7362cb2efe70ede-element-29"/>
    </g>
    <g class="plotpanel" id="fig-40b3a5dd99e54ad7a7362cb2efe70ede-element-30">
      <g stroke-width="0.3" fill="none" class="geometry color_Linear_Regression_of_log(T),_a_=_713.0279179076393" stroke="#D4CA3A" id="fig-40b3a5dd99e54ad7a7362cb2efe70ede-element-31">
        <path fill="none" d="M26.97,67.86 L 27.62 67.56 28.28 67.26 28.93 66.96 29.59 66.66 30.24 66.36 30.9 66.06 31.55 65.76 32.21 65.46 32.86 65.16 33.52 64.86 34.17 64.56 34.83 64.26 35.48 63.96 36.14 63.66 36.79 63.36 37.45 63.06 38.1 62.76 38.76 62.46 39.41 62.16 40.07 61.86 40.72 61.56 41.38 61.26 42.03 60.96 42.69 60.66 43.34 60.36 44 60.06 44.65 59.76 45.31 59.46 45.96 59.16 46.62 58.86 47.27 58.56 47.93 58.26 48.58 57.96 49.24 57.66 49.89 57.36 50.55 57.06 51.2 56.76 51.86 56.46 52.51 56.16 53.17 55.86 53.82 55.56 54.48 55.26 55.13 54.96 55.79 54.66 56.44 54.36 57.1 54.06 57.75 53.76 58.41 53.46 59.06 53.16 59.72 52.86 60.37 52.56 61.03 52.26 61.68 51.96 62.34 51.66 62.99 51.36 63.65 51.06 64.31 50.76 64.96 50.46 65.62 50.17 66.27 49.87 66.93 49.57 67.58 49.27 68.24 48.97 68.89 48.67 69.55 48.37 70.2 48.07 70.86 47.77 71.51 47.47 72.17 47.17 72.82 46.87 73.48 46.57 74.13 46.27 74.79 45.97 75.44 45.67 76.1 45.37 76.75 45.07 77.41 44.77 78.06 44.47 78.72 44.17 79.37 43.87 80.03 43.57 80.68 43.27 81.34 42.97 81.99 42.67 82.65 42.37 83.3 42.07 83.96 41.77 84.61 41.47 85.27 41.17 85.92 40.87 86.58 40.57 87.23 40.27 87.89 39.97 88.54 39.67 89.2 39.37 89.85 39.07 90.51 38.77 91.16 38.47 91.82 38.17 92.47 37.87 93.13 37.57 93.78 37.27 94.44 36.97 95.09 36.67 95.75 36.37 96.4 36.07 97.06 35.77 97.71 35.47 98.37 35.17 99.02 34.87 99.68 34.57 100.33 34.27 100.99 33.97 101.64 33.67 102.3 33.37 102.95 33.07 103.61 32.77 104.26 32.47 104.92 32.17 105.57 31.87 106.23 31.57 106.88 31.28" id="fig-40b3a5dd99e54ad7a7362cb2efe70ede-element-32"/>
      </g>
      <g stroke-width="0.3" fill="none" class="geometry color_log(T)" stroke="#00BFFF" id="fig-40b3a5dd99e54ad7a7362cb2efe70ede-element-33">
        <path fill="none" d="M26.97,83.59 L 27.62 80.73 28.28 78.39 28.93 76.38 29.59 74.7 30.24 73.18 30.9 71.78 31.55 70.63 32.21 69.44 32.86 68.51 33.52 67.43 34.17 66.6 34.83 65.86 35.48 64.99 36.14 64.15 36.79 63.48 37.45 62.94 38.1 62.39 38.76 61.76 39.41 61.07 40.07 60.4 40.72 59.81 41.38 59.3 42.03 58.88 42.69 58.5 43.34 58.15 44 57.79 44.65 57.41 45.31 56.99 45.96 56.55 46.62 56.08 47.27 55.61 47.93 55.14 48.58 54.68 49.24 54.23 49.89 53.82 50.55 53.43 51.2 53.07 51.86 52.74 52.51 52.44 53.17 52.16 53.82 51.9 54.48 51.67 55.13 51.45 55.79 51.24 56.44 51.05 57.1 50.86 57.75 50.67 58.41 50.49 59.06 50.31 59.72 50.12 60.37 49.94 61.03 49.75 61.68 49.55 62.34 49.35 62.99 49.14 63.65 48.93 64.31 48.71 64.96 48.48 65.62 48.25 66.27 48.01 66.93 47.77 67.58 47.52 68.24 47.27 68.89 47.02 69.55 46.76 70.2 46.5 70.86 46.24 71.51 45.98 72.17 45.72 72.82 45.46 73.48 45.2 74.13 44.94 74.79 44.68 75.44 44.43 76.1 44.17 76.75 43.92 77.41 43.67 78.06 43.42 78.72 43.17 79.37 42.93 80.03 42.69 80.68 42.45 81.34 42.22 81.99 41.98 82.65 41.76 83.3 41.53 83.96 41.31 84.61 41.09 85.27 40.88 85.92 40.67 86.58 40.46 87.23 40.25 87.89 40.05 88.54 39.86 89.2 39.66 89.85 39.47 90.51 39.28 91.16 39.1 91.82 38.91 92.47 38.74 93.13 38.56 93.78 38.39 94.44 38.22 95.09 38.05 95.75 37.89 96.4 37.72 97.06 37.57 97.71 37.4 98.37 37.25 99.02 37.1 99.68 36.95 100.33 36.8 100.99 36.66 101.64 36.51 102.3 36.37 102.95 36.23 103.61 36.1 104.26 35.96 104.92 35.83 105.57 35.7 106.23 35.57 106.88 35.44" id="fig-40b3a5dd99e54ad7a7362cb2efe70ede-element-34"/>
      </g>
    </g>
  </g>
  <g class="guide ylabels" font-size="2.82" font-family="'PT Sans Caption','Helvetica Neue','Helvetica',sans-serif" fill="#6C606B" id="fig-40b3a5dd99e54ad7a7362cb2efe70ede-element-35">
    <text x="18.07" y="98.71" text-anchor="end" dy="0.35em" id="fig-40b3a5dd99e54ad7a7362cb2efe70ede-element-36">-10</text>
    <text x="18.07" y="81.89" text-anchor="end" dy="0.35em" id="fig-40b3a5dd99e54ad7a7362cb2efe70ede-element-37">-8</text>
    <text x="18.07" y="65.07" text-anchor="end" dy="0.35em" id="fig-40b3a5dd99e54ad7a7362cb2efe70ede-element-38">-6</text>
    <text x="18.07" y="48.25" text-anchor="end" dy="0.35em" id="fig-40b3a5dd99e54ad7a7362cb2efe70ede-element-39">-4</text>
    <text x="18.07" y="31.43" text-anchor="end" dy="0.35em" id="fig-40b3a5dd99e54ad7a7362cb2efe70ede-element-40">-2</text>
    <text x="18.07" y="14.61" text-anchor="end" dy="0.35em" id="fig-40b3a5dd99e54ad7a7362cb2efe70ede-element-41">0</text>
  </g>
  <g font-size="3.88" font-family="'PT Sans','Helvetica Neue','Helvetica',sans-serif" fill="#564A55" stroke="none" id="fig-40b3a5dd99e54ad7a7362cb2efe70ede-element-42">
    <text x="8.81" y="54.66" text-anchor="middle" dy="0.35em" transform="rotate(-90, 8.81, 56.66)" id="fig-40b3a5dd99e54ad7a7362cb2efe70ede-element-43">log(Probability)</text>
  </g>
  <g font-size="3.88" font-family="'PT Sans','Helvetica Neue','Helvetica',sans-serif" fill="#564A55" stroke="none" id="fig-40b3a5dd99e54ad7a7362cb2efe70ede-element-44">
    <text x="73.48" y="10.61" text-anchor="middle" id="fig-40b3a5dd99e54ad7a7362cb2efe70ede-element-45">Log of Leakage Probability vs. Time for Φground initial state, s = 0.001</text>
  </g>
</g>
<defs>
<clipPath id="fig-40b3a5dd99e54ad7a7362cb2efe70ede-element-14">
  <path d="M19.07,12.61 L 127.88 12.61 127.88 100.72 19.07 100.72" />
</clipPath
></defs>
</svg>
