<?xml version="1.0" encoding="UTF-8"?>
<svg xmlns="http://www.w3.org/2000/svg"
     xmlns:xlink="http://www.w3.org/1999/xlink"
     xmlns:gadfly="http://www.gadflyjl.org/ns"
     version="1.2"
     width="200mm" height="120mm" viewBox="0 0 200 120"
     stroke="none"
     fill="#000000"
     stroke-width="0.3"
     font-size="3.88"
>
<g class="plotroot xscalable yscalable" id="fig-3c8028fb38bf4eeb9a0bdd44ff7e472d-element-1">
  <g font-size="3.88" font-family="'PT Sans','Helvetica Neue','Helvetica',sans-serif" fill="#564A55" stroke="none" id="fig-3c8028fb38bf4eeb9a0bdd44ff7e472d-element-2">
    <text x="72.64" y="112" text-anchor="middle">Number of Steps</text>
  </g>
  <g class="guide xlabels" font-size="2.82" font-family="'PT Sans Caption','Helvetica Neue','Helvetica',sans-serif" fill="#6C606B" id="fig-3c8028fb38bf4eeb9a0bdd44ff7e472d-element-3">
    <text x="19.4" y="104.39" text-anchor="middle">0.0000</text>
    <text x="46.02" y="104.39" text-anchor="middle">0.0005</text>
    <text x="72.64" y="104.39" text-anchor="middle">0.0010</text>
    <text x="99.26" y="104.39" text-anchor="middle">0.0015</text>
    <text x="125.88" y="104.39" text-anchor="middle">0.0020</text>
  </g>
  <g class="guide colorkey" id="fig-3c8028fb38bf4eeb9a0bdd44ff7e472d-element-4">
    <g fill="#4C404B" font-size="2.82" font-family="'PT Sans','Helvetica Neue','Helvetica',sans-serif" id="fig-3c8028fb38bf4eeb9a0bdd44ff7e472d-element-5">
      <text x="131.69" y="56.66" dy="0.35em" id="fig-3c8028fb38bf4eeb9a0bdd44ff7e472d-element-6" class="color_log(T)">log(T)</text>
      <text x="131.69" y="60.29" dy="0.35em" id="fig-3c8028fb38bf4eeb9a0bdd44ff7e472d-element-7" class="color_Linear_Regression_of_log(T),_a_=_2885.738123903792">Linear Regression of log(T), a = 2885.738123903792</text>
    </g>
    <g stroke="none" id="fig-3c8028fb38bf4eeb9a0bdd44ff7e472d-element-8">
      <rect x="128.88" y="55.76" width="1.81" height="1.81" id="fig-3c8028fb38bf4eeb9a0bdd44ff7e472d-element-9" class="color_log(T)" fill="#00BFFF"/>
      <rect x="128.88" y="59.38" width="1.81" height="1.81" id="fig-3c8028fb38bf4eeb9a0bdd44ff7e472d-element-10" class="color_Linear_Regression_of_log(T),_a_=_2885.738123903792" fill="#D4CA3A"/>
    </g>
    <g fill="#362A35" font-size="3.88" font-family="'PT Sans','Helvetica Neue','Helvetica',sans-serif" stroke="none" id="fig-3c8028fb38bf4eeb9a0bdd44ff7e472d-element-11">
      <text x="128.88" y="52.84" id="fig-3c8028fb38bf4eeb9a0bdd44ff7e472d-element-12">Color</text>
    </g>
  </g>
  <g clip-path="url(#fig-3c8028fb38bf4eeb9a0bdd44ff7e472d-element-14)" id="fig-3c8028fb38bf4eeb9a0bdd44ff7e472d-element-13">
    <g pointer-events="visible" opacity="1" fill="none" stroke="none" class="guide background" id="fig-3c8028fb38bf4eeb9a0bdd44ff7e472d-element-15">
      <rect x="17.4" y="12.61" width="110.48" height="88.1" id="fig-3c8028fb38bf4eeb9a0bdd44ff7e472d-element-16"/>
    </g>
    <g class="guide ygridlines xfixed" stroke-dasharray="0.5,0.5" stroke-width="0.2" stroke="#D0D0E0" id="fig-3c8028fb38bf4eeb9a0bdd44ff7e472d-element-17">
      <path fill="none" d="M17.4,98.72 L 127.88 98.72" id="fig-3c8028fb38bf4eeb9a0bdd44ff7e472d-element-18"/>
      <path fill="none" d="M17.4,81.89 L 127.88 81.89" id="fig-3c8028fb38bf4eeb9a0bdd44ff7e472d-element-19"/>
      <path fill="none" d="M17.4,65.07 L 127.88 65.07" id="fig-3c8028fb38bf4eeb9a0bdd44ff7e472d-element-20"/>
      <path fill="none" d="M17.4,48.25 L 127.88 48.25" id="fig-3c8028fb38bf4eeb9a0bdd44ff7e472d-element-21"/>
      <path fill="none" d="M17.4,31.43 L 127.88 31.43" id="fig-3c8028fb38bf4eeb9a0bdd44ff7e472d-element-22"/>
      <path fill="none" d="M17.4,14.61 L 127.88 14.61" id="fig-3c8028fb38bf4eeb9a0bdd44ff7e472d-element-23"/>
    </g>
    <g class="guide xgridlines yfixed" stroke-dasharray="0.5,0.5" stroke-width="0.2" stroke="#D0D0E0" id="fig-3c8028fb38bf4eeb9a0bdd44ff7e472d-element-24">
      <path fill="none" d="M19.4,12.61 L 19.4 100.72" id="fig-3c8028fb38bf4eeb9a0bdd44ff7e472d-element-25"/>
      <path fill="none" d="M46.02,12.61 L 46.02 100.72" id="fig-3c8028fb38bf4eeb9a0bdd44ff7e472d-element-26"/>
      <path fill="none" d="M72.64,12.61 L 72.64 100.72" id="fig-3c8028fb38bf4eeb9a0bdd44ff7e472d-element-27"/>
      <path fill="none" d="M99.26,12.61 L 99.26 100.72" id="fig-3c8028fb38bf4eeb9a0bdd44ff7e472d-element-28"/>
      <path fill="none" d="M125.88,12.61 L 125.88 100.72" id="fig-3c8028fb38bf4eeb9a0bdd44ff7e472d-element-29"/>
    </g>
    <g class="plotpanel" id="fig-3c8028fb38bf4eeb9a0bdd44ff7e472d-element-30">
      <g stroke-width="0.3" fill="none" class="geometry color_Linear_Regression_of_log(T),_a_=_2885.738123903792" stroke="#D4CA3A" id="fig-3c8028fb38bf4eeb9a0bdd44ff7e472d-element-31">
        <path fill="none" d="M43.36,84.68 L 46.02 82.25 48.68 79.83 51.34 77.4 54 74.97 56.67 72.54 59.33 70.12 61.99 67.69 64.65 65.26 67.32 62.84 69.98 60.41 72.64 57.98 75.3 55.55 77.96 53.13 80.63 50.7 83.29 48.27 85.95 45.85 88.61 43.42 91.27 40.99 93.94 38.57 96.6 36.14 99.26 33.71 101.92 31.28" id="fig-3c8028fb38bf4eeb9a0bdd44ff7e472d-element-32"/>
      </g>
      <g stroke-width="0.3" fill="none" class="geometry color_log(T)" stroke="#00BFFF" id="fig-3c8028fb38bf4eeb9a0bdd44ff7e472d-element-33">
        <path fill="none" d="M43.36,96.36 L 46.02 88.93 48.68 82.89 51.34 77.93 54 73.59 56.67 69.87 59.33 66.52 61.99 63.73 64.65 60.88 67.32 58.57 69.98 56.01 72.64 54.16 75.3 52.18 77.96 50.01 80.63 48.29 83.29 46.93 85.95 45.48 88.61 43.79 91.27 42.07 93.94 40.54 96.6 39.29 99.26 38.25 101.92 37.32" id="fig-3c8028fb38bf4eeb9a0bdd44ff7e472d-element-34"/>
      </g>
    </g>
  </g>
  <g class="guide ylabels" font-size="2.82" font-family="'PT Sans Caption','Helvetica Neue','Helvetica',sans-serif" fill="#6C606B" id="fig-3c8028fb38bf4eeb9a0bdd44ff7e472d-element-35">
    <text x="16.4" y="98.72" text-anchor="end" dy="0.35em" id="fig-3c8028fb38bf4eeb9a0bdd44ff7e472d-element-36">-8</text>
    <text x="16.4" y="81.89" text-anchor="end" dy="0.35em" id="fig-3c8028fb38bf4eeb9a0bdd44ff7e472d-element-37">-7</text>
    <text x="16.4" y="65.07" text-anchor="end" dy="0.35em" id="fig-3c8028fb38bf4eeb9a0bdd44ff7e472d-element-38">-6</text>
    <text x="16.4" y="48.25" text-anchor="end" dy="0.35em" id="fig-3c8028fb38bf4eeb9a0bdd44ff7e472d-element-39">-5</text>
    <text x="16.4" y="31.43" text-anchor="end" dy="0.35em" id="fig-3c8028fb38bf4eeb9a0bdd44ff7e472d-element-40">-4</text>
    <text x="16.4" y="14.61" text-anchor="end" dy="0.35em" id="fig-3c8028fb38bf4eeb9a0bdd44ff7e472d-element-41">-3</text>
  </g>
  <g font-size="3.88" font-family="'PT Sans','Helvetica Neue','Helvetica',sans-serif" fill="#564A55" stroke="none" id="fig-3c8028fb38bf4eeb9a0bdd44ff7e472d-element-42">
    <text x="8.81" y="54.66" text-anchor="middle" dy="0.35em" transform="rotate(-90, 8.81, 56.66)" id="fig-3c8028fb38bf4eeb9a0bdd44ff7e472d-element-43">log(Probability)</text>
  </g>
  <g font-size="3.88" font-family="'PT Sans','Helvetica Neue','Helvetica',sans-serif" fill="#564A55" stroke="none" id="fig-3c8028fb38bf4eeb9a0bdd44ff7e472d-element-44">
    <text x="72.64" y="10.61" text-anchor="middle" id="fig-3c8028fb38bf4eeb9a0bdd44ff7e472d-element-45">Log of Leakage Probability vs. Time for Φexcited initial state, s = 0.01</text>
  </g>
</g>
<defs>
<clipPath id="fig-3c8028fb38bf4eeb9a0bdd44ff7e472d-element-14">
  <path d="M17.4,12.61 L 127.88 12.61 127.88 100.72 17.4 100.72" />
</clipPath
></defs>
</svg>
