<?xml version="1.0" encoding="UTF-8"?>
<svg xmlns="http://www.w3.org/2000/svg"
     xmlns:xlink="http://www.w3.org/1999/xlink"
     xmlns:gadfly="http://www.gadflyjl.org/ns"
     version="1.2"
     width="200mm" height="120mm" viewBox="0 0 200 120"
     stroke="none"
     fill="#000000"
     stroke-width="0.3"
     font-size="3.88"
>
<g class="plotroot xscalable yscalable" id="fig-ff34de39fab4458181cad835d0ccfd1e-element-1">
  <g font-size="3.88" font-family="'PT Sans','Helvetica Neue','Helvetica',sans-serif" fill="#564A55" stroke="none" id="fig-ff34de39fab4458181cad835d0ccfd1e-element-2">
    <text x="73.48" y="112" text-anchor="middle">Number of Steps</text>
  </g>
  <g class="guide xlabels" font-size="2.82" font-family="'PT Sans Caption','Helvetica Neue','Helvetica',sans-serif" fill="#6C606B" id="fig-ff34de39fab4458181cad835d0ccfd1e-element-3">
    <text x="21.07" y="104.39" text-anchor="middle">0.0000</text>
    <text x="47.27" y="104.39" text-anchor="middle">0.0005</text>
    <text x="73.48" y="104.39" text-anchor="middle">0.0010</text>
    <text x="99.68" y="104.39" text-anchor="middle">0.0015</text>
    <text x="125.88" y="104.39" text-anchor="middle">0.0020</text>
  </g>
  <g class="guide colorkey" id="fig-ff34de39fab4458181cad835d0ccfd1e-element-4">
    <g fill="#4C404B" font-size="2.82" font-family="'PT Sans','Helvetica Neue','Helvetica',sans-serif" id="fig-ff34de39fab4458181cad835d0ccfd1e-element-5">
      <text x="131.69" y="56.66" dy="0.35em" id="fig-ff34de39fab4458181cad835d0ccfd1e-element-6" class="color_log(T)">log(T)</text>
      <text x="131.69" y="60.29" dy="0.35em" id="fig-ff34de39fab4458181cad835d0ccfd1e-element-7" class="color_Linear_Regression_of_log(T),_a_=_4493.536934451829">Linear Regression of log(T), a = 4493.536934451829</text>
    </g>
    <g stroke="none" id="fig-ff34de39fab4458181cad835d0ccfd1e-element-8">
      <rect x="128.88" y="55.76" width="1.81" height="1.81" id="fig-ff34de39fab4458181cad835d0ccfd1e-element-9" class="color_log(T)" fill="#00BFFF"/>
      <rect x="128.88" y="59.38" width="1.81" height="1.81" id="fig-ff34de39fab4458181cad835d0ccfd1e-element-10" class="color_Linear_Regression_of_log(T),_a_=_4493.536934451829" fill="#D4CA3A"/>
    </g>
    <g fill="#362A35" font-size="3.88" font-family="'PT Sans','Helvetica Neue','Helvetica',sans-serif" stroke="none" id="fig-ff34de39fab4458181cad835d0ccfd1e-element-11">
      <text x="128.88" y="52.84" id="fig-ff34de39fab4458181cad835d0ccfd1e-element-12">Color</text>
    </g>
  </g>
  <g clip-path="url(#fig-ff34de39fab4458181cad835d0ccfd1e-element-14)" id="fig-ff34de39fab4458181cad835d0ccfd1e-element-13">
    <g pointer-events="visible" opacity="1" fill="none" stroke="none" class="guide background" id="fig-ff34de39fab4458181cad835d0ccfd1e-element-15">
      <rect x="19.07" y="12.61" width="108.81" height="88.1" id="fig-ff34de39fab4458181cad835d0ccfd1e-element-16"/>
    </g>
    <g class="guide ygridlines xfixed" stroke-dasharray="0.5,0.5" stroke-width="0.2" stroke="#D0D0E0" id="fig-ff34de39fab4458181cad835d0ccfd1e-element-17">
      <path fill="none" d="M19.07,98.71 L 127.88 98.71" id="fig-ff34de39fab4458181cad835d0ccfd1e-element-18"/>
      <path fill="none" d="M19.07,77.69 L 127.88 77.69" id="fig-ff34de39fab4458181cad835d0ccfd1e-element-19"/>
      <path fill="none" d="M19.07,56.66 L 127.88 56.66" id="fig-ff34de39fab4458181cad835d0ccfd1e-element-20"/>
      <path fill="none" d="M19.07,35.64 L 127.88 35.64" id="fig-ff34de39fab4458181cad835d0ccfd1e-element-21"/>
      <path fill="none" d="M19.07,14.61 L 127.88 14.61" id="fig-ff34de39fab4458181cad835d0ccfd1e-element-22"/>
    </g>
    <g class="guide xgridlines yfixed" stroke-dasharray="0.5,0.5" stroke-width="0.2" stroke="#D0D0E0" id="fig-ff34de39fab4458181cad835d0ccfd1e-element-23">
      <path fill="none" d="M21.07,12.61 L 21.07 100.72" id="fig-ff34de39fab4458181cad835d0ccfd1e-element-24"/>
      <path fill="none" d="M47.27,12.61 L 47.27 100.72" id="fig-ff34de39fab4458181cad835d0ccfd1e-element-25"/>
      <path fill="none" d="M73.48,12.61 L 73.48 100.72" id="fig-ff34de39fab4458181cad835d0ccfd1e-element-26"/>
      <path fill="none" d="M99.68,12.61 L 99.68 100.72" id="fig-ff34de39fab4458181cad835d0ccfd1e-element-27"/>
      <path fill="none" d="M125.88,12.61 L 125.88 100.72" id="fig-ff34de39fab4458181cad835d0ccfd1e-element-28"/>
    </g>
    <g class="plotpanel" id="fig-ff34de39fab4458181cad835d0ccfd1e-element-29">
      <g stroke-width="0.3" fill="none" class="geometry color_Linear_Regression_of_log(T),_a_=_4493.536934451829" stroke="#D4CA3A" id="fig-ff34de39fab4458181cad835d0ccfd1e-element-30">
        <path fill="none" d="M44.65,77.74 L 47.27 75.38 49.89 73.02 52.51 70.66 55.13 68.29 57.75 65.93 60.37 63.57 62.99 61.21 65.62 58.85 68.24 56.48 70.86 54.12 73.48 51.76 76.1 49.4 78.72 47.04 81.34 44.67 83.96 42.31 86.58 39.95 89.2 37.59 91.82 35.23 94.44 32.86 97.06 30.5 99.68 28.14 102.3 25.78" id="fig-ff34de39fab4458181cad835d0ccfd1e-element-31"/>
      </g>
      <g stroke-width="0.3" fill="none" class="geometry color_log(T)" stroke="#00BFFF" id="fig-ff34de39fab4458181cad835d0ccfd1e-element-32">
        <path fill="none" d="M44.65,89.46 L 47.27 82.1 49.89 76.29 52.51 71.48 55.13 66.91 57.75 63.34 60.37 59.87 62.99 57.09 65.62 54.5 68.24 51.91 70.86 49.56 73.48 47.94 76.1 45.57 78.72 44.23 81.34 42.02 83.96 40.99 86.58 39.29 89.2 37.49 91.82 36.65 94.44 35.62 97.06 33.95 99.68 32.5 102.3 31.7" id="fig-ff34de39fab4458181cad835d0ccfd1e-element-33"/>
      </g>
    </g>
  </g>
  <g class="guide ylabels" font-size="2.82" font-family="'PT Sans Caption','Helvetica Neue','Helvetica',sans-serif" fill="#6C606B" id="fig-ff34de39fab4458181cad835d0ccfd1e-element-34">
    <text x="18.07" y="98.71" text-anchor="end" dy="0.35em" id="fig-ff34de39fab4458181cad835d0ccfd1e-element-35">-14</text>
    <text x="18.07" y="77.69" text-anchor="end" dy="0.35em" id="fig-ff34de39fab4458181cad835d0ccfd1e-element-36">-12</text>
    <text x="18.07" y="56.66" text-anchor="end" dy="0.35em" id="fig-ff34de39fab4458181cad835d0ccfd1e-element-37">-10</text>
    <text x="18.07" y="35.64" text-anchor="end" dy="0.35em" id="fig-ff34de39fab4458181cad835d0ccfd1e-element-38">-8</text>
    <text x="18.07" y="14.61" text-anchor="end" dy="0.35em" id="fig-ff34de39fab4458181cad835d0ccfd1e-element-39">-6</text>
  </g>
  <g font-size="3.88" font-family="'PT Sans','Helvetica Neue','Helvetica',sans-serif" fill="#564A55" stroke="none" id="fig-ff34de39fab4458181cad835d0ccfd1e-element-40">
    <text x="8.81" y="54.66" text-anchor="middle" dy="0.35em" transform="rotate(-90, 8.81, 56.66)" id="fig-ff34de39fab4458181cad835d0ccfd1e-element-41">log(Probability)</text>
  </g>
  <g font-size="3.88" font-family="'PT Sans','Helvetica Neue','Helvetica',sans-serif" fill="#564A55" stroke="none" id="fig-ff34de39fab4458181cad835d0ccfd1e-element-42">
    <text x="73.48" y="10.61" text-anchor="middle" id="fig-ff34de39fab4458181cad835d0ccfd1e-element-43">Log of Leakage Probability vs. Time for Φexcited initial state, s = 0.1</text>
  </g>
</g>
<defs>
<clipPath id="fig-ff34de39fab4458181cad835d0ccfd1e-element-14">
  <path d="M19.07,12.61 L 127.88 12.61 127.88 100.72 19.07 100.72" />
</clipPath
></defs>
</svg>
