<?xml version="1.0" encoding="UTF-8"?>
<svg xmlns="http://www.w3.org/2000/svg"
     xmlns:xlink="http://www.w3.org/1999/xlink"
     xmlns:gadfly="http://www.gadflyjl.org/ns"
     version="1.2"
     width="200mm" height="120mm" viewBox="0 0 200 120"
     stroke="none"
     fill="#000000"
     stroke-width="0.3"
     font-size="3.88"
>
<g class="plotroot xscalable yscalable" id="fig-69becfcd2c834fe9bacd38bfa71da4d1-element-1">
  <g font-size="3.88" font-family="'PT Sans','Helvetica Neue','Helvetica',sans-serif" fill="#564A55" stroke="none" id="fig-69becfcd2c834fe9bacd38bfa71da4d1-element-2">
    <text x="73.48" y="112" text-anchor="middle">Number of Steps</text>
  </g>
  <g class="guide xlabels" font-size="2.82" font-family="'PT Sans Caption','Helvetica Neue','Helvetica',sans-serif" fill="#6C606B" id="fig-69becfcd2c834fe9bacd38bfa71da4d1-element-3">
    <text x="21.07" y="104.39" text-anchor="middle">0.000</text>
    <text x="47.27" y="104.39" text-anchor="middle">0.002</text>
    <text x="73.48" y="104.39" text-anchor="middle">0.004</text>
    <text x="99.68" y="104.39" text-anchor="middle">0.006</text>
    <text x="125.88" y="104.39" text-anchor="middle">0.008</text>
  </g>
  <g class="guide colorkey" id="fig-69becfcd2c834fe9bacd38bfa71da4d1-element-4">
    <g fill="#4C404B" font-size="2.82" font-family="'PT Sans','Helvetica Neue','Helvetica',sans-serif" id="fig-69becfcd2c834fe9bacd38bfa71da4d1-element-5">
      <text x="131.69" y="56.66" dy="0.35em" id="fig-69becfcd2c834fe9bacd38bfa71da4d1-element-6" class="color_log(T)">log(T)</text>
      <text x="131.69" y="60.29" dy="0.35em" id="fig-69becfcd2c834fe9bacd38bfa71da4d1-element-7" class="color_Linear_Regression_of_log(T),_a_=_732.9719982689662">Linear Regression of log(T), a = 732.9719982689662</text>
    </g>
    <g stroke="none" id="fig-69becfcd2c834fe9bacd38bfa71da4d1-element-8">
      <rect x="128.88" y="55.76" width="1.81" height="1.81" id="fig-69becfcd2c834fe9bacd38bfa71da4d1-element-9" class="color_log(T)" fill="#00BFFF"/>
      <rect x="128.88" y="59.38" width="1.81" height="1.81" id="fig-69becfcd2c834fe9bacd38bfa71da4d1-element-10" class="color_Linear_Regression_of_log(T),_a_=_732.9719982689662" fill="#D4CA3A"/>
    </g>
    <g fill="#362A35" font-size="3.88" font-family="'PT Sans','Helvetica Neue','Helvetica',sans-serif" stroke="none" id="fig-69becfcd2c834fe9bacd38bfa71da4d1-element-11">
      <text x="128.88" y="52.84" id="fig-69becfcd2c834fe9bacd38bfa71da4d1-element-12">Color</text>
    </g>
  </g>
  <g clip-path="url(#fig-69becfcd2c834fe9bacd38bfa71da4d1-element-14)" id="fig-69becfcd2c834fe9bacd38bfa71da4d1-element-13">
    <g pointer-events="visible" opacity="1" fill="none" stroke="none" class="guide background" id="fig-69becfcd2c834fe9bacd38bfa71da4d1-element-15">
      <rect x="19.07" y="12.61" width="108.81" height="88.1" id="fig-69becfcd2c834fe9bacd38bfa71da4d1-element-16"/>
    </g>
    <g class="guide ygridlines xfixed" stroke-dasharray="0.5,0.5" stroke-width="0.2" stroke="#D0D0E0" id="fig-69becfcd2c834fe9bacd38bfa71da4d1-element-17">
      <path fill="none" d="M19.07,98.71 L 127.88 98.71" id="fig-69becfcd2c834fe9bacd38bfa71da4d1-element-18"/>
      <path fill="none" d="M19.07,56.66 L 127.88 56.66" id="fig-69becfcd2c834fe9bacd38bfa71da4d1-element-19"/>
      <path fill="none" d="M19.07,14.61 L 127.88 14.61" id="fig-69becfcd2c834fe9bacd38bfa71da4d1-element-20"/>
    </g>
    <g class="guide xgridlines yfixed" stroke-dasharray="0.5,0.5" stroke-width="0.2" stroke="#D0D0E0" id="fig-69becfcd2c834fe9bacd38bfa71da4d1-element-21">
      <path fill="none" d="M21.07,12.61 L 21.07 100.72" id="fig-69becfcd2c834fe9bacd38bfa71da4d1-element-22"/>
      <path fill="none" d="M47.27,12.61 L 47.27 100.72" id="fig-69becfcd2c834fe9bacd38bfa71da4d1-element-23"/>
      <path fill="none" d="M73.48,12.61 L 73.48 100.72" id="fig-69becfcd2c834fe9bacd38bfa71da4d1-element-24"/>
      <path fill="none" d="M99.68,12.61 L 99.68 100.72" id="fig-69becfcd2c834fe9bacd38bfa71da4d1-element-25"/>
      <path fill="none" d="M125.88,12.61 L 125.88 100.72" id="fig-69becfcd2c834fe9bacd38bfa71da4d1-element-26"/>
    </g>
    <g class="plotpanel" id="fig-69becfcd2c834fe9bacd38bfa71da4d1-element-27">
      <g stroke-width="0.3" fill="none" class="geometry color_Linear_Regression_of_log(T),_a_=_732.9719982689662" stroke="#D4CA3A" id="fig-69becfcd2c834fe9bacd38bfa71da4d1-element-28">
        <path fill="none" d="M26.97,73.24 L 27.62 72.93 28.28 72.62 28.93 72.31 29.59 72.01 30.24 71.7 30.9 71.39 31.55 71.08 32.21 70.77 32.86 70.46 33.52 70.16 34.17 69.85 34.83 69.54 35.48 69.23 36.14 68.92 36.79 68.62 37.45 68.31 38.1 68 38.76 67.69 39.41 67.38 40.07 67.07 40.72 66.77 41.38 66.46 42.03 66.15 42.69 65.84 43.34 65.53 44 65.22 44.65 64.92 45.31 64.61 45.96 64.3 46.62 63.99 47.27 63.68 47.93 63.38 48.58 63.07 49.24 62.76 49.89 62.45 50.55 62.14 51.2 61.83 51.86 61.53 52.51 61.22 53.17 60.91 53.82 60.6 54.48 60.29 55.13 59.98 55.79 59.68 56.44 59.37 57.1 59.06 57.75 58.75 58.41 58.44 59.06 58.14 59.72 57.83 60.37 57.52 61.03 57.21 61.68 56.9 62.34 56.59 62.99 56.29 63.65 55.98 64.31 55.67 64.96 55.36 65.62 55.05 66.27 54.75 66.93 54.44 67.58 54.13 68.24 53.82 68.89 53.51 69.55 53.2 70.2 52.9 70.86 52.59 71.51 52.28 72.17 51.97 72.82 51.66 73.48 51.35 74.13 51.05 74.79 50.74 75.44 50.43 76.1 50.12 76.75 49.81 77.41 49.51 78.06 49.2 78.72 48.89 79.37 48.58 80.03 48.27 80.68 47.96 81.34 47.66 81.99 47.35 82.65 47.04 83.3 46.73 83.96 46.42 84.61 46.11 85.27 45.81 85.92 45.5 86.58 45.19 87.23 44.88 87.89 44.57 88.54 44.27 89.2 43.96 89.85 43.65 90.51 43.34 91.16 43.03 91.82 42.72 92.47 42.42 93.13 42.11 93.78 41.8 94.44 41.49 95.09 41.18 95.75 40.87 96.4 40.57 97.06 40.26 97.71 39.95 98.37 39.64 99.02 39.33 99.68 39.03 100.33 38.72 100.99 38.41 101.64 38.1 102.3 37.79 102.95 37.48 103.61 37.18 104.26 36.87 104.92 36.56 105.57 36.25 106.23 35.94 106.88 35.63" id="fig-69becfcd2c834fe9bacd38bfa71da4d1-element-29"/>
      </g>
      <g stroke-width="0.3" fill="none" class="geometry color_log(T)" stroke="#00BFFF" id="fig-69becfcd2c834fe9bacd38bfa71da4d1-element-30">
        <path fill="none" d="M26.97,92.61 L 27.62 88.91 28.28 86.01 28.93 83.56 29.59 81.52 30.24 79.71 30.9 78.15 31.55 76.62 32.21 75.39 32.86 74.14 33.52 73.18 34.17 72.02 34.83 71.11 35.48 70.39 36.14 69.52 36.79 68.59 37.45 67.82 38.1 67.24 38.76 66.73 39.41 66.16 40.07 65.49 40.72 64.78 41.38 64.09 42.03 63.49 42.69 62.99 43.34 62.58 44 62.23 44.65 61.91 45.31 61.58 45.96 61.23 46.62 60.85 47.27 60.42 47.93 59.97 48.58 59.49 49.24 59.01 49.89 58.53 50.55 58.06 51.2 57.62 51.86 57.2 52.51 56.82 53.17 56.47 53.82 56.15 54.48 55.86 55.13 55.6 55.79 55.36 56.44 55.15 57.1 54.95 57.75 54.77 58.41 54.6 59.06 54.45 59.72 54.29 60.37 54.14 61.03 53.98 61.68 53.83 62.34 53.67 62.99 53.51 63.65 53.35 64.31 53.18 64.96 53 65.62 52.81 66.27 52.62 66.93 52.42 67.58 52.2 68.24 51.98 68.89 51.76 69.55 51.52 70.2 51.28 70.86 51.03 71.51 50.78 72.17 50.53 72.82 50.28 73.48 50.02 74.13 49.76 74.79 49.51 75.44 49.25 76.1 49 76.75 48.74 77.41 48.49 78.06 48.24 78.72 47.99 79.37 47.74 80.03 47.49 80.68 47.25 81.34 47 81.99 46.77 82.65 46.53 83.3 46.29 83.96 46.06 84.61 45.83 85.27 45.61 85.92 45.39 86.58 45.16 87.23 44.95 87.89 44.74 88.54 44.54 89.2 44.34 89.85 44.14 90.51 43.95 91.16 43.76 91.82 43.58 92.47 43.4 93.13 43.23 93.78 43.06 94.44 42.89 95.09 42.73 95.75 42.57 96.4 42.42 97.06 42.27 97.71 42.12 98.37 41.97 99.02 41.83 99.68 41.69 100.33 41.55 100.99 41.42 101.64 41.29 102.3 41.16 102.95 41.04 103.61 40.91 104.26 40.79 104.92 40.67 105.57 40.55 106.23 40.43 106.88 40.32" id="fig-69becfcd2c834fe9bacd38bfa71da4d1-element-31"/>
      </g>
    </g>
  </g>
  <g class="guide ylabels" font-size="2.82" font-family="'PT Sans Caption','Helvetica Neue','Helvetica',sans-serif" fill="#6C606B" id="fig-69becfcd2c834fe9bacd38bfa71da4d1-element-32">
    <text x="18.07" y="98.71" text-anchor="end" dy="0.35em" id="fig-69becfcd2c834fe9bacd38bfa71da4d1-element-33">-10</text>
    <text x="18.07" y="56.66" text-anchor="end" dy="0.35em" id="fig-69becfcd2c834fe9bacd38bfa71da4d1-element-34">-5</text>
    <text x="18.07" y="14.61" text-anchor="end" dy="0.35em" id="fig-69becfcd2c834fe9bacd38bfa71da4d1-element-35">0</text>
  </g>
  <g font-size="3.88" font-family="'PT Sans','Helvetica Neue','Helvetica',sans-serif" fill="#564A55" stroke="none" id="fig-69becfcd2c834fe9bacd38bfa71da4d1-element-36">
    <text x="8.81" y="54.66" text-anchor="middle" dy="0.35em" transform="rotate(-90, 8.81, 56.66)" id="fig-69becfcd2c834fe9bacd38bfa71da4d1-element-37">log(Probability)</text>
  </g>
  <g font-size="3.88" font-family="'PT Sans','Helvetica Neue','Helvetica',sans-serif" fill="#564A55" stroke="none" id="fig-69becfcd2c834fe9bacd38bfa71da4d1-element-38">
    <text x="73.48" y="10.61" text-anchor="middle" id="fig-69becfcd2c834fe9bacd38bfa71da4d1-element-39">Log of Leakage Probability vs. Time for Φground initial state, s = 0.01</text>
  </g>
</g>
<defs>
<clipPath id="fig-69becfcd2c834fe9bacd38bfa71da4d1-element-14">
  <path d="M19.07,12.61 L 127.88 12.61 127.88 100.72 19.07 100.72" />
</clipPath
></defs>
</svg>
