<?xml version="1.0" encoding="UTF-8"?>
<svg xmlns="http://www.w3.org/2000/svg"
     xmlns:xlink="http://www.w3.org/1999/xlink"
     xmlns:gadfly="http://www.gadflyjl.org/ns"
     version="1.2"
     width="200mm" height="120mm" viewBox="0 0 200 120"
     stroke="none"
     fill="#000000"
     stroke-width="0.3"
     font-size="3.88"
>
<g class="plotroot xscalable yscalable" id="fig-a475ef0f231145de9344e55e2dbf3131-element-1">
  <g font-size="3.88" font-family="'PT Sans','Helvetica Neue','Helvetica',sans-serif" fill="#564A55" stroke="none" id="fig-a475ef0f231145de9344e55e2dbf3131-element-2">
    <text x="81.34" y="112" text-anchor="middle">Potential Energy at Step Function</text>
  </g>
  <g class="guide xlabels" font-size="2.82" font-family="'PT Sans Caption','Helvetica Neue','Helvetica',sans-serif" fill="#6C606B" id="fig-a475ef0f231145de9344e55e2dbf3131-element-3">
    <text x="20.63" y="104.39" text-anchor="middle">0</text>
    <text x="44.91" y="104.39" text-anchor="middle">1.0×10⁴</text>
    <text x="69.2" y="104.39" text-anchor="middle">2.0×10⁴</text>
    <text x="93.48" y="104.39" text-anchor="middle">3.0×10⁴</text>
    <text x="117.76" y="104.39" text-anchor="middle">4.0×10⁴</text>
    <text x="142.05" y="104.39" text-anchor="middle">5.0×10⁴</text>
  </g>
  <g class="guide colorkey" id="fig-a475ef0f231145de9344e55e2dbf3131-element-4">
    <g fill="#4C404B" font-size="2.82" font-family="'PT Sans','Helvetica Neue','Helvetica',sans-serif" id="fig-a475ef0f231145de9344e55e2dbf3131-element-5">
      <text x="147.86" y="53.04" dy="0.35em" id="fig-a475ef0f231145de9344e55e2dbf3131-element-6" class="color_Transmission_Probability,_Experimental">Transmission Probability, Experimental</text>
      <text x="147.86" y="56.66" dy="0.35em" id="fig-a475ef0f231145de9344e55e2dbf3131-element-7" class="color_Reflection_Probability,_Experimental">Reflection Probability, Experimental</text>
      <text x="147.86" y="60.29" dy="0.35em" id="fig-a475ef0f231145de9344e55e2dbf3131-element-8" class="color_Transmission_Probability,_Theoretical">Transmission Probability, Theoretical</text>
      <text x="147.86" y="63.92" dy="0.35em" id="fig-a475ef0f231145de9344e55e2dbf3131-element-9" class="color_Reflection_Probability,_Theoretical">Reflection Probability, Theoretical</text>
    </g>
    <g stroke="none" id="fig-a475ef0f231145de9344e55e2dbf3131-element-10">
      <rect x="145.05" y="52.13" width="1.81" height="1.81" id="fig-a475ef0f231145de9344e55e2dbf3131-element-11" class="color_Transmission_Probability,_Experimental" fill="#00BFFF"/>
      <rect x="145.05" y="55.76" width="1.81" height="1.81" id="fig-a475ef0f231145de9344e55e2dbf3131-element-12" class="color_Reflection_Probability,_Experimental" fill="#D4CA3A"/>
      <rect x="145.05" y="59.38" width="1.81" height="1.81" id="fig-a475ef0f231145de9344e55e2dbf3131-element-13" class="color_Transmission_Probability,_Theoretical" fill="#FF5EA0"/>
      <rect x="145.05" y="63.01" width="1.81" height="1.81" id="fig-a475ef0f231145de9344e55e2dbf3131-element-14" class="color_Reflection_Probability,_Theoretical" fill="#00E5B2"/>
    </g>
    <g fill="#362A35" font-size="3.88" font-family="'PT Sans','Helvetica Neue','Helvetica',sans-serif" stroke="none" id="fig-a475ef0f231145de9344e55e2dbf3131-element-15">
      <text x="145.05" y="49.22" id="fig-a475ef0f231145de9344e55e2dbf3131-element-16">Color</text>
    </g>
  </g>
  <g clip-path="url(#fig-a475ef0f231145de9344e55e2dbf3131-element-18)" id="fig-a475ef0f231145de9344e55e2dbf3131-element-17">
    <g pointer-events="visible" opacity="1" fill="none" stroke="none" class="guide background" id="fig-a475ef0f231145de9344e55e2dbf3131-element-19">
      <rect x="18.63" y="12.61" width="125.41" height="88.1" id="fig-a475ef0f231145de9344e55e2dbf3131-element-20"/>
    </g>
    <g class="guide ygridlines xfixed" stroke-dasharray="0.5,0.5" stroke-width="0.2" stroke="#D0D0E0" id="fig-a475ef0f231145de9344e55e2dbf3131-element-21">
      <path fill="none" d="M18.63,98.72 L 144.05 98.72" id="fig-a475ef0f231145de9344e55e2dbf3131-element-22"/>
      <path fill="none" d="M18.63,56.66 L 144.05 56.66" id="fig-a475ef0f231145de9344e55e2dbf3131-element-23"/>
      <path fill="none" d="M18.63,14.61 L 144.05 14.61" id="fig-a475ef0f231145de9344e55e2dbf3131-element-24"/>
    </g>
    <g class="guide xgridlines yfixed" stroke-dasharray="0.5,0.5" stroke-width="0.2" stroke="#D0D0E0" id="fig-a475ef0f231145de9344e55e2dbf3131-element-25">
      <path fill="none" d="M20.63,12.61 L 20.63 100.72" id="fig-a475ef0f231145de9344e55e2dbf3131-element-26"/>
      <path fill="none" d="M44.91,12.61 L 44.91 100.72" id="fig-a475ef0f231145de9344e55e2dbf3131-element-27"/>
      <path fill="none" d="M69.2,12.61 L 69.2 100.72" id="fig-a475ef0f231145de9344e55e2dbf3131-element-28"/>
      <path fill="none" d="M93.48,12.61 L 93.48 100.72" id="fig-a475ef0f231145de9344e55e2dbf3131-element-29"/>
      <path fill="none" d="M117.76,12.61 L 117.76 100.72" id="fig-a475ef0f231145de9344e55e2dbf3131-element-30"/>
      <path fill="none" d="M142.05,12.61 L 142.05 100.72" id="fig-a475ef0f231145de9344e55e2dbf3131-element-31"/>
    </g>
    <g class="plotpanel" id="fig-a475ef0f231145de9344e55e2dbf3131-element-32">
      <g class="geometry" id="fig-a475ef0f231145de9344e55e2dbf3131-element-33">
        <g class="color_Reflection_Probability,_Experimental" stroke="#FFFFFF" stroke-width="0.3" fill="#D4CA3A" id="fig-a475ef0f231145de9344e55e2dbf3131-element-34">
          <circle cx="32.77" cy="98.25" r="0.9" id="fig-a475ef0f231145de9344e55e2dbf3131-element-35"/>
          <circle cx="35.2" cy="98" r="0.9" id="fig-a475ef0f231145de9344e55e2dbf3131-element-36"/>
          <circle cx="37.63" cy="97.67" r="0.9" id="fig-a475ef0f231145de9344e55e2dbf3131-element-37"/>
          <circle cx="40.06" cy="97.23" r="0.9" id="fig-a475ef0f231145de9344e55e2dbf3131-element-38"/>
          <circle cx="42.49" cy="96.66" r="0.9" id="fig-a475ef0f231145de9344e55e2dbf3131-element-39"/>
          <circle cx="44.91" cy="95.92" r="0.9" id="fig-a475ef0f231145de9344e55e2dbf3131-element-40"/>
          <circle cx="47.34" cy="94.94" r="0.9" id="fig-a475ef0f231145de9344e55e2dbf3131-element-41"/>
          <circle cx="49.77" cy="93.61" r="0.9" id="fig-a475ef0f231145de9344e55e2dbf3131-element-42"/>
          <circle cx="52.2" cy="91.72" r="0.9" id="fig-a475ef0f231145de9344e55e2dbf3131-element-43"/>
          <circle cx="54.63" cy="88.94" r="0.9" id="fig-a475ef0f231145de9344e55e2dbf3131-element-44"/>
          <circle cx="57.06" cy="84.85" r="0.9" id="fig-a475ef0f231145de9344e55e2dbf3131-element-45"/>
          <circle cx="59.48" cy="79.04" r="0.9" id="fig-a475ef0f231145de9344e55e2dbf3131-element-46"/>
          <circle cx="61.91" cy="71.35" r="0.9" id="fig-a475ef0f231145de9344e55e2dbf3131-element-47"/>
          <circle cx="64.34" cy="62.06" r="0.9" id="fig-a475ef0f231145de9344e55e2dbf3131-element-48"/>
          <circle cx="66.77" cy="51.96" r="0.9" id="fig-a475ef0f231145de9344e55e2dbf3131-element-49"/>
          <circle cx="69.2" cy="42.09" r="0.9" id="fig-a475ef0f231145de9344e55e2dbf3131-element-50"/>
          <circle cx="71.63" cy="33.43" r="0.9" id="fig-a475ef0f231145de9344e55e2dbf3131-element-51"/>
          <circle cx="74.05" cy="26.58" r="0.9" id="fig-a475ef0f231145de9344e55e2dbf3131-element-52"/>
          <circle cx="76.48" cy="21.67" r="0.9" id="fig-a475ef0f231145de9344e55e2dbf3131-element-53"/>
          <circle cx="78.91" cy="18.48" r="0.9" id="fig-a475ef0f231145de9344e55e2dbf3131-element-54"/>
          <circle cx="81.34" cy="16.58" r="0.9" id="fig-a475ef0f231145de9344e55e2dbf3131-element-55"/>
          <circle cx="83.77" cy="15.54" r="0.9" id="fig-a475ef0f231145de9344e55e2dbf3131-element-56"/>
          <circle cx="86.2" cy="15.02" r="0.9" id="fig-a475ef0f231145de9344e55e2dbf3131-element-57"/>
          <circle cx="88.62" cy="14.78" r="0.9" id="fig-a475ef0f231145de9344e55e2dbf3131-element-58"/>
          <circle cx="91.05" cy="14.68" r="0.9" id="fig-a475ef0f231145de9344e55e2dbf3131-element-59"/>
          <circle cx="93.48" cy="14.64" r="0.9" id="fig-a475ef0f231145de9344e55e2dbf3131-element-60"/>
          <circle cx="95.91" cy="14.62" r="0.9" id="fig-a475ef0f231145de9344e55e2dbf3131-element-61"/>
          <circle cx="98.34" cy="14.61" r="0.9" id="fig-a475ef0f231145de9344e55e2dbf3131-element-62"/>
          <circle cx="100.77" cy="14.61" r="0.9" id="fig-a475ef0f231145de9344e55e2dbf3131-element-63"/>
          <circle cx="103.19" cy="14.61" r="0.9" id="fig-a475ef0f231145de9344e55e2dbf3131-element-64"/>
          <circle cx="105.62" cy="14.61" r="0.9" id="fig-a475ef0f231145de9344e55e2dbf3131-element-65"/>
          <circle cx="108.05" cy="14.61" r="0.9" id="fig-a475ef0f231145de9344e55e2dbf3131-element-66"/>
          <circle cx="110.48" cy="14.61" r="0.9" id="fig-a475ef0f231145de9344e55e2dbf3131-element-67"/>
          <circle cx="112.91" cy="14.61" r="0.9" id="fig-a475ef0f231145de9344e55e2dbf3131-element-68"/>
          <circle cx="115.34" cy="14.61" r="0.9" id="fig-a475ef0f231145de9344e55e2dbf3131-element-69"/>
          <circle cx="117.76" cy="14.61" r="0.9" id="fig-a475ef0f231145de9344e55e2dbf3131-element-70"/>
          <circle cx="120.19" cy="14.61" r="0.9" id="fig-a475ef0f231145de9344e55e2dbf3131-element-71"/>
          <circle cx="122.62" cy="14.61" r="0.9" id="fig-a475ef0f231145de9344e55e2dbf3131-element-72"/>
          <circle cx="125.05" cy="14.61" r="0.9" id="fig-a475ef0f231145de9344e55e2dbf3131-element-73"/>
          <circle cx="127.48" cy="14.61" r="0.9" id="fig-a475ef0f231145de9344e55e2dbf3131-element-74"/>
          <circle cx="129.91" cy="14.61" r="0.9" id="fig-a475ef0f231145de9344e55e2dbf3131-element-75"/>
          <circle cx="132.33" cy="14.61" r="0.9" id="fig-a475ef0f231145de9344e55e2dbf3131-element-76"/>
          <circle cx="134.76" cy="14.61" r="0.9" id="fig-a475ef0f231145de9344e55e2dbf3131-element-77"/>
          <circle cx="137.19" cy="14.61" r="0.9" id="fig-a475ef0f231145de9344e55e2dbf3131-element-78"/>
          <circle cx="139.62" cy="14.61" r="0.9" id="fig-a475ef0f231145de9344e55e2dbf3131-element-79"/>
          <circle cx="142.05" cy="14.61" r="0.9" id="fig-a475ef0f231145de9344e55e2dbf3131-element-80"/>
        </g>
      </g>
      <g class="geometry" id="fig-a475ef0f231145de9344e55e2dbf3131-element-81">
        <g class="color_Transmission_Probability,_Experimental" stroke="#FFFFFF" stroke-width="0.3" fill="#00BFFF" id="fig-a475ef0f231145de9344e55e2dbf3131-element-82">
          <circle cx="32.77" cy="15.07" r="0.9" id="fig-a475ef0f231145de9344e55e2dbf3131-element-83"/>
          <circle cx="35.2" cy="15.33" r="0.9" id="fig-a475ef0f231145de9344e55e2dbf3131-element-84"/>
          <circle cx="37.63" cy="15.66" r="0.9" id="fig-a475ef0f231145de9344e55e2dbf3131-element-85"/>
          <circle cx="40.06" cy="16.1" r="0.9" id="fig-a475ef0f231145de9344e55e2dbf3131-element-86"/>
          <circle cx="42.49" cy="16.66" r="0.9" id="fig-a475ef0f231145de9344e55e2dbf3131-element-87"/>
          <circle cx="44.91" cy="17.4" r="0.9" id="fig-a475ef0f231145de9344e55e2dbf3131-element-88"/>
          <circle cx="47.34" cy="18.38" r="0.9" id="fig-a475ef0f231145de9344e55e2dbf3131-element-89"/>
          <circle cx="49.77" cy="19.72" r="0.9" id="fig-a475ef0f231145de9344e55e2dbf3131-element-90"/>
          <circle cx="52.2" cy="21.61" r="0.9" id="fig-a475ef0f231145de9344e55e2dbf3131-element-91"/>
          <circle cx="54.63" cy="24.38" r="0.9" id="fig-a475ef0f231145de9344e55e2dbf3131-element-92"/>
          <circle cx="57.06" cy="28.47" r="0.9" id="fig-a475ef0f231145de9344e55e2dbf3131-element-93"/>
          <circle cx="59.48" cy="34.28" r="0.9" id="fig-a475ef0f231145de9344e55e2dbf3131-element-94"/>
          <circle cx="61.91" cy="41.98" r="0.9" id="fig-a475ef0f231145de9344e55e2dbf3131-element-95"/>
          <circle cx="64.34" cy="51.27" r="0.9" id="fig-a475ef0f231145de9344e55e2dbf3131-element-96"/>
          <circle cx="66.77" cy="61.37" r="0.9" id="fig-a475ef0f231145de9344e55e2dbf3131-element-97"/>
          <circle cx="69.2" cy="71.23" r="0.9" id="fig-a475ef0f231145de9344e55e2dbf3131-element-98"/>
          <circle cx="71.63" cy="79.89" r="0.9" id="fig-a475ef0f231145de9344e55e2dbf3131-element-99"/>
          <circle cx="74.05" cy="86.75" r="0.9" id="fig-a475ef0f231145de9344e55e2dbf3131-element-100"/>
          <circle cx="76.48" cy="91.65" r="0.9" id="fig-a475ef0f231145de9344e55e2dbf3131-element-101"/>
          <circle cx="78.91" cy="94.85" r="0.9" id="fig-a475ef0f231145de9344e55e2dbf3131-element-102"/>
          <circle cx="81.34" cy="96.75" r="0.9" id="fig-a475ef0f231145de9344e55e2dbf3131-element-103"/>
          <circle cx="83.77" cy="97.78" r="0.9" id="fig-a475ef0f231145de9344e55e2dbf3131-element-104"/>
          <circle cx="86.2" cy="98.3" r="0.9" id="fig-a475ef0f231145de9344e55e2dbf3131-element-105"/>
          <circle cx="88.62" cy="98.55" r="0.9" id="fig-a475ef0f231145de9344e55e2dbf3131-element-106"/>
          <circle cx="91.05" cy="98.65" r="0.9" id="fig-a475ef0f231145de9344e55e2dbf3131-element-107"/>
          <circle cx="93.48" cy="98.69" r="0.9" id="fig-a475ef0f231145de9344e55e2dbf3131-element-108"/>
          <circle cx="95.91" cy="98.71" r="0.9" id="fig-a475ef0f231145de9344e55e2dbf3131-element-109"/>
          <circle cx="98.34" cy="98.71" r="0.9" id="fig-a475ef0f231145de9344e55e2dbf3131-element-110"/>
          <circle cx="100.77" cy="98.71" r="0.9" id="fig-a475ef0f231145de9344e55e2dbf3131-element-111"/>
          <circle cx="103.19" cy="98.71" r="0.9" id="fig-a475ef0f231145de9344e55e2dbf3131-element-112"/>
          <circle cx="105.62" cy="98.71" r="0.9" id="fig-a475ef0f231145de9344e55e2dbf3131-element-113"/>
          <circle cx="108.05" cy="98.71" r="0.9" id="fig-a475ef0f231145de9344e55e2dbf3131-element-114"/>
          <circle cx="110.48" cy="98.71" r="0.9" id="fig-a475ef0f231145de9344e55e2dbf3131-element-115"/>
          <circle cx="112.91" cy="98.71" r="0.9" id="fig-a475ef0f231145de9344e55e2dbf3131-element-116"/>
          <circle cx="115.34" cy="98.71" r="0.9" id="fig-a475ef0f231145de9344e55e2dbf3131-element-117"/>
          <circle cx="117.76" cy="98.71" r="0.9" id="fig-a475ef0f231145de9344e55e2dbf3131-element-118"/>
          <circle cx="120.19" cy="98.71" r="0.9" id="fig-a475ef0f231145de9344e55e2dbf3131-element-119"/>
          <circle cx="122.62" cy="98.71" r="0.9" id="fig-a475ef0f231145de9344e55e2dbf3131-element-120"/>
          <circle cx="125.05" cy="98.71" r="0.9" id="fig-a475ef0f231145de9344e55e2dbf3131-element-121"/>
          <circle cx="127.48" cy="98.71" r="0.9" id="fig-a475ef0f231145de9344e55e2dbf3131-element-122"/>
          <circle cx="129.91" cy="98.71" r="0.9" id="fig-a475ef0f231145de9344e55e2dbf3131-element-123"/>
          <circle cx="132.33" cy="98.71" r="0.9" id="fig-a475ef0f231145de9344e55e2dbf3131-element-124"/>
          <circle cx="134.76" cy="98.71" r="0.9" id="fig-a475ef0f231145de9344e55e2dbf3131-element-125"/>
          <circle cx="137.19" cy="98.71" r="0.9" id="fig-a475ef0f231145de9344e55e2dbf3131-element-126"/>
          <circle cx="139.62" cy="98.71" r="0.9" id="fig-a475ef0f231145de9344e55e2dbf3131-element-127"/>
          <circle cx="142.05" cy="98.71" r="0.9" id="fig-a475ef0f231145de9344e55e2dbf3131-element-128"/>
        </g>
      </g>
      <g stroke-width="0.3" fill="none" class="geometry color_Reflection_Probability,_Theoretical" stroke="#00E5B2" id="fig-a475ef0f231145de9344e55e2dbf3131-element-129">
        <path fill="none" d="M32.77,98.28 L 33.02 98.26 33.26 98.24 33.5 98.22 33.74 98.2 33.99 98.17 34.23 98.15 34.47 98.13 34.72 98.1 34.96 98.08 35.2 98.05 35.44 98.02 35.69 98 35.93 97.97 36.17 97.94 36.42 97.91 36.66 97.88 36.9 97.85 37.14 97.81 37.39 97.78 37.63 97.75 37.87 97.71 38.12 97.68 38.36 97.64 38.6 97.6 38.84 97.56 39.09 97.53 39.33 97.48 39.57 97.44 39.82 97.4 40.06 97.36 40.3 97.31 40.54 97.27 40.79 97.22 41.03 97.17 41.27 97.13 41.52 97.08 41.76 97.02 42 96.97 42.24 96.92 42.49 96.86 42.73 96.81 42.97 96.75 43.21 96.69 43.46 96.63 43.7 96.57 43.94 96.51 44.19 96.44 44.43 96.38 44.67 96.31 44.91 96.24 45.16 96.17 45.4 96.1 45.64 96.02 45.89 95.95 46.13 95.87 46.37 95.79 46.61 95.71 46.86 95.62 47.1 95.54 47.34 95.45 47.59 95.36 47.83 95.27 48.07 95.18 48.31 95.08 48.56 94.98 48.8 94.88 49.04 94.78 49.29 94.67 49.53 94.56 49.77 94.45 50.01 94.34 50.26 94.22 50.5 94.1 50.74 93.98 50.99 93.85 51.23 93.73 51.47 93.59 51.71 93.46 51.96 93.32 52.2 93.18 52.44 93.03 52.69 92.88 52.93 92.73 53.17 92.57 53.41 92.41 53.66 92.24 53.9 92.07 54.14 91.9 54.39 91.72 54.63 91.53 54.87 91.34 55.11 91.15 55.36 90.95 55.6 90.74 55.84 90.53 56.08 90.31 56.33 90.09 56.57 89.85 56.81 89.62 57.06 89.37 57.3 89.12 57.54 88.86 57.78 88.59 58.03 88.31 58.27 88.02 58.51 87.73 58.76 87.42 59 87.11 59.24 86.78 59.48 86.44 59.73 86.1 59.97 85.73 60.21 85.36 60.46 84.97 60.7 84.57 60.94 84.15 61.18 83.72 61.43 83.27 61.67 82.8 61.91 82.31 62.16 81.8 62.4 81.27 62.64 80.72 62.88 80.14 63.13 79.53 63.37 78.9 63.61 78.23 63.86 77.53 64.1 76.79 64.34 76.02 64.58 75.2 64.83 74.33 65.07 73.41 65.31 72.43 65.56 71.39 65.8 70.27 66.04 69.07 66.28 67.78 66.53 66.38 66.77 64.85 67.01 63.18 67.26 61.34 67.5 59.27 67.74 56.95 67.98 54.27 68.23 51.13 68.47 47.31 68.71 42.41 68.95 35.36 69.2 14.61 69.44 14.61 69.68 14.61 69.93 14.61 70.17 14.61 70.41 14.61 70.65 14.61 70.9 14.61 71.14 14.61 71.38 14.61 71.63 14.61 71.87 14.61 72.11 14.61 72.35 14.61 72.6 14.61 72.84 14.61 73.08 14.61 73.33 14.61 73.57 14.61 73.81 14.61 74.05 14.61 74.3 14.61 74.54 14.61 74.78 14.61 75.03 14.61 75.27 14.61 75.51 14.61 75.75 14.61 76 14.61 76.24 14.61 76.48 14.61 76.73 14.61 76.97 14.61 77.21 14.61 77.45 14.61 77.7 14.61 77.94 14.61 78.18 14.61 78.43 14.61 78.67 14.61 78.91 14.61 79.15 14.61 79.4 14.61 79.64 14.61 79.88 14.61 80.13 14.61 80.37 14.61 80.61 14.61 80.85 14.61 81.1 14.61 81.34 14.61 81.58 14.61 81.82 14.61 82.07 14.61 82.31 14.61 82.55 14.61 82.8 14.61 83.04 14.61 83.28 14.61 83.52 14.61 83.77 14.61 84.01 14.61 84.25 14.61 84.5 14.61 84.74 14.61 84.98 14.61 85.22 14.61 85.47 14.61 85.71 14.61 85.95 14.61 86.2 14.61 86.44 14.61 86.68 14.61 86.92 14.61 87.17 14.61 87.41 14.61 87.65 14.61 87.9 14.61 88.14 14.61 88.38 14.61 88.62 14.61 88.87 14.61 89.11 14.61 89.35 14.61 89.6 14.61 89.84 14.61 90.08 14.61 90.32 14.61 90.57 14.61 90.81 14.61 91.05 14.61 91.3 14.61 91.54 14.61 91.78 14.61 92.02 14.61 92.27 14.61 92.51 14.61 92.75 14.61 93 14.61 93.24 14.61 93.48 14.61 93.72 14.61 93.97 14.61 94.21 14.61 94.45 14.61 94.69 14.61 94.94 14.61 95.18 14.61 95.42 14.61 95.67 14.61 95.91 14.61 96.15 14.61 96.39 14.61 96.64 14.61 96.88 14.61 97.12 14.61 97.37 14.61 97.61 14.61 97.85 14.61 98.09 14.61 98.34 14.61 98.58 14.61 98.82 14.61 99.07 14.61 99.31 14.61 99.55 14.61 99.79 14.61 100.04 14.61 100.28 14.61 100.52 14.61 100.77 14.61 101.01 14.61 101.25 14.61 101.49 14.61 101.74 14.61 101.98 14.61 102.22 14.61 102.47 14.61 102.71 14.61 102.95 14.61 103.19 14.61 103.44 14.61 103.68 14.61 103.92 14.61 104.17 14.61 104.41 14.61 104.65 14.61 104.89 14.61 105.14 14.61 105.38 14.61 105.62 14.61 105.86 14.61 106.11 14.61 106.35 14.61 106.59 14.61 106.84 14.61 107.08 14.61 107.32 14.61 107.56 14.61 107.81 14.61 108.05 14.61 108.29 14.61 108.54 14.61 108.78 14.61 109.02 14.61 109.26 14.61 109.51 14.61 109.75 14.61 109.99 14.61 110.24 14.61 110.48 14.61 110.72 14.61 110.96 14.61 111.21 14.61 111.45 14.61 111.69 14.61 111.94 14.61 112.18 14.61 112.42 14.61 112.66 14.61 112.91 14.61 113.15 14.61 113.39 14.61 113.64 14.61 113.88 14.61 114.12 14.61 114.36 14.61 114.61 14.61 114.85 14.61 115.09 14.61 115.34 14.61 115.58 14.61 115.82 14.61 116.06 14.61 116.31 14.61 116.55 14.61 116.79 14.61 117.04 14.61 117.28 14.61 117.52 14.61 117.76 14.61 118.01 14.61 118.25 14.61 118.49 14.61 118.73 14.61 118.98 14.61 119.22 14.61 119.46 14.61 119.71 14.61 119.95 14.61 120.19 14.61 120.43 14.61 120.68 14.61 120.92 14.61 121.16 14.61 121.41 14.61 121.65 14.61 121.89 14.61 122.13 14.61 122.38 14.61 122.62 14.61 122.86 14.61 123.11 14.61 123.35 14.61 123.59 14.61 123.83 14.61 124.08 14.61 124.32 14.61 124.56 14.61 124.81 14.61 125.05 14.61 125.29 14.61 125.53 14.61 125.78 14.61 126.02 14.61 126.26 14.61 126.51 14.61 126.75 14.61 126.99 14.61 127.23 14.61 127.48 14.61 127.72 14.61 127.96 14.61 128.21 14.61 128.45 14.61 128.69 14.61 128.93 14.61 129.18 14.61 129.42 14.61 129.66 14.61 129.91 14.61 130.15 14.61 130.39 14.61 130.63 14.61 130.88 14.61 131.12 14.61 131.36 14.61 131.6 14.61 131.85 14.61 132.09 14.61 132.33 14.61 132.58 14.61 132.82 14.61 133.06 14.61 133.3 14.61 133.55 14.61 133.79 14.61 134.03 14.61 134.28 14.61 134.52 14.61 134.76 14.61 135 14.61 135.25 14.61 135.49 14.61 135.73 14.61 135.98 14.61 136.22 14.61 136.46 14.61 136.7 14.61 136.95 14.61 137.19 14.61 137.43 14.61 137.68 14.61 137.92 14.61 138.16 14.61 138.4 14.61 138.65 14.61 138.89 14.61 139.13 14.61 139.38 14.61 139.62 14.61 139.86 14.61 140.1 14.61 140.35 14.61 140.59 14.61 140.83 14.61 141.08 14.61 141.32 14.61 141.56 14.61 141.8 14.61 142.05 14.61" id="fig-a475ef0f231145de9344e55e2dbf3131-element-130"/>
      </g>
      <g stroke-width="0.3" fill="none" class="geometry color_Transmission_Probability,_Theoretical" stroke="#FF5EA0" id="fig-a475ef0f231145de9344e55e2dbf3131-element-131">
        <path fill="none" d="M32.77,15.05 L 33.02 15.07 33.26 15.09 33.5 15.11 33.74 15.13 33.99 15.15 34.23 15.18 34.47 15.2 34.72 15.23 34.96 15.25 35.2 15.28 35.44 15.3 35.69 15.33 35.93 15.36 36.17 15.39 36.42 15.42 36.66 15.45 36.9 15.48 37.14 15.51 37.39 15.55 37.63 15.58 37.87 15.61 38.12 15.65 38.36 15.69 38.6 15.72 38.84 15.76 39.09 15.8 39.33 15.84 39.57 15.88 39.82 15.93 40.06 15.97 40.3 16.01 40.54 16.06 40.79 16.1 41.03 16.15 41.27 16.2 41.52 16.25 41.76 16.3 42 16.35 42.24 16.41 42.49 16.46 42.73 16.52 42.97 16.58 43.21 16.64 43.46 16.7 43.7 16.76 43.94 16.82 44.19 16.88 44.43 16.95 44.67 17.02 44.91 17.09 45.16 17.16 45.4 17.23 45.64 17.31 45.89 17.38 46.13 17.46 46.37 17.54 46.61 17.62 46.86 17.7 47.1 17.79 47.34 17.88 47.59 17.97 47.83 18.06 48.07 18.15 48.31 18.25 48.56 18.35 48.8 18.45 49.04 18.55 49.29 18.66 49.53 18.76 49.77 18.88 50.01 18.99 50.26 19.11 50.5 19.22 50.74 19.35 50.99 19.47 51.23 19.6 51.47 19.73 51.71 19.87 51.96 20.01 52.2 20.15 52.44 20.29 52.69 20.44 52.93 20.6 53.17 20.76 53.41 20.92 53.66 21.08 53.9 21.25 54.14 21.43 54.39 21.61 54.63 21.79 54.87 21.98 55.11 22.18 55.36 22.38 55.6 22.59 55.84 22.8 56.08 23.02 56.33 23.24 56.57 23.47 56.81 23.71 57.06 23.96 57.3 24.21 57.54 24.47 57.78 24.74 58.03 25.02 58.27 25.3 58.51 25.6 58.76 25.9 59 26.22 59.24 26.54 59.48 26.88 59.73 27.23 59.97 27.59 60.21 27.97 60.46 28.35 60.7 28.76 60.94 29.17 61.18 29.61 61.43 30.06 61.67 30.53 61.91 31.02 62.16 31.53 62.4 32.06 62.64 32.61 62.88 33.19 63.13 33.8 63.37 34.43 63.61 35.1 63.86 35.8 64.1 36.53 64.34 37.31 64.58 38.13 64.83 39 65.07 39.92 65.31 40.9 65.56 41.94 65.8 43.06 66.04 44.26 66.28 45.55 66.53 46.95 66.77 48.47 67.01 50.14 67.26 51.99 67.5 54.05 67.74 56.38 67.98 59.06 68.23 62.2 68.47 66.01 68.71 70.91 68.95 77.97 69.2 98.72 69.44 98.72 69.68 98.72 69.93 98.72 70.17 98.72 70.41 98.72 70.65 98.72 70.9 98.72 71.14 98.72 71.38 98.72 71.63 98.72 71.87 98.72 72.11 98.72 72.35 98.72 72.6 98.72 72.84 98.72 73.08 98.72 73.33 98.72 73.57 98.72 73.81 98.72 74.05 98.72 74.3 98.72 74.54 98.72 74.78 98.72 75.03 98.72 75.27 98.72 75.51 98.72 75.75 98.72 76 98.72 76.24 98.72 76.48 98.72 76.73 98.72 76.97 98.72 77.21 98.72 77.45 98.72 77.7 98.72 77.94 98.72 78.18 98.72 78.43 98.72 78.67 98.72 78.91 98.72 79.15 98.72 79.4 98.72 79.64 98.72 79.88 98.72 80.13 98.72 80.37 98.72 80.61 98.72 80.85 98.72 81.1 98.72 81.34 98.72 81.58 98.72 81.82 98.72 82.07 98.72 82.31 98.72 82.55 98.72 82.8 98.72 83.04 98.72 83.28 98.72 83.52 98.72 83.77 98.72 84.01 98.72 84.25 98.72 84.5 98.72 84.74 98.72 84.98 98.72 85.22 98.72 85.47 98.72 85.71 98.72 85.95 98.72 86.2 98.72 86.44 98.72 86.68 98.72 86.92 98.72 87.17 98.72 87.41 98.72 87.65 98.72 87.9 98.72 88.14 98.72 88.38 98.72 88.62 98.72 88.87 98.72 89.11 98.72 89.35 98.72 89.6 98.72 89.84 98.72 90.08 98.72 90.32 98.72 90.57 98.72 90.81 98.72 91.05 98.72 91.3 98.72 91.54 98.72 91.78 98.72 92.02 98.72 92.27 98.72 92.51 98.72 92.75 98.72 93 98.72 93.24 98.72 93.48 98.72 93.72 98.72 93.97 98.72 94.21 98.72 94.45 98.72 94.69 98.72 94.94 98.72 95.18 98.72 95.42 98.72 95.67 98.72 95.91 98.72 96.15 98.72 96.39 98.72 96.64 98.72 96.88 98.72 97.12 98.72 97.37 98.72 97.61 98.72 97.85 98.72 98.09 98.72 98.34 98.72 98.58 98.72 98.82 98.72 99.07 98.72 99.31 98.72 99.55 98.72 99.79 98.72 100.04 98.72 100.28 98.72 100.52 98.72 100.77 98.72 101.01 98.72 101.25 98.72 101.49 98.72 101.74 98.72 101.98 98.72 102.22 98.72 102.47 98.72 102.71 98.72 102.95 98.72 103.19 98.72 103.44 98.72 103.68 98.72 103.92 98.72 104.17 98.72 104.41 98.72 104.65 98.72 104.89 98.72 105.14 98.72 105.38 98.72 105.62 98.72 105.86 98.72 106.11 98.72 106.35 98.72 106.59 98.72 106.84 98.72 107.08 98.72 107.32 98.72 107.56 98.72 107.81 98.72 108.05 98.72 108.29 98.72 108.54 98.72 108.78 98.72 109.02 98.72 109.26 98.72 109.51 98.72 109.75 98.72 109.99 98.72 110.24 98.72 110.48 98.72 110.72 98.72 110.96 98.72 111.21 98.72 111.45 98.72 111.69 98.72 111.94 98.72 112.18 98.72 112.42 98.72 112.66 98.72 112.91 98.72 113.15 98.72 113.39 98.72 113.64 98.72 113.88 98.72 114.12 98.72 114.36 98.72 114.61 98.72 114.85 98.72 115.09 98.72 115.34 98.72 115.58 98.72 115.82 98.72 116.06 98.72 116.31 98.72 116.55 98.72 116.79 98.72 117.04 98.72 117.28 98.72 117.52 98.72 117.76 98.72 118.01 98.72 118.25 98.72 118.49 98.72 118.73 98.72 118.98 98.72 119.22 98.72 119.46 98.72 119.71 98.72 119.95 98.72 120.19 98.72 120.43 98.72 120.68 98.72 120.92 98.72 121.16 98.72 121.41 98.72 121.65 98.72 121.89 98.72 122.13 98.72 122.38 98.72 122.62 98.72 122.86 98.72 123.11 98.72 123.35 98.72 123.59 98.72 123.83 98.72 124.08 98.72 124.32 98.72 124.56 98.72 124.81 98.72 125.05 98.72 125.29 98.72 125.53 98.72 125.78 98.72 126.02 98.72 126.26 98.72 126.51 98.72 126.75 98.72 126.99 98.72 127.23 98.72 127.48 98.72 127.72 98.72 127.96 98.72 128.21 98.72 128.45 98.72 128.69 98.72 128.93 98.72 129.18 98.72 129.42 98.72 129.66 98.72 129.91 98.72 130.15 98.72 130.39 98.72 130.63 98.72 130.88 98.72 131.12 98.72 131.36 98.72 131.6 98.72 131.85 98.72 132.09 98.72 132.33 98.72 132.58 98.72 132.82 98.72 133.06 98.72 133.3 98.72 133.55 98.72 133.79 98.72 134.03 98.72 134.28 98.72 134.52 98.72 134.76 98.72 135 98.72 135.25 98.72 135.49 98.72 135.73 98.72 135.98 98.72 136.22 98.72 136.46 98.72 136.7 98.72 136.95 98.72 137.19 98.72 137.43 98.72 137.68 98.72 137.92 98.72 138.16 98.72 138.4 98.72 138.65 98.72 138.89 98.72 139.13 98.72 139.38 98.72 139.62 98.72 139.86 98.72 140.1 98.72 140.35 98.72 140.59 98.72 140.83 98.72 141.08 98.72 141.32 98.72 141.56 98.72 141.8 98.72 142.05 98.72" id="fig-a475ef0f231145de9344e55e2dbf3131-element-132"/>
      </g>
      <g stroke-width="0.3" fill="none" class="geometry color_Reflection_Probability,_Experimental" stroke="#D4CA3A" id="fig-a475ef0f231145de9344e55e2dbf3131-element-133">
        <path fill="none" d="M32.77,98.25 L 35.2 98 37.63 97.67 40.06 97.23 42.49 96.66 44.91 95.92 47.34 94.94 49.77 93.61 52.2 91.72 54.63 88.94 57.06 84.85 59.48 79.04 61.91 71.35 64.34 62.06 66.77 51.96 69.2 42.09 71.63 33.43 74.05 26.58 76.48 21.67 78.91 18.48 81.34 16.58 83.77 15.54 86.2 15.02 88.62 14.78 91.05 14.68 93.48 14.64 95.91 14.62 98.34 14.61 100.77 14.61 103.19 14.61 105.62 14.61 108.05 14.61 110.48 14.61 112.91 14.61 115.34 14.61 117.76 14.61 120.19 14.61 122.62 14.61 125.05 14.61 127.48 14.61 129.91 14.61 132.33 14.61 134.76 14.61 137.19 14.61 139.62 14.61 142.05 14.61" id="fig-a475ef0f231145de9344e55e2dbf3131-element-134"/>
      </g>
      <g stroke-width="0.3" fill="none" class="geometry color_Transmission_Probability,_Experimental" stroke="#00BFFF" id="fig-a475ef0f231145de9344e55e2dbf3131-element-135">
        <path fill="none" d="M32.77,15.07 L 35.2 15.33 37.63 15.66 40.06 16.1 42.49 16.66 44.91 17.4 47.34 18.38 49.77 19.72 52.2 21.61 54.63 24.38 57.06 28.47 59.48 34.28 61.91 41.98 64.34 51.27 66.77 61.37 69.2 71.23 71.63 79.89 74.05 86.75 76.48 91.65 78.91 94.85 81.34 96.75 83.77 97.78 86.2 98.3 88.62 98.55 91.05 98.65 93.48 98.69 95.91 98.71 98.34 98.71 100.77 98.71 103.19 98.71 105.62 98.71 108.05 98.71 110.48 98.71 112.91 98.71 115.34 98.71 117.76 98.71 120.19 98.71 122.62 98.71 125.05 98.71 127.48 98.71 129.91 98.71 132.33 98.71 134.76 98.71 137.19 98.71 139.62 98.71 142.05 98.71" id="fig-a475ef0f231145de9344e55e2dbf3131-element-136"/>
      </g>
    </g>
  </g>
  <g class="guide ylabels" font-size="2.82" font-family="'PT Sans Caption','Helvetica Neue','Helvetica',sans-serif" fill="#6C606B" id="fig-a475ef0f231145de9344e55e2dbf3131-element-137">
    <text x="17.63" y="98.72" text-anchor="end" dy="0.35em" id="fig-a475ef0f231145de9344e55e2dbf3131-element-138">0.0</text>
    <text x="17.63" y="56.66" text-anchor="end" dy="0.35em" id="fig-a475ef0f231145de9344e55e2dbf3131-element-139">0.5</text>
    <text x="17.63" y="14.61" text-anchor="end" dy="0.35em" id="fig-a475ef0f231145de9344e55e2dbf3131-element-140">1.0</text>
  </g>
  <g font-size="3.88" font-family="'PT Sans','Helvetica Neue','Helvetica',sans-serif" fill="#564A55" stroke="none" id="fig-a475ef0f231145de9344e55e2dbf3131-element-141">
    <text x="8.81" y="54.66" text-anchor="middle" dy="0.35em" transform="rotate(-90, 8.81, 56.66)" id="fig-a475ef0f231145de9344e55e2dbf3131-element-142">Probability</text>
  </g>
  <g font-size="3.88" font-family="'PT Sans','Helvetica Neue','Helvetica',sans-serif" fill="#564A55" stroke="none" id="fig-a475ef0f231145de9344e55e2dbf3131-element-143">
    <text x="81.34" y="10.61" text-anchor="middle" id="fig-a475ef0f231145de9344e55e2dbf3131-element-144">Transmission probability across step potential vs. magnitude of potential for k = 200, σ = 0.05</text>
  </g>
</g>
<defs>
<clipPath id="fig-a475ef0f231145de9344e55e2dbf3131-element-18">
  <path d="M18.63,12.61 L 144.05 12.61 144.05 100.72 18.63 100.72" />
</clipPath
></defs>
</svg>
