<?xml version="1.0" encoding="UTF-8"?>
<svg xmlns="http://www.w3.org/2000/svg"
     xmlns:xlink="http://www.w3.org/1999/xlink"
     xmlns:gadfly="http://www.gadflyjl.org/ns"
     version="1.2"
     width="200mm" height="120mm" viewBox="0 0 200 120"
     stroke="none"
     fill="#000000"
     stroke-width="0.3"
     font-size="3.88"
>
<g class="plotroot xscalable yscalable" id="fig-fda0d8552b674829965444923ff6ab62-element-1">
  <g font-size="3.88" font-family="'PT Sans','Helvetica Neue','Helvetica',sans-serif" fill="#564A55" stroke="none" id="fig-fda0d8552b674829965444923ff6ab62-element-2">
    <text x="87.98" y="112" text-anchor="middle">x</text>
  </g>
  <g class="guide xlabels" font-size="2.82" font-family="'PT Sans Caption','Helvetica Neue','Helvetica',sans-serif" fill="#6C606B" id="fig-fda0d8552b674829965444923ff6ab62-element-3">
    <text x="19.4" y="104.39" text-anchor="middle">-1.0</text>
    <text x="53.69" y="104.39" text-anchor="middle">-0.5</text>
    <text x="87.98" y="104.39" text-anchor="middle">0.0</text>
    <text x="122.27" y="104.39" text-anchor="middle">0.5</text>
    <text x="156.56" y="104.39" text-anchor="middle">1.0</text>
  </g>
  <g class="guide colorkey" id="fig-fda0d8552b674829965444923ff6ab62-element-4">
    <g fill="#4C404B" font-size="2.82" font-family="'PT Sans','Helvetica Neue','Helvetica',sans-serif" id="fig-fda0d8552b674829965444923ff6ab62-element-5">
      <text x="162.37" y="56.66" dy="0.35em" id="fig-fda0d8552b674829965444923ff6ab62-element-6" class="color_Wavefunction_at_t=0">Wavefunction at t=0</text>
      <text x="162.37" y="60.29" dy="0.35em" id="fig-fda0d8552b674829965444923ff6ab62-element-7" class="color_Wavefunction_at_t=0.00635">Wavefunction at t=0.00635</text>
    </g>
    <g stroke="none" id="fig-fda0d8552b674829965444923ff6ab62-element-8">
      <rect x="159.56" y="55.76" width="1.81" height="1.81" id="fig-fda0d8552b674829965444923ff6ab62-element-9" class="color_Wavefunction_at_t=0" fill="#00BFFF"/>
      <rect x="159.56" y="59.38" width="1.81" height="1.81" id="fig-fda0d8552b674829965444923ff6ab62-element-10" class="color_Wavefunction_at_t=0.00635" fill="#D4CA3A"/>
    </g>
    <g fill="#362A35" font-size="3.88" font-family="'PT Sans','Helvetica Neue','Helvetica',sans-serif" stroke="none" id="fig-fda0d8552b674829965444923ff6ab62-element-11">
      <text x="159.56" y="52.84" id="fig-fda0d8552b674829965444923ff6ab62-element-12">Color</text>
    </g>
  </g>
  <g clip-path="url(#fig-fda0d8552b674829965444923ff6ab62-element-14)" id="fig-fda0d8552b674829965444923ff6ab62-element-13">
    <g pointer-events="visible" opacity="1" fill="none" stroke="none" class="guide background" id="fig-fda0d8552b674829965444923ff6ab62-element-15">
      <rect x="17.4" y="12.61" width="141.16" height="88.1" id="fig-fda0d8552b674829965444923ff6ab62-element-16"/>
    </g>
    <g class="guide ygridlines xfixed" stroke-dasharray="0.5,0.5" stroke-width="0.2" stroke="#D0D0E0" id="fig-fda0d8552b674829965444923ff6ab62-element-17">
      <path fill="none" d="M17.4,98.72 L 158.56 98.72" id="fig-fda0d8552b674829965444923ff6ab62-element-18"/>
      <path fill="none" d="M17.4,81.89 L 158.56 81.89" id="fig-fda0d8552b674829965444923ff6ab62-element-19"/>
      <path fill="none" d="M17.4,65.07 L 158.56 65.07" id="fig-fda0d8552b674829965444923ff6ab62-element-20"/>
      <path fill="none" d="M17.4,48.25 L 158.56 48.25" id="fig-fda0d8552b674829965444923ff6ab62-element-21"/>
      <path fill="none" d="M17.4,31.43 L 158.56 31.43" id="fig-fda0d8552b674829965444923ff6ab62-element-22"/>
      <path fill="none" d="M17.4,14.61 L 158.56 14.61" id="fig-fda0d8552b674829965444923ff6ab62-element-23"/>
    </g>
    <g class="guide xgridlines yfixed" stroke-dasharray="0.5,0.5" stroke-width="0.2" stroke="#D0D0E0" id="fig-fda0d8552b674829965444923ff6ab62-element-24">
      <path fill="none" d="M19.4,12.61 L 19.4 100.71" id="fig-fda0d8552b674829965444923ff6ab62-element-25"/>
      <path fill="none" d="M53.69,12.61 L 53.69 100.71" id="fig-fda0d8552b674829965444923ff6ab62-element-26"/>
      <path fill="none" d="M87.98,12.61 L 87.98 100.71" id="fig-fda0d8552b674829965444923ff6ab62-element-27"/>
      <path fill="none" d="M122.27,12.61 L 122.27 100.71" id="fig-fda0d8552b674829965444923ff6ab62-element-28"/>
      <path fill="none" d="M156.56,12.61 L 156.56 100.71" id="fig-fda0d8552b674829965444923ff6ab62-element-29"/>
    </g>
    <g class="plotpanel" id="fig-fda0d8552b674829965444923ff6ab62-element-30">
      <g stroke-width="0.3" fill="none" class="geometry color_Wavefunction_at_t=0.00635" stroke="#D4CA3A" id="fig-fda0d8552b674829965444923ff6ab62-element-31">
        <path fill="none" d="M19.4,31.43 L 19.47 31.37 19.54 31.34 19.6 31.28 19.67 31.22 19.74 31.15 19.81 31.07 19.88 30.99 19.95 30.93 20.02 30.89 20.08 30.92 20.15 30.95 20.22 30.98 20.29 31.06 20.36 31.12 20.43 31.19 20.5 31.25 20.56 31.33 20.63 31.38 20.7 31.42 20.77 31.44 20.84 31.49 20.91 31.57 20.98 31.62 21.04 31.71 21.11 31.79 21.18 31.86 21.25 31.89 21.32 31.91 21.39 31.93 21.46 31.93 21.52 31.88 21.59 31.81 21.66 31.77 21.73 31.69 21.8 31.61 21.87 31.57 21.94 31.55 22 31.52 22.07 31.46 22.14 31.39 22.21 31.34 22.28 31.27 22.35 31.19 22.42 31.14 22.48 31.1 22.55 31.04 22.62 30.98 22.69 30.96 22.76 31 22.83 31.05 22.9 31.08 22.96 31.12 23.03 31.16 23.1 31.19 23.17 31.22 23.24 31.27 23.31 31.33 23.38 31.37 23.44 31.4 23.51 31.44 23.58 31.5 23.65 31.57 23.72 31.64 23.79 31.68 23.86 31.72 23.92 31.73 23.99 31.74 24.06 31.74 24.13 31.73 24.2 31.73 24.27 31.71 24.34 31.68 24.4 31.66 24.47 31.65 24.54 31.62 24.61 31.6 24.68 31.56 24.75 31.53 24.82 31.51 24.88 31.46 24.95 31.41 25.02 31.38 25.09 31.37 25.16 31.34 25.23 31.34 25.3 31.34 25.36 31.34 25.43 31.31 25.5 31.28 25.57 31.29 25.64 31.3 25.71 31.3 25.78 31.28 25.84 31.27 25.91 31.27 25.98 31.28 26.05 31.3 26.12 31.33 26.19 31.34 26.26 31.33 26.32 31.31 26.39 31.29 26.46 31.29 26.53 31.3 26.6 31.31 26.67 31.29 26.74 31.29 26.81 31.32 26.87 31.35 26.94 31.38 27.01 31.41 27.08 31.44 27.15 31.47 27.22 31.47 27.29 31.49 27.35 31.51 27.42 31.54 27.49 31.55 27.56 31.58 27.63 31.63 27.7 31.67 27.77 31.7 27.83 31.72 27.9 31.74 27.97 31.76 28.04 31.78 28.11 31.76 28.18 31.74 28.25 31.69 28.31 31.65 28.38 31.62 28.45 31.59 28.52 31.56 28.59 31.52 28.66 31.47 28.73 31.41 28.79 31.38 28.86 31.34 28.93 31.32 29 31.27 29.07 31.2 29.14 31.17 29.21 31.13 29.27 31.1 29.34 31.07 29.41 31.06 29.48 31.07 29.55 31.08 29.62 31.09 29.69 31.12 29.75 31.17 29.82 31.21 29.89 31.25 29.96 31.29 30.03 31.33 30.1 31.35 30.17 31.35 30.23 31.36 30.3 31.38 30.37 31.43 30.44 31.46 30.51 31.47 30.58 31.5 30.65 31.55 30.71 31.6 30.78 31.61 30.85 31.62 30.92 31.62 30.99 31.6 31.06 31.56 31.13 31.55 31.19 31.55 31.26 31.54 31.33 31.53 31.4 31.56 31.47 31.62 31.54 31.68 31.61 31.72 31.67 31.74 31.74 31.74 31.81 31.73 31.88 31.73 31.95 31.74 32.02 31.72 32.09 31.67 32.15 31.65 32.22 31.65 32.29 31.67 32.36 31.67 32.43 31.68 32.5 31.67 32.57 31.6 32.63 31.52 32.7 31.42 32.77 31.36 32.84 31.26 32.91 31.17 32.98 31.06 33.05 31 33.11 30.93 33.18 30.88 33.25 30.86 33.32 30.84 33.39 30.85 33.46 30.82 33.53 30.76 33.59 30.73 33.66 30.75 33.73 30.79 33.8 30.86 33.87 30.9 33.94 30.97 34.01 31.07 34.07 31.17 34.14 31.3 34.21 31.42 34.28 31.52 34.35 31.61 34.42 31.71 34.49 31.79 34.55 31.88 34.62 31.96 34.69 32.02 34.76 32.09 34.83 32.15 34.9 32.19 34.97 32.22 35.03 32.19 35.1 32.15 35.17 32.12 35.24 32.09 35.31 32.05 35.38 31.98 35.45 31.89 35.51 31.81 35.58 31.76 35.65 31.71 35.72 31.63 35.79 31.53 35.86 31.45 35.93 31.39 35.99 31.31 36.06 31.21 36.13 31.14 36.2 31.12 36.27 31.1 36.34 31.05 36.41 31.01 36.47 30.99 36.54 31 36.61 31.01 36.68 31 36.75 30.99 36.82 30.97 36.89 30.97 36.96 31.01 37.02 31.03 37.09 31.02 37.16 31.02 37.23 31.05 37.3 31.09 37.37 31.14 37.44 31.17 37.5 31.2 37.57 31.23 37.64 31.27 37.71 31.32 37.78 31.36 37.85 31.4 37.92 31.44 37.98 31.48 38.05 31.48 38.12 31.48 38.19 31.53 38.26 31.57 38.33 31.6 38.4 31.63 38.46 31.66 38.53 31.69 38.6 31.71 38.67 31.72 38.74 31.73 38.81 31.74 38.88 31.71 38.94 31.72 39.01 31.69 39.08 31.67 39.15 31.64 39.22 31.62 39.29 31.64 39.36 31.66 39.42 31.67 39.49 31.66 39.56 31.65 39.63 31.63 39.7 31.65 39.77 31.65 39.84 31.66 39.9 31.66 39.97 31.63 40.04 31.59 40.11 31.55 40.18 31.53 40.25 31.54 40.32 31.53 40.38 31.51 40.45 31.49 40.52 31.48 40.59 31.47 40.66 31.46 40.73 31.43 40.8 31.41 40.86 31.38 40.93 31.3 41 31.25 41.07 31.18 41.14 31.15 41.21 31.11 41.28 31.11 41.34 31.15 41.41 31.19 41.48 31.21 41.55 31.21 41.62 31.22 41.69 31.24 41.76 31.25 41.82 31.22 41.89 31.21 41.96 31.17 42.03 31.14 42.1 31.15 42.17 31.16 42.24 31.19 42.3 31.22 42.37 31.21 42.44 31.2 42.51 31.19 42.58 31.17 42.65 31.15 42.72 31.1 42.78 31.06 42.85 31.06 42.92 31.06 42.99 31.04 43.06 31.06 43.13 31.08 43.2 31.11 43.26 31.16 43.33 31.22 43.4 31.29 43.47 31.37 43.54 31.45 43.61 31.55 43.68 31.66 43.74 31.77 43.81 31.86 43.88 31.94 43.95 32 44.02 32.05 44.09 32.13 44.16 32.17 44.22 32.19 44.29 32.22 44.36 32.27 44.43 32.31 44.5 32.34 44.57 32.34 44.64 32.32 44.7 32.27 44.77 32.19 44.84 32.1 44.91 32.03 44.98 31.95 45.05 31.87 45.12 31.79 45.18 31.75 45.25 31.71 45.32 31.68 45.39 31.63 45.46 31.58 45.53 31.55 45.6 31.51 45.66 31.45 45.73 31.37 45.8 31.29 45.87 31.23 45.94 31.19 46.01 31.15 46.08 31.1 46.14 31.03 46.21 30.95 46.28 30.86 46.35 30.77 46.42 30.7 46.49 30.64 46.56 30.56 46.62 30.49 46.69 30.42 46.76 30.38 46.83 30.34 46.9 30.29 46.97 30.27 47.04 30.27 47.1 30.3 47.17 30.32 47.24 30.34 47.31 30.36 47.38 30.44 47.45 30.56 47.52 30.69 47.59 30.8 47.65 30.91 47.72 31.03 47.79 31.13 47.86 31.24 47.93 31.36 48 31.47 48.07 31.6 48.13 31.7 48.2 31.8 48.27 31.88 48.34 31.94 48.41 32.01 48.48 32.07 48.55 32.13 48.61 32.19 48.68 32.26 48.75 32.26 48.82 32.27 48.89 32.31 48.96 32.37 49.03 32.42 49.09 32.43 49.16 32.44 49.23 32.45 49.3 32.47 49.37 32.47 49.44 32.44 49.51 32.42 49.57 32.4 49.64 32.41 49.71 32.4 49.78 32.32 49.85 32.26 49.92 32.24 49.99 32.21 50.05 32.16 50.12 32.09 50.19 32 50.26 31.93 50.33 31.85 50.4 31.74 50.47 31.62 50.53 31.5 50.6 31.41 50.67 31.34 50.74 31.26 50.81 31.18 50.88 31.12 50.95 31.09 51.01 31.05 51.08 31 51.15 30.95 51.22 30.89 51.29 30.84 51.36 30.81 51.43 30.75 51.49 30.71 51.56 30.68 51.63 30.65 51.7 30.65 51.77 30.63 51.84 30.62 51.91 30.63 51.97 30.65 52.04 30.66 52.11 30.68 52.18 30.71 52.25 30.74 52.32 30.77 52.39 30.81 52.45 30.82 52.52 30.83 52.59 30.82 52.66 30.81 52.73 30.81 52.8 30.82 52.87 30.84 52.93 30.9 53 30.96 53.07 31 53.14 31.05 53.21 31.07 53.28 31.08 53.35 31.08 53.41 31.1 53.48 31.08 53.55 31.08 53.62 31.08 53.69 31.09 53.76 31.11 53.83 31.14 53.89 31.2 53.96 31.26 54.03 31.31 54.1 31.37 54.17 31.41 54.24 31.44 54.31 31.47 54.37 31.53 54.44 31.58 54.51 31.62 54.58 31.65 54.65 31.65 54.72 31.64 54.79 31.59 54.85 31.58 54.92 31.58 54.99 31.59 55.06 31.63 55.13 31.68 55.2 31.72 55.27 31.77 55.33 31.81 55.4 31.85 55.47 31.88 55.54 31.93 55.61 31.98 55.68 32.01 55.75 32.04 55.81 32.1 55.88 32.16 55.95 32.24 56.02 32.34 56.09 32.42 56.16 32.51 56.23 32.56 56.29 32.6 56.36 32.63 56.43 32.64 56.5 32.67 56.57 32.69 56.64 32.7 56.71 32.69 56.77 32.67 56.84 32.62 56.91 32.56 56.98 32.52 57.05 32.49 57.12 32.47 57.19 32.47 57.25 32.48 57.32 32.48 57.39 32.49 57.46 32.5 57.53 32.48 57.6 32.48 57.67 32.45 57.74 32.4 57.8 32.35 57.87 32.27 57.94 32.19 58.01 32.11 58.08 32.02 58.15 31.92 58.22 31.82 58.28 31.69 58.35 31.56 58.42 31.41 58.49 31.26 58.56 31.11 58.63 30.96 58.7 30.82 58.76 30.67 58.83 30.55 58.9 30.41 58.97 30.28 59.04 30.17 59.11 30.07 59.18 29.95 59.24 29.87 59.31 29.8 59.38 29.72 59.45 29.65 59.52 29.6 59.59 29.53 59.66 29.47 59.72 29.4 59.79 29.33 59.86 29.24 59.93 29.17 60 29.11 60.07 29.04 60.14 28.99 60.2 28.94 60.27 28.9 60.34 28.86 60.41 28.83 60.48 28.84 60.55 28.86 60.62 28.89 60.68 28.96 60.75 29.03 60.82 29.1 60.89 29.17 60.96 29.29 61.03 29.39 61.1 29.53 61.16 29.67 61.23 29.83 61.3 29.97 61.37 30.1 61.44 30.23 61.51 30.34 61.58 30.44 61.64 30.58 61.71 30.7 61.78 30.84 61.85 30.96 61.92 31.1 61.99 31.23 62.06 31.36 62.12 31.52 62.19 31.68 62.26 31.84 62.33 32.01 62.4 32.18 62.47 32.33 62.54 32.49 62.6 32.64 62.67 32.8 62.74 32.95 62.81 33.09 62.88 33.23 62.95 33.34 63.02 33.42 63.08 33.53 63.15 33.61 63.22 33.72 63.29 33.84 63.36 33.96 63.43 34.06 63.5 34.13 63.56 34.19 63.63 34.21 63.7 34.21 63.77 34.24 63.84 34.25 63.91 34.27 63.98 34.31 64.04 34.32 64.11 34.32 64.18 34.31 64.25 34.3 64.32 34.28 64.39 34.28 64.46 34.28 64.52 34.28 64.59 34.28 64.66 34.27 64.73 34.23 64.8 34.19 64.87 34.14 64.94 34.05 65 33.98 65.07 33.9 65.14 33.8 65.21 33.71 65.28 33.63 65.35 33.56 65.42 33.5 65.48 33.46 65.55 33.41 65.62 33.35 65.69 33.27 65.76 33.19 65.83 33.08 65.9 32.99 65.96 32.89 66.03 32.8 66.1 32.72 66.17 32.62 66.24 32.51 66.31 32.41 66.38 32.28 66.44 32.19 66.51 32.11 66.58 32.04 66.65 32 66.72 31.98 66.79 31.95 66.86 31.91 66.92 31.86 66.99 31.8 67.06 31.7 67.13 31.61 67.2 31.51 67.27 31.4 67.34 31.29 67.4 31.21 67.47 31.1 67.54 31 67.61 30.92 67.68 30.83 67.75 30.74 67.82 30.68 67.88 30.62 67.95 30.57 68.02 30.53 68.09 30.51 68.16 30.47 68.23 30.42 68.3 30.37 68.37 30.29 68.43 30.21 68.5 30.12 68.57 30.04 68.64 29.96 68.71 29.87 68.78 29.79 68.85 29.71 68.91 29.6 68.98 29.51 69.05 29.41 69.12 29.31 69.19 29.21 69.26 29.12 69.33 29.01 69.39 28.91 69.46 28.8 69.53 28.69 69.6 28.58 69.67 28.48 69.74 28.4 69.81 28.31 69.87 28.23 69.94 28.15 70.01 28.05 70.08 27.96 70.15 27.85 70.22 27.77 70.29 27.67 70.35 27.55 70.42 27.45 70.49 27.3 70.56 27.15 70.63 26.98 70.7 26.82 70.77 26.66 70.83 26.52 70.9 26.4 70.97 26.27 71.04 26.16 71.11 26.06 71.18 25.95 71.25 25.86 71.31 25.79 71.38 25.72 71.45 25.68 71.52 25.63 71.59 25.56 71.66 25.49 71.73 25.41 71.79 25.32 71.86 25.23 71.93 25.16 72 25.08 72.07 24.99 72.14 24.92 72.21 24.84 72.27 24.75 72.34 24.7 72.41 24.66 72.48 24.64 72.55 24.66 72.62 24.68 72.69 24.72 72.75 24.75 72.82 24.8 72.89 24.84 72.96 24.89 73.03 24.99 73.1 25.09 73.17 25.19 73.23 25.32 73.3 25.42 73.37 25.5 73.44 25.58 73.51 25.66 73.58 25.75 73.65 25.86 73.71 26 73.78 26.16 73.85 26.32 73.92 26.48 73.99 26.66 74.06 26.83 74.13 27.02 74.19 27.24 74.26 27.49 74.33 27.77 74.4 28.06 74.47 28.36 74.54 28.65 74.61 28.92 74.67 29.21 74.74 29.46 74.81 29.73 74.88 30 74.95 30.29 75.02 30.57 75.09 30.86 75.15 31.16 75.22 31.46 75.29 31.75 75.36 32.07 75.43 32.38 75.5 32.72 75.57 33.07 75.63 33.45 75.7 33.82 75.77 34.21 75.84 34.59 75.91 34.95 75.98 35.31 76.05 35.65 76.11 35.98 76.18 36.31 76.25 36.64 76.32 37 76.39 37.33 76.46 37.69 76.53 38.03 76.59 38.37 76.66 38.71 76.73 39.04 76.8 39.39 76.87 39.74 76.94 40.1 77.01 40.47 77.07 40.81 77.14 41.16 77.21 41.47 77.28 41.77 77.35 42.05 77.42 42.33 77.49 42.62 77.55 42.89 77.62 43.19 77.69 43.49 77.76 43.76 77.83 44.06 77.9 44.34 77.97 44.61 78.03 44.89 78.1 45.17 78.17 45.45 78.24 45.72 78.31 45.97 78.38 46.21 78.45 46.41 78.52 46.62 78.58 46.79 78.65 46.97 78.72 47.14 78.79 47.3 78.86 47.47 78.93 47.63 79 47.79 79.06 47.95 79.13 48.12 79.2 48.3 79.27 48.47 79.34 48.65 79.41 48.82 79.48 48.96 79.54 49.09 79.61 49.22 79.68 49.3 79.75 49.4 79.82 49.48 79.89 49.54 79.96 49.59 80.02 49.64 80.09 49.66 80.16 49.67 80.23 49.68 80.3 49.72 80.37 49.73 80.44 49.8 80.5 49.88 80.57 50.01 80.64 50.16 80.71 50.35 80.78 50.53 80.85 50.76 80.92 51.03 80.98 51.33 81.05 51.64 81.12 52.02 81.19 52.35 81.26 52.67 81.33 52.97 81.4 53.26 81.46 53.53 81.53 53.82 81.6 54.12 81.67 54.41 81.74 54.71 81.81 55.03 81.88 55.32 81.94 55.6 82.01 55.88 82.08 56.16 82.15 56.42 82.22 56.7 82.29 56.98 82.36 57.24 82.42 57.49 82.49 57.74 82.56 57.94 82.63 58.15 82.7 58.34 82.77 58.53 82.84 58.7 82.9 58.89 82.97 59.08 83.04 59.25 83.11 59.43 83.18 59.6 83.25 59.76 83.32 59.93 83.38 60.08 83.45 60.25 83.52 60.42 83.59 60.58 83.66 60.76 83.73 60.91 83.8 61.07 83.86 61.21 83.93 61.33 84 61.45 84.07 61.55 84.14 61.66 84.21 61.74 84.28 61.83 84.34 61.93 84.41 62 84.48 62.09 84.55 62.16 84.62 62.22 84.69 62.3 84.76 62.37 84.82 62.46 84.89 62.54 84.96 62.65 85.03 62.76 85.1 62.84 85.17 62.94 85.24 63.01 85.3 63.06 85.37 63.12 85.44 63.15 85.51 63.2 85.58 63.24 85.65 63.28 85.72 63.31 85.78 63.32 85.85 63.33 85.92 63.33 85.99 63.33 86.06 63.37 86.13 63.4 86.2 63.46 86.26 63.53 86.33 63.59 86.4 63.65 86.47 63.69 86.54 63.73 86.61 63.76 86.68 63.78 86.74 63.81 86.81 63.83 86.88 63.85 86.95 63.86 87.02 63.84 87.09 63.82 87.16 63.78 87.22 63.75 87.29 63.74 87.36 63.74 87.43 63.77 87.5 63.8 87.57 63.85 87.64 63.88 87.7 63.91 87.77 63.93 87.84 63.94 87.91 63.96 87.98 63.99 88.05 64 88.12 64.02 88.18 64.02 88.25 63.99 88.32 63.95 88.39 63.89 88.46 63.84 88.53 63.8 88.6 63.78 88.66 63.79 88.73 63.79 88.8 63.8 88.87 63.81 88.94 63.81 89.01 63.81 89.08 63.81 89.15 63.82 89.21 63.84 89.28 63.85 89.35 63.86 89.42 63.84 89.49 63.81 89.56 63.76 89.63 63.68 89.69 63.62 89.76 63.56 89.83 63.5 89.9 63.47 89.97 63.43 90.04 63.41 90.11 63.37 90.17 63.34 90.24 63.3 90.31 63.27 90.38 63.26 90.45 63.24 90.52 63.22 90.59 63.21 90.65 63.16 90.72 63.11 90.79 63.03 90.86 62.95 90.93 62.85 91 62.75 91.07 62.67 91.13 62.57 91.2 62.48 91.27 62.4 91.34 62.29 91.41 62.21 91.48 62.11 91.55 62.02 91.61 61.93 91.68 61.84 91.75 61.77 91.82 61.68 91.89 61.59 91.96 61.49 92.03 61.37 92.09 61.25 92.16 61.1 92.23 60.96 92.3 60.8 92.37 60.63 92.44 60.47 92.51 60.29 92.57 60.12 92.64 59.95 92.71 59.76 92.78 59.58 92.85 59.38 92.92 59.19 92.99 58.99 93.05 58.81 93.12 58.63 93.19 58.43 93.26 58.25 93.33 58.06 93.4 57.83 93.47 57.6 93.53 57.36 93.6 57.11 93.67 56.85 93.74 56.6 93.81 56.34 93.88 56.06 93.95 55.77 94.01 55.48 94.08 55.14 94.15 54.82 94.22 54.49 94.29 54.18 94.36 53.85 94.43 53.57 94.49 53.26 94.56 52.95 94.63 52.64 94.7 52.31 94.77 51.95 94.84 51.62 94.91 51.32 94.97 51.05 95.04 50.8 95.11 50.62 95.18 50.4 95.25 50.22 95.32 50.06 95.39 49.92 95.45 49.8 95.52 49.75 95.59 49.68 95.66 49.62 95.73 49.56 95.8 49.52 95.87 49.44 95.93 49.38 96 49.32 96.07 49.25 96.14 49.19 96.21 49.13 96.28 49.05 96.35 48.96 96.41 48.84 96.48 48.71 96.55 48.54 96.62 48.38 96.69 48.19 96.76 48 96.83 47.81 96.89 47.61 96.96 47.4 97.03 47.21 97.1 47 97.17 46.81 97.24 46.62 97.31 46.44 97.37 46.26 97.44 46.07 97.51 45.87 97.58 45.65 97.65 45.41 97.72 45.18 97.79 44.91 97.85 44.65 97.92 44.38 97.99 44.08 98.06 43.79 98.13 43.47 98.2 43.15 98.27 42.84 98.33 42.52 98.4 42.23 98.47 41.93 98.54 41.66 98.61 41.38 98.68 41.07 98.75 40.76 98.81 40.43 98.88 40.1 98.95 39.76 99.02 39.42 99.09 39.1 99.16 38.74 99.23 38.4 99.3 38.05 99.36 37.67 99.43 37.3 99.5 36.94 99.57 36.58 99.64 36.24 99.71 35.91 99.78 35.61 99.84 35.28 99.91 34.96 99.98 34.63 100.05 34.27 100.12 33.91 100.19 33.56 100.26 33.2 100.32 32.83 100.39 32.49 100.46 32.15 100.53 31.8 100.6 31.48 100.67 31.15 100.74 30.82 100.8 30.5 100.87 30.22 100.94 29.93 101.01 29.67 101.08 29.43 101.15 29.2 101.22 28.96 101.28 28.73 101.35 28.47 101.42 28.2 101.49 27.92 101.56 27.66 101.63 27.4 101.7 27.16 101.76 26.95 101.83 26.74 101.9 26.54 101.97 26.33 102.04 26.13 102.11 25.95 102.18 25.79 102.24 25.66 102.31 25.57 102.38 25.49 102.45 25.43 102.52 25.37 102.59 25.3 102.66 25.21 102.72 25.13 102.79 25.05 102.86 24.99 102.93 24.94 103 24.91 103.07 24.86 103.14 24.82 103.2 24.78 103.27 24.73 103.34 24.68 103.41 24.68 103.48 24.67 103.55 24.7 103.62 24.75 103.68 24.81 103.75 24.86 103.82 24.94 103.89 25.02 103.96 25.11 104.03 25.21 104.1 25.34 104.16 25.44 104.23 25.56 104.3 25.66 104.37 25.74 104.44 25.83 104.51 25.91 104.58 25.98 104.64 26.07 104.71 26.15 104.78 26.23 104.85 26.3 104.92 26.38 104.99 26.47 105.06 26.56 105.12 26.7 105.19 26.84 105.26 26.98 105.33 27.16 105.4 27.3 105.47 27.45 105.54 27.59 105.6 27.72 105.67 27.86 105.74 27.98 105.81 28.12 105.88 28.23 105.95 28.31 106.02 28.41 106.08 28.47 106.15 28.55 106.22 28.62 106.29 28.71 106.36 28.8 106.43 28.88 106.5 28.98 106.56 29.08 106.63 29.16 106.7 29.27 106.77 29.37 106.84 29.47 106.91 29.56 106.98 29.67 107.04 29.75 107.11 29.83 107.18 29.91 107.25 30 107.32 30.08 107.39 30.17 107.46 30.28 107.52 30.37 107.59 30.45 107.66 30.53 107.73 30.58 107.8 30.63 107.87 30.68 107.94 30.73 108 30.79 108.07 30.83 108.14 30.9 108.21 30.94 108.28 30.99 108.35 31.04 108.42 31.11 108.48 31.18 108.55 31.27 108.62 31.38 108.69 31.5 108.76 31.61 108.83 31.76 108.9 31.86 108.96 31.96 109.03 32.04 109.1 32.11 109.17 32.14 109.24 32.19 109.31 32.25 109.38 32.3 109.44 32.37 109.51 32.45 109.58 32.51 109.65 32.58 109.72 32.65 109.79 32.72 109.86 32.81 109.93 32.92 109.99 33.04 110.06 33.16 110.13 33.29 110.2 33.39 110.27 33.47 110.34 33.54 110.41 33.58 110.47 33.62 110.54 33.68 110.61 33.72 110.68 33.79 110.75 33.86 110.82 33.92 110.89 33.99 110.95 34.06 111.02 34.13 111.09 34.19 111.16 34.25 111.23 34.3 111.3 34.32 111.37 34.34 111.43 34.35 111.5 34.35 111.57 34.37 111.64 34.36 111.71 34.34 111.78 34.32 111.85 34.27 111.91 34.21 111.98 34.17 112.05 34.14 112.12 34.12 112.19 34.12 112.26 34.11 112.33 34.08 112.39 34.02 112.46 33.95 112.53 33.84 112.6 33.72 112.67 33.63 112.74 33.53 112.81 33.44 112.87 33.34 112.94 33.22 113.01 33.09 113.08 32.93 113.15 32.8 113.22 32.65 113.29 32.5 113.35 32.37 113.42 32.22 113.49 32.07 113.56 31.9 113.63 31.73 113.7 31.57 113.77 31.39 113.83 31.23 113.9 31.08 113.97 30.92 114.04 30.76 114.11 30.62 114.18 30.48 114.25 30.36 114.31 30.27 114.38 30.17 114.45 30.08 114.52 29.97 114.59 29.87 114.66 29.75 114.73 29.62 114.79 29.52 114.86 29.42 114.93 29.31 115 29.23 115.07 29.14 115.14 29.05 115.21 28.96 115.27 28.9 115.34 28.85 115.41 28.81 115.48 28.81 115.55 28.82 115.62 28.85 115.69 28.88 115.75 28.93 115.82 28.99 115.89 29.06 115.96 29.15 116.03 29.25 116.1 29.35 116.17 29.44 116.23 29.54 116.3 29.65 116.37 29.72 116.44 29.82 116.51 29.91 116.58 30 116.65 30.07 116.71 30.18 116.78 30.26 116.85 30.34 116.92 30.44 116.99 30.54 117.06 30.64 117.13 30.75 117.19 30.88 117.26 31 117.33 31.15 117.4 31.3 117.47 31.44 117.54 31.59 117.61 31.72 117.67 31.83 117.74 31.96 117.81 32.06 117.88 32.16 117.95 32.26 118.02 32.35 118.09 32.43 118.15 32.5 118.22 32.56 118.29 32.6 118.36 32.62 118.43 32.64 118.5 32.64 118.57 32.62 118.63 32.6 118.7 32.56 118.77 32.54 118.84 32.53 118.91 32.51 118.98 32.52 119.05 32.53 119.11 32.52 119.18 32.52 119.25 32.52 119.32 32.51 119.39 32.53 119.46 32.56 119.53 32.58 119.59 32.59 119.66 32.58 119.73 32.53 119.8 32.46 119.87 32.37 119.94 32.29 120.01 32.2 120.07 32.13 120.14 32.06 120.21 32.01 120.28 31.96 120.35 31.89 120.42 31.86 120.49 31.82 120.56 31.77 120.62 31.74 120.69 31.7 120.76 31.63 120.83 31.58 120.9 31.54 120.97 31.52 121.04 31.51 121.1 31.52 121.17 31.53 121.24 31.53 121.31 31.5 121.38 31.5 121.45 31.47 121.52 31.47 121.58 31.48 121.65 31.49 121.72 31.49 121.79 31.45 121.86 31.41 121.93 31.34 122 31.26 122.06 31.18 122.13 31.13 122.2 31.07 122.27 31.03 122.34 31.01 122.41 31 122.48 30.99 122.54 30.99 122.61 31.01 122.68 31.01 122.75 30.99 122.82 30.98 122.89 30.92 122.96 30.88 123.02 30.84 123.09 30.81 123.16 30.8 123.23 30.78 123.3 30.78 123.37 30.76 123.44 30.75 123.5 30.72 123.57 30.71 123.64 30.71 123.71 30.71 123.78 30.71 123.85 30.72 123.92 30.72 123.98 30.71 124.05 30.71 124.12 30.69 124.19 30.68 124.26 30.68 124.33 30.7 124.4 30.72 124.46 30.76 124.53 30.8 124.6 30.87 124.67 30.95 124.74 31.02 124.81 31.07 124.88 31.14 124.94 31.19 125.01 31.24 125.08 31.3 125.15 31.34 125.22 31.39 125.29 31.47 125.36 31.56 125.42 31.66 125.49 31.74 125.56 31.83 125.63 31.94 125.7 32.05 125.77 32.13 125.84 32.19 125.9 32.25 125.97 32.33 126.04 32.4 126.11 32.45 126.18 32.46 126.25 32.46 126.32 32.49 126.38 32.51 126.45 32.49 126.52 32.47 126.59 32.47 126.66 32.47 126.73 32.47 126.8 32.41 126.86 32.35 126.93 32.3 127 32.26 127.07 32.24 127.14 32.19 127.21 32.1 127.28 32.04 127.34 31.98 127.41 31.93 127.48 31.84 127.55 31.78 127.62 31.72 127.69 31.66 127.76 31.58 127.82 31.49 127.89 31.39 127.96 31.29 128.03 31.22 128.1 31.13 128.17 31.04 128.24 30.93 128.3 30.81 128.37 30.69 128.44 30.56 128.51 30.49 128.58 30.44 128.65 30.37 128.72 30.31 128.78 30.26 128.85 30.25 128.92 30.23 128.99 30.23 129.06 30.24 129.13 30.28 129.2 30.35 129.26 30.43 129.33 30.5 129.4 30.56 129.47 30.68 129.54 30.79 129.61 30.92 129.68 31.02 129.74 31.1 129.81 31.17 129.88 31.23 129.95 31.29 130.02 31.37 130.09 31.46 130.16 31.55 130.22 31.62 130.29 31.68 130.36 31.74 130.43 31.79 130.5 31.8 130.57 31.81 130.64 31.82 130.71 31.85 130.77 31.88 130.84 31.88 130.91 31.91 130.98 31.94 131.05 32.02 131.12 32.09 131.19 32.14 131.25 32.16 131.32 32.19 131.39 32.2 131.46 32.21 131.53 32.21 131.6 32.2 131.67 32.19 131.73 32.16 131.8 32.11 131.87 32.07 131.94 32.02 132.01 31.93 132.08 31.83 132.15 31.75 132.21 31.66 132.28 31.59 132.35 31.52 132.42 31.43 132.49 31.36 132.56 31.29 132.63 31.22 132.69 31.15 132.76 31.06 132.83 30.98 132.9 30.94 132.97 30.9 133.04 30.89 133.11 30.92 133.17 30.95 133.24 30.99 133.31 31.05 133.38 31.12 133.45 31.18 133.52 31.2 133.59 31.19 133.65 31.19 133.72 31.18 133.79 31.19 133.86 31.2 133.93 31.23 134 31.24 134.07 31.25 134.13 31.29 134.2 31.3 134.27 31.31 134.34 31.33 134.41 31.31 134.48 31.28 134.55 31.26 134.61 31.23 134.68 31.22 134.75 31.2 134.82 31.19 134.89 31.23 134.96 31.28 135.03 31.28 135.09 31.31 135.16 31.32 135.23 31.36 135.3 31.41 135.37 31.46 135.44 31.52 135.51 31.54 135.57 31.55 135.64 31.54 135.71 31.56 135.78 31.58 135.85 31.62 135.92 31.62 135.99 31.62 136.05 31.63 136.12 31.64 136.19 31.67 136.26 31.7 136.33 31.73 136.4 31.76 136.47 31.75 136.53 31.73 136.6 31.71 136.67 31.69 136.74 31.68 136.81 31.66 136.88 31.67 136.95 31.68 137.01 31.69 137.08 31.68 137.15 31.68 137.22 31.68 137.29 31.71 137.36 31.7 137.43 31.67 137.49 31.64 137.56 31.58 137.63 31.53 137.7 31.48 137.77 31.46 137.84 31.43 137.91 31.38 137.97 31.33 138.04 31.3 138.11 31.28 138.18 31.24 138.25 31.22 138.32 31.19 138.39 31.17 138.45 31.13 138.52 31.08 138.59 31.05 138.66 31.03 138.73 31.01 138.8 31 138.87 30.97 138.93 30.97 139 31 139.07 31.04 139.14 31.04 139.21 31.05 139.28 31.07 139.35 31.1 139.41 31.13 139.48 31.15 139.55 31.15 139.62 31.17 139.69 31.2 139.76 31.27 139.83 31.34 139.89 31.38 139.96 31.42 140.03 31.51 140.1 31.59 140.17 31.65 140.24 31.68 140.31 31.71 140.37 31.8 140.44 31.87 140.51 31.92 140.58 31.96 140.65 32.02 140.72 32.07 140.79 32.12 140.85 32.13 140.92 32.12 140.99 32.13 141.06 32.1 141.13 32.06 141.2 31.99 141.27 31.91 141.34 31.86 141.4 31.82 141.47 31.77 141.54 31.69 141.61 31.57 141.68 31.45 141.75 31.33 141.82 31.22 141.88 31.12 141.95 31.01 142.02 30.89 142.09 30.79 142.16 30.71 142.23 30.7 142.3 30.72 142.36 30.72 142.43 30.73 142.5 30.72 142.57 30.74 142.64 30.77 142.71 30.81 142.78 30.85 142.84 30.91 142.91 31 142.98 31.1 143.05 31.2 143.12 31.28 143.19 31.42 143.26 31.55 143.32 31.66 143.39 31.72 143.46 31.77 143.53 31.81 143.6 31.84 143.67 31.84 143.74 31.86 143.8 31.9 143.87 31.88 143.94 31.87 144.01 31.86 144.08 31.86 144.15 31.83 144.22 31.78 144.28 31.74 144.35 31.7 144.42 31.65 144.49 31.59 144.56 31.55 144.63 31.49 144.7 31.45 144.76 31.44 144.83 31.44 144.9 31.42 144.97 31.37 145.04 31.35 145.11 31.37 145.18 31.38 145.24 31.38 145.31 31.4 145.38 31.4 145.45 31.39 145.52 31.38 145.59 31.38 145.66 31.4 145.72 31.38 145.79 31.34 145.86 31.31 145.93 31.3 146 31.31 146.07 31.3 146.14 31.29 146.2 31.28 146.27 31.29 146.34 31.28 146.41 31.27 146.48 31.24 146.55 31.22 146.62 31.19 146.68 31.17 146.75 31.16 146.82 31.2 146.89 31.23 146.96 31.25 147.03 31.29 147.1 31.34 147.16 31.4 147.23 31.45 147.3 31.48 147.37 31.5 147.44 31.53 147.51 31.53 147.58 31.54 147.64 31.57 147.71 31.6 147.78 31.65 147.85 31.69 147.92 31.71 147.99 31.72 148.06 31.74 148.12 31.73 148.19 31.74 148.26 31.72 148.33 31.68 148.4 31.63 148.47 31.56 148.54 31.52 148.6 31.52 148.67 31.53 148.74 31.5 148.81 31.48 148.88 31.43 148.95 31.42 149.02 31.4 149.08 31.39 149.15 31.39 149.22 31.34 149.29 31.28 149.36 31.24 149.43 31.24 149.5 31.24 149.56 31.28 149.63 31.27 149.7 31.25 149.77 31.24 149.84 31.24 149.91 31.27 149.98 31.29 150.04 31.28 150.11 31.28 150.18 31.26 150.25 31.24 150.32 31.25 150.39 31.28 150.46 31.3 150.52 31.31 150.59 31.3 150.66 31.34 150.73 31.37 150.8 31.39 150.87 31.43 150.94 31.47 151 31.51 151.07 31.53 151.14 31.54 151.21 31.57 151.28 31.61 151.35 31.62 151.42 31.65 151.49 31.69 151.55 31.71 151.62 31.73 151.69 31.75 151.76 31.77 151.83 31.79 151.9 31.78 151.97 31.76 152.03 31.73 152.1 31.68 152.17 31.63 152.24 31.59 152.31 31.52 152.38 31.47 152.45 31.42 152.51 31.36 152.58 31.31 152.65 31.27 152.72 31.23 152.79 31.18 152.86 31.11 152.93 31.05 152.99 31.02 153.06 30.98 153.13 30.94 153.2 30.93 153.27 30.94 153.34 30.96 153.41 31 153.47 31.07 153.54 31.15 153.61 31.21 153.68 31.25 153.75 31.32 153.82 31.41 153.89 31.49 153.95 31.54 154.02 31.6 154.09 31.67 154.16 31.74 154.23 31.79 154.3 31.88 154.37 31.97 154.43 32 154.5 32 154.57 31.99 154.64 31.99 154.71 31.97 154.78 31.92 154.85 31.84 154.91 31.78 154.98 31.67 155.05 31.59 155.12 31.53 155.19 31.48 155.26 31.4 155.33 31.31 155.39 31.22 155.46 31.14 155.53 31.07 155.6 30.99 155.67 30.94 155.74 30.88 155.81 30.83 155.87 30.8 155.94 30.82 156.01 30.86 156.08 30.9 156.15 30.97 156.22 31.02 156.29 31.11 156.35 31.19 156.42 31.28 156.49 31.36 156.56 31.43" id="fig-fda0d8552b674829965444923ff6ab62-element-32"/>
      </g>
      <g stroke-width="0.3" fill="none" class="geometry color_Wavefunction_at_t=0" stroke="#00BFFF" id="fig-fda0d8552b674829965444923ff6ab62-element-33">
        <path fill="none" d="M19.4,31.43 L 19.47 31.43 19.54 31.43 19.6 31.43 19.67 31.43 19.74 31.43 19.81 31.43 19.88 31.43 19.95 31.43 20.02 31.43 20.08 31.43 20.15 31.43 20.22 31.43 20.29 31.43 20.36 31.43 20.43 31.43 20.5 31.43 20.56 31.43 20.63 31.43 20.7 31.43 20.77 31.43 20.84 31.43 20.91 31.43 20.98 31.43 21.04 31.43 21.11 31.43 21.18 31.43 21.25 31.43 21.32 31.43 21.39 31.43 21.46 31.43 21.52 31.43 21.59 31.43 21.66 31.43 21.73 31.43 21.8 31.43 21.87 31.43 21.94 31.43 22 31.43 22.07 31.43 22.14 31.43 22.21 31.43 22.28 31.43 22.35 31.43 22.42 31.43 22.48 31.43 22.55 31.43 22.62 31.43 22.69 31.43 22.76 31.43 22.83 31.43 22.9 31.43 22.96 31.43 23.03 31.43 23.1 31.43 23.17 31.43 23.24 31.43 23.31 31.43 23.38 31.43 23.44 31.43 23.51 31.43 23.58 31.43 23.65 31.43 23.72 31.43 23.79 31.43 23.86 31.43 23.92 31.43 23.99 31.43 24.06 31.43 24.13 31.43 24.2 31.43 24.27 31.43 24.34 31.43 24.4 31.43 24.47 31.43 24.54 31.43 24.61 31.43 24.68 31.43 24.75 31.43 24.82 31.43 24.88 31.43 24.95 31.43 25.02 31.43 25.09 31.43 25.16 31.43 25.23 31.43 25.3 31.43 25.36 31.43 25.43 31.43 25.5 31.43 25.57 31.43 25.64 31.43 25.71 31.43 25.78 31.43 25.84 31.43 25.91 31.43 25.98 31.43 26.05 31.43 26.12 31.43 26.19 31.43 26.26 31.43 26.32 31.43 26.39 31.43 26.46 31.43 26.53 31.43 26.6 31.43 26.67 31.43 26.74 31.43 26.81 31.43 26.87 31.43 26.94 31.43 27.01 31.43 27.08 31.43 27.15 31.43 27.22 31.43 27.29 31.43 27.35 31.43 27.42 31.43 27.49 31.43 27.56 31.43 27.63 31.43 27.7 31.43 27.77 31.43 27.83 31.43 27.9 31.43 27.97 31.43 28.04 31.43 28.11 31.43 28.18 31.43 28.25 31.43 28.31 31.43 28.38 31.43 28.45 31.43 28.52 31.43 28.59 31.43 28.66 31.43 28.73 31.43 28.79 31.43 28.86 31.43 28.93 31.43 29 31.43 29.07 31.43 29.14 31.43 29.21 31.43 29.27 31.43 29.34 31.43 29.41 31.43 29.48 31.43 29.55 31.43 29.62 31.43 29.69 31.43 29.75 31.43 29.82 31.43 29.89 31.43 29.96 31.43 30.03 31.43 30.1 31.43 30.17 31.43 30.23 31.43 30.3 31.43 30.37 31.43 30.44 31.43 30.51 31.43 30.58 31.43 30.65 31.43 30.71 31.43 30.78 31.43 30.85 31.43 30.92 31.43 30.99 31.43 31.06 31.43 31.13 31.43 31.19 31.43 31.26 31.43 31.33 31.43 31.4 31.43 31.47 31.43 31.54 31.43 31.61 31.43 31.67 31.43 31.74 31.43 31.81 31.43 31.88 31.43 31.95 31.43 32.02 31.43 32.09 31.43 32.15 31.43 32.22 31.43 32.29 31.43 32.36 31.43 32.43 31.43 32.5 31.43 32.57 31.43 32.63 31.43 32.7 31.43 32.77 31.43 32.84 31.43 32.91 31.43 32.98 31.43 33.05 31.43 33.11 31.43 33.18 31.43 33.25 31.43 33.32 31.43 33.39 31.43 33.46 31.43 33.53 31.43 33.59 31.43 33.66 31.43 33.73 31.43 33.8 31.43 33.87 31.43 33.94 31.43 34.01 31.43 34.07 31.43 34.14 31.43 34.21 31.43 34.28 31.43 34.35 31.43 34.42 31.43 34.49 31.43 34.55 31.43 34.62 31.43 34.69 31.43 34.76 31.43 34.83 31.43 34.9 31.43 34.97 31.43 35.03 31.43 35.1 31.43 35.17 31.43 35.24 31.43 35.31 31.43 35.38 31.43 35.45 31.43 35.51 31.43 35.58 31.43 35.65 31.43 35.72 31.43 35.79 31.43 35.86 31.43 35.93 31.43 35.99 31.43 36.06 31.43 36.13 31.43 36.2 31.43 36.27 31.43 36.34 31.43 36.41 31.43 36.47 31.43 36.54 31.43 36.61 31.43 36.68 31.43 36.75 31.43 36.82 31.43 36.89 31.43 36.96 31.43 37.02 31.43 37.09 31.43 37.16 31.43 37.23 31.43 37.3 31.43 37.37 31.43 37.44 31.43 37.5 31.43 37.57 31.43 37.64 31.43 37.71 31.43 37.78 31.43 37.85 31.43 37.92 31.43 37.98 31.43 38.05 31.43 38.12 31.43 38.19 31.43 38.26 31.43 38.33 31.43 38.4 31.43 38.46 31.43 38.53 31.43 38.6 31.43 38.67 31.43 38.74 31.43 38.81 31.43 38.88 31.43 38.94 31.43 39.01 31.43 39.08 31.43 39.15 31.43 39.22 31.43 39.29 31.43 39.36 31.43 39.42 31.43 39.49 31.43 39.56 31.43 39.63 31.43 39.7 31.43 39.77 31.43 39.84 31.43 39.9 31.43 39.97 31.43 40.04 31.43 40.11 31.43 40.18 31.43 40.25 31.43 40.32 31.43 40.38 31.43 40.45 31.43 40.52 31.43 40.59 31.43 40.66 31.43 40.73 31.43 40.8 31.43 40.86 31.43 40.93 31.43 41 31.43 41.07 31.43 41.14 31.43 41.21 31.43 41.28 31.43 41.34 31.43 41.41 31.43 41.48 31.43 41.55 31.43 41.62 31.43 41.69 31.43 41.76 31.43 41.82 31.43 41.89 31.43 41.96 31.43 42.03 31.43 42.1 31.43 42.17 31.43 42.24 31.43 42.3 31.43 42.37 31.43 42.44 31.43 42.51 31.43 42.58 31.43 42.65 31.43 42.72 31.43 42.78 31.43 42.85 31.43 42.92 31.43 42.99 31.43 43.06 31.43 43.13 31.43 43.2 31.43 43.26 31.43 43.33 31.43 43.4 31.43 43.47 31.43 43.54 31.43 43.61 31.43 43.68 31.43 43.74 31.43 43.81 31.43 43.88 31.43 43.95 31.43 44.02 31.43 44.09 31.43 44.16 31.43 44.22 31.43 44.29 31.43 44.36 31.43 44.43 31.43 44.5 31.43 44.57 31.43 44.64 31.43 44.7 31.43 44.77 31.43 44.84 31.43 44.91 31.43 44.98 31.43 45.05 31.43 45.12 31.43 45.18 31.43 45.25 31.43 45.32 31.43 45.39 31.43 45.46 31.43 45.53 31.43 45.6 31.43 45.66 31.43 45.73 31.43 45.8 31.43 45.87 31.43 45.94 31.43 46.01 31.43 46.08 31.43 46.14 31.43 46.21 31.43 46.28 31.43 46.35 31.43 46.42 31.43 46.49 31.43 46.56 31.43 46.62 31.43 46.69 31.43 46.76 31.43 46.83 31.43 46.9 31.43 46.97 31.43 47.04 31.43 47.1 31.43 47.17 31.43 47.24 31.43 47.31 31.43 47.38 31.43 47.45 31.43 47.52 31.43 47.59 31.43 47.65 31.43 47.72 31.43 47.79 31.43 47.86 31.43 47.93 31.43 48 31.43 48.07 31.43 48.13 31.43 48.2 31.43 48.27 31.43 48.34 31.43 48.41 31.43 48.48 31.43 48.55 31.43 48.61 31.43 48.68 31.43 48.75 31.43 48.82 31.43 48.89 31.43 48.96 31.43 49.03 31.43 49.09 31.43 49.16 31.43 49.23 31.43 49.3 31.43 49.37 31.43 49.44 31.43 49.51 31.43 49.57 31.43 49.64 31.43 49.71 31.43 49.78 31.43 49.85 31.43 49.92 31.43 49.99 31.43 50.05 31.43 50.12 31.43 50.19 31.43 50.26 31.43 50.33 31.43 50.4 31.43 50.47 31.43 50.53 31.43 50.6 31.43 50.67 31.43 50.74 31.43 50.81 31.43 50.88 31.43 50.95 31.43 51.01 31.43 51.08 31.43 51.15 31.43 51.22 31.43 51.29 31.43 51.36 31.43 51.43 31.43 51.49 31.43 51.56 31.43 51.63 31.43 51.7 31.43 51.77 31.43 51.84 31.43 51.91 31.43 51.97 31.43 52.04 31.43 52.11 31.43 52.18 31.43 52.25 31.43 52.32 31.43 52.39 31.43 52.45 31.43 52.52 31.43 52.59 31.43 52.66 31.43 52.73 31.43 52.8 31.43 52.87 31.43 52.93 31.43 53 31.43 53.07 31.43 53.14 31.43 53.21 31.43 53.28 31.43 53.35 31.43 53.41 31.43 53.48 31.43 53.55 31.43 53.62 31.43 53.69 31.43 53.76 31.43 53.83 31.43 53.89 31.43 53.96 31.43 54.03 31.43 54.1 31.43 54.17 31.43 54.24 31.43 54.31 31.43 54.37 31.43 54.44 31.43 54.51 31.43 54.58 31.43 54.65 31.43 54.72 31.43 54.79 31.43 54.85 31.43 54.92 31.43 54.99 31.43 55.06 31.43 55.13 31.43 55.2 31.43 55.27 31.43 55.33 31.43 55.4 31.43 55.47 31.43 55.54 31.43 55.61 31.43 55.68 31.43 55.75 31.43 55.81 31.43 55.88 31.43 55.95 31.43 56.02 31.43 56.09 31.43 56.16 31.43 56.23 31.43 56.29 31.43 56.36 31.43 56.43 31.43 56.5 31.43 56.57 31.43 56.64 31.43 56.71 31.43 56.77 31.43 56.84 31.43 56.91 31.43 56.98 31.43 57.05 31.43 57.12 31.43 57.19 31.43 57.25 31.43 57.32 31.43 57.39 31.43 57.46 31.43 57.53 31.43 57.6 31.43 57.67 31.43 57.74 31.43 57.8 31.43 57.87 31.43 57.94 31.43 58.01 31.43 58.08 31.43 58.15 31.43 58.22 31.43 58.28 31.43 58.35 31.43 58.42 31.43 58.49 31.43 58.56 31.43 58.63 31.43 58.7 31.43 58.76 31.43 58.83 31.43 58.9 31.43 58.97 31.43 59.04 31.43 59.11 31.43 59.18 31.43 59.24 31.43 59.31 31.43 59.38 31.43 59.45 31.43 59.52 31.43 59.59 31.43 59.66 31.43 59.72 31.43 59.79 31.43 59.86 31.43 59.93 31.43 60 31.43 60.07 31.43 60.14 31.43 60.2 31.43 60.27 31.43 60.34 31.43 60.41 31.43 60.48 31.43 60.55 31.43 60.62 31.43 60.68 31.43 60.75 31.43 60.82 31.43 60.89 31.43 60.96 31.43 61.03 31.43 61.1 31.43 61.16 31.43 61.23 31.43 61.3 31.43 61.37 31.43 61.44 31.43 61.51 31.43 61.58 31.43 61.64 31.43 61.71 31.43 61.78 31.43 61.85 31.43 61.92 31.43 61.99 31.43 62.06 31.43 62.12 31.43 62.19 31.43 62.26 31.43 62.33 31.43 62.4 31.43 62.47 31.43 62.54 31.43 62.6 31.43 62.67 31.43 62.74 31.43 62.81 31.43 62.88 31.43 62.95 31.43 63.02 31.43 63.08 31.43 63.15 31.43 63.22 31.43 63.29 31.43 63.36 31.43 63.43 31.43 63.5 31.43 63.56 31.43 63.63 31.43 63.7 31.43 63.77 31.43 63.84 31.43 63.91 31.43 63.98 31.43 64.04 31.43 64.11 31.43 64.18 31.43 64.25 31.43 64.32 31.43 64.39 31.43 64.46 31.43 64.52 31.43 64.59 31.43 64.66 31.43 64.73 31.43 64.8 31.43 64.87 31.43 64.94 31.43 65 31.43 65.07 31.43 65.14 31.43 65.21 31.43 65.28 31.43 65.35 31.43 65.42 31.43 65.48 31.43 65.55 31.43 65.62 31.43 65.69 31.43 65.76 31.43 65.83 31.43 65.9 31.43 65.96 31.43 66.03 31.43 66.1 31.43 66.17 31.43 66.24 31.43 66.31 31.43 66.38 31.43 66.44 31.43 66.51 31.43 66.58 31.43 66.65 31.43 66.72 31.43 66.79 31.43 66.86 31.43 66.92 31.43 66.99 31.43 67.06 31.43 67.13 31.43 67.2 31.43 67.27 31.43 67.34 31.43 67.4 31.43 67.47 31.43 67.54 31.43 67.61 31.43 67.68 31.43 67.75 31.43 67.82 31.43 67.88 31.43 67.95 31.43 68.02 31.43 68.09 31.43 68.16 31.43 68.23 31.43 68.3 31.43 68.37 31.43 68.43 31.43 68.5 31.43 68.57 31.43 68.64 31.43 68.71 31.43 68.78 31.43 68.85 31.43 68.91 31.43 68.98 31.43 69.05 31.43 69.12 31.43 69.19 31.43 69.26 31.43 69.33 31.43 69.39 31.43 69.46 31.43 69.53 31.43 69.6 31.43 69.67 31.43 69.74 31.43 69.81 31.43 69.87 31.43 69.94 31.43 70.01 31.43 70.08 31.43 70.15 31.43 70.22 31.43 70.29 31.43 70.35 31.43 70.42 31.43 70.49 31.43 70.56 31.43 70.63 31.43 70.7 31.43 70.77 31.43 70.83 31.43 70.9 31.43 70.97 31.43 71.04 31.43 71.11 31.43 71.18 31.43 71.25 31.43 71.31 31.43 71.38 31.43 71.45 31.43 71.52 31.43 71.59 31.43 71.66 31.43 71.73 31.43 71.79 31.43 71.86 31.43 71.93 31.43 72 31.43 72.07 31.43 72.14 31.43 72.21 31.43 72.27 31.43 72.34 31.43 72.41 31.43 72.48 31.43 72.55 31.43 72.62 31.43 72.69 31.43 72.75 31.43 72.82 31.43 72.89 31.43 72.96 31.43 73.03 31.43 73.1 31.43 73.17 31.43 73.23 31.43 73.3 31.43 73.37 31.43 73.44 31.43 73.51 31.43 73.58 31.43 73.65 31.43 73.71 31.43 73.78 31.43 73.85 31.43 73.92 31.43 73.99 31.43 74.06 31.43 74.13 31.43 74.19 31.43 74.26 31.43 74.33 31.43 74.4 31.43 74.47 31.43 74.54 31.43 74.61 31.43 74.67 31.43 74.74 31.43 74.81 31.43 74.88 31.43 74.95 31.43 75.02 31.43 75.09 31.43 75.15 31.43 75.22 31.43 75.29 31.43 75.36 31.43 75.43 31.43 75.5 31.43 75.57 31.43 75.63 31.43 75.7 31.43 75.77 31.43 75.84 31.43 75.91 31.43 75.98 31.43 76.05 31.43 76.11 31.43 76.18 31.43 76.25 31.43 76.32 31.43 76.39 31.43 76.46 31.43 76.53 31.43 76.59 31.43 76.66 31.43 76.73 31.43 76.8 31.43 76.87 31.43 76.94 31.43 77.01 31.43 77.07 31.43 77.14 31.43 77.21 31.43 77.28 31.43 77.35 31.43 77.42 31.43 77.49 31.43 77.55 31.43 77.62 31.43 77.69 31.43 77.76 31.43 77.83 31.43 77.9 31.43 77.97 31.43 78.03 31.43 78.1 31.43 78.17 31.43 78.24 31.43 78.31 31.43 78.38 31.43 78.45 31.43 78.52 31.43 78.58 31.43 78.65 31.43 78.72 31.43 78.79 31.43 78.86 31.43 78.93 31.43 79 31.43 79.06 31.43 79.13 31.43 79.2 31.43 79.27 31.43 79.34 31.43 79.41 31.43 79.48 31.43 79.54 31.43 79.61 31.43 79.68 31.43 79.75 31.43 79.82 31.43 79.89 31.43 79.96 31.43 80.02 31.43 80.09 31.43 80.16 31.43 80.23 31.43 80.3 31.43 80.37 31.43 80.44 31.43 80.5 31.43 80.57 31.43 80.64 31.43 80.71 31.43 80.78 31.43 80.85 31.43 80.92 31.43 80.98 31.43 81.05 31.43 81.12 32.27 81.19 33.1 81.26 33.94 81.33 34.77 81.4 35.61 81.46 36.44 81.53 37.27 81.6 38.1 81.67 38.93 81.74 39.75 81.81 40.58 81.88 41.4 81.94 42.22 82.01 43.04 82.08 43.85 82.15 44.66 82.22 45.47 82.29 46.27 82.36 47.07 82.42 47.87 82.49 48.66 82.56 49.45 82.63 50.23 82.7 51.01 82.77 51.79 82.84 52.56 82.9 53.32 82.97 54.08 83.04 54.83 83.11 55.58 83.18 56.32 83.25 57.06 83.32 57.79 83.38 58.51 83.45 59.22 83.52 59.93 83.59 60.64 83.66 61.33 83.73 62.02 83.8 62.7 83.86 63.37 83.93 64.03 84 64.69 84.07 65.34 84.14 65.98 84.21 66.61 84.28 67.23 84.34 67.84 84.41 68.45 84.48 69.04 84.55 69.63 84.62 70.21 84.69 70.77 84.76 71.33 84.82 71.88 84.89 72.42 84.96 72.94 85.03 73.46 85.1 73.97 85.17 74.47 85.24 74.95 85.3 75.43 85.37 75.89 85.44 76.34 85.51 76.79 85.58 77.22 85.65 77.64 85.72 78.04 85.78 78.44 85.85 78.83 85.92 79.2 85.99 79.56 86.06 79.91 86.13 80.25 86.2 80.57 86.26 80.89 86.33 81.19 86.4 81.48 86.47 81.76 86.54 82.02 86.61 82.27 86.68 82.51 86.74 82.74 86.81 82.95 86.88 83.15 86.95 83.34 87.02 83.52 87.09 83.68 87.16 83.83 87.22 83.97 87.29 84.09 87.36 84.2 87.43 84.3 87.5 84.39 87.57 84.46 87.64 84.52 87.7 84.56 87.77 84.6 87.84 84.62 87.91 84.62 87.98 84.62 88.05 84.6 88.12 84.56 88.18 84.52 88.25 84.46 88.32 84.39 88.39 84.3 88.46 84.2 88.53 84.09 88.6 83.97 88.66 83.83 88.73 83.68 88.8 83.52 88.87 83.34 88.94 83.15 89.01 82.95 89.08 82.74 89.15 82.51 89.21 82.27 89.28 82.02 89.35 81.76 89.42 81.48 89.49 81.19 89.56 80.89 89.63 80.57 89.69 80.25 89.76 79.91 89.83 79.56 89.9 79.2 89.97 78.83 90.04 78.44 90.11 78.04 90.17 77.64 90.24 77.22 90.31 76.79 90.38 76.34 90.45 75.89 90.52 75.43 90.59 74.95 90.65 74.47 90.72 73.97 90.79 73.46 90.86 72.94 90.93 72.42 91 71.88 91.07 71.33 91.13 70.77 91.2 70.21 91.27 69.63 91.34 69.04 91.41 68.45 91.48 67.84 91.55 67.23 91.61 66.61 91.68 65.98 91.75 65.34 91.82 64.69 91.89 64.03 91.96 63.37 92.03 62.7 92.09 62.02 92.16 61.33 92.23 60.64 92.3 59.93 92.37 59.22 92.44 58.51 92.51 57.79 92.57 57.06 92.64 56.32 92.71 55.58 92.78 54.83 92.85 54.08 92.92 53.32 92.99 52.56 93.05 51.79 93.12 51.01 93.19 50.23 93.26 49.45 93.33 48.66 93.4 47.87 93.47 47.07 93.53 46.27 93.6 45.47 93.67 44.66 93.74 43.85 93.81 43.04 93.88 42.22 93.95 41.4 94.01 40.58 94.08 39.75 94.15 38.93 94.22 38.1 94.29 37.27 94.36 36.44 94.43 35.61 94.49 34.77 94.56 33.94 94.63 33.1 94.7 32.27 94.77 31.43 94.84 31.43 94.91 31.43 94.97 31.43 95.04 31.43 95.11 31.43 95.18 31.43 95.25 31.43 95.32 31.43 95.39 31.43 95.45 31.43 95.52 31.43 95.59 31.43 95.66 31.43 95.73 31.43 95.8 31.43 95.87 31.43 95.93 31.43 96 31.43 96.07 31.43 96.14 31.43 96.21 31.43 96.28 31.43 96.35 31.43 96.41 31.43 96.48 31.43 96.55 31.43 96.62 31.43 96.69 31.43 96.76 31.43 96.83 31.43 96.89 31.43 96.96 31.43 97.03 31.43 97.1 31.43 97.17 31.43 97.24 31.43 97.31 31.43 97.37 31.43 97.44 31.43 97.51 31.43 97.58 31.43 97.65 31.43 97.72 31.43 97.79 31.43 97.85 31.43 97.92 31.43 97.99 31.43 98.06 31.43 98.13 31.43 98.2 31.43 98.27 31.43 98.33 31.43 98.4 31.43 98.47 31.43 98.54 31.43 98.61 31.43 98.68 31.43 98.75 31.43 98.81 31.43 98.88 31.43 98.95 31.43 99.02 31.43 99.09 31.43 99.16 31.43 99.23 31.43 99.3 31.43 99.36 31.43 99.43 31.43 99.5 31.43 99.57 31.43 99.64 31.43 99.71 31.43 99.78 31.43 99.84 31.43 99.91 31.43 99.98 31.43 100.05 31.43 100.12 31.43 100.19 31.43 100.26 31.43 100.32 31.43 100.39 31.43 100.46 31.43 100.53 31.43 100.6 31.43 100.67 31.43 100.74 31.43 100.8 31.43 100.87 31.43 100.94 31.43 101.01 31.43 101.08 31.43 101.15 31.43 101.22 31.43 101.28 31.43 101.35 31.43 101.42 31.43 101.49 31.43 101.56 31.43 101.63 31.43 101.7 31.43 101.76 31.43 101.83 31.43 101.9 31.43 101.97 31.43 102.04 31.43 102.11 31.43 102.18 31.43 102.24 31.43 102.31 31.43 102.38 31.43 102.45 31.43 102.52 31.43 102.59 31.43 102.66 31.43 102.72 31.43 102.79 31.43 102.86 31.43 102.93 31.43 103 31.43 103.07 31.43 103.14 31.43 103.2 31.43 103.27 31.43 103.34 31.43 103.41 31.43 103.48 31.43 103.55 31.43 103.62 31.43 103.68 31.43 103.75 31.43 103.82 31.43 103.89 31.43 103.96 31.43 104.03 31.43 104.1 31.43 104.16 31.43 104.23 31.43 104.3 31.43 104.37 31.43 104.44 31.43 104.51 31.43 104.58 31.43 104.64 31.43 104.71 31.43 104.78 31.43 104.85 31.43 104.92 31.43 104.99 31.43 105.06 31.43 105.12 31.43 105.19 31.43 105.26 31.43 105.33 31.43 105.4 31.43 105.47 31.43 105.54 31.43 105.6 31.43 105.67 31.43 105.74 31.43 105.81 31.43 105.88 31.43 105.95 31.43 106.02 31.43 106.08 31.43 106.15 31.43 106.22 31.43 106.29 31.43 106.36 31.43 106.43 31.43 106.5 31.43 106.56 31.43 106.63 31.43 106.7 31.43 106.77 31.43 106.84 31.43 106.91 31.43 106.98 31.43 107.04 31.43 107.11 31.43 107.18 31.43 107.25 31.43 107.32 31.43 107.39 31.43 107.46 31.43 107.52 31.43 107.59 31.43 107.66 31.43 107.73 31.43 107.8 31.43 107.87 31.43 107.94 31.43 108 31.43 108.07 31.43 108.14 31.43 108.21 31.43 108.28 31.43 108.35 31.43 108.42 31.43 108.48 31.43 108.55 31.43 108.62 31.43 108.69 31.43 108.76 31.43 108.83 31.43 108.9 31.43 108.96 31.43 109.03 31.43 109.1 31.43 109.17 31.43 109.24 31.43 109.31 31.43 109.38 31.43 109.44 31.43 109.51 31.43 109.58 31.43 109.65 31.43 109.72 31.43 109.79 31.43 109.86 31.43 109.93 31.43 109.99 31.43 110.06 31.43 110.13 31.43 110.2 31.43 110.27 31.43 110.34 31.43 110.41 31.43 110.47 31.43 110.54 31.43 110.61 31.43 110.68 31.43 110.75 31.43 110.82 31.43 110.89 31.43 110.95 31.43 111.02 31.43 111.09 31.43 111.16 31.43 111.23 31.43 111.3 31.43 111.37 31.43 111.43 31.43 111.5 31.43 111.57 31.43 111.64 31.43 111.71 31.43 111.78 31.43 111.85 31.43 111.91 31.43 111.98 31.43 112.05 31.43 112.12 31.43 112.19 31.43 112.26 31.43 112.33 31.43 112.39 31.43 112.46 31.43 112.53 31.43 112.6 31.43 112.67 31.43 112.74 31.43 112.81 31.43 112.87 31.43 112.94 31.43 113.01 31.43 113.08 31.43 113.15 31.43 113.22 31.43 113.29 31.43 113.35 31.43 113.42 31.43 113.49 31.43 113.56 31.43 113.63 31.43 113.7 31.43 113.77 31.43 113.83 31.43 113.9 31.43 113.97 31.43 114.04 31.43 114.11 31.43 114.18 31.43 114.25 31.43 114.31 31.43 114.38 31.43 114.45 31.43 114.52 31.43 114.59 31.43 114.66 31.43 114.73 31.43 114.79 31.43 114.86 31.43 114.93 31.43 115 31.43 115.07 31.43 115.14 31.43 115.21 31.43 115.27 31.43 115.34 31.43 115.41 31.43 115.48 31.43 115.55 31.43 115.62 31.43 115.69 31.43 115.75 31.43 115.82 31.43 115.89 31.43 115.96 31.43 116.03 31.43 116.1 31.43 116.17 31.43 116.23 31.43 116.3 31.43 116.37 31.43 116.44 31.43 116.51 31.43 116.58 31.43 116.65 31.43 116.71 31.43 116.78 31.43 116.85 31.43 116.92 31.43 116.99 31.43 117.06 31.43 117.13 31.43 117.19 31.43 117.26 31.43 117.33 31.43 117.4 31.43 117.47 31.43 117.54 31.43 117.61 31.43 117.67 31.43 117.74 31.43 117.81 31.43 117.88 31.43 117.95 31.43 118.02 31.43 118.09 31.43 118.15 31.43 118.22 31.43 118.29 31.43 118.36 31.43 118.43 31.43 118.5 31.43 118.57 31.43 118.63 31.43 118.7 31.43 118.77 31.43 118.84 31.43 118.91 31.43 118.98 31.43 119.05 31.43 119.11 31.43 119.18 31.43 119.25 31.43 119.32 31.43 119.39 31.43 119.46 31.43 119.53 31.43 119.59 31.43 119.66 31.43 119.73 31.43 119.8 31.43 119.87 31.43 119.94 31.43 120.01 31.43 120.07 31.43 120.14 31.43 120.21 31.43 120.28 31.43 120.35 31.43 120.42 31.43 120.49 31.43 120.56 31.43 120.62 31.43 120.69 31.43 120.76 31.43 120.83 31.43 120.9 31.43 120.97 31.43 121.04 31.43 121.1 31.43 121.17 31.43 121.24 31.43 121.31 31.43 121.38 31.43 121.45 31.43 121.52 31.43 121.58 31.43 121.65 31.43 121.72 31.43 121.79 31.43 121.86 31.43 121.93 31.43 122 31.43 122.06 31.43 122.13 31.43 122.2 31.43 122.27 31.43 122.34 31.43 122.41 31.43 122.48 31.43 122.54 31.43 122.61 31.43 122.68 31.43 122.75 31.43 122.82 31.43 122.89 31.43 122.96 31.43 123.02 31.43 123.09 31.43 123.16 31.43 123.23 31.43 123.3 31.43 123.37 31.43 123.44 31.43 123.5 31.43 123.57 31.43 123.64 31.43 123.71 31.43 123.78 31.43 123.85 31.43 123.92 31.43 123.98 31.43 124.05 31.43 124.12 31.43 124.19 31.43 124.26 31.43 124.33 31.43 124.4 31.43 124.46 31.43 124.53 31.43 124.6 31.43 124.67 31.43 124.74 31.43 124.81 31.43 124.88 31.43 124.94 31.43 125.01 31.43 125.08 31.43 125.15 31.43 125.22 31.43 125.29 31.43 125.36 31.43 125.42 31.43 125.49 31.43 125.56 31.43 125.63 31.43 125.7 31.43 125.77 31.43 125.84 31.43 125.9 31.43 125.97 31.43 126.04 31.43 126.11 31.43 126.18 31.43 126.25 31.43 126.32 31.43 126.38 31.43 126.45 31.43 126.52 31.43 126.59 31.43 126.66 31.43 126.73 31.43 126.8 31.43 126.86 31.43 126.93 31.43 127 31.43 127.07 31.43 127.14 31.43 127.21 31.43 127.28 31.43 127.34 31.43 127.41 31.43 127.48 31.43 127.55 31.43 127.62 31.43 127.69 31.43 127.76 31.43 127.82 31.43 127.89 31.43 127.96 31.43 128.03 31.43 128.1 31.43 128.17 31.43 128.24 31.43 128.3 31.43 128.37 31.43 128.44 31.43 128.51 31.43 128.58 31.43 128.65 31.43 128.72 31.43 128.78 31.43 128.85 31.43 128.92 31.43 128.99 31.43 129.06 31.43 129.13 31.43 129.2 31.43 129.26 31.43 129.33 31.43 129.4 31.43 129.47 31.43 129.54 31.43 129.61 31.43 129.68 31.43 129.74 31.43 129.81 31.43 129.88 31.43 129.95 31.43 130.02 31.43 130.09 31.43 130.16 31.43 130.22 31.43 130.29 31.43 130.36 31.43 130.43 31.43 130.5 31.43 130.57 31.43 130.64 31.43 130.71 31.43 130.77 31.43 130.84 31.43 130.91 31.43 130.98 31.43 131.05 31.43 131.12 31.43 131.19 31.43 131.25 31.43 131.32 31.43 131.39 31.43 131.46 31.43 131.53 31.43 131.6 31.43 131.67 31.43 131.73 31.43 131.8 31.43 131.87 31.43 131.94 31.43 132.01 31.43 132.08 31.43 132.15 31.43 132.21 31.43 132.28 31.43 132.35 31.43 132.42 31.43 132.49 31.43 132.56 31.43 132.63 31.43 132.69 31.43 132.76 31.43 132.83 31.43 132.9 31.43 132.97 31.43 133.04 31.43 133.11 31.43 133.17 31.43 133.24 31.43 133.31 31.43 133.38 31.43 133.45 31.43 133.52 31.43 133.59 31.43 133.65 31.43 133.72 31.43 133.79 31.43 133.86 31.43 133.93 31.43 134 31.43 134.07 31.43 134.13 31.43 134.2 31.43 134.27 31.43 134.34 31.43 134.41 31.43 134.48 31.43 134.55 31.43 134.61 31.43 134.68 31.43 134.75 31.43 134.82 31.43 134.89 31.43 134.96 31.43 135.03 31.43 135.09 31.43 135.16 31.43 135.23 31.43 135.3 31.43 135.37 31.43 135.44 31.43 135.51 31.43 135.57 31.43 135.64 31.43 135.71 31.43 135.78 31.43 135.85 31.43 135.92 31.43 135.99 31.43 136.05 31.43 136.12 31.43 136.19 31.43 136.26 31.43 136.33 31.43 136.4 31.43 136.47 31.43 136.53 31.43 136.6 31.43 136.67 31.43 136.74 31.43 136.81 31.43 136.88 31.43 136.95 31.43 137.01 31.43 137.08 31.43 137.15 31.43 137.22 31.43 137.29 31.43 137.36 31.43 137.43 31.43 137.49 31.43 137.56 31.43 137.63 31.43 137.7 31.43 137.77 31.43 137.84 31.43 137.91 31.43 137.97 31.43 138.04 31.43 138.11 31.43 138.18 31.43 138.25 31.43 138.32 31.43 138.39 31.43 138.45 31.43 138.52 31.43 138.59 31.43 138.66 31.43 138.73 31.43 138.8 31.43 138.87 31.43 138.93 31.43 139 31.43 139.07 31.43 139.14 31.43 139.21 31.43 139.28 31.43 139.35 31.43 139.41 31.43 139.48 31.43 139.55 31.43 139.62 31.43 139.69 31.43 139.76 31.43 139.83 31.43 139.89 31.43 139.96 31.43 140.03 31.43 140.1 31.43 140.17 31.43 140.24 31.43 140.31 31.43 140.37 31.43 140.44 31.43 140.51 31.43 140.58 31.43 140.65 31.43 140.72 31.43 140.79 31.43 140.85 31.43 140.92 31.43 140.99 31.43 141.06 31.43 141.13 31.43 141.2 31.43 141.27 31.43 141.34 31.43 141.4 31.43 141.47 31.43 141.54 31.43 141.61 31.43 141.68 31.43 141.75 31.43 141.82 31.43 141.88 31.43 141.95 31.43 142.02 31.43 142.09 31.43 142.16 31.43 142.23 31.43 142.3 31.43 142.36 31.43 142.43 31.43 142.5 31.43 142.57 31.43 142.64 31.43 142.71 31.43 142.78 31.43 142.84 31.43 142.91 31.43 142.98 31.43 143.05 31.43 143.12 31.43 143.19 31.43 143.26 31.43 143.32 31.43 143.39 31.43 143.46 31.43 143.53 31.43 143.6 31.43 143.67 31.43 143.74 31.43 143.8 31.43 143.87 31.43 143.94 31.43 144.01 31.43 144.08 31.43 144.15 31.43 144.22 31.43 144.28 31.43 144.35 31.43 144.42 31.43 144.49 31.43 144.56 31.43 144.63 31.43 144.7 31.43 144.76 31.43 144.83 31.43 144.9 31.43 144.97 31.43 145.04 31.43 145.11 31.43 145.18 31.43 145.24 31.43 145.31 31.43 145.38 31.43 145.45 31.43 145.52 31.43 145.59 31.43 145.66 31.43 145.72 31.43 145.79 31.43 145.86 31.43 145.93 31.43 146 31.43 146.07 31.43 146.14 31.43 146.2 31.43 146.27 31.43 146.34 31.43 146.41 31.43 146.48 31.43 146.55 31.43 146.62 31.43 146.68 31.43 146.75 31.43 146.82 31.43 146.89 31.43 146.96 31.43 147.03 31.43 147.1 31.43 147.16 31.43 147.23 31.43 147.3 31.43 147.37 31.43 147.44 31.43 147.51 31.43 147.58 31.43 147.64 31.43 147.71 31.43 147.78 31.43 147.85 31.43 147.92 31.43 147.99 31.43 148.06 31.43 148.12 31.43 148.19 31.43 148.26 31.43 148.33 31.43 148.4 31.43 148.47 31.43 148.54 31.43 148.6 31.43 148.67 31.43 148.74 31.43 148.81 31.43 148.88 31.43 148.95 31.43 149.02 31.43 149.08 31.43 149.15 31.43 149.22 31.43 149.29 31.43 149.36 31.43 149.43 31.43 149.5 31.43 149.56 31.43 149.63 31.43 149.7 31.43 149.77 31.43 149.84 31.43 149.91 31.43 149.98 31.43 150.04 31.43 150.11 31.43 150.18 31.43 150.25 31.43 150.32 31.43 150.39 31.43 150.46 31.43 150.52 31.43 150.59 31.43 150.66 31.43 150.73 31.43 150.8 31.43 150.87 31.43 150.94 31.43 151 31.43 151.07 31.43 151.14 31.43 151.21 31.43 151.28 31.43 151.35 31.43 151.42 31.43 151.49 31.43 151.55 31.43 151.62 31.43 151.69 31.43 151.76 31.43 151.83 31.43 151.9 31.43 151.97 31.43 152.03 31.43 152.1 31.43 152.17 31.43 152.24 31.43 152.31 31.43 152.38 31.43 152.45 31.43 152.51 31.43 152.58 31.43 152.65 31.43 152.72 31.43 152.79 31.43 152.86 31.43 152.93 31.43 152.99 31.43 153.06 31.43 153.13 31.43 153.2 31.43 153.27 31.43 153.34 31.43 153.41 31.43 153.47 31.43 153.54 31.43 153.61 31.43 153.68 31.43 153.75 31.43 153.82 31.43 153.89 31.43 153.95 31.43 154.02 31.43 154.09 31.43 154.16 31.43 154.23 31.43 154.3 31.43 154.37 31.43 154.43 31.43 154.5 31.43 154.57 31.43 154.64 31.43 154.71 31.43 154.78 31.43 154.85 31.43 154.91 31.43 154.98 31.43 155.05 31.43 155.12 31.43 155.19 31.43 155.26 31.43 155.33 31.43 155.39 31.43 155.46 31.43 155.53 31.43 155.6 31.43 155.67 31.43 155.74 31.43 155.81 31.43 155.87 31.43 155.94 31.43 156.01 31.43 156.08 31.43 156.15 31.43 156.22 31.43 156.29 31.43 156.35 31.43 156.42 31.43 156.49 31.43 156.56 31.43" id="fig-fda0d8552b674829965444923ff6ab62-element-34"/>
      </g>
    </g>
  </g>
  <g class="guide ylabels" font-size="2.82" font-family="'PT Sans Caption','Helvetica Neue','Helvetica',sans-serif" fill="#6C606B" id="fig-fda0d8552b674829965444923ff6ab62-element-35">
    <text x="16.4" y="98.72" text-anchor="end" dy="0.35em" id="fig-fda0d8552b674829965444923ff6ab62-element-36">-4</text>
    <text x="16.4" y="81.89" text-anchor="end" dy="0.35em" id="fig-fda0d8552b674829965444923ff6ab62-element-37">-3</text>
    <text x="16.4" y="65.07" text-anchor="end" dy="0.35em" id="fig-fda0d8552b674829965444923ff6ab62-element-38">-2</text>
    <text x="16.4" y="48.25" text-anchor="end" dy="0.35em" id="fig-fda0d8552b674829965444923ff6ab62-element-39">-1</text>
    <text x="16.4" y="31.43" text-anchor="end" dy="0.35em" id="fig-fda0d8552b674829965444923ff6ab62-element-40">0</text>
    <text x="16.4" y="14.61" text-anchor="end" dy="0.35em" id="fig-fda0d8552b674829965444923ff6ab62-element-41">1</text>
  </g>
  <g font-size="3.88" font-family="'PT Sans','Helvetica Neue','Helvetica',sans-serif" fill="#564A55" stroke="none" id="fig-fda0d8552b674829965444923ff6ab62-element-42">
    <text x="8.81" y="54.66" text-anchor="middle" dy="0.35em" transform="rotate(-90, 8.81, 56.66)" id="fig-fda0d8552b674829965444923ff6ab62-element-43">Re()</text>
  </g>
  <g font-size="3.88" font-family="'PT Sans','Helvetica Neue','Helvetica',sans-serif" fill="#564A55" stroke="none" id="fig-fda0d8552b674829965444923ff6ab62-element-44">
    <text x="87.98" y="10.61" text-anchor="middle" id="fig-fda0d8552b674829965444923ff6ab62-element-45"> initial and final starting from ground with wall thickness s = 0.01</text>
  </g>
</g>
<defs>
<clipPath id="fig-fda0d8552b674829965444923ff6ab62-element-14">
  <path d="M17.4,12.61 L 158.56 12.61 158.56 100.71 17.4 100.71" />
</clipPath
></defs>
</svg>
