<?xml version="1.0" encoding="UTF-8"?>
<svg xmlns="http://www.w3.org/2000/svg"
     xmlns:xlink="http://www.w3.org/1999/xlink"
     xmlns:gadfly="http://www.gadflyjl.org/ns"
     version="1.2"
     width="200mm" height="120mm" viewBox="0 0 200 120"
     stroke="none"
     fill="#000000"
     stroke-width="0.3"
     font-size="3.88"
>
<g class="plotroot xscalable yscalable" id="fig-7301fa94ae894996b048daaf220d3a49-element-1">
  <g font-size="3.88" font-family="'PT Sans','Helvetica Neue','Helvetica',sans-serif" fill="#564A55" stroke="none" id="fig-7301fa94ae894996b048daaf220d3a49-element-2">
    <text x="87.98" y="112" text-anchor="middle">x</text>
  </g>
  <g class="guide xlabels" font-size="2.82" font-family="'PT Sans Caption','Helvetica Neue','Helvetica',sans-serif" fill="#6C606B" id="fig-7301fa94ae894996b048daaf220d3a49-element-3">
    <text x="19.4" y="104.39" text-anchor="middle">-1.0</text>
    <text x="53.69" y="104.39" text-anchor="middle">-0.5</text>
    <text x="87.98" y="104.39" text-anchor="middle">0.0</text>
    <text x="122.27" y="104.39" text-anchor="middle">0.5</text>
    <text x="156.56" y="104.39" text-anchor="middle">1.0</text>
  </g>
  <g class="guide colorkey" id="fig-7301fa94ae894996b048daaf220d3a49-element-4">
    <g fill="#4C404B" font-size="2.82" font-family="'PT Sans','Helvetica Neue','Helvetica',sans-serif" id="fig-7301fa94ae894996b048daaf220d3a49-element-5">
      <text x="162.37" y="56.66" dy="0.35em" id="fig-7301fa94ae894996b048daaf220d3a49-element-6" class="color_Wavefunction_at_t=0">Wavefunction at t=0</text>
      <text x="162.37" y="60.29" dy="0.35em" id="fig-7301fa94ae894996b048daaf220d3a49-element-7" class="color_Wavefunction_at_t=0.00635">Wavefunction at t=0.00635</text>
    </g>
    <g stroke="none" id="fig-7301fa94ae894996b048daaf220d3a49-element-8">
      <rect x="159.56" y="55.76" width="1.81" height="1.81" id="fig-7301fa94ae894996b048daaf220d3a49-element-9" class="color_Wavefunction_at_t=0" fill="#00BFFF"/>
      <rect x="159.56" y="59.38" width="1.81" height="1.81" id="fig-7301fa94ae894996b048daaf220d3a49-element-10" class="color_Wavefunction_at_t=0.00635" fill="#D4CA3A"/>
    </g>
    <g fill="#362A35" font-size="3.88" font-family="'PT Sans','Helvetica Neue','Helvetica',sans-serif" stroke="none" id="fig-7301fa94ae894996b048daaf220d3a49-element-11">
      <text x="159.56" y="52.84" id="fig-7301fa94ae894996b048daaf220d3a49-element-12">Color</text>
    </g>
  </g>
  <g clip-path="url(#fig-7301fa94ae894996b048daaf220d3a49-element-14)" id="fig-7301fa94ae894996b048daaf220d3a49-element-13">
    <g pointer-events="visible" opacity="1" fill="none" stroke="none" class="guide background" id="fig-7301fa94ae894996b048daaf220d3a49-element-15">
      <rect x="17.4" y="12.61" width="141.16" height="88.1" id="fig-7301fa94ae894996b048daaf220d3a49-element-16"/>
    </g>
    <g class="guide ygridlines xfixed" stroke-dasharray="0.5,0.5" stroke-width="0.2" stroke="#D0D0E0" id="fig-7301fa94ae894996b048daaf220d3a49-element-17">
      <path fill="none" d="M17.4,98.72 L 158.56 98.72" id="fig-7301fa94ae894996b048daaf220d3a49-element-18"/>
      <path fill="none" d="M17.4,81.89 L 158.56 81.89" id="fig-7301fa94ae894996b048daaf220d3a49-element-19"/>
      <path fill="none" d="M17.4,65.07 L 158.56 65.07" id="fig-7301fa94ae894996b048daaf220d3a49-element-20"/>
      <path fill="none" d="M17.4,48.25 L 158.56 48.25" id="fig-7301fa94ae894996b048daaf220d3a49-element-21"/>
      <path fill="none" d="M17.4,31.43 L 158.56 31.43" id="fig-7301fa94ae894996b048daaf220d3a49-element-22"/>
      <path fill="none" d="M17.4,14.61 L 158.56 14.61" id="fig-7301fa94ae894996b048daaf220d3a49-element-23"/>
    </g>
    <g class="guide xgridlines yfixed" stroke-dasharray="0.5,0.5" stroke-width="0.2" stroke="#D0D0E0" id="fig-7301fa94ae894996b048daaf220d3a49-element-24">
      <path fill="none" d="M19.4,12.61 L 19.4 100.71" id="fig-7301fa94ae894996b048daaf220d3a49-element-25"/>
      <path fill="none" d="M53.69,12.61 L 53.69 100.71" id="fig-7301fa94ae894996b048daaf220d3a49-element-26"/>
      <path fill="none" d="M87.98,12.61 L 87.98 100.71" id="fig-7301fa94ae894996b048daaf220d3a49-element-27"/>
      <path fill="none" d="M122.27,12.61 L 122.27 100.71" id="fig-7301fa94ae894996b048daaf220d3a49-element-28"/>
      <path fill="none" d="M156.56,12.61 L 156.56 100.71" id="fig-7301fa94ae894996b048daaf220d3a49-element-29"/>
    </g>
    <g class="plotpanel" id="fig-7301fa94ae894996b048daaf220d3a49-element-30">
      <g stroke-width="0.3" fill="none" class="geometry color_Wavefunction_at_t=0.00635" stroke="#D4CA3A" id="fig-7301fa94ae894996b048daaf220d3a49-element-31">
        <path fill="none" d="M19.4,31.43 L 19.47 31.42 19.54 31.44 19.6 31.43 19.67 31.43 19.74 31.4 19.81 31.36 19.88 31.31 19.95 31.29 20.02 31.28 20.08 31.3 20.15 31.32 20.22 31.33 20.29 31.39 20.36 31.42 20.43 31.45 20.5 31.48 20.56 31.51 20.63 31.51 20.7 31.5 20.77 31.47 20.84 31.49 20.91 31.52 20.98 31.51 21.04 31.54 21.11 31.57 21.18 31.6 21.25 31.6 21.32 31.61 21.39 31.62 21.46 31.61 21.52 31.55 21.59 31.49 21.66 31.47 21.73 31.42 21.8 31.37 21.87 31.34 21.94 31.34 22 31.34 22.07 31.32 22.14 31.31 22.21 31.31 22.28 31.3 22.35 31.25 22.42 31.23 22.48 31.23 22.55 31.21 22.62 31.18 22.69 31.19 22.76 31.23 22.83 31.28 22.9 31.32 22.96 31.36 23.03 31.41 23.1 31.45 23.17 31.47 23.24 31.5 23.31 31.53 23.38 31.56 23.44 31.56 23.51 31.57 23.58 31.59 23.65 31.62 23.72 31.65 23.79 31.67 23.86 31.68 23.92 31.67 23.99 31.66 24.06 31.64 24.13 31.61 24.2 31.59 24.27 31.56 24.34 31.51 24.4 31.47 24.47 31.44 24.54 31.41 24.61 31.39 24.68 31.36 24.75 31.35 24.82 31.34 24.88 31.31 24.95 31.29 25.02 31.28 25.09 31.27 25.16 31.27 25.23 31.28 25.3 31.29 25.36 31.3 25.43 31.29 25.5 31.29 25.57 31.32 25.64 31.35 25.71 31.38 25.78 31.4 25.84 31.39 25.91 31.4 25.98 31.42 26.05 31.46 26.12 31.48 26.19 31.48 26.26 31.46 26.32 31.43 26.39 31.41 26.46 31.4 26.53 31.42 26.6 31.43 26.67 31.41 26.74 31.37 26.81 31.39 26.87 31.42 26.94 31.43 27.01 31.44 27.08 31.45 27.15 31.44 27.22 31.41 27.29 31.42 27.35 31.44 27.42 31.49 27.49 31.5 27.56 31.52 27.63 31.57 27.7 31.61 27.77 31.65 27.83 31.68 27.9 31.71 27.97 31.71 28.04 31.71 28.11 31.68 28.18 31.66 28.25 31.63 28.31 31.6 28.38 31.59 28.45 31.57 28.52 31.54 28.59 31.51 28.66 31.47 28.73 31.4 28.79 31.36 28.86 31.29 28.93 31.24 29 31.17 29.07 31.08 29.14 31.03 29.21 31.01 29.27 30.99 29.34 30.98 29.41 30.98 29.48 30.99 29.55 31.02 29.62 31.04 29.69 31.07 29.75 31.12 29.82 31.17 29.89 31.22 29.96 31.28 30.03 31.35 30.1 31.42 30.17 31.48 30.23 31.52 30.3 31.59 30.37 31.69 30.44 31.76 30.51 31.79 30.58 31.82 30.65 31.86 30.71 31.9 30.78 31.91 30.85 31.91 30.92 31.91 30.99 31.88 31.06 31.81 31.13 31.77 31.19 31.74 31.26 31.7 31.33 31.64 31.4 31.6 31.47 31.57 31.54 31.56 31.61 31.52 31.67 31.49 31.74 31.45 31.81 31.38 31.88 31.34 31.95 31.32 32.02 31.27 32.09 31.2 32.15 31.18 32.22 31.17 32.29 31.21 32.36 31.22 32.43 31.25 32.5 31.27 32.57 31.24 32.63 31.22 32.7 31.19 32.77 31.18 32.84 31.15 32.91 31.12 32.98 31.07 33.05 31.07 33.11 31.07 33.18 31.09 33.25 31.12 33.32 31.14 33.39 31.2 33.46 31.21 33.53 31.19 33.59 31.17 33.66 31.19 33.73 31.24 33.8 31.3 33.87 31.33 33.94 31.37 34.01 31.45 34.07 31.53 34.14 31.65 34.21 31.75 34.28 31.82 34.35 31.88 34.42 31.91 34.49 31.94 34.55 31.99 34.62 32.03 34.69 32.06 34.76 32.07 34.83 32.08 34.9 32.08 34.97 32.08 35.03 32.04 35.1 31.98 35.17 31.92 35.24 31.85 35.31 31.77 35.38 31.68 35.45 31.57 35.51 31.45 35.58 31.39 35.65 31.33 35.72 31.25 35.79 31.14 35.86 31.06 35.93 31.01 35.99 30.95 36.06 30.86 36.13 30.79 36.2 30.79 36.27 30.79 36.34 30.79 36.41 30.79 36.47 30.8 36.54 30.83 36.61 30.9 36.68 30.95 36.75 30.98 36.82 31 36.89 31.04 36.96 31.12 37.02 31.19 37.09 31.22 37.16 31.28 37.23 31.34 37.3 31.41 37.37 31.49 37.44 31.56 37.5 31.6 37.57 31.64 37.64 31.68 37.71 31.73 37.78 31.76 37.85 31.78 37.92 31.81 37.98 31.83 38.05 31.81 38.12 31.79 38.19 31.82 38.26 31.84 38.33 31.85 38.4 31.85 38.46 31.84 38.53 31.82 38.6 31.8 38.67 31.78 38.74 31.75 38.81 31.72 38.88 31.65 38.94 31.6 39.01 31.54 39.08 31.51 39.15 31.47 39.22 31.45 39.29 31.44 39.36 31.44 39.42 31.43 39.49 31.41 39.56 31.38 39.63 31.35 39.7 31.35 39.77 31.33 39.84 31.33 39.9 31.32 39.97 31.3 40.04 31.28 40.11 31.28 40.18 31.29 40.25 31.33 40.32 31.34 40.38 31.34 40.45 31.31 40.52 31.31 40.59 31.31 40.66 31.31 40.73 31.29 40.8 31.27 40.86 31.24 40.93 31.18 41 31.14 41.07 31.1 41.14 31.1 41.21 31.08 41.28 31.08 41.34 31.12 41.41 31.15 41.48 31.18 41.55 31.2 41.62 31.22 41.69 31.25 41.76 31.27 41.82 31.28 41.89 31.29 41.96 31.27 42.03 31.28 42.1 31.34 42.17 31.39 42.24 31.46 42.3 31.54 42.37 31.58 42.44 31.6 42.51 31.61 42.58 31.62 42.65 31.62 42.72 31.58 42.78 31.53 42.85 31.51 42.92 31.51 42.99 31.5 43.06 31.52 43.13 31.55 43.2 31.58 43.26 31.6 43.33 31.64 43.4 31.67 43.47 31.7 43.54 31.73 43.61 31.75 43.68 31.79 43.74 31.85 43.81 31.9 43.88 31.94 43.95 31.96 44.02 31.98 44.09 32.02 44.16 32.04 44.22 32.02 44.29 32.01 44.36 32.01 44.43 31.99 44.5 31.97 44.57 31.93 44.64 31.85 44.7 31.76 44.77 31.64 44.84 31.52 44.91 31.41 44.98 31.3 45.05 31.18 45.12 31.07 45.18 30.99 45.25 30.92 45.32 30.9 45.39 30.85 45.46 30.81 45.53 30.78 45.6 30.74 45.66 30.71 45.73 30.66 45.8 30.62 45.87 30.61 45.94 30.64 46.01 30.68 46.08 30.71 46.14 30.74 46.21 30.77 46.28 30.78 46.35 30.8 46.42 30.84 46.49 30.88 46.56 30.88 46.62 30.89 46.69 30.89 46.76 30.93 46.83 30.97 46.9 31.01 46.97 31.07 47.04 31.11 47.1 31.18 47.17 31.25 47.24 31.3 47.31 31.35 47.38 31.45 47.45 31.58 47.52 31.72 47.59 31.82 47.65 31.92 47.72 32.02 47.79 32.1 47.86 32.2 47.93 32.3 48 32.37 48.07 32.45 48.13 32.49 48.2 32.53 48.27 32.55 48.34 32.55 48.41 32.57 48.48 32.55 48.55 32.52 48.61 32.5 48.68 32.47 48.75 32.38 48.82 32.3 48.89 32.23 48.96 32.18 49.03 32.13 49.09 32.04 49.16 31.95 49.23 31.84 49.3 31.76 49.37 31.69 49.44 31.6 49.51 31.51 49.57 31.43 49.64 31.38 49.71 31.33 49.78 31.22 49.85 31.14 49.92 31.08 49.99 31.03 50.05 30.98 50.12 30.92 50.19 30.82 50.26 30.75 50.33 30.69 50.4 30.63 50.47 30.56 50.53 30.48 50.6 30.45 50.67 30.43 50.74 30.43 50.81 30.42 50.88 30.42 50.95 30.46 51.01 30.49 51.08 30.52 51.15 30.54 51.22 30.55 51.29 30.57 51.36 30.61 51.43 30.63 51.49 30.67 51.56 30.72 51.63 30.79 51.7 30.87 51.77 30.96 51.84 31.04 51.91 31.12 51.97 31.2 52.04 31.27 52.11 31.34 52.18 31.4 52.25 31.47 52.32 31.54 52.39 31.61 52.45 31.67 52.52 31.71 52.59 31.74 52.66 31.78 52.73 31.81 52.8 31.85 52.87 31.9 52.93 31.97 53 32.01 53.07 32.05 53.14 32.08 53.21 32.09 53.28 32.09 53.35 32.06 53.41 32.05 53.48 32 53.55 31.95 53.62 31.91 53.69 31.89 53.76 31.88 53.83 31.9 53.89 31.93 53.96 31.97 54.03 31.99 54.1 32 54.17 31.99 54.24 31.97 54.31 31.95 54.37 31.96 54.44 31.95 54.51 31.94 54.58 31.94 54.65 31.9 54.72 31.86 54.79 31.79 54.85 31.77 54.92 31.74 54.99 31.7 55.06 31.7 55.13 31.68 55.2 31.65 55.27 31.63 55.33 31.61 55.4 31.59 55.47 31.55 55.54 31.53 55.61 31.5 55.68 31.45 55.75 31.42 55.81 31.42 55.88 31.43 55.95 31.48 56.02 31.54 56.09 31.59 56.16 31.63 56.23 31.63 56.29 31.62 56.36 31.6 56.43 31.55 56.5 31.53 56.57 31.49 56.64 31.44 56.71 31.38 56.77 31.31 56.84 31.24 56.91 31.15 56.98 31.09 57.05 31.03 57.12 30.97 57.19 30.94 57.25 30.91 57.32 30.88 57.39 30.86 57.46 30.85 57.53 30.83 57.6 30.83 57.67 30.81 57.74 30.78 57.8 30.75 57.87 30.72 57.94 30.69 58.01 30.67 58.08 30.67 58.15 30.66 58.22 30.64 58.28 30.62 58.35 30.58 58.42 30.53 58.49 30.49 58.56 30.43 58.63 30.39 58.7 30.36 58.76 30.32 58.83 30.31 58.9 30.3 58.97 30.3 59.04 30.33 59.11 30.36 59.18 30.4 59.24 30.46 59.31 30.54 59.38 30.62 59.45 30.7 59.52 30.82 59.59 30.9 59.66 31 59.72 31.08 59.79 31.17 59.86 31.24 59.93 31.32 60 31.39 60.07 31.46 60.14 31.53 60.2 31.6 60.27 31.65 60.34 31.71 60.41 31.77 60.48 31.85 60.55 31.93 60.62 32.02 60.68 32.12 60.75 32.22 60.82 32.3 60.89 32.4 60.96 32.51 61.03 32.61 61.1 32.73 61.16 32.84 61.23 32.95 61.3 33.03 61.37 33.1 61.44 33.16 61.51 33.19 61.58 33.22 61.64 33.26 61.71 33.26 61.78 33.27 61.85 33.26 61.92 33.25 61.99 33.23 62.06 33.21 62.12 33.2 62.19 33.18 62.26 33.15 62.33 33.11 62.4 33.05 62.47 32.97 62.54 32.9 62.6 32.84 62.67 32.78 62.74 32.73 62.81 32.66 62.88 32.59 62.95 32.49 63.02 32.37 63.08 32.27 63.15 32.15 63.22 32.07 63.29 31.99 63.36 31.9 63.43 31.8 63.5 31.67 63.56 31.53 63.63 31.37 63.7 31.2 63.77 31.06 63.84 30.91 63.91 30.79 63.98 30.68 64.04 30.56 64.11 30.46 64.18 30.36 64.25 30.28 64.32 30.2 64.39 30.13 64.46 30.06 64.52 29.99 64.59 29.92 64.66 29.86 64.73 29.79 64.8 29.73 64.87 29.69 64.94 29.63 65 29.59 65.07 29.54 65.14 29.5 65.21 29.47 65.28 29.47 65.35 29.49 65.42 29.54 65.48 29.6 65.55 29.67 65.62 29.71 65.69 29.76 65.76 29.77 65.83 29.79 65.9 29.8 65.96 29.84 66.03 29.88 66.1 29.94 66.17 29.99 66.24 30.06 66.31 30.12 66.38 30.18 66.44 30.27 66.51 30.36 66.58 30.47 66.65 30.6 66.72 30.74 66.79 30.87 66.86 30.99 66.92 31.11 66.99 31.2 67.06 31.26 67.13 31.34 67.2 31.39 67.27 31.43 67.34 31.48 67.4 31.56 67.47 31.61 67.54 31.68 67.61 31.76 67.68 31.82 67.75 31.87 67.82 31.94 67.88 31.99 67.95 32.05 68.02 32.1 68.09 32.18 68.16 32.22 68.23 32.27 68.3 32.31 68.37 32.33 68.43 32.35 68.5 32.36 68.57 32.38 68.64 32.41 68.71 32.41 68.78 32.44 68.85 32.44 68.91 32.43 68.98 32.43 69.05 32.41 69.12 32.37 69.19 32.33 69.26 32.28 69.33 32.21 69.39 32.14 69.46 32.07 69.53 32.01 69.6 31.96 69.67 31.93 69.74 31.91 69.81 31.88 69.87 31.86 69.94 31.84 70.01 31.82 70.08 31.81 70.15 31.78 70.22 31.78 70.29 31.75 70.35 31.7 70.42 31.66 70.49 31.57 70.56 31.48 70.63 31.38 70.7 31.29 70.77 31.21 70.83 31.14 70.9 31.09 70.97 31.03 71.04 30.97 71.11 30.95 71.18 30.92 71.25 30.92 71.31 30.94 71.38 30.96 71.45 30.99 71.52 31.01 71.59 31.02 71.66 31.02 71.73 31.01 71.79 31.01 71.86 31.01 71.93 31.03 72 31.04 72.07 31.02 72.14 31.01 72.21 30.98 72.27 30.94 72.34 30.94 72.41 30.96 72.48 30.98 72.55 31.04 72.62 31.09 72.69 31.15 72.75 31.18 72.82 31.25 72.89 31.29 72.96 31.35 73.03 31.45 73.1 31.55 73.17 31.64 73.23 31.74 73.3 31.81 73.37 31.85 73.44 31.88 73.51 31.91 73.58 31.93 73.65 31.97 73.71 32.02 73.78 32.08 73.85 32.12 73.92 32.17 73.99 32.21 74.06 32.25 74.13 32.3 74.19 32.37 74.26 32.44 74.33 32.54 74.4 32.62 74.47 32.73 74.54 32.8 74.61 32.88 74.67 32.95 74.74 33 74.81 33.04 74.88 33.08 74.95 33.12 75.02 33.16 75.09 33.2 75.15 33.26 75.22 33.3 75.29 33.35 75.36 33.41 75.43 33.46 75.5 33.5 75.57 33.56 75.63 33.63 75.7 33.69 75.77 33.76 75.84 33.84 75.91 33.89 75.98 33.95 76.05 33.98 76.11 34.01 76.18 34.03 76.25 34.07 76.32 34.11 76.39 34.15 76.46 34.22 76.53 34.28 76.59 34.33 76.66 34.39 76.73 34.42 76.8 34.47 76.87 34.5 76.94 34.55 77.01 34.6 77.07 34.64 77.14 34.68 77.21 34.71 77.28 34.72 77.35 34.74 77.42 34.74 77.49 34.77 77.55 34.79 77.62 34.84 77.69 34.9 77.76 34.96 77.83 35.04 77.9 35.11 77.97 35.18 78.03 35.26 78.1 35.32 78.17 35.4 78.24 35.46 78.31 35.53 78.38 35.59 78.45 35.63 78.52 35.69 78.58 35.75 78.65 35.8 78.72 35.88 78.79 35.94 78.86 36.02 78.93 36.11 79 36.22 79.06 36.35 79.13 36.5 79.2 36.67 79.27 36.83 79.34 37.01 79.41 37.19 79.48 37.35 79.54 37.52 79.61 37.71 79.68 37.88 79.75 38.09 79.82 38.3 79.89 38.51 79.96 38.73 80.02 38.96 80.09 39.19 80.16 39.43 80.23 39.71 80.3 40.02 80.37 40.33 80.44 40.7 80.5 41.07 80.57 41.45 80.64 41.84 80.71 42.25 80.78 42.66 80.85 43.1 80.92 43.58 80.98 44.07 81.05 44.57 81.12 45.13 81.19 45.65 81.26 46.15 81.33 46.67 81.4 47.17 81.46 47.67 81.53 48.18 81.6 48.69 81.67 49.19 81.74 49.69 81.81 50.2 81.88 50.67 81.94 51.14 82.01 51.62 82.08 52.09 82.15 52.55 82.22 53.03 82.29 53.5 82.36 53.95 82.42 54.41 82.49 54.87 82.56 55.31 82.63 55.75 82.7 56.2 82.77 56.63 82.84 57.05 82.9 57.46 82.97 57.86 83.04 58.23 83.11 58.61 83.18 58.98 83.25 59.33 83.32 59.69 83.38 60.04 83.45 60.38 83.52 60.72 83.59 61.05 83.66 61.39 83.73 61.71 83.8 62.06 83.86 62.39 83.93 62.72 84 63.04 84.07 63.33 84.14 63.61 84.21 63.87 84.28 64.12 84.34 64.37 84.41 64.59 84.48 64.83 84.55 65.04 84.62 65.23 84.69 65.43 84.76 65.6 84.82 65.78 84.89 65.96 84.96 66.15 85.03 66.35 85.1 66.54 85.17 66.75 85.24 66.92 85.3 67.08 85.37 67.23 85.44 67.35 85.51 67.48 85.58 67.6 85.65 67.71 85.72 67.82 85.78 67.89 85.85 67.97 85.92 68.03 85.99 68.07 86.06 68.13 86.13 68.18 86.2 68.26 86.26 68.34 86.33 68.44 86.4 68.52 86.47 68.58 86.54 68.65 86.61 68.7 86.68 68.74 86.74 68.79 86.81 68.83 86.88 68.87 86.95 68.9 87.02 68.91 87.09 68.9 87.16 68.89 87.22 68.88 87.29 68.87 87.36 68.87 87.43 68.9 87.5 68.92 87.57 68.96 87.64 68.98 87.7 69.01 87.77 69.02 87.84 69.03 87.91 69.05 87.98 69.07 88.05 69.08 88.12 69.1 88.18 69.09 88.25 69.06 88.32 69.03 88.39 68.99 88.46 68.95 88.53 68.92 88.6 68.91 88.66 68.91 88.73 68.9 88.8 68.91 88.87 68.9 88.94 68.89 89.01 68.88 89.08 68.86 89.15 68.85 89.21 68.85 89.28 68.83 89.35 68.8 89.42 68.75 89.49 68.69 89.56 68.6 89.63 68.51 89.69 68.43 89.76 68.35 89.83 68.27 89.9 68.22 89.97 68.14 90.04 68.08 90.11 67.99 90.17 67.91 90.24 67.82 90.31 67.73 90.38 67.66 90.45 67.56 90.52 67.46 90.59 67.35 90.65 67.2 90.72 67.03 90.79 66.85 90.86 66.65 90.93 66.46 91 66.26 91.07 66.08 91.13 65.88 91.2 65.68 91.27 65.48 91.34 65.25 91.41 65.04 91.48 64.82 91.55 64.61 91.61 64.39 91.68 64.16 91.75 63.94 91.82 63.67 91.89 63.39 91.96 63.09 92.03 62.77 92.09 62.45 92.16 62.11 92.23 61.78 92.3 61.44 92.37 61.08 92.44 60.74 92.51 60.36 92.57 60 92.64 59.64 92.71 59.27 92.78 58.91 92.85 58.54 92.92 58.17 92.99 57.77 93.05 57.37 93.12 56.97 93.19 56.54 93.26 56.11 93.33 55.68 93.4 55.22 93.47 54.77 93.53 54.3 93.6 53.83 93.67 53.34 93.74 52.87 93.81 52.4 93.88 51.9 93.95 51.43 94.01 50.95 94.08 50.45 94.15 49.95 94.22 49.44 94.29 48.93 94.36 48.41 94.43 47.92 94.49 47.4 94.56 46.88 94.63 46.37 94.7 45.84 94.77 45.28 94.84 44.75 94.91 44.23 94.97 43.74 95.04 43.27 95.11 42.85 95.18 42.42 95.25 42.01 95.32 41.62 95.39 41.21 95.45 40.82 95.52 40.47 95.59 40.13 95.66 39.82 95.73 39.53 95.8 39.27 95.87 38.99 95.93 38.75 96 38.51 96.07 38.27 96.14 38.07 96.21 37.89 96.28 37.71 96.35 37.56 96.41 37.4 96.48 37.24 96.55 37.07 96.62 36.91 96.69 36.74 96.76 36.57 96.83 36.42 96.89 36.28 96.96 36.15 97.03 36.04 97.1 35.92 97.17 35.82 97.24 35.73 97.31 35.65 97.37 35.59 97.44 35.53 97.51 35.49 97.58 35.45 97.65 35.41 97.72 35.38 97.79 35.32 97.85 35.27 97.92 35.22 97.99 35.14 98.06 35.08 98.13 35 98.2 34.93 98.27 34.86 98.33 34.79 98.4 34.75 98.47 34.71 98.54 34.67 98.61 34.66 98.68 34.61 98.75 34.6 98.81 34.56 98.88 34.54 98.95 34.52 99.02 34.5 99.09 34.48 99.16 34.45 99.23 34.41 99.3 34.37 99.36 34.29 99.43 34.23 99.5 34.16 99.57 34.11 99.64 34.06 99.71 34.03 99.78 34.01 99.84 33.96 99.91 33.92 99.98 33.88 100.05 33.81 100.12 33.76 100.19 33.7 100.26 33.66 100.32 33.59 100.39 33.55 100.46 33.49 100.53 33.42 100.6 33.35 100.67 33.28 100.74 33.21 100.8 33.15 100.87 33.1 100.94 33.05 101.01 33.01 101.08 32.99 101.15 32.95 101.22 32.91 101.28 32.86 101.35 32.8 101.42 32.73 101.49 32.65 101.56 32.56 101.63 32.49 101.7 32.4 101.76 32.34 101.83 32.26 101.9 32.2 101.97 32.11 102.04 32.03 102.11 31.95 102.18 31.88 102.24 31.83 102.31 31.82 102.38 31.79 102.45 31.79 102.52 31.77 102.59 31.74 102.66 31.66 102.72 31.61 102.79 31.53 102.86 31.46 102.93 31.4 103 31.36 103.07 31.3 103.14 31.24 103.2 31.18 103.27 31.09 103.34 31 103.41 30.95 103.48 30.9 103.55 30.88 103.62 30.89 103.68 30.9 103.75 30.91 103.82 30.92 103.89 30.92 103.96 30.92 104.03 30.94 104.1 30.98 104.16 31 104.23 31.04 104.3 31.07 104.37 31.07 104.44 31.07 104.51 31.06 104.58 31.04 104.64 31.04 104.71 31.04 104.78 31.05 104.85 31.06 104.92 31.07 104.99 31.09 105.06 31.1 105.12 31.16 105.19 31.22 105.26 31.3 105.33 31.41 105.4 31.5 105.47 31.59 105.54 31.68 105.6 31.74 105.67 31.82 105.74 31.87 105.81 31.93 105.88 31.98 105.95 32 106.02 32.03 106.08 32.03 106.15 32.02 106.22 32.02 106.29 32.02 106.36 32.05 106.43 32.07 106.5 32.12 106.56 32.17 106.63 32.21 106.7 32.26 106.77 32.32 106.84 32.36 106.91 32.4 106.98 32.44 107.04 32.45 107.11 32.45 107.18 32.45 107.25 32.44 107.32 32.42 107.39 32.39 107.46 32.38 107.52 32.34 107.59 32.3 107.66 32.26 107.73 32.21 107.8 32.15 107.87 32.1 107.94 32.05 108 32.01 108.07 31.93 108.14 31.89 108.21 31.81 108.28 31.72 108.35 31.63 108.42 31.55 108.48 31.45 108.55 31.38 108.62 31.33 108.69 31.27 108.76 31.21 108.83 31.18 108.9 31.11 108.96 31.04 109.03 30.95 109.1 30.87 109.17 30.75 109.24 30.65 109.31 30.55 109.38 30.44 109.44 30.34 109.51 30.24 109.58 30.13 109.65 30.03 109.72 29.93 109.79 29.84 109.86 29.77 109.93 29.73 109.99 29.72 110.06 29.72 110.13 29.73 110.2 29.72 110.27 29.72 110.34 29.68 110.41 29.63 110.47 29.59 110.54 29.58 110.61 29.55 110.68 29.56 110.75 29.57 110.82 29.58 110.89 29.6 110.95 29.63 111.02 29.65 111.09 29.71 111.16 29.78 111.23 29.86 111.3 29.95 111.37 30.05 111.43 30.14 111.5 30.22 111.57 30.31 111.64 30.4 111.71 30.47 111.78 30.56 111.85 30.64 111.91 30.72 111.98 30.82 112.05 30.93 112.12 31.06 112.19 31.21 112.26 31.37 112.33 31.54 112.39 31.67 112.46 31.81 112.53 31.92 112.6 32.02 112.67 32.14 112.74 32.26 112.81 32.38 112.87 32.5 112.94 32.59 113.01 32.68 113.08 32.72 113.15 32.77 113.22 32.82 113.29 32.87 113.35 32.95 113.42 33.02 113.49 33.09 113.56 33.13 113.63 33.17 113.7 33.18 113.77 33.19 113.83 33.19 113.9 33.21 113.97 33.22 114.04 33.21 114.11 33.21 114.18 33.2 114.25 33.16 114.31 33.16 114.38 33.13 114.45 33.11 114.52 33.05 114.59 33.01 114.66 32.94 114.73 32.83 114.79 32.74 114.86 32.64 114.93 32.53 115 32.43 115.07 32.32 115.14 32.21 115.21 32.07 115.27 31.96 115.34 31.84 115.41 31.73 115.48 31.65 115.55 31.57 115.62 31.51 115.69 31.43 115.75 31.38 115.82 31.31 115.89 31.26 115.96 31.19 116.03 31.15 116.1 31.1 116.17 31.04 116.23 30.98 116.3 30.92 116.37 30.83 116.44 30.77 116.51 30.69 116.58 30.62 116.65 30.54 116.71 30.49 116.78 30.42 116.85 30.36 116.92 30.32 116.99 30.29 117.06 30.27 117.13 30.26 117.19 30.27 117.26 30.3 117.33 30.35 117.4 30.41 117.47 30.47 117.54 30.54 117.61 30.59 117.67 30.63 117.74 30.67 117.81 30.7 117.88 30.73 117.95 30.78 118.02 30.82 118.09 30.85 118.15 30.88 118.22 30.9 118.29 30.91 118.36 30.93 118.43 30.94 118.5 30.95 118.57 30.97 118.63 30.99 118.7 31.01 118.77 31.03 118.84 31.06 118.91 31.08 118.98 31.13 119.05 31.18 119.11 31.21 119.18 31.26 119.25 31.32 119.32 31.35 119.39 31.43 119.46 31.5 119.53 31.58 119.59 31.65 119.66 31.69 119.73 31.71 119.8 31.69 119.87 31.64 119.94 31.6 120.01 31.56 120.07 31.54 120.14 31.53 120.21 31.53 120.28 31.53 120.35 31.5 120.42 31.52 120.49 31.52 120.56 31.54 120.62 31.57 120.69 31.62 120.76 31.64 120.83 31.67 120.9 31.71 120.97 31.74 121.04 31.77 121.1 31.81 121.17 31.85 121.24 31.87 121.31 31.87 121.38 31.9 121.45 31.91 121.52 31.94 121.58 31.98 121.65 32.04 121.72 32.09 121.79 32.1 121.86 32.11 121.93 32.07 122 32.03 122.06 31.97 122.13 31.95 122.2 31.93 122.27 31.92 122.34 31.93 122.41 31.94 122.48 31.95 122.54 31.96 122.61 31.98 122.68 32 122.75 31.99 122.82 32 122.89 31.98 122.96 31.94 123.02 31.91 123.09 31.87 123.16 31.83 123.23 31.78 123.3 31.73 123.37 31.66 123.44 31.59 123.5 31.5 123.57 31.44 123.64 31.38 123.71 31.33 123.78 31.29 123.85 31.25 123.92 31.19 123.98 31.12 124.05 31.05 124.12 30.95 124.19 30.85 124.26 30.77 124.33 30.7 124.4 30.63 124.46 30.58 124.53 30.53 124.6 30.51 124.67 30.51 124.74 30.5 124.81 30.47 124.88 30.47 124.94 30.46 125.01 30.45 125.08 30.46 125.15 30.45 125.22 30.45 125.29 30.49 125.36 30.52 125.42 30.57 125.49 30.61 125.56 30.66 125.63 30.76 125.7 30.86 125.77 30.92 125.84 30.99 125.9 31.08 125.97 31.19 126.04 31.29 126.11 31.38 126.18 31.43 126.25 31.5 126.32 31.58 126.38 31.66 126.45 31.7 126.52 31.75 126.59 31.83 126.66 31.93 126.73 32.02 126.8 32.06 126.86 32.11 126.93 32.18 127 32.24 127.07 32.33 127.14 32.38 127.21 32.4 127.28 32.45 127.34 32.49 127.41 32.51 127.48 32.49 127.55 32.49 127.62 32.5 127.69 32.51 127.76 32.48 127.82 32.43 127.89 32.37 127.96 32.29 128.03 32.22 128.1 32.14 128.17 32.06 128.24 31.94 128.3 31.82 128.37 31.69 128.44 31.55 128.51 31.44 128.58 31.36 128.65 31.25 128.72 31.16 128.78 31.08 128.85 31.01 128.92 30.93 128.99 30.84 129.06 30.77 129.13 30.76 129.2 30.75 129.26 30.76 129.33 30.76 129.4 30.73 129.47 30.76 129.54 30.77 129.61 30.8 129.68 30.8 129.74 30.79 129.81 30.78 129.88 30.76 129.95 30.74 130.02 30.74 130.09 30.77 130.16 30.79 130.22 30.83 130.29 30.87 130.36 30.9 130.43 30.93 130.5 30.94 130.57 30.95 130.64 31 130.71 31.07 130.77 31.14 130.84 31.19 130.91 31.27 130.98 31.35 131.05 31.46 131.12 31.56 131.19 31.65 131.25 31.73 131.32 31.81 131.39 31.89 131.46 31.96 131.53 32.03 131.6 32.07 131.67 32.13 131.73 32.14 131.8 32.13 131.87 32.12 131.94 32.08 132.01 32.01 132.08 31.93 132.15 31.88 132.21 31.84 132.28 31.8 132.35 31.76 132.42 31.72 132.49 31.7 132.56 31.67 132.63 31.63 132.69 31.58 132.76 31.5 132.83 31.43 132.9 31.41 132.97 31.37 133.04 31.36 133.11 31.39 133.17 31.41 133.24 31.43 133.31 31.47 133.38 31.52 133.45 31.56 133.52 31.56 133.59 31.51 133.65 31.49 133.72 31.46 133.79 31.43 133.86 31.39 133.93 31.38 134 31.35 134.07 31.32 134.13 31.3 134.2 31.27 134.27 31.24 134.34 31.23 134.41 31.2 134.48 31.19 134.55 31.18 134.61 31.16 134.68 31.14 134.75 31.11 134.82 31.09 134.89 31.11 134.96 31.14 135.03 31.12 135.09 31.14 135.16 31.13 135.23 31.16 135.3 31.21 135.37 31.26 135.44 31.32 135.51 31.35 135.57 31.36 135.64 31.35 135.71 31.36 135.78 31.35 135.85 31.35 135.92 31.33 135.99 31.33 136.05 31.34 136.12 31.34 136.19 31.37 136.26 31.39 136.33 31.43 136.4 31.48 136.47 31.51 136.53 31.53 136.6 31.53 136.67 31.53 136.74 31.53 136.81 31.54 136.88 31.57 136.95 31.62 137.01 31.66 137.08 31.67 137.15 31.7 137.22 31.74 137.29 31.8 137.36 31.85 137.43 31.86 137.49 31.87 137.56 31.85 137.63 31.84 137.7 31.81 137.77 31.81 137.84 31.8 137.91 31.76 137.97 31.72 138.04 31.71 138.11 31.69 138.18 31.65 138.25 31.62 138.32 31.59 138.39 31.56 138.45 31.5 138.52 31.43 138.59 31.38 138.66 31.32 138.73 31.25 138.8 31.19 138.87 31.13 138.93 31.08 139 31.06 139.07 31.03 139.14 30.98 139.21 30.93 139.28 30.9 139.35 30.9 139.41 30.88 139.48 30.84 139.55 30.81 139.62 30.82 139.69 30.83 139.76 30.88 139.83 30.93 139.89 30.95 139.96 30.99 140.03 31.09 140.1 31.17 140.17 31.23 140.24 31.28 140.31 31.35 140.37 31.47 140.44 31.57 140.51 31.65 140.58 31.75 140.65 31.86 140.72 31.95 140.79 32.02 140.85 32.06 140.92 32.09 140.99 32.14 141.06 32.15 141.13 32.15 141.2 32.1 141.27 32.06 141.34 32.05 141.4 32.05 141.47 32.02 141.54 31.96 141.61 31.87 141.68 31.76 141.75 31.66 141.82 31.56 141.88 31.47 141.95 31.38 142.02 31.27 142.09 31.18 142.16 31.11 142.23 31.07 142.3 31.06 142.36 31.04 142.43 31.01 142.5 30.99 142.57 30.99 142.64 30.98 142.71 30.96 142.78 30.95 142.84 30.99 142.91 31.04 142.98 31.08 143.05 31.12 143.12 31.14 143.19 31.2 143.26 31.25 143.32 31.31 143.39 31.33 143.46 31.36 143.53 31.38 143.6 31.4 143.67 31.4 143.74 31.42 143.8 31.47 143.87 31.47 143.94 31.48 144.01 31.47 144.08 31.49 144.15 31.49 144.22 31.48 144.28 31.5 144.35 31.54 144.42 31.58 144.49 31.59 144.56 31.61 144.63 31.63 144.7 31.66 144.76 31.69 144.83 31.72 144.9 31.72 144.97 31.68 145.04 31.67 145.11 31.7 145.18 31.72 145.24 31.73 145.31 31.75 145.38 31.75 145.45 31.73 145.52 31.7 145.59 31.68 145.66 31.65 145.72 31.56 145.79 31.45 145.86 31.38 145.93 31.33 146 31.29 146.07 31.24 146.14 31.19 146.2 31.17 146.27 31.16 146.34 31.14 146.41 31.13 146.48 31.1 146.55 31.06 146.62 31.02 146.68 30.99 146.75 30.99 146.82 31.03 146.89 31.07 146.96 31.11 147.03 31.18 147.1 31.25 147.16 31.33 147.23 31.4 147.3 31.46 147.37 31.5 147.44 31.55 147.51 31.54 147.58 31.55 147.64 31.57 147.71 31.59 147.78 31.65 147.85 31.69 147.92 31.71 147.99 31.71 148.06 31.72 148.12 31.71 148.19 31.73 148.26 31.71 148.33 31.67 148.4 31.62 148.47 31.53 148.54 31.48 148.6 31.48 148.67 31.5 148.74 31.47 148.81 31.46 148.88 31.42 148.95 31.42 149.02 31.43 149.08 31.43 149.15 31.45 149.22 31.43 149.29 31.38 149.36 31.34 149.43 31.35 149.5 31.36 149.56 31.38 149.63 31.37 149.7 31.36 149.77 31.38 149.84 31.37 149.91 31.39 149.98 31.4 150.04 31.4 150.11 31.37 150.18 31.35 150.25 31.31 150.32 31.3 150.39 31.29 150.46 31.27 150.52 31.27 150.59 31.26 150.66 31.27 150.73 31.29 150.8 31.3 150.87 31.32 150.94 31.35 151 31.36 151.07 31.37 151.14 31.38 151.21 31.39 151.28 31.42 151.35 31.44 151.42 31.48 151.49 31.52 151.55 31.56 151.62 31.6 151.69 31.64 151.76 31.68 151.83 31.72 151.9 31.72 151.97 31.71 152.03 31.7 152.1 31.69 152.17 31.67 152.24 31.65 152.31 31.62 152.38 31.59 152.45 31.56 152.51 31.53 152.58 31.51 152.65 31.48 152.72 31.44 152.79 31.37 152.86 31.29 152.93 31.24 152.99 31.23 153.06 31.19 153.13 31.14 153.2 31.11 153.27 31.1 153.34 31.11 153.41 31.12 153.47 31.16 153.54 31.21 153.61 31.21 153.68 31.19 153.75 31.23 153.82 31.29 153.89 31.35 153.95 31.39 154.02 31.43 154.09 31.48 154.16 31.52 154.23 31.56 154.3 31.64 154.37 31.72 154.43 31.73 154.5 31.71 154.57 31.7 154.64 31.72 154.71 31.73 154.78 31.72 154.85 31.7 154.91 31.68 154.98 31.62 155.05 31.57 155.12 31.56 155.19 31.54 155.26 31.5 155.33 31.42 155.39 31.36 155.46 31.31 155.53 31.27 155.6 31.23 155.67 31.22 155.74 31.19 155.81 31.16 155.87 31.14 155.94 31.15 156.01 31.17 156.08 31.18 156.15 31.2 156.22 31.22 156.29 31.26 156.35 31.28 156.42 31.33 156.49 31.38 156.56 31.43" id="fig-7301fa94ae894996b048daaf220d3a49-element-32"/>
      </g>
      <g stroke-width="0.3" fill="none" class="geometry color_Wavefunction_at_t=0" stroke="#00BFFF" id="fig-7301fa94ae894996b048daaf220d3a49-element-33">
        <path fill="none" d="M19.4,31.43 L 19.47 31.43 19.54 31.43 19.6 31.43 19.67 31.43 19.74 31.43 19.81 31.43 19.88 31.43 19.95 31.43 20.02 31.43 20.08 31.43 20.15 31.43 20.22 31.43 20.29 31.43 20.36 31.43 20.43 31.43 20.5 31.43 20.56 31.43 20.63 31.43 20.7 31.43 20.77 31.43 20.84 31.43 20.91 31.43 20.98 31.43 21.04 31.43 21.11 31.43 21.18 31.43 21.25 31.43 21.32 31.43 21.39 31.43 21.46 31.43 21.52 31.43 21.59 31.43 21.66 31.43 21.73 31.43 21.8 31.43 21.87 31.43 21.94 31.43 22 31.43 22.07 31.43 22.14 31.43 22.21 31.43 22.28 31.43 22.35 31.43 22.42 31.43 22.48 31.43 22.55 31.43 22.62 31.43 22.69 31.43 22.76 31.43 22.83 31.43 22.9 31.43 22.96 31.43 23.03 31.43 23.1 31.43 23.17 31.43 23.24 31.43 23.31 31.43 23.38 31.43 23.44 31.43 23.51 31.43 23.58 31.43 23.65 31.43 23.72 31.43 23.79 31.43 23.86 31.43 23.92 31.43 23.99 31.43 24.06 31.43 24.13 31.43 24.2 31.43 24.27 31.43 24.34 31.43 24.4 31.43 24.47 31.43 24.54 31.43 24.61 31.43 24.68 31.43 24.75 31.43 24.82 31.43 24.88 31.43 24.95 31.43 25.02 31.43 25.09 31.43 25.16 31.43 25.23 31.43 25.3 31.43 25.36 31.43 25.43 31.43 25.5 31.43 25.57 31.43 25.64 31.43 25.71 31.43 25.78 31.43 25.84 31.43 25.91 31.43 25.98 31.43 26.05 31.43 26.12 31.43 26.19 31.43 26.26 31.43 26.32 31.43 26.39 31.43 26.46 31.43 26.53 31.43 26.6 31.43 26.67 31.43 26.74 31.43 26.81 31.43 26.87 31.43 26.94 31.43 27.01 31.43 27.08 31.43 27.15 31.43 27.22 31.43 27.29 31.43 27.35 31.43 27.42 31.43 27.49 31.43 27.56 31.43 27.63 31.43 27.7 31.43 27.77 31.43 27.83 31.43 27.9 31.43 27.97 31.43 28.04 31.43 28.11 31.43 28.18 31.43 28.25 31.43 28.31 31.43 28.38 31.43 28.45 31.43 28.52 31.43 28.59 31.43 28.66 31.43 28.73 31.43 28.79 31.43 28.86 31.43 28.93 31.43 29 31.43 29.07 31.43 29.14 31.43 29.21 31.43 29.27 31.43 29.34 31.43 29.41 31.43 29.48 31.43 29.55 31.43 29.62 31.43 29.69 31.43 29.75 31.43 29.82 31.43 29.89 31.43 29.96 31.43 30.03 31.43 30.1 31.43 30.17 31.43 30.23 31.43 30.3 31.43 30.37 31.43 30.44 31.43 30.51 31.43 30.58 31.43 30.65 31.43 30.71 31.43 30.78 31.43 30.85 31.43 30.92 31.43 30.99 31.43 31.06 31.43 31.13 31.43 31.19 31.43 31.26 31.43 31.33 31.43 31.4 31.43 31.47 31.43 31.54 31.43 31.61 31.43 31.67 31.43 31.74 31.43 31.81 31.43 31.88 31.43 31.95 31.43 32.02 31.43 32.09 31.43 32.15 31.43 32.22 31.43 32.29 31.43 32.36 31.43 32.43 31.43 32.5 31.43 32.57 31.43 32.63 31.43 32.7 31.43 32.77 31.43 32.84 31.43 32.91 31.43 32.98 31.43 33.05 31.43 33.11 31.43 33.18 31.43 33.25 31.43 33.32 31.43 33.39 31.43 33.46 31.43 33.53 31.43 33.59 31.43 33.66 31.43 33.73 31.43 33.8 31.43 33.87 31.43 33.94 31.43 34.01 31.43 34.07 31.43 34.14 31.43 34.21 31.43 34.28 31.43 34.35 31.43 34.42 31.43 34.49 31.43 34.55 31.43 34.62 31.43 34.69 31.43 34.76 31.43 34.83 31.43 34.9 31.43 34.97 31.43 35.03 31.43 35.1 31.43 35.17 31.43 35.24 31.43 35.31 31.43 35.38 31.43 35.45 31.43 35.51 31.43 35.58 31.43 35.65 31.43 35.72 31.43 35.79 31.43 35.86 31.43 35.93 31.43 35.99 31.43 36.06 31.43 36.13 31.43 36.2 31.43 36.27 31.43 36.34 31.43 36.41 31.43 36.47 31.43 36.54 31.43 36.61 31.43 36.68 31.43 36.75 31.43 36.82 31.43 36.89 31.43 36.96 31.43 37.02 31.43 37.09 31.43 37.16 31.43 37.23 31.43 37.3 31.43 37.37 31.43 37.44 31.43 37.5 31.43 37.57 31.43 37.64 31.43 37.71 31.43 37.78 31.43 37.85 31.43 37.92 31.43 37.98 31.43 38.05 31.43 38.12 31.43 38.19 31.43 38.26 31.43 38.33 31.43 38.4 31.43 38.46 31.43 38.53 31.43 38.6 31.43 38.67 31.43 38.74 31.43 38.81 31.43 38.88 31.43 38.94 31.43 39.01 31.43 39.08 31.43 39.15 31.43 39.22 31.43 39.29 31.43 39.36 31.43 39.42 31.43 39.49 31.43 39.56 31.43 39.63 31.43 39.7 31.43 39.77 31.43 39.84 31.43 39.9 31.43 39.97 31.43 40.04 31.43 40.11 31.43 40.18 31.43 40.25 31.43 40.32 31.43 40.38 31.43 40.45 31.43 40.52 31.43 40.59 31.43 40.66 31.43 40.73 31.43 40.8 31.43 40.86 31.43 40.93 31.43 41 31.43 41.07 31.43 41.14 31.43 41.21 31.43 41.28 31.43 41.34 31.43 41.41 31.43 41.48 31.43 41.55 31.43 41.62 31.43 41.69 31.43 41.76 31.43 41.82 31.43 41.89 31.43 41.96 31.43 42.03 31.43 42.1 31.43 42.17 31.43 42.24 31.43 42.3 31.43 42.37 31.43 42.44 31.43 42.51 31.43 42.58 31.43 42.65 31.43 42.72 31.43 42.78 31.43 42.85 31.43 42.92 31.43 42.99 31.43 43.06 31.43 43.13 31.43 43.2 31.43 43.26 31.43 43.33 31.43 43.4 31.43 43.47 31.43 43.54 31.43 43.61 31.43 43.68 31.43 43.74 31.43 43.81 31.43 43.88 31.43 43.95 31.43 44.02 31.43 44.09 31.43 44.16 31.43 44.22 31.43 44.29 31.43 44.36 31.43 44.43 31.43 44.5 31.43 44.57 31.43 44.64 31.43 44.7 31.43 44.77 31.43 44.84 31.43 44.91 31.43 44.98 31.43 45.05 31.43 45.12 31.43 45.18 31.43 45.25 31.43 45.32 31.43 45.39 31.43 45.46 31.43 45.53 31.43 45.6 31.43 45.66 31.43 45.73 31.43 45.8 31.43 45.87 31.43 45.94 31.43 46.01 31.43 46.08 31.43 46.14 31.43 46.21 31.43 46.28 31.43 46.35 31.43 46.42 31.43 46.49 31.43 46.56 31.43 46.62 31.43 46.69 31.43 46.76 31.43 46.83 31.43 46.9 31.43 46.97 31.43 47.04 31.43 47.1 31.43 47.17 31.43 47.24 31.43 47.31 31.43 47.38 31.43 47.45 31.43 47.52 31.43 47.59 31.43 47.65 31.43 47.72 31.43 47.79 31.43 47.86 31.43 47.93 31.43 48 31.43 48.07 31.43 48.13 31.43 48.2 31.43 48.27 31.43 48.34 31.43 48.41 31.43 48.48 31.43 48.55 31.43 48.61 31.43 48.68 31.43 48.75 31.43 48.82 31.43 48.89 31.43 48.96 31.43 49.03 31.43 49.09 31.43 49.16 31.43 49.23 31.43 49.3 31.43 49.37 31.43 49.44 31.43 49.51 31.43 49.57 31.43 49.64 31.43 49.71 31.43 49.78 31.43 49.85 31.43 49.92 31.43 49.99 31.43 50.05 31.43 50.12 31.43 50.19 31.43 50.26 31.43 50.33 31.43 50.4 31.43 50.47 31.43 50.53 31.43 50.6 31.43 50.67 31.43 50.74 31.43 50.81 31.43 50.88 31.43 50.95 31.43 51.01 31.43 51.08 31.43 51.15 31.43 51.22 31.43 51.29 31.43 51.36 31.43 51.43 31.43 51.49 31.43 51.56 31.43 51.63 31.43 51.7 31.43 51.77 31.43 51.84 31.43 51.91 31.43 51.97 31.43 52.04 31.43 52.11 31.43 52.18 31.43 52.25 31.43 52.32 31.43 52.39 31.43 52.45 31.43 52.52 31.43 52.59 31.43 52.66 31.43 52.73 31.43 52.8 31.43 52.87 31.43 52.93 31.43 53 31.43 53.07 31.43 53.14 31.43 53.21 31.43 53.28 31.43 53.35 31.43 53.41 31.43 53.48 31.43 53.55 31.43 53.62 31.43 53.69 31.43 53.76 31.43 53.83 31.43 53.89 31.43 53.96 31.43 54.03 31.43 54.1 31.43 54.17 31.43 54.24 31.43 54.31 31.43 54.37 31.43 54.44 31.43 54.51 31.43 54.58 31.43 54.65 31.43 54.72 31.43 54.79 31.43 54.85 31.43 54.92 31.43 54.99 31.43 55.06 31.43 55.13 31.43 55.2 31.43 55.27 31.43 55.33 31.43 55.4 31.43 55.47 31.43 55.54 31.43 55.61 31.43 55.68 31.43 55.75 31.43 55.81 31.43 55.88 31.43 55.95 31.43 56.02 31.43 56.09 31.43 56.16 31.43 56.23 31.43 56.29 31.43 56.36 31.43 56.43 31.43 56.5 31.43 56.57 31.43 56.64 31.43 56.71 31.43 56.77 31.43 56.84 31.43 56.91 31.43 56.98 31.43 57.05 31.43 57.12 31.43 57.19 31.43 57.25 31.43 57.32 31.43 57.39 31.43 57.46 31.43 57.53 31.43 57.6 31.43 57.67 31.43 57.74 31.43 57.8 31.43 57.87 31.43 57.94 31.43 58.01 31.43 58.08 31.43 58.15 31.43 58.22 31.43 58.28 31.43 58.35 31.43 58.42 31.43 58.49 31.43 58.56 31.43 58.63 31.43 58.7 31.43 58.76 31.43 58.83 31.43 58.9 31.43 58.97 31.43 59.04 31.43 59.11 31.43 59.18 31.43 59.24 31.43 59.31 31.43 59.38 31.43 59.45 31.43 59.52 31.43 59.59 31.43 59.66 31.43 59.72 31.43 59.79 31.43 59.86 31.43 59.93 31.43 60 31.43 60.07 31.43 60.14 31.43 60.2 31.43 60.27 31.43 60.34 31.43 60.41 31.43 60.48 31.43 60.55 31.43 60.62 31.43 60.68 31.43 60.75 31.43 60.82 31.43 60.89 31.43 60.96 31.43 61.03 31.43 61.1 31.43 61.16 31.43 61.23 31.43 61.3 31.43 61.37 31.43 61.44 31.43 61.51 31.43 61.58 31.43 61.64 31.43 61.71 31.43 61.78 31.43 61.85 31.43 61.92 31.43 61.99 31.43 62.06 31.43 62.12 31.43 62.19 31.43 62.26 31.43 62.33 31.43 62.4 31.43 62.47 31.43 62.54 31.43 62.6 31.43 62.67 31.43 62.74 31.43 62.81 31.43 62.88 31.43 62.95 31.43 63.02 31.43 63.08 31.43 63.15 31.43 63.22 31.43 63.29 31.43 63.36 31.43 63.43 31.43 63.5 31.43 63.56 31.43 63.63 31.43 63.7 31.43 63.77 31.43 63.84 31.43 63.91 31.43 63.98 31.43 64.04 31.43 64.11 31.43 64.18 31.43 64.25 31.43 64.32 31.43 64.39 31.43 64.46 31.43 64.52 31.43 64.59 31.43 64.66 31.43 64.73 31.43 64.8 31.43 64.87 31.43 64.94 31.43 65 31.43 65.07 31.43 65.14 31.43 65.21 31.43 65.28 31.43 65.35 31.43 65.42 31.43 65.48 31.43 65.55 31.43 65.62 31.43 65.69 31.43 65.76 31.43 65.83 31.43 65.9 31.43 65.96 31.43 66.03 31.43 66.1 31.43 66.17 31.43 66.24 31.43 66.31 31.43 66.38 31.43 66.44 31.43 66.51 31.43 66.58 31.43 66.65 31.43 66.72 31.43 66.79 31.43 66.86 31.43 66.92 31.43 66.99 31.43 67.06 31.43 67.13 31.43 67.2 31.43 67.27 31.43 67.34 31.43 67.4 31.43 67.47 31.43 67.54 31.43 67.61 31.43 67.68 31.43 67.75 31.43 67.82 31.43 67.88 31.43 67.95 31.43 68.02 31.43 68.09 31.43 68.16 31.43 68.23 31.43 68.3 31.43 68.37 31.43 68.43 31.43 68.5 31.43 68.57 31.43 68.64 31.43 68.71 31.43 68.78 31.43 68.85 31.43 68.91 31.43 68.98 31.43 69.05 31.43 69.12 31.43 69.19 31.43 69.26 31.43 69.33 31.43 69.39 31.43 69.46 31.43 69.53 31.43 69.6 31.43 69.67 31.43 69.74 31.43 69.81 31.43 69.87 31.43 69.94 31.43 70.01 31.43 70.08 31.43 70.15 31.43 70.22 31.43 70.29 31.43 70.35 31.43 70.42 31.43 70.49 31.43 70.56 31.43 70.63 31.43 70.7 31.43 70.77 31.43 70.83 31.43 70.9 31.43 70.97 31.43 71.04 31.43 71.11 31.43 71.18 31.43 71.25 31.43 71.31 31.43 71.38 31.43 71.45 31.43 71.52 31.43 71.59 31.43 71.66 31.43 71.73 31.43 71.79 31.43 71.86 31.43 71.93 31.43 72 31.43 72.07 31.43 72.14 31.43 72.21 31.43 72.27 31.43 72.34 31.43 72.41 31.43 72.48 31.43 72.55 31.43 72.62 31.43 72.69 31.43 72.75 31.43 72.82 31.43 72.89 31.43 72.96 31.43 73.03 31.43 73.1 31.43 73.17 31.43 73.23 31.43 73.3 31.43 73.37 31.43 73.44 31.43 73.51 31.43 73.58 31.43 73.65 31.43 73.71 31.43 73.78 31.43 73.85 31.43 73.92 31.43 73.99 31.43 74.06 31.43 74.13 31.43 74.19 31.43 74.26 31.43 74.33 31.43 74.4 31.43 74.47 31.43 74.54 31.43 74.61 31.43 74.67 31.43 74.74 31.43 74.81 31.43 74.88 31.43 74.95 31.43 75.02 31.43 75.09 31.43 75.15 31.43 75.22 31.43 75.29 31.43 75.36 31.43 75.43 31.43 75.5 31.43 75.57 31.43 75.63 31.43 75.7 31.43 75.77 31.43 75.84 31.43 75.91 31.43 75.98 31.43 76.05 31.43 76.11 31.43 76.18 31.43 76.25 31.43 76.32 31.43 76.39 31.43 76.46 31.43 76.53 31.43 76.59 31.43 76.66 31.43 76.73 31.43 76.8 31.43 76.87 31.43 76.94 31.43 77.01 31.43 77.07 31.43 77.14 31.43 77.21 31.43 77.28 31.43 77.35 31.43 77.42 31.43 77.49 31.43 77.55 31.43 77.62 31.43 77.69 31.43 77.76 31.43 77.83 31.43 77.9 31.43 77.97 31.43 78.03 31.43 78.1 31.43 78.17 31.43 78.24 31.43 78.31 31.43 78.38 31.43 78.45 31.43 78.52 31.43 78.58 31.43 78.65 31.43 78.72 31.43 78.79 31.43 78.86 31.43 78.93 31.43 79 31.43 79.06 31.43 79.13 31.43 79.2 31.43 79.27 31.43 79.34 31.43 79.41 31.43 79.48 31.43 79.54 31.43 79.61 31.43 79.68 31.43 79.75 31.43 79.82 31.43 79.89 31.43 79.96 31.43 80.02 31.43 80.09 31.43 80.16 31.43 80.23 31.43 80.3 31.43 80.37 31.43 80.44 31.43 80.5 31.43 80.57 31.43 80.64 31.43 80.71 31.43 80.78 31.43 80.85 31.43 80.92 31.43 80.98 31.43 81.05 31.43 81.12 32.27 81.19 33.1 81.26 33.94 81.33 34.77 81.4 35.61 81.46 36.44 81.53 37.27 81.6 38.1 81.67 38.93 81.74 39.75 81.81 40.58 81.88 41.4 81.94 42.22 82.01 43.04 82.08 43.85 82.15 44.66 82.22 45.47 82.29 46.27 82.36 47.07 82.42 47.87 82.49 48.66 82.56 49.45 82.63 50.23 82.7 51.01 82.77 51.79 82.84 52.56 82.9 53.32 82.97 54.08 83.04 54.83 83.11 55.58 83.18 56.32 83.25 57.06 83.32 57.79 83.38 58.51 83.45 59.22 83.52 59.93 83.59 60.64 83.66 61.33 83.73 62.02 83.8 62.7 83.86 63.37 83.93 64.03 84 64.69 84.07 65.34 84.14 65.98 84.21 66.61 84.28 67.23 84.34 67.84 84.41 68.45 84.48 69.04 84.55 69.63 84.62 70.21 84.69 70.77 84.76 71.33 84.82 71.88 84.89 72.42 84.96 72.94 85.03 73.46 85.1 73.97 85.17 74.47 85.24 74.95 85.3 75.43 85.37 75.89 85.44 76.34 85.51 76.79 85.58 77.22 85.65 77.64 85.72 78.04 85.78 78.44 85.85 78.83 85.92 79.2 85.99 79.56 86.06 79.91 86.13 80.25 86.2 80.57 86.26 80.89 86.33 81.19 86.4 81.48 86.47 81.76 86.54 82.02 86.61 82.27 86.68 82.51 86.74 82.74 86.81 82.95 86.88 83.15 86.95 83.34 87.02 83.52 87.09 83.68 87.16 83.83 87.22 83.97 87.29 84.09 87.36 84.2 87.43 84.3 87.5 84.39 87.57 84.46 87.64 84.52 87.7 84.56 87.77 84.6 87.84 84.62 87.91 84.62 87.98 84.62 88.05 84.6 88.12 84.56 88.18 84.52 88.25 84.46 88.32 84.39 88.39 84.3 88.46 84.2 88.53 84.09 88.6 83.97 88.66 83.83 88.73 83.68 88.8 83.52 88.87 83.34 88.94 83.15 89.01 82.95 89.08 82.74 89.15 82.51 89.21 82.27 89.28 82.02 89.35 81.76 89.42 81.48 89.49 81.19 89.56 80.89 89.63 80.57 89.69 80.25 89.76 79.91 89.83 79.56 89.9 79.2 89.97 78.83 90.04 78.44 90.11 78.04 90.17 77.64 90.24 77.22 90.31 76.79 90.38 76.34 90.45 75.89 90.52 75.43 90.59 74.95 90.65 74.47 90.72 73.97 90.79 73.46 90.86 72.94 90.93 72.42 91 71.88 91.07 71.33 91.13 70.77 91.2 70.21 91.27 69.63 91.34 69.04 91.41 68.45 91.48 67.84 91.55 67.23 91.61 66.61 91.68 65.98 91.75 65.34 91.82 64.69 91.89 64.03 91.96 63.37 92.03 62.7 92.09 62.02 92.16 61.33 92.23 60.64 92.3 59.93 92.37 59.22 92.44 58.51 92.51 57.79 92.57 57.06 92.64 56.32 92.71 55.58 92.78 54.83 92.85 54.08 92.92 53.32 92.99 52.56 93.05 51.79 93.12 51.01 93.19 50.23 93.26 49.45 93.33 48.66 93.4 47.87 93.47 47.07 93.53 46.27 93.6 45.47 93.67 44.66 93.74 43.85 93.81 43.04 93.88 42.22 93.95 41.4 94.01 40.58 94.08 39.75 94.15 38.93 94.22 38.1 94.29 37.27 94.36 36.44 94.43 35.61 94.49 34.77 94.56 33.94 94.63 33.1 94.7 32.27 94.77 31.43 94.84 31.43 94.91 31.43 94.97 31.43 95.04 31.43 95.11 31.43 95.18 31.43 95.25 31.43 95.32 31.43 95.39 31.43 95.45 31.43 95.52 31.43 95.59 31.43 95.66 31.43 95.73 31.43 95.8 31.43 95.87 31.43 95.93 31.43 96 31.43 96.07 31.43 96.14 31.43 96.21 31.43 96.28 31.43 96.35 31.43 96.41 31.43 96.48 31.43 96.55 31.43 96.62 31.43 96.69 31.43 96.76 31.43 96.83 31.43 96.89 31.43 96.96 31.43 97.03 31.43 97.1 31.43 97.17 31.43 97.24 31.43 97.31 31.43 97.37 31.43 97.44 31.43 97.51 31.43 97.58 31.43 97.65 31.43 97.72 31.43 97.79 31.43 97.85 31.43 97.92 31.43 97.99 31.43 98.06 31.43 98.13 31.43 98.2 31.43 98.27 31.43 98.33 31.43 98.4 31.43 98.47 31.43 98.54 31.43 98.61 31.43 98.68 31.43 98.75 31.43 98.81 31.43 98.88 31.43 98.95 31.43 99.02 31.43 99.09 31.43 99.16 31.43 99.23 31.43 99.3 31.43 99.36 31.43 99.43 31.43 99.5 31.43 99.57 31.43 99.64 31.43 99.71 31.43 99.78 31.43 99.84 31.43 99.91 31.43 99.98 31.43 100.05 31.43 100.12 31.43 100.19 31.43 100.26 31.43 100.32 31.43 100.39 31.43 100.46 31.43 100.53 31.43 100.6 31.43 100.67 31.43 100.74 31.43 100.8 31.43 100.87 31.43 100.94 31.43 101.01 31.43 101.08 31.43 101.15 31.43 101.22 31.43 101.28 31.43 101.35 31.43 101.42 31.43 101.49 31.43 101.56 31.43 101.63 31.43 101.7 31.43 101.76 31.43 101.83 31.43 101.9 31.43 101.97 31.43 102.04 31.43 102.11 31.43 102.18 31.43 102.24 31.43 102.31 31.43 102.38 31.43 102.45 31.43 102.52 31.43 102.59 31.43 102.66 31.43 102.72 31.43 102.79 31.43 102.86 31.43 102.93 31.43 103 31.43 103.07 31.43 103.14 31.43 103.2 31.43 103.27 31.43 103.34 31.43 103.41 31.43 103.48 31.43 103.55 31.43 103.62 31.43 103.68 31.43 103.75 31.43 103.82 31.43 103.89 31.43 103.96 31.43 104.03 31.43 104.1 31.43 104.16 31.43 104.23 31.43 104.3 31.43 104.37 31.43 104.44 31.43 104.51 31.43 104.58 31.43 104.64 31.43 104.71 31.43 104.78 31.43 104.85 31.43 104.92 31.43 104.99 31.43 105.06 31.43 105.12 31.43 105.19 31.43 105.26 31.43 105.33 31.43 105.4 31.43 105.47 31.43 105.54 31.43 105.6 31.43 105.67 31.43 105.74 31.43 105.81 31.43 105.88 31.43 105.95 31.43 106.02 31.43 106.08 31.43 106.15 31.43 106.22 31.43 106.29 31.43 106.36 31.43 106.43 31.43 106.5 31.43 106.56 31.43 106.63 31.43 106.7 31.43 106.77 31.43 106.84 31.43 106.91 31.43 106.98 31.43 107.04 31.43 107.11 31.43 107.18 31.43 107.25 31.43 107.32 31.43 107.39 31.43 107.46 31.43 107.52 31.43 107.59 31.43 107.66 31.43 107.73 31.43 107.8 31.43 107.87 31.43 107.94 31.43 108 31.43 108.07 31.43 108.14 31.43 108.21 31.43 108.28 31.43 108.35 31.43 108.42 31.43 108.48 31.43 108.55 31.43 108.62 31.43 108.69 31.43 108.76 31.43 108.83 31.43 108.9 31.43 108.96 31.43 109.03 31.43 109.1 31.43 109.17 31.43 109.24 31.43 109.31 31.43 109.38 31.43 109.44 31.43 109.51 31.43 109.58 31.43 109.65 31.43 109.72 31.43 109.79 31.43 109.86 31.43 109.93 31.43 109.99 31.43 110.06 31.43 110.13 31.43 110.2 31.43 110.27 31.43 110.34 31.43 110.41 31.43 110.47 31.43 110.54 31.43 110.61 31.43 110.68 31.43 110.75 31.43 110.82 31.43 110.89 31.43 110.95 31.43 111.02 31.43 111.09 31.43 111.16 31.43 111.23 31.43 111.3 31.43 111.37 31.43 111.43 31.43 111.5 31.43 111.57 31.43 111.64 31.43 111.71 31.43 111.78 31.43 111.85 31.43 111.91 31.43 111.98 31.43 112.05 31.43 112.12 31.43 112.19 31.43 112.26 31.43 112.33 31.43 112.39 31.43 112.46 31.43 112.53 31.43 112.6 31.43 112.67 31.43 112.74 31.43 112.81 31.43 112.87 31.43 112.94 31.43 113.01 31.43 113.08 31.43 113.15 31.43 113.22 31.43 113.29 31.43 113.35 31.43 113.42 31.43 113.49 31.43 113.56 31.43 113.63 31.43 113.7 31.43 113.77 31.43 113.83 31.43 113.9 31.43 113.97 31.43 114.04 31.43 114.11 31.43 114.18 31.43 114.25 31.43 114.31 31.43 114.38 31.43 114.45 31.43 114.52 31.43 114.59 31.43 114.66 31.43 114.73 31.43 114.79 31.43 114.86 31.43 114.93 31.43 115 31.43 115.07 31.43 115.14 31.43 115.21 31.43 115.27 31.43 115.34 31.43 115.41 31.43 115.48 31.43 115.55 31.43 115.62 31.43 115.69 31.43 115.75 31.43 115.82 31.43 115.89 31.43 115.96 31.43 116.03 31.43 116.1 31.43 116.17 31.43 116.23 31.43 116.3 31.43 116.37 31.43 116.44 31.43 116.51 31.43 116.58 31.43 116.65 31.43 116.71 31.43 116.78 31.43 116.85 31.43 116.92 31.43 116.99 31.43 117.06 31.43 117.13 31.43 117.19 31.43 117.26 31.43 117.33 31.43 117.4 31.43 117.47 31.43 117.54 31.43 117.61 31.43 117.67 31.43 117.74 31.43 117.81 31.43 117.88 31.43 117.95 31.43 118.02 31.43 118.09 31.43 118.15 31.43 118.22 31.43 118.29 31.43 118.36 31.43 118.43 31.43 118.5 31.43 118.57 31.43 118.63 31.43 118.7 31.43 118.77 31.43 118.84 31.43 118.91 31.43 118.98 31.43 119.05 31.43 119.11 31.43 119.18 31.43 119.25 31.43 119.32 31.43 119.39 31.43 119.46 31.43 119.53 31.43 119.59 31.43 119.66 31.43 119.73 31.43 119.8 31.43 119.87 31.43 119.94 31.43 120.01 31.43 120.07 31.43 120.14 31.43 120.21 31.43 120.28 31.43 120.35 31.43 120.42 31.43 120.49 31.43 120.56 31.43 120.62 31.43 120.69 31.43 120.76 31.43 120.83 31.43 120.9 31.43 120.97 31.43 121.04 31.43 121.1 31.43 121.17 31.43 121.24 31.43 121.31 31.43 121.38 31.43 121.45 31.43 121.52 31.43 121.58 31.43 121.65 31.43 121.72 31.43 121.79 31.43 121.86 31.43 121.93 31.43 122 31.43 122.06 31.43 122.13 31.43 122.2 31.43 122.27 31.43 122.34 31.43 122.41 31.43 122.48 31.43 122.54 31.43 122.61 31.43 122.68 31.43 122.75 31.43 122.82 31.43 122.89 31.43 122.96 31.43 123.02 31.43 123.09 31.43 123.16 31.43 123.23 31.43 123.3 31.43 123.37 31.43 123.44 31.43 123.5 31.43 123.57 31.43 123.64 31.43 123.71 31.43 123.78 31.43 123.85 31.43 123.92 31.43 123.98 31.43 124.05 31.43 124.12 31.43 124.19 31.43 124.26 31.43 124.33 31.43 124.4 31.43 124.46 31.43 124.53 31.43 124.6 31.43 124.67 31.43 124.74 31.43 124.81 31.43 124.88 31.43 124.94 31.43 125.01 31.43 125.08 31.43 125.15 31.43 125.22 31.43 125.29 31.43 125.36 31.43 125.42 31.43 125.49 31.43 125.56 31.43 125.63 31.43 125.7 31.43 125.77 31.43 125.84 31.43 125.9 31.43 125.97 31.43 126.04 31.43 126.11 31.43 126.18 31.43 126.25 31.43 126.32 31.43 126.38 31.43 126.45 31.43 126.52 31.43 126.59 31.43 126.66 31.43 126.73 31.43 126.8 31.43 126.86 31.43 126.93 31.43 127 31.43 127.07 31.43 127.14 31.43 127.21 31.43 127.28 31.43 127.34 31.43 127.41 31.43 127.48 31.43 127.55 31.43 127.62 31.43 127.69 31.43 127.76 31.43 127.82 31.43 127.89 31.43 127.96 31.43 128.03 31.43 128.1 31.43 128.17 31.43 128.24 31.43 128.3 31.43 128.37 31.43 128.44 31.43 128.51 31.43 128.58 31.43 128.65 31.43 128.72 31.43 128.78 31.43 128.85 31.43 128.92 31.43 128.99 31.43 129.06 31.43 129.13 31.43 129.2 31.43 129.26 31.43 129.33 31.43 129.4 31.43 129.47 31.43 129.54 31.43 129.61 31.43 129.68 31.43 129.74 31.43 129.81 31.43 129.88 31.43 129.95 31.43 130.02 31.43 130.09 31.43 130.16 31.43 130.22 31.43 130.29 31.43 130.36 31.43 130.43 31.43 130.5 31.43 130.57 31.43 130.64 31.43 130.71 31.43 130.77 31.43 130.84 31.43 130.91 31.43 130.98 31.43 131.05 31.43 131.12 31.43 131.19 31.43 131.25 31.43 131.32 31.43 131.39 31.43 131.46 31.43 131.53 31.43 131.6 31.43 131.67 31.43 131.73 31.43 131.8 31.43 131.87 31.43 131.94 31.43 132.01 31.43 132.08 31.43 132.15 31.43 132.21 31.43 132.28 31.43 132.35 31.43 132.42 31.43 132.49 31.43 132.56 31.43 132.63 31.43 132.69 31.43 132.76 31.43 132.83 31.43 132.9 31.43 132.97 31.43 133.04 31.43 133.11 31.43 133.17 31.43 133.24 31.43 133.31 31.43 133.38 31.43 133.45 31.43 133.52 31.43 133.59 31.43 133.65 31.43 133.72 31.43 133.79 31.43 133.86 31.43 133.93 31.43 134 31.43 134.07 31.43 134.13 31.43 134.2 31.43 134.27 31.43 134.34 31.43 134.41 31.43 134.48 31.43 134.55 31.43 134.61 31.43 134.68 31.43 134.75 31.43 134.82 31.43 134.89 31.43 134.96 31.43 135.03 31.43 135.09 31.43 135.16 31.43 135.23 31.43 135.3 31.43 135.37 31.43 135.44 31.43 135.51 31.43 135.57 31.43 135.64 31.43 135.71 31.43 135.78 31.43 135.85 31.43 135.92 31.43 135.99 31.43 136.05 31.43 136.12 31.43 136.19 31.43 136.26 31.43 136.33 31.43 136.4 31.43 136.47 31.43 136.53 31.43 136.6 31.43 136.67 31.43 136.74 31.43 136.81 31.43 136.88 31.43 136.95 31.43 137.01 31.43 137.08 31.43 137.15 31.43 137.22 31.43 137.29 31.43 137.36 31.43 137.43 31.43 137.49 31.43 137.56 31.43 137.63 31.43 137.7 31.43 137.77 31.43 137.84 31.43 137.91 31.43 137.97 31.43 138.04 31.43 138.11 31.43 138.18 31.43 138.25 31.43 138.32 31.43 138.39 31.43 138.45 31.43 138.52 31.43 138.59 31.43 138.66 31.43 138.73 31.43 138.8 31.43 138.87 31.43 138.93 31.43 139 31.43 139.07 31.43 139.14 31.43 139.21 31.43 139.28 31.43 139.35 31.43 139.41 31.43 139.48 31.43 139.55 31.43 139.62 31.43 139.69 31.43 139.76 31.43 139.83 31.43 139.89 31.43 139.96 31.43 140.03 31.43 140.1 31.43 140.17 31.43 140.24 31.43 140.31 31.43 140.37 31.43 140.44 31.43 140.51 31.43 140.58 31.43 140.65 31.43 140.72 31.43 140.79 31.43 140.85 31.43 140.92 31.43 140.99 31.43 141.06 31.43 141.13 31.43 141.2 31.43 141.27 31.43 141.34 31.43 141.4 31.43 141.47 31.43 141.54 31.43 141.61 31.43 141.68 31.43 141.75 31.43 141.82 31.43 141.88 31.43 141.95 31.43 142.02 31.43 142.09 31.43 142.16 31.43 142.23 31.43 142.3 31.43 142.36 31.43 142.43 31.43 142.5 31.43 142.57 31.43 142.64 31.43 142.71 31.43 142.78 31.43 142.84 31.43 142.91 31.43 142.98 31.43 143.05 31.43 143.12 31.43 143.19 31.43 143.26 31.43 143.32 31.43 143.39 31.43 143.46 31.43 143.53 31.43 143.6 31.43 143.67 31.43 143.74 31.43 143.8 31.43 143.87 31.43 143.94 31.43 144.01 31.43 144.08 31.43 144.15 31.43 144.22 31.43 144.28 31.43 144.35 31.43 144.42 31.43 144.49 31.43 144.56 31.43 144.63 31.43 144.7 31.43 144.76 31.43 144.83 31.43 144.9 31.43 144.97 31.43 145.04 31.43 145.11 31.43 145.18 31.43 145.24 31.43 145.31 31.43 145.38 31.43 145.45 31.43 145.52 31.43 145.59 31.43 145.66 31.43 145.72 31.43 145.79 31.43 145.86 31.43 145.93 31.43 146 31.43 146.07 31.43 146.14 31.43 146.2 31.43 146.27 31.43 146.34 31.43 146.41 31.43 146.48 31.43 146.55 31.43 146.62 31.43 146.68 31.43 146.75 31.43 146.82 31.43 146.89 31.43 146.96 31.43 147.03 31.43 147.1 31.43 147.16 31.43 147.23 31.43 147.3 31.43 147.37 31.43 147.44 31.43 147.51 31.43 147.58 31.43 147.64 31.43 147.71 31.43 147.78 31.43 147.85 31.43 147.92 31.43 147.99 31.43 148.06 31.43 148.12 31.43 148.19 31.43 148.26 31.43 148.33 31.43 148.4 31.43 148.47 31.43 148.54 31.43 148.6 31.43 148.67 31.43 148.74 31.43 148.81 31.43 148.88 31.43 148.95 31.43 149.02 31.43 149.08 31.43 149.15 31.43 149.22 31.43 149.29 31.43 149.36 31.43 149.43 31.43 149.5 31.43 149.56 31.43 149.63 31.43 149.7 31.43 149.77 31.43 149.84 31.43 149.91 31.43 149.98 31.43 150.04 31.43 150.11 31.43 150.18 31.43 150.25 31.43 150.32 31.43 150.39 31.43 150.46 31.43 150.52 31.43 150.59 31.43 150.66 31.43 150.73 31.43 150.8 31.43 150.87 31.43 150.94 31.43 151 31.43 151.07 31.43 151.14 31.43 151.21 31.43 151.28 31.43 151.35 31.43 151.42 31.43 151.49 31.43 151.55 31.43 151.62 31.43 151.69 31.43 151.76 31.43 151.83 31.43 151.9 31.43 151.97 31.43 152.03 31.43 152.1 31.43 152.17 31.43 152.24 31.43 152.31 31.43 152.38 31.43 152.45 31.43 152.51 31.43 152.58 31.43 152.65 31.43 152.72 31.43 152.79 31.43 152.86 31.43 152.93 31.43 152.99 31.43 153.06 31.43 153.13 31.43 153.2 31.43 153.27 31.43 153.34 31.43 153.41 31.43 153.47 31.43 153.54 31.43 153.61 31.43 153.68 31.43 153.75 31.43 153.82 31.43 153.89 31.43 153.95 31.43 154.02 31.43 154.09 31.43 154.16 31.43 154.23 31.43 154.3 31.43 154.37 31.43 154.43 31.43 154.5 31.43 154.57 31.43 154.64 31.43 154.71 31.43 154.78 31.43 154.85 31.43 154.91 31.43 154.98 31.43 155.05 31.43 155.12 31.43 155.19 31.43 155.26 31.43 155.33 31.43 155.39 31.43 155.46 31.43 155.53 31.43 155.6 31.43 155.67 31.43 155.74 31.43 155.81 31.43 155.87 31.43 155.94 31.43 156.01 31.43 156.08 31.43 156.15 31.43 156.22 31.43 156.29 31.43 156.35 31.43 156.42 31.43 156.49 31.43 156.56 31.43" id="fig-7301fa94ae894996b048daaf220d3a49-element-34"/>
      </g>
    </g>
  </g>
  <g class="guide ylabels" font-size="2.82" font-family="'PT Sans Caption','Helvetica Neue','Helvetica',sans-serif" fill="#6C606B" id="fig-7301fa94ae894996b048daaf220d3a49-element-35">
    <text x="16.4" y="98.72" text-anchor="end" dy="0.35em" id="fig-7301fa94ae894996b048daaf220d3a49-element-36">-4</text>
    <text x="16.4" y="81.89" text-anchor="end" dy="0.35em" id="fig-7301fa94ae894996b048daaf220d3a49-element-37">-3</text>
    <text x="16.4" y="65.07" text-anchor="end" dy="0.35em" id="fig-7301fa94ae894996b048daaf220d3a49-element-38">-2</text>
    <text x="16.4" y="48.25" text-anchor="end" dy="0.35em" id="fig-7301fa94ae894996b048daaf220d3a49-element-39">-1</text>
    <text x="16.4" y="31.43" text-anchor="end" dy="0.35em" id="fig-7301fa94ae894996b048daaf220d3a49-element-40">0</text>
    <text x="16.4" y="14.61" text-anchor="end" dy="0.35em" id="fig-7301fa94ae894996b048daaf220d3a49-element-41">1</text>
  </g>
  <g font-size="3.88" font-family="'PT Sans','Helvetica Neue','Helvetica',sans-serif" fill="#564A55" stroke="none" id="fig-7301fa94ae894996b048daaf220d3a49-element-42">
    <text x="8.81" y="54.66" text-anchor="middle" dy="0.35em" transform="rotate(-90, 8.81, 56.66)" id="fig-7301fa94ae894996b048daaf220d3a49-element-43">Re()</text>
  </g>
  <g font-size="3.88" font-family="'PT Sans','Helvetica Neue','Helvetica',sans-serif" fill="#564A55" stroke="none" id="fig-7301fa94ae894996b048daaf220d3a49-element-44">
    <text x="87.98" y="10.61" text-anchor="middle" id="fig-7301fa94ae894996b048daaf220d3a49-element-45"> initial and final starting from ground with wall thickness s = 0.1</text>
  </g>
</g>
<defs>
<clipPath id="fig-7301fa94ae894996b048daaf220d3a49-element-14">
  <path d="M17.4,12.61 L 158.56 12.61 158.56 100.71 17.4 100.71" />
</clipPath
></defs>
</svg>
