<?xml version="1.0" encoding="UTF-8"?>
<svg xmlns="http://www.w3.org/2000/svg"
     xmlns:xlink="http://www.w3.org/1999/xlink"
     xmlns:gadfly="http://www.gadflyjl.org/ns"
     version="1.2"
     width="200mm" height="120mm" viewBox="0 0 200 120"
     stroke="none"
     fill="#000000"
     stroke-width="0.3"
     font-size="3.88"
>
<g class="plotroot xscalable yscalable" id="fig-b7aa33d5d153428094a4c8063f392ea6-element-1">
  <g font-size="3.88" font-family="'PT Sans','Helvetica Neue','Helvetica',sans-serif" fill="#564A55" stroke="none" id="fig-b7aa33d5d153428094a4c8063f392ea6-element-2">
    <text x="77.2" y="112" text-anchor="middle">x</text>
  </g>
  <g class="guide xlabels" font-size="2.82" font-family="'PT Sans Caption','Helvetica Neue','Helvetica',sans-serif" fill="#6C606B" id="fig-b7aa33d5d153428094a4c8063f392ea6-element-3">
    <text x="19.4" y="104.39" text-anchor="middle">-1.0</text>
    <text x="48.3" y="104.39" text-anchor="middle">-0.5</text>
    <text x="77.2" y="104.39" text-anchor="middle">0.0</text>
    <text x="106.1" y="104.39" text-anchor="middle">0.5</text>
    <text x="135" y="104.39" text-anchor="middle">1.0</text>
  </g>
  <g class="guide colorkey" id="fig-b7aa33d5d153428094a4c8063f392ea6-element-4">
    <g fill="#4C404B" font-size="2.82" font-family="'PT Sans','Helvetica Neue','Helvetica',sans-serif" id="fig-b7aa33d5d153428094a4c8063f392ea6-element-5">
      <text x="140.81" y="56.66" dy="0.35em" id="fig-b7aa33d5d153428094a4c8063f392ea6-element-6" class="color_Wavefunction_at_t=0">Wavefunction at t=0</text>
      <text x="140.81" y="60.29" dy="0.35em" id="fig-b7aa33d5d153428094a4c8063f392ea6-element-7" class="color_Wavefunction_at_t=0.0013499999999999999">Wavefunction at t=0.0013499999999999999</text>
    </g>
    <g stroke="none" id="fig-b7aa33d5d153428094a4c8063f392ea6-element-8">
      <rect x="138" y="55.76" width="1.81" height="1.81" id="fig-b7aa33d5d153428094a4c8063f392ea6-element-9" class="color_Wavefunction_at_t=0" fill="#00BFFF"/>
      <rect x="138" y="59.38" width="1.81" height="1.81" id="fig-b7aa33d5d153428094a4c8063f392ea6-element-10" class="color_Wavefunction_at_t=0.0013499999999999999" fill="#D4CA3A"/>
    </g>
    <g fill="#362A35" font-size="3.88" font-family="'PT Sans','Helvetica Neue','Helvetica',sans-serif" stroke="none" id="fig-b7aa33d5d153428094a4c8063f392ea6-element-11">
      <text x="138" y="52.84" id="fig-b7aa33d5d153428094a4c8063f392ea6-element-12">Color</text>
    </g>
  </g>
  <g clip-path="url(#fig-b7aa33d5d153428094a4c8063f392ea6-element-14)" id="fig-b7aa33d5d153428094a4c8063f392ea6-element-13">
    <g pointer-events="visible" opacity="1" fill="none" stroke="none" class="guide background" id="fig-b7aa33d5d153428094a4c8063f392ea6-element-15">
      <rect x="17.4" y="12.61" width="119.6" height="88.1" id="fig-b7aa33d5d153428094a4c8063f392ea6-element-16"/>
    </g>
    <g class="guide ygridlines xfixed" stroke-dasharray="0.5,0.5" stroke-width="0.2" stroke="#D0D0E0" id="fig-b7aa33d5d153428094a4c8063f392ea6-element-17">
      <path fill="none" d="M17.4,98.71 L 137 98.71" id="fig-b7aa33d5d153428094a4c8063f392ea6-element-18"/>
      <path fill="none" d="M17.4,77.69 L 137 77.69" id="fig-b7aa33d5d153428094a4c8063f392ea6-element-19"/>
      <path fill="none" d="M17.4,56.66 L 137 56.66" id="fig-b7aa33d5d153428094a4c8063f392ea6-element-20"/>
      <path fill="none" d="M17.4,35.64 L 137 35.64" id="fig-b7aa33d5d153428094a4c8063f392ea6-element-21"/>
      <path fill="none" d="M17.4,14.61 L 137 14.61" id="fig-b7aa33d5d153428094a4c8063f392ea6-element-22"/>
    </g>
    <g class="guide xgridlines yfixed" stroke-dasharray="0.5,0.5" stroke-width="0.2" stroke="#D0D0E0" id="fig-b7aa33d5d153428094a4c8063f392ea6-element-23">
      <path fill="none" d="M19.4,12.61 L 19.4 100.72" id="fig-b7aa33d5d153428094a4c8063f392ea6-element-24"/>
      <path fill="none" d="M48.3,12.61 L 48.3 100.72" id="fig-b7aa33d5d153428094a4c8063f392ea6-element-25"/>
      <path fill="none" d="M77.2,12.61 L 77.2 100.72" id="fig-b7aa33d5d153428094a4c8063f392ea6-element-26"/>
      <path fill="none" d="M106.1,12.61 L 106.1 100.72" id="fig-b7aa33d5d153428094a4c8063f392ea6-element-27"/>
      <path fill="none" d="M135,12.61 L 135 100.72" id="fig-b7aa33d5d153428094a4c8063f392ea6-element-28"/>
    </g>
    <g class="plotpanel" id="fig-b7aa33d5d153428094a4c8063f392ea6-element-29">
      <g stroke-width="0.3" fill="none" class="geometry color_Wavefunction_at_t=0.0013499999999999999" stroke="#D4CA3A" id="fig-b7aa33d5d153428094a4c8063f392ea6-element-30">
        <path fill="none" d="M19.4,56.66 L 19.46 56.71 19.51 56.66 19.57 56.61 19.63 56.63 19.69 56.69 19.75 56.71 19.8 56.69 19.86 56.64 19.92 56.61 19.98 56.65 20.03 56.69 20.09 56.67 20.15 56.65 20.21 56.67 20.27 56.68 20.32 56.66 20.38 56.66 20.44 56.66 20.5 56.63 20.55 56.63 20.61 56.69 20.67 56.73 20.73 56.7 20.79 56.65 20.84 56.62 20.9 56.61 20.96 56.65 21.02 56.7 21.07 56.69 21.13 56.67 21.19 56.68 21.25 56.67 21.31 56.63 21.36 56.62 21.42 56.66 21.48 56.66 21.54 56.66 21.59 56.7 21.65 56.72 21.71 56.68 21.77 56.63 21.83 56.6 21.88 56.61 21.94 56.66 22 56.71 22.06 56.73 22.11 56.7 22.17 56.66 22.23 56.61 22.29 56.59 22.35 56.64 22.4 56.69 22.46 56.71 22.52 56.69 22.58 56.67 22.64 56.66 22.69 56.65 22.75 56.64 22.81 56.65 22.87 56.67 22.92 56.67 22.98 56.65 23.04 56.67 23.1 56.71 23.16 56.68 23.21 56.64 23.27 56.65 23.33 56.66 23.39 56.64 23.44 56.65 23.5 56.69 23.56 56.69 23.62 56.66 23.68 56.67 23.73 56.68 23.79 56.66 23.85 56.64 23.91 56.64 23.96 56.65 24.02 56.66 24.08 56.68 24.14 56.7 24.2 56.71 24.25 56.68 24.31 56.62 24.37 56.6 24.43 56.63 24.48 56.65 24.54 56.69 24.6 56.73 24.66 56.71 24.72 56.66 24.77 56.63 24.83 56.63 24.89 56.63 24.95 56.66 25.01 56.69 25.06 56.68 25.12 56.67 25.18 56.66 25.24 56.66 25.29 56.68 25.35 56.68 25.41 56.66 25.47 56.63 25.53 56.63 25.58 56.63 25.64 56.66 25.7 56.72 25.76 56.73 25.81 56.69 25.87 56.66 25.93 56.63 25.99 56.6 26.05 56.62 26.1 56.67 26.16 56.7 26.22 56.7 26.28 56.68 26.33 56.67 26.39 56.66 26.45 56.65 26.51 56.63 26.57 56.65 26.62 56.66 26.68 56.64 26.74 56.65 26.8 56.7 26.85 56.7 26.91 56.67 26.97 56.67 27.03 56.66 27.09 56.63 27.14 56.62 27.2 56.64 27.26 56.67 27.32 56.67 27.37 56.67 27.43 56.7 27.49 56.72 27.55 56.68 27.61 56.63 27.66 56.62 27.72 56.62 27.78 56.61 27.84 56.67 27.9 56.73 27.95 56.73 28.01 56.69 28.07 56.65 28.13 56.62 28.18 56.63 28.24 56.66 28.3 56.66 28.36 56.66 28.42 56.66 28.47 56.64 28.53 56.65 28.59 56.69 28.65 56.72 28.7 56.71 28.76 56.66 28.82 56.6 28.88 56.61 28.94 56.64 28.99 56.64 29.05 56.67 29.11 56.72 29.17 56.71 29.22 56.69 29.28 56.69 29.34 56.67 29.4 56.63 29.46 56.6 29.51 56.6 29.57 56.65 29.63 56.71 29.69 56.72 29.74 56.69 29.8 56.66 29.86 56.65 29.92 56.67 29.98 56.67 30.03 56.65 30.09 56.65 30.15 56.65 30.21 56.61 30.26 56.64 30.32 56.7 30.38 56.72 30.44 56.69 30.5 56.68 30.55 56.68 30.61 56.68 30.67 56.65 30.73 56.59 30.79 56.57 30.84 56.63 30.9 56.72 30.96 56.75 31.02 56.71 31.07 56.67 31.13 56.67 31.19 56.67 31.25 56.63 31.31 56.61 31.36 56.61 31.42 56.64 31.48 56.69 31.54 56.71 31.59 56.67 31.65 56.66 31.71 56.69 31.77 56.68 31.83 56.68 31.88 56.67 31.94 56.64 32 56.63 32.06 56.63 32.11 56.63 32.17 56.64 32.23 56.67 32.29 56.71 32.35 56.73 32.4 56.72 32.46 56.69 32.52 56.66 32.58 56.61 32.63 56.59 32.69 56.61 32.75 56.63 32.81 56.66 32.87 56.72 32.92 56.72 32.98 56.71 33.04 56.7 33.1 56.67 33.15 56.64 33.21 56.63 33.27 56.63 33.33 56.64 33.39 56.65 33.44 56.66 33.5 56.67 33.56 56.66 33.62 56.67 33.68 56.69 33.73 56.69 33.79 56.69 33.85 56.7 33.91 56.66 33.96 56.63 34.02 56.62 34.08 56.6 34.14 56.6 34.2 56.65 34.25 56.69 34.31 56.72 34.37 56.75 34.43 56.73 34.48 56.69 34.54 56.65 34.6 56.62 34.66 56.59 34.72 56.6 34.77 56.62 34.83 56.66 34.89 56.68 34.95 56.71 35 56.72 35.06 56.69 35.12 56.68 35.18 56.68 35.24 56.65 35.29 56.65 35.35 56.66 35.41 56.64 35.47 56.63 35.52 56.64 35.58 56.63 35.64 56.64 35.7 56.67 35.76 56.69 35.81 56.72 35.87 56.73 35.93 56.72 35.99 56.69 36.04 56.64 36.1 56.61 36.16 56.58 36.22 56.58 36.28 56.62 36.33 56.65 36.39 56.69 36.45 56.74 36.51 56.74 36.57 56.72 36.62 56.71 36.68 56.66 36.74 56.62 36.8 56.62 36.85 56.61 36.91 56.62 36.97 56.65 37.03 56.66 37.09 56.67 37.14 56.68 37.2 56.68 37.26 56.68 37.32 56.69 37.37 56.7 37.43 56.7 37.49 56.68 37.55 56.68 37.61 56.65 37.66 56.61 37.72 56.6 37.78 56.59 37.84 56.6 37.89 56.65 37.95 56.69 38.01 56.72 38.07 56.76 38.13 56.75 38.18 56.72 38.24 56.69 38.3 56.64 38.36 56.6 38.41 56.58 38.47 56.58 38.53 56.6 38.59 56.64 38.65 56.68 38.7 56.71 38.76 56.72 38.82 56.72 38.88 56.71 38.94 56.68 38.99 56.68 39.05 56.66 39.11 56.65 39.17 56.66 39.22 56.64 39.28 56.63 39.34 56.63 39.4 56.61 39.46 56.62 39.51 56.65 39.57 56.66 39.63 56.7 39.69 56.73 39.74 56.74 39.8 56.74 39.86 56.72 39.92 56.69 39.98 56.63 40.03 56.59 40.09 56.57 40.15 56.56 40.21 56.58 40.26 56.63 40.32 56.66 40.38 56.72 40.44 56.75 40.5 56.75 40.55 56.75 40.61 56.72 40.67 56.67 40.73 56.65 40.78 56.62 40.84 56.6 40.9 56.62 40.96 56.62 41.02 56.63 41.07 56.64 41.13 56.65 41.19 56.66 41.25 56.67 41.3 56.68 41.36 56.69 41.42 56.71 41.48 56.73 41.54 56.72 41.59 56.72 41.65 56.7 41.71 56.65 41.77 56.62 41.83 56.59 41.88 56.55 41.94 56.57 42 56.58 42.06 56.62 42.11 56.68 42.17 56.72 42.23 56.76 42.29 56.78 42.35 56.77 42.4 56.74 42.46 56.69 42.52 56.65 42.58 56.6 42.63 56.58 42.69 56.58 42.75 56.58 42.81 56.61 42.87 56.64 42.92 56.65 42.98 56.69 43.04 56.69 43.1 56.69 43.15 56.71 43.21 56.7 43.27 56.7 43.33 56.72 43.39 56.7 43.44 56.7 43.5 56.69 43.56 56.66 43.62 56.63 43.67 56.6 43.73 56.57 43.79 56.56 43.85 56.57 43.91 56.59 43.96 56.63 44.02 56.69 44.08 56.73 44.14 56.77 44.19 56.8 44.25 56.78 44.31 56.76 44.37 56.72 44.43 56.65 44.48 56.61 44.54 56.57 44.6 56.54 44.66 56.56 44.72 56.56 44.77 56.6 44.83 56.64 44.89 56.67 44.95 56.7 45 56.72 45.06 56.72 45.12 56.72 45.18 56.72 45.24 56.71 45.29 56.7 45.35 56.7 45.41 56.69 45.47 56.68 45.52 56.67 45.58 56.64 45.64 56.62 45.7 56.59 45.76 56.56 45.81 56.56 45.87 56.56 45.93 56.58 45.99 56.63 46.04 56.67 46.1 56.73 46.16 56.78 46.22 56.8 46.28 56.82 46.33 56.8 46.39 56.76 46.45 56.7 46.51 56.65 46.56 56.59 46.62 56.54 46.68 56.53 46.74 56.52 46.8 56.55 46.85 56.59 46.91 56.61 46.97 56.67 47.03 56.7 47.08 56.72 47.14 56.74 47.2 56.73 47.26 56.74 47.32 56.73 47.37 56.72 47.43 56.72 47.49 56.71 47.55 56.7 47.61 56.69 47.66 56.67 47.72 56.65 47.78 56.62 47.84 56.59 47.89 56.55 47.95 56.54 48.01 56.53 48.07 56.54 48.13 56.58 48.18 56.62 48.24 56.68 48.3 56.75 48.36 56.78 48.41 56.84 48.47 56.84 48.53 56.83 48.59 56.81 48.65 56.74 48.7 56.69 48.76 56.63 48.82 56.57 48.88 56.53 48.93 56.51 48.99 56.51 49.05 56.53 49.11 56.56 49.17 56.59 49.22 56.63 49.28 56.67 49.34 56.69 49.4 56.72 49.45 56.72 49.51 56.73 49.57 56.74 49.63 56.73 49.69 56.75 49.74 56.75 49.8 56.75 49.86 56.76 49.92 56.74 49.97 56.72 50.03 56.69 50.09 56.64 50.15 56.6 50.21 56.55 50.26 56.51 50.32 56.48 50.38 56.48 50.44 56.48 50.5 56.53 50.55 56.58 50.61 56.64 50.67 56.72 50.73 56.77 50.78 56.83 50.84 56.87 50.9 56.87 50.96 56.87 51.02 56.83 51.07 56.78 51.13 56.73 51.19 56.66 51.25 56.62 51.3 56.57 51.36 56.55 51.42 56.54 51.48 56.53 51.54 56.54 51.59 56.55 51.65 56.56 51.71 56.58 51.77 56.6 51.82 56.6 51.88 56.62 51.94 56.63 52 56.64 52.06 56.69 52.11 56.71 52.17 56.75 52.23 56.79 52.29 56.82 52.34 56.86 52.4 56.86 52.46 56.86 52.52 56.84 52.58 56.79 52.63 56.74 52.69 56.67 52.75 56.59 52.81 56.52 52.87 56.46 52.92 56.42 52.98 56.4 53.04 56.4 53.1 56.43 53.15 56.48 53.21 56.53 53.27 56.61 53.33 56.67 53.39 56.73 53.44 56.79 53.5 56.81 53.56 56.85 53.62 56.85 53.67 56.84 53.73 56.83 53.79 56.8 53.85 56.79 53.91 56.77 53.96 56.75 54.02 56.73 54.08 56.71 54.14 56.69 54.19 56.67 54.25 56.64 54.31 56.61 54.37 56.58 54.43 56.52 54.48 56.49 54.54 56.45 54.6 56.42 54.66 56.41 54.71 56.4 54.77 56.44 54.83 56.47 54.89 56.54 54.95 56.62 55 56.69 55.06 56.78 55.12 56.85 55.18 56.92 55.23 56.97 55.29 56.99 55.35 56.99 55.41 56.97 55.47 56.93 55.52 56.87 55.58 56.81 55.64 56.73 55.7 56.67 55.76 56.6 55.81 56.55 55.87 56.52 55.93 56.48 55.99 56.48 56.04 56.45 56.1 56.47 56.16 56.47 56.22 56.47 56.28 56.48 56.33 56.48 56.39 56.49 56.45 56.49 56.51 56.51 56.56 56.52 56.62 56.55 56.68 56.59 56.74 56.64 56.8 56.69 56.85 56.76 56.91 56.83 56.97 56.89 57.03 56.97 57.08 57.01 57.14 57.05 57.2 57.07 57.26 57.05 57.32 57.04 57.37 56.97 57.43 56.91 57.49 56.82 57.55 56.73 57.6 56.64 57.66 56.54 57.72 56.46 57.78 56.38 57.84 56.33 57.89 56.3 57.95 56.28 58.01 56.28 58.07 56.31 58.12 56.33 58.18 56.38 58.24 56.41 58.3 56.46 58.36 56.51 58.41 56.53 58.47 56.58 58.53 56.6 58.59 56.64 58.65 56.67 58.7 56.7 58.76 56.75 58.82 56.78 58.88 56.84 58.93 56.88 58.99 56.94 59.05 56.99 59.11 57.05 59.17 57.09 59.22 57.12 59.28 57.13 59.34 57.14 59.4 57.12 59.45 57.07 59.51 57.02 59.57 56.92 59.63 56.84 59.69 56.72 59.74 56.62 59.8 56.5 59.86 56.39 59.92 56.31 59.97 56.21 60.03 56.16 60.09 56.11 60.15 56.1 60.21 56.1 60.26 56.12 60.32 56.15 60.38 56.2 60.44 56.25 60.49 56.31 60.55 56.37 60.61 56.43 60.67 56.49 60.73 56.54 60.78 56.59 60.84 56.62 60.9 56.68 60.96 56.71 61.01 56.76 61.07 56.81 61.13 56.85 61.19 56.92 61.25 56.97 61.3 57.05 61.36 57.11 61.42 57.18 61.48 57.24 61.54 57.29 61.59 57.34 61.65 57.37 61.71 57.38 61.77 57.38 61.82 57.34 61.88 57.3 61.94 57.22 62 57.13 62.06 57.03 62.11 56.89 62.17 56.78 62.23 56.63 62.29 56.51 62.34 56.37 62.4 56.26 62.46 56.15 62.52 56.06 62.58 56 62.63 55.94 62.69 55.91 62.75 55.89 62.81 55.88 62.86 55.89 62.92 55.91 62.98 55.93 63.04 55.97 63.1 55.99 63.15 56.04 63.21 56.06 63.27 56.1 63.33 56.12 63.38 56.16 63.44 56.19 63.5 56.22 63.56 56.28 63.62 56.32 63.67 56.39 63.73 56.46 63.79 56.55 63.85 56.64 63.9 56.76 63.96 56.88 64.02 57.01 64.08 57.14 64.14 57.28 64.19 57.41 64.25 57.55 64.31 57.66 64.37 57.77 64.43 57.86 64.48 57.93 64.54 57.99 64.6 58.01 64.66 58.03 64.71 57.99 64.77 57.97 64.83 57.89 64.89 57.82 64.95 57.73 65 57.62 65.06 57.51 65.12 57.39 65.18 57.28 65.23 57.16 65.29 57.04 65.35 56.94 65.41 56.83 65.47 56.74 65.52 56.64 65.58 56.56 65.64 56.47 65.7 56.39 65.75 56.32 65.81 56.22 65.87 56.15 65.93 56.05 65.99 55.97 66.04 55.85 66.1 55.75 66.16 55.63 66.22 55.5 66.27 55.37 66.33 55.23 66.39 55.09 66.45 54.96 66.51 54.82 66.56 54.69 66.62 54.56 66.68 54.46 66.74 54.36 66.8 54.28 66.85 54.22 66.91 54.17 66.97 54.15 67.03 54.14 67.08 54.17 67.14 54.19 67.2 54.26 67.26 54.31 67.32 54.41 67.37 54.49 67.43 54.6 67.49 54.71 67.55 54.83 67.6 54.94 67.66 55.06 67.72 55.17 67.78 55.29 67.84 55.39 67.89 55.5 67.95 55.58 68.01 55.69 68.07 55.77 68.12 55.87 68.18 55.94 68.24 56.03 68.3 56.12 68.36 56.21 68.41 56.31 68.47 56.41 68.53 56.53 68.59 56.65 68.64 56.8 68.7 56.95 68.76 57.12 68.82 57.31 68.88 57.5 68.93 57.72 68.99 57.95 69.05 58.2 69.11 58.45 69.16 58.72 69.22 59 69.28 59.27 69.34 59.57 69.4 59.85 69.45 60.16 69.51 60.43 69.57 60.74 69.63 61.01 69.69 61.3 69.74 61.57 69.8 61.84 69.86 62.1 69.92 62.35 69.97 62.6 70.03 62.85 70.09 63.09 70.15 63.33 70.21 63.57 70.26 63.81 70.32 64.05 70.38 64.31 70.44 64.55 70.49 64.83 70.55 65.09 70.61 65.4 70.67 65.69 70.73 66.03 70.78 66.37 70.84 66.74 70.9 67.12 70.96 67.53 71.01 67.96 71.07 68.42 71.13 68.9 71.19 69.4 71.25 69.92 71.3 70.48 71.36 71.04 71.42 71.64 71.48 72.21 71.53 72.8 71.59 73.34 71.65 73.9 71.71 74.4 71.77 74.92 71.82 75.39 71.88 75.86 71.94 76.29 72 76.7 72.05 77.08 72.11 77.44 72.17 77.77 72.23 78.07 72.29 78.34 72.34 78.59 72.4 78.81 72.46 79.01 72.52 79.17 72.58 79.32 72.63 79.44 72.69 79.56 72.75 79.63 72.81 79.72 72.86 79.76 72.92 79.81 72.98 79.83 73.04 79.86 73.1 79.86 73.15 79.88 73.21 79.87 73.27 79.88 73.33 79.87 73.38 79.87 73.44 79.86 73.5 79.86 73.56 79.85 73.62 79.85 73.67 79.85 73.73 79.85 73.79 79.85 73.85 79.84 73.9 79.84 73.96 79.84 74.02 79.83 74.08 79.82 74.14 79.8 74.19 79.79 74.25 79.75 74.31 79.72 74.37 79.66 74.42 79.61 74.48 79.52 74.54 79.44 74.6 79.33 74.66 79.21 74.71 79.07 74.77 78.91 74.83 78.73 74.89 78.52 74.94 78.31 75 78.05 75.06 77.79 75.12 77.49 75.18 77.19 75.23 76.84 75.29 76.49 75.35 76.09 75.41 75.7 75.47 75.26 75.52 74.82 75.58 74.34 75.64 73.86 75.7 73.33 75.75 72.81 75.81 72.26 75.87 71.69 75.93 71.11 75.99 70.51 76.04 69.9 76.1 69.27 76.16 68.64 76.22 67.99 76.27 67.33 76.33 66.65 76.39 65.99 76.45 65.29 76.51 64.6 76.56 63.89 76.62 63.2 76.68 62.47 76.74 61.76 76.79 61.03 76.85 60.31 76.91 59.58 76.97 58.85 77.03 58.12 77.08 57.38 77.14 56.65 77.2 55.91 77.26 55.18 77.31 54.44 77.37 53.72 77.43 52.98 77.49 52.26 77.55 51.53 77.6 50.82 77.66 50.1 77.72 49.4 77.78 48.69 77.83 48.01 77.89 47.31 77.95 46.64 78.01 45.97 78.07 45.32 78.12 44.66 78.18 44.03 78.24 43.41 78.3 42.8 78.36 42.21 78.41 41.63 78.47 41.07 78.53 40.51 78.59 39.99 78.64 39.48 78.7 39 78.76 38.52 78.82 38.08 78.88 37.64 78.93 37.25 78.99 36.85 79.05 36.51 79.11 36.16 79.16 35.86 79.22 35.56 79.28 35.31 79.34 35.06 79.4 34.84 79.45 34.64 79.51 34.46 79.57 34.31 79.63 34.17 79.68 34.05 79.74 33.94 79.8 33.86 79.86 33.78 79.92 33.74 79.97 33.68 80.03 33.65 80.09 33.62 80.15 33.61 80.2 33.59 80.26 33.59 80.32 33.58 80.38 33.58 80.44 33.58 80.49 33.58 80.55 33.59 80.61 33.59 80.67 33.59 80.73 33.58 80.78 33.58 80.84 33.58 80.9 33.57 80.96 33.57 81.01 33.55 81.07 33.56 81.13 33.55 81.19 33.56 81.25 33.56 81.3 33.59 81.36 33.6 81.42 33.65 81.48 33.68 81.53 33.76 81.59 33.83 81.65 33.94 81.71 34.05 81.77 34.19 81.82 34.35 81.88 34.54 81.94 34.75 82 34.98 82.05 35.25 82.11 35.54 82.17 35.86 82.23 36.21 82.29 36.57 82.34 36.98 82.4 37.39 82.46 37.85 82.52 38.31 82.57 38.81 82.63 39.31 82.69 39.85 82.75 40.38 82.81 40.95 82.86 41.5 82.92 42.09 82.98 42.67 83.04 43.23 83.09 43.77 83.15 44.28 83.21 44.77 83.27 45.24 83.33 45.68 83.38 46.1 83.44 46.49 83.5 46.87 83.56 47.21 83.62 47.56 83.67 47.86 83.73 48.18 83.79 48.44 83.85 48.73 83.9 48.98 83.96 49.25 84.02 49.49 84.08 49.74 84.14 49.98 84.19 50.23 84.25 50.48 84.31 50.73 84.37 50.98 84.42 51.25 84.48 51.51 84.54 51.79 84.6 52.06 84.66 52.35 84.71 52.63 84.77 52.94 84.83 53.22 84.89 53.53 84.94 53.81 85 54.11 85.06 54.39 85.12 54.67 85.18 54.94 85.23 55.19 85.29 55.44 85.35 55.67 85.41 55.89 85.46 56.09 85.52 56.27 85.58 56.44 85.64 56.59 85.7 56.74 85.75 56.86 85.81 56.98 85.87 57.07 85.93 57.17 85.98 57.26 86.04 57.34 86.1 57.43 86.16 57.5 86.22 57.6 86.27 57.67 86.33 57.78 86.39 57.86 86.45 57.97 86.51 58.07 86.56 58.18 86.62 58.29 86.68 58.41 86.74 58.52 86.79 58.63 86.85 58.74 86.91 58.85 86.97 58.93 87.03 59.02 87.08 59.08 87.14 59.14 87.2 59.16 87.26 59.19 87.31 59.18 87.37 59.16 87.43 59.11 87.49 59.05 87.55 58.97 87.6 58.87 87.66 58.77 87.72 58.64 87.78 58.52 87.83 58.38 87.89 58.24 87.95 58.1 88.01 57.97 88.07 57.84 88.12 57.71 88.18 57.59 88.24 57.49 88.3 57.37 88.35 57.29 88.41 57.19 88.47 57.12 88.53 57.02 88.59 56.95 88.64 56.87 88.7 56.78 88.76 56.7 88.82 56.6 88.87 56.51 88.93 56.4 88.99 56.3 89.05 56.18 89.11 56.06 89.16 55.94 89.22 55.83 89.28 55.71 89.34 55.61 89.4 55.51 89.45 55.44 89.51 55.37 89.57 55.34 89.63 55.31 89.68 55.32 89.74 55.34 89.8 55.39 89.86 55.46 89.92 55.55 89.97 55.66 90.03 55.77 90.09 55.91 90.15 56.04 90.2 56.18 90.26 56.31 90.32 56.44 90.38 56.56 90.44 56.67 90.49 56.77 90.55 56.86 90.61 56.93 90.67 57 90.72 57.04 90.78 57.1 90.84 57.13 90.9 57.16 90.96 57.2 91.01 57.22 91.07 57.27 91.13 57.28 91.19 57.33 91.24 57.35 91.3 57.39 91.36 57.41 91.42 57.43 91.48 57.44 91.53 57.44 91.59 57.42 91.65 57.39 91.71 57.33 91.76 57.27 91.82 57.18 91.88 57.08 91.94 56.96 92 56.83 92.05 56.71 92.11 56.56 92.17 56.44 92.23 56.31 92.29 56.21 92.34 56.11 92.4 56.03 92.46 55.99 92.52 55.95 92.57 55.95 92.63 55.96 92.69 55.99 92.75 56.03 92.81 56.09 92.86 56.15 92.92 56.22 92.98 56.28 93.04 56.35 93.09 56.4 93.15 56.47 93.21 56.52 93.27 56.56 93.33 56.61 93.38 56.64 93.44 56.7 93.5 56.73 93.56 56.79 93.61 56.84 93.67 56.89 93.73 56.96 93.79 57.01 93.85 57.08 93.9 57.13 93.96 57.18 94.02 57.21 94.08 57.23 94.13 57.23 94.19 57.21 94.25 57.16 94.31 57.11 94.37 57.02 94.42 56.94 94.48 56.83 94.54 56.71 94.6 56.61 94.66 56.49 94.71 56.41 94.77 56.31 94.83 56.26 94.89 56.21 94.94 56.19 95 56.19 95.06 56.2 95.12 56.24 95.18 56.28 95.23 56.33 95.29 56.39 95.35 56.44 95.41 56.49 95.46 56.54 95.52 56.58 95.58 56.62 95.64 56.65 95.7 56.68 95.75 56.72 95.81 56.74 95.87 56.79 95.93 56.82 95.98 56.87 96.04 56.91 96.1 56.95 96.16 57 96.22 57.02 96.27 57.05 96.33 57.05 96.39 57.03 96.45 57 96.5 56.95 96.56 56.87 96.62 56.79 96.68 56.69 96.74 56.6 96.79 56.51 96.85 56.41 96.91 56.36 96.97 56.29 97.02 56.27 97.08 56.26 97.14 56.27 97.2 56.32 97.26 56.36 97.31 56.43 97.37 56.49 97.43 56.57 97.49 56.63 97.55 56.69 97.6 56.74 97.66 56.77 97.72 56.8 97.78 56.82 97.83 56.83 97.89 56.84 97.95 56.85 98.01 56.85 98.07 56.86 98.12 56.86 98.18 56.86 98.24 56.87 98.3 56.85 98.35 56.85 98.41 56.81 98.47 56.77 98.53 56.73 98.59 56.65 98.64 56.6 98.7 56.52 98.76 56.45 98.82 56.4 98.87 56.35 98.93 56.33 98.99 56.34 99.05 56.36 99.11 56.41 99.16 56.47 99.22 56.54 99.28 56.64 99.34 56.71 99.39 56.79 99.45 56.85 99.51 56.89 99.57 56.92 99.63 56.91 99.68 56.91 99.74 56.88 99.8 56.84 99.86 56.81 99.91 56.75 99.97 56.72 100.03 56.68 100.09 56.66 100.15 56.64 100.2 56.62 100.26 56.6 100.32 56.58 100.38 56.56 100.44 56.54 100.49 56.52 100.55 56.49 100.61 56.49 100.67 56.48 100.72 56.48 100.78 56.51 100.84 56.53 100.9 56.6 100.96 56.65 101.01 56.72 101.07 56.8 101.13 56.84 101.19 56.9 101.24 56.92 101.3 56.92 101.36 56.91 101.42 56.86 101.48 56.81 101.53 56.74 101.59 56.66 101.65 56.59 101.71 56.54 101.76 56.49 101.82 56.47 101.88 56.47 101.94 56.47 102 56.51 102.05 56.53 102.11 56.58 102.17 56.62 102.23 56.64 102.28 56.68 102.34 56.69 102.4 56.71 102.46 56.73 102.52 56.73 102.57 56.75 102.63 56.76 102.69 56.78 102.75 56.79 102.8 56.8 102.86 56.79 102.92 56.78 102.98 56.75 103.04 56.7 103.09 56.66 103.15 56.6 103.21 56.54 103.27 56.5 103.33 56.45 103.38 56.46 103.44 56.46 103.5 56.49 103.56 56.55 103.61 56.61 103.67 56.69 103.73 56.75 103.79 56.8 103.85 56.84 103.9 56.85 103.96 56.85 104.02 56.82 104.08 56.78 104.13 56.73 104.19 56.69 104.25 56.64 104.31 56.61 104.37 56.59 104.42 56.57 104.48 56.58 104.54 56.58 104.6 56.57 104.65 56.6 104.71 56.58 104.77 56.6 104.83 56.61 104.89 56.61 104.94 56.64 105 56.66 105.06 56.69 105.12 56.74 105.17 56.77 105.23 56.8 105.29 56.82 105.35 56.81 105.41 56.79 105.46 56.76 105.52 56.7 105.58 56.64 105.64 56.58 105.69 56.52 105.75 56.5 105.81 56.49 105.87 56.49 105.93 56.54 105.98 56.58 106.04 56.64 106.1 56.71 106.16 56.74 106.22 56.79 106.27 56.8 106.33 56.79 106.39 56.78 106.45 56.74 106.5 56.71 106.56 56.68 106.62 56.65 106.68 56.64 106.74 56.63 106.79 56.62 106.85 56.61 106.91 56.61 106.97 56.59 107.02 56.59 107.08 56.59 107.14 56.58 107.2 56.61 107.26 56.63 107.31 56.66 107.37 56.71 107.43 56.74 107.49 56.78 107.54 56.81 107.6 56.79 107.66 56.78 107.72 56.74 107.78 56.68 107.83 56.62 107.89 56.57 107.95 56.53 108.01 56.51 108.06 56.52 108.12 56.55 108.18 56.59 108.24 56.65 108.3 56.69 108.35 56.75 108.41 56.77 108.47 56.76 108.53 56.77 108.59 56.73 108.64 56.71 108.7 56.69 108.76 56.65 108.82 56.65 108.87 56.64 108.93 56.62 108.99 56.63 109.05 56.61 109.11 56.61 109.16 56.6 109.22 56.6 109.28 56.61 109.34 56.62 109.39 56.66 109.45 56.68 109.51 56.73 109.57 56.76 109.63 56.77 109.68 56.79 109.74 56.76 109.8 56.71 109.86 56.68 109.91 56.61 109.97 56.56 110.03 56.54 110.09 56.52 110.15 56.55 110.2 56.59 110.26 56.64 110.32 56.7 110.38 56.74 110.43 56.76 110.49 56.77 110.55 56.75 110.61 56.73 110.67 56.69 110.72 56.67 110.78 56.64 110.84 56.62 110.9 56.63 110.95 56.61 111.01 56.62 111.07 56.63 111.13 56.62 111.19 56.63 111.24 56.63 111.3 56.64 111.36 56.67 111.42 56.69 111.48 56.72 111.53 56.75 111.59 56.75 111.65 56.75 111.71 56.72 111.76 56.68 111.82 56.63 111.88 56.59 111.94 56.56 112 56.54 112.05 56.56 112.11 56.6 112.17 56.64 112.23 56.71 112.28 56.74 112.34 56.76 112.4 56.77 112.46 56.74 112.52 56.7 112.57 56.68 112.63 56.63 112.69 56.61 112.75 56.61 112.8 56.6 112.86 56.62 112.92 56.64 112.98 56.64 113.04 56.66 113.09 56.67 113.15 56.68 113.21 56.68 113.27 56.7 113.32 56.71 113.38 56.71 113.44 56.72 113.5 56.71 113.56 56.68 113.61 56.66 113.67 56.61 113.73 56.58 113.79 56.58 113.84 56.57 113.9 56.6 113.96 56.66 114.02 56.7 114.08 56.74 114.13 56.77 114.19 56.76 114.25 56.73 114.31 56.69 114.37 56.64 114.42 56.6 114.48 56.58 114.54 56.58 114.6 56.6 114.65 56.63 114.71 56.67 114.77 56.68 114.83 56.7 114.89 56.71 114.94 56.69 115 56.7 115.06 56.69 115.12 56.67 115.17 56.68 115.23 56.67 115.29 56.65 115.35 56.65 115.41 56.62 115.46 56.6 115.52 56.61 115.58 56.62 115.64 56.65 115.69 56.69 115.75 56.72 115.81 56.75 115.87 56.75 115.93 56.73 115.98 56.69 116.04 56.63 116.1 56.6 116.16 56.57 116.21 56.57 116.27 56.61 116.33 56.64 116.39 56.68 116.45 56.73 116.5 56.73 116.56 56.72 116.62 56.72 116.68 56.68 116.73 56.65 116.79 56.64 116.85 56.63 116.91 56.63 116.97 56.64 117.02 56.64 117.08 56.65 117.14 56.65 117.2 56.66 117.26 56.67 117.31 56.68 117.37 56.71 117.43 56.72 117.49 56.71 117.54 56.71 117.6 56.67 117.66 56.62 117.72 56.61 117.78 56.58 117.83 56.59 117.89 56.64 117.95 56.67 118.01 56.71 118.06 56.75 118.12 56.74 118.18 56.72 118.24 56.68 118.3 56.64 118.35 56.61 118.41 56.6 118.47 56.61 118.53 56.63 118.58 56.65 118.64 56.69 118.7 56.7 118.76 56.69 118.82 56.69 118.87 56.69 118.93 56.67 118.99 56.68 119.05 56.68 119.1 56.65 119.16 56.65 119.22 56.64 119.28 56.61 119.34 56.62 119.39 56.64 119.45 56.67 119.51 56.7 119.57 56.73 119.62 56.73 119.68 56.71 119.74 56.67 119.8 56.64 119.86 56.6 119.91 56.58 119.97 56.61 120.03 56.64 120.09 56.67 120.15 56.72 120.2 56.73 120.26 56.71 120.32 56.7 120.38 56.67 120.43 56.63 120.49 56.63 120.55 56.63 120.61 56.63 120.67 56.65 120.72 56.66 120.78 56.66 120.84 56.67 120.9 56.68 120.95 56.69 121.01 56.69 121.07 56.69 121.13 56.69 121.19 56.66 121.24 56.63 121.3 56.62 121.36 56.61 121.42 56.61 121.47 56.66 121.53 56.7 121.59 56.71 121.65 56.74 121.71 56.72 121.76 56.66 121.82 56.63 121.88 56.61 121.94 56.6 121.99 56.62 122.05 56.66 122.11 56.68 122.17 56.7 122.23 56.7 122.28 56.7 122.34 56.68 122.4 56.65 122.46 56.65 122.52 56.66 122.57 56.65 122.63 56.65 122.69 56.64 122.75 56.62 122.8 56.65 122.86 56.7 122.92 56.7 122.98 56.69 123.04 56.7 123.09 56.69 123.15 56.67 123.21 56.63 123.27 56.58 123.32 56.58 123.38 56.65 123.44 56.72 123.5 56.73 123.56 56.69 123.61 56.67 123.67 56.7 123.73 56.68 123.79 56.62 123.84 56.59 123.9 56.6 123.96 56.66 124.02 56.72 124.08 56.7 124.13 56.65 124.19 56.66 124.25 56.69 124.31 56.68 124.36 56.67 124.42 56.66 124.48 56.64 124.54 56.62 124.6 56.62 124.65 56.65 124.71 56.69 124.77 56.7 124.83 56.69 124.88 56.69 124.94 56.69 125 56.67 125.06 56.64 125.12 56.58 125.17 56.58 125.23 56.66 125.29 56.72 125.35 56.71 125.41 56.71 125.46 56.69 125.52 56.64 125.58 56.61 125.64 56.64 125.69 56.67 125.75 56.67 125.81 56.65 125.87 56.64 125.93 56.67 125.98 56.7 126.04 56.7 126.1 56.69 126.16 56.67 126.21 56.64 126.27 56.63 126.33 56.63 126.39 56.63 126.45 56.66 126.5 56.68 126.56 56.68 126.62 56.7 126.68 56.73 126.73 56.68 126.79 56.62 126.85 56.61 126.91 56.62 126.97 56.64 127.02 56.68 127.08 56.72 127.14 56.73 127.2 56.68 127.25 56.63 127.31 56.63 127.37 56.66 127.43 56.66 127.49 56.65 127.54 56.67 127.6 56.65 127.66 56.63 127.72 56.67 127.77 56.72 127.83 56.72 127.89 56.68 127.95 56.64 128.01 56.6 128.06 56.6 128.12 56.64 128.18 56.69 128.24 56.74 128.3 56.73 128.35 56.67 128.41 56.63 128.47 56.62 128.53 56.62 128.58 56.65 128.64 56.69 128.7 56.68 128.76 56.66 128.82 56.66 128.87 56.67 128.93 56.68 128.99 56.69 129.05 56.68 129.1 56.64 129.16 56.62 129.22 56.62 129.28 56.65 129.34 56.7 129.39 56.73 129.45 56.71 129.51 56.66 129.57 56.63 129.62 56.59 129.68 56.61 129.74 56.68 129.8 56.71 129.86 56.7 129.91 56.69 129.97 56.66 130.03 56.63 130.09 56.64 130.14 56.67 130.2 56.68 130.26 56.67 130.32 56.65 130.38 56.64 130.43 56.67 130.49 56.69 130.55 56.69 130.61 56.69 130.66 56.66 130.72 56.6 130.78 56.59 130.84 56.66 130.9 56.71 130.95 56.71 131.01 56.71 131.07 56.69 131.13 56.62 131.19 56.58 131.24 56.62 131.3 56.68 131.36 56.7 131.42 56.7 131.47 56.69 131.53 56.67 131.59 56.64 131.65 56.63 131.71 56.65 131.76 56.68 131.82 56.66 131.88 56.65 131.94 56.68 131.99 56.7 132.05 56.67 132.11 56.65 132.17 56.65 132.23 56.65 132.28 56.64 132.34 56.67 132.4 56.69 132.46 56.68 132.51 56.66 132.57 56.65 132.63 56.64 132.69 56.67 132.75 56.69 132.8 56.65 132.86 56.62 132.92 56.65 132.98 56.69 133.03 56.68 133.09 56.68 133.15 56.69 133.21 56.64 133.27 56.59 133.32 56.62 133.38 56.69 133.44 56.72 133.5 56.7 133.55 56.67 133.61 56.64 133.67 56.64 133.73 56.65 133.79 56.65 133.84 56.64 133.9 56.68 133.96 56.71 134.02 56.69 134.08 56.66 134.13 56.65 134.19 56.62 134.25 56.61 134.31 56.65 134.36 56.71 134.42 56.73 134.48 56.7 134.54 56.65 134.6 56.62 134.65 56.62 134.71 56.65 134.77 56.67 134.83 56.68 134.88 56.7 134.94 56.71 135 56.66" id="fig-b7aa33d5d153428094a4c8063f392ea6-element-31"/>
      </g>
      <g stroke-width="0.3" fill="none" class="geometry color_Wavefunction_at_t=0" stroke="#00BFFF" id="fig-b7aa33d5d153428094a4c8063f392ea6-element-32">
        <path fill="none" d="M19.4,56.66 L 19.46 56.66 19.51 56.66 19.57 56.66 19.63 56.66 19.69 56.66 19.75 56.66 19.8 56.66 19.86 56.66 19.92 56.66 19.98 56.66 20.03 56.66 20.09 56.66 20.15 56.66 20.21 56.66 20.27 56.66 20.32 56.66 20.38 56.66 20.44 56.66 20.5 56.66 20.55 56.66 20.61 56.66 20.67 56.66 20.73 56.66 20.79 56.66 20.84 56.66 20.9 56.66 20.96 56.66 21.02 56.66 21.07 56.66 21.13 56.66 21.19 56.66 21.25 56.66 21.31 56.66 21.36 56.66 21.42 56.66 21.48 56.66 21.54 56.66 21.59 56.66 21.65 56.66 21.71 56.66 21.77 56.66 21.83 56.66 21.88 56.66 21.94 56.66 22 56.66 22.06 56.66 22.11 56.66 22.17 56.66 22.23 56.66 22.29 56.66 22.35 56.66 22.4 56.66 22.46 56.66 22.52 56.66 22.58 56.66 22.64 56.66 22.69 56.66 22.75 56.66 22.81 56.66 22.87 56.66 22.92 56.66 22.98 56.66 23.04 56.66 23.1 56.66 23.16 56.66 23.21 56.66 23.27 56.66 23.33 56.66 23.39 56.66 23.44 56.66 23.5 56.66 23.56 56.66 23.62 56.66 23.68 56.66 23.73 56.66 23.79 56.66 23.85 56.66 23.91 56.66 23.96 56.66 24.02 56.66 24.08 56.66 24.14 56.66 24.2 56.66 24.25 56.66 24.31 56.66 24.37 56.66 24.43 56.66 24.48 56.66 24.54 56.66 24.6 56.66 24.66 56.66 24.72 56.66 24.77 56.66 24.83 56.66 24.89 56.66 24.95 56.66 25.01 56.66 25.06 56.66 25.12 56.66 25.18 56.66 25.24 56.66 25.29 56.66 25.35 56.66 25.41 56.66 25.47 56.66 25.53 56.66 25.58 56.66 25.64 56.66 25.7 56.66 25.76 56.66 25.81 56.66 25.87 56.66 25.93 56.66 25.99 56.66 26.05 56.66 26.1 56.66 26.16 56.66 26.22 56.66 26.28 56.66 26.33 56.66 26.39 56.66 26.45 56.66 26.51 56.66 26.57 56.66 26.62 56.66 26.68 56.66 26.74 56.66 26.8 56.66 26.85 56.66 26.91 56.66 26.97 56.66 27.03 56.66 27.09 56.66 27.14 56.66 27.2 56.66 27.26 56.66 27.32 56.66 27.37 56.66 27.43 56.66 27.49 56.66 27.55 56.66 27.61 56.66 27.66 56.66 27.72 56.66 27.78 56.66 27.84 56.66 27.9 56.66 27.95 56.66 28.01 56.66 28.07 56.66 28.13 56.66 28.18 56.66 28.24 56.66 28.3 56.66 28.36 56.66 28.42 56.66 28.47 56.66 28.53 56.66 28.59 56.66 28.65 56.66 28.7 56.66 28.76 56.66 28.82 56.66 28.88 56.66 28.94 56.66 28.99 56.66 29.05 56.66 29.11 56.66 29.17 56.66 29.22 56.66 29.28 56.66 29.34 56.66 29.4 56.66 29.46 56.66 29.51 56.66 29.57 56.66 29.63 56.66 29.69 56.66 29.74 56.66 29.8 56.66 29.86 56.66 29.92 56.66 29.98 56.66 30.03 56.66 30.09 56.66 30.15 56.66 30.21 56.66 30.26 56.66 30.32 56.66 30.38 56.66 30.44 56.66 30.5 56.66 30.55 56.66 30.61 56.66 30.67 56.66 30.73 56.66 30.79 56.66 30.84 56.66 30.9 56.66 30.96 56.66 31.02 56.66 31.07 56.66 31.13 56.66 31.19 56.66 31.25 56.66 31.31 56.66 31.36 56.66 31.42 56.66 31.48 56.66 31.54 56.66 31.59 56.66 31.65 56.66 31.71 56.66 31.77 56.66 31.83 56.66 31.88 56.66 31.94 56.66 32 56.66 32.06 56.66 32.11 56.66 32.17 56.66 32.23 56.66 32.29 56.66 32.35 56.66 32.4 56.66 32.46 56.66 32.52 56.66 32.58 56.66 32.63 56.66 32.69 56.66 32.75 56.66 32.81 56.66 32.87 56.66 32.92 56.66 32.98 56.66 33.04 56.66 33.1 56.66 33.15 56.66 33.21 56.66 33.27 56.66 33.33 56.66 33.39 56.66 33.44 56.66 33.5 56.66 33.56 56.66 33.62 56.66 33.68 56.66 33.73 56.66 33.79 56.66 33.85 56.66 33.91 56.66 33.96 56.66 34.02 56.66 34.08 56.66 34.14 56.66 34.2 56.66 34.25 56.66 34.31 56.66 34.37 56.66 34.43 56.66 34.48 56.66 34.54 56.66 34.6 56.66 34.66 56.66 34.72 56.66 34.77 56.66 34.83 56.66 34.89 56.66 34.95 56.66 35 56.66 35.06 56.66 35.12 56.66 35.18 56.66 35.24 56.66 35.29 56.66 35.35 56.66 35.41 56.66 35.47 56.66 35.52 56.66 35.58 56.66 35.64 56.66 35.7 56.66 35.76 56.66 35.81 56.66 35.87 56.66 35.93 56.66 35.99 56.66 36.04 56.66 36.1 56.66 36.16 56.66 36.22 56.66 36.28 56.66 36.33 56.66 36.39 56.66 36.45 56.66 36.51 56.66 36.57 56.66 36.62 56.66 36.68 56.66 36.74 56.66 36.8 56.66 36.85 56.66 36.91 56.66 36.97 56.66 37.03 56.66 37.09 56.66 37.14 56.66 37.2 56.66 37.26 56.66 37.32 56.66 37.37 56.66 37.43 56.66 37.49 56.66 37.55 56.66 37.61 56.66 37.66 56.66 37.72 56.66 37.78 56.66 37.84 56.66 37.89 56.66 37.95 56.66 38.01 56.66 38.07 56.66 38.13 56.66 38.18 56.66 38.24 56.66 38.3 56.66 38.36 56.66 38.41 56.66 38.47 56.66 38.53 56.66 38.59 56.66 38.65 56.66 38.7 56.66 38.76 56.66 38.82 56.66 38.88 56.66 38.94 56.66 38.99 56.66 39.05 56.66 39.11 56.66 39.17 56.66 39.22 56.66 39.28 56.66 39.34 56.66 39.4 56.66 39.46 56.66 39.51 56.66 39.57 56.66 39.63 56.66 39.69 56.66 39.74 56.66 39.8 56.66 39.86 56.66 39.92 56.66 39.98 56.66 40.03 56.66 40.09 56.66 40.15 56.66 40.21 56.66 40.26 56.66 40.32 56.66 40.38 56.66 40.44 56.66 40.5 56.66 40.55 56.66 40.61 56.66 40.67 56.66 40.73 56.66 40.78 56.66 40.84 56.66 40.9 56.66 40.96 56.66 41.02 56.66 41.07 56.66 41.13 56.66 41.19 56.66 41.25 56.66 41.3 56.66 41.36 56.66 41.42 56.66 41.48 56.66 41.54 56.66 41.59 56.66 41.65 56.66 41.71 56.66 41.77 56.66 41.83 56.66 41.88 56.66 41.94 56.66 42 56.66 42.06 56.66 42.11 56.66 42.17 56.66 42.23 56.66 42.29 56.66 42.35 56.66 42.4 56.66 42.46 56.66 42.52 56.66 42.58 56.66 42.63 56.66 42.69 56.66 42.75 56.66 42.81 56.66 42.87 56.66 42.92 56.66 42.98 56.66 43.04 56.66 43.1 56.66 43.15 56.66 43.21 56.66 43.27 56.66 43.33 56.66 43.39 56.66 43.44 56.66 43.5 56.66 43.56 56.66 43.62 56.66 43.67 56.66 43.73 56.66 43.79 56.66 43.85 56.66 43.91 56.66 43.96 56.66 44.02 56.66 44.08 56.66 44.14 56.66 44.19 56.66 44.25 56.66 44.31 56.66 44.37 56.66 44.43 56.66 44.48 56.66 44.54 56.66 44.6 56.66 44.66 56.66 44.72 56.66 44.77 56.66 44.83 56.66 44.89 56.66 44.95 56.66 45 56.66 45.06 56.66 45.12 56.66 45.18 56.66 45.24 56.66 45.29 56.66 45.35 56.66 45.41 56.66 45.47 56.66 45.52 56.66 45.58 56.66 45.64 56.66 45.7 56.66 45.76 56.66 45.81 56.66 45.87 56.66 45.93 56.66 45.99 56.66 46.04 56.66 46.1 56.66 46.16 56.66 46.22 56.66 46.28 56.66 46.33 56.66 46.39 56.66 46.45 56.66 46.51 56.66 46.56 56.66 46.62 56.66 46.68 56.66 46.74 56.66 46.8 56.66 46.85 56.66 46.91 56.66 46.97 56.66 47.03 56.66 47.08 56.66 47.14 56.66 47.2 56.66 47.26 56.66 47.32 56.66 47.37 56.66 47.43 56.66 47.49 56.66 47.55 56.66 47.61 56.66 47.66 56.66 47.72 56.66 47.78 56.66 47.84 56.66 47.89 56.66 47.95 56.66 48.01 56.66 48.07 56.66 48.13 56.66 48.18 56.66 48.24 56.66 48.3 56.66 48.36 56.66 48.41 56.66 48.47 56.66 48.53 56.66 48.59 56.66 48.65 56.66 48.7 56.66 48.76 56.66 48.82 56.66 48.88 56.66 48.93 56.66 48.99 56.66 49.05 56.66 49.11 56.66 49.17 56.66 49.22 56.66 49.28 56.66 49.34 56.66 49.4 56.66 49.45 56.66 49.51 56.66 49.57 56.66 49.63 56.66 49.69 56.66 49.74 56.66 49.8 56.66 49.86 56.66 49.92 56.66 49.97 56.66 50.03 56.66 50.09 56.66 50.15 56.66 50.21 56.66 50.26 56.66 50.32 56.66 50.38 56.66 50.44 56.66 50.5 56.66 50.55 56.66 50.61 56.66 50.67 56.66 50.73 56.66 50.78 56.66 50.84 56.66 50.9 56.66 50.96 56.66 51.02 56.66 51.07 56.66 51.13 56.66 51.19 56.66 51.25 56.66 51.3 56.66 51.36 56.66 51.42 56.66 51.48 56.66 51.54 56.66 51.59 56.66 51.65 56.66 51.71 56.66 51.77 56.66 51.82 56.66 51.88 56.66 51.94 56.66 52 56.66 52.06 56.66 52.11 56.66 52.17 56.66 52.23 56.66 52.29 56.66 52.34 56.66 52.4 56.66 52.46 56.66 52.52 56.66 52.58 56.66 52.63 56.66 52.69 56.66 52.75 56.66 52.81 56.66 52.87 56.66 52.92 56.66 52.98 56.66 53.04 56.66 53.1 56.66 53.15 56.66 53.21 56.66 53.27 56.66 53.33 56.66 53.39 56.66 53.44 56.66 53.5 56.66 53.56 56.66 53.62 56.66 53.67 56.66 53.73 56.66 53.79 56.66 53.85 56.66 53.91 56.66 53.96 56.66 54.02 56.66 54.08 56.66 54.14 56.66 54.19 56.66 54.25 56.66 54.31 56.66 54.37 56.66 54.43 56.66 54.48 56.66 54.54 56.66 54.6 56.66 54.66 56.66 54.71 56.66 54.77 56.66 54.83 56.66 54.89 56.66 54.95 56.66 55 56.66 55.06 56.66 55.12 56.66 55.18 56.66 55.23 56.66 55.29 56.66 55.35 56.66 55.41 56.66 55.47 56.66 55.52 56.66 55.58 56.66 55.64 56.66 55.7 56.66 55.76 56.66 55.81 56.66 55.87 56.66 55.93 56.66 55.99 56.66 56.04 56.66 56.1 56.66 56.16 56.66 56.22 56.66 56.28 56.66 56.33 56.66 56.39 56.66 56.45 56.66 56.51 56.66 56.56 56.66 56.62 56.66 56.68 56.66 56.74 56.66 56.8 56.66 56.85 56.66 56.91 56.66 56.97 56.66 57.03 56.66 57.08 56.66 57.14 56.66 57.2 56.66 57.26 56.66 57.32 56.66 57.37 56.66 57.43 56.66 57.49 56.66 57.55 56.66 57.6 56.66 57.66 56.66 57.72 56.66 57.78 56.66 57.84 56.66 57.89 56.66 57.95 56.66 58.01 56.66 58.07 56.66 58.12 56.66 58.18 56.66 58.24 56.66 58.3 56.66 58.36 56.66 58.41 56.66 58.47 56.66 58.53 56.66 58.59 56.66 58.65 56.66 58.7 56.66 58.76 56.66 58.82 56.66 58.88 56.66 58.93 56.66 58.99 56.66 59.05 56.66 59.11 56.66 59.17 56.66 59.22 56.66 59.28 56.66 59.34 56.66 59.4 56.66 59.45 56.66 59.51 56.66 59.57 56.66 59.63 56.66 59.69 56.66 59.74 56.66 59.8 56.66 59.86 56.66 59.92 56.66 59.97 56.66 60.03 56.66 60.09 56.66 60.15 56.66 60.21 56.66 60.26 56.66 60.32 56.66 60.38 56.66 60.44 56.66 60.49 56.66 60.55 56.66 60.61 56.66 60.67 56.66 60.73 56.66 60.78 56.66 60.84 56.66 60.9 56.66 60.96 56.66 61.01 56.66 61.07 56.66 61.13 56.66 61.19 56.66 61.25 56.66 61.3 56.66 61.36 56.66 61.42 56.66 61.48 56.66 61.54 56.66 61.59 56.66 61.65 56.66 61.71 56.66 61.77 56.66 61.82 56.66 61.88 56.66 61.94 56.66 62 56.66 62.06 56.66 62.11 56.66 62.17 56.66 62.23 56.66 62.29 56.66 62.34 56.66 62.4 56.66 62.46 56.66 62.52 56.66 62.58 56.66 62.63 56.66 62.69 56.66 62.75 56.66 62.81 56.66 62.86 56.66 62.92 56.66 62.98 56.66 63.04 56.66 63.1 56.66 63.15 56.66 63.21 56.66 63.27 56.66 63.33 56.66 63.38 56.66 63.44 56.66 63.5 56.66 63.56 56.66 63.62 56.66 63.67 56.66 63.73 56.66 63.79 56.66 63.85 56.66 63.9 56.66 63.96 56.66 64.02 56.66 64.08 56.66 64.14 56.66 64.19 56.66 64.25 56.66 64.31 56.66 64.37 56.66 64.43 56.66 64.48 56.66 64.54 56.66 64.6 56.66 64.66 56.66 64.71 56.66 64.77 56.66 64.83 56.66 64.89 56.66 64.95 56.66 65 56.66 65.06 56.66 65.12 56.66 65.18 56.66 65.23 56.66 65.29 56.66 65.35 56.66 65.41 56.66 65.47 56.66 65.52 56.66 65.58 56.66 65.64 56.66 65.7 56.66 65.75 56.66 65.81 56.66 65.87 56.66 65.93 56.66 65.99 56.66 66.04 56.66 66.1 56.66 66.16 56.66 66.22 56.66 66.27 56.66 66.33 56.66 66.39 56.66 66.45 56.66 66.51 56.66 66.56 56.66 66.62 56.66 66.68 56.66 66.74 56.66 66.8 56.66 66.85 56.66 66.91 56.66 66.97 56.66 67.03 56.66 67.08 56.66 67.14 56.66 67.2 56.66 67.26 56.66 67.32 56.66 67.37 56.66 67.43 56.66 67.49 56.66 67.55 56.66 67.6 56.66 67.66 56.66 67.72 56.66 67.78 56.66 67.84 56.66 67.89 56.66 67.95 56.66 68.01 56.66 68.07 56.66 68.12 56.66 68.18 56.66 68.24 56.66 68.3 56.66 68.36 56.66 68.41 56.66 68.47 56.66 68.53 56.66 68.59 56.66 68.64 56.66 68.7 56.66 68.76 56.66 68.82 56.66 68.88 56.66 68.93 56.66 68.99 56.66 69.05 56.66 69.11 56.66 69.16 56.66 69.22 56.66 69.28 56.66 69.34 56.66 69.4 56.66 69.45 56.66 69.51 56.66 69.57 56.66 69.63 56.66 69.69 56.66 69.74 56.66 69.8 56.66 69.86 56.66 69.92 56.66 69.97 56.66 70.03 56.66 70.09 56.66 70.15 56.66 70.21 56.66 70.26 56.66 70.32 56.66 70.38 56.66 70.44 56.66 70.49 56.66 70.55 56.66 70.61 56.66 70.67 56.66 70.73 56.66 70.78 56.66 70.84 56.66 70.9 56.66 70.96 56.66 71.01 56.66 71.07 56.66 71.13 56.66 71.19 56.66 71.25 56.66 71.3 56.66 71.36 56.66 71.42 57.71 71.48 58.75 71.53 59.79 71.59 60.83 71.65 61.86 71.71 62.89 71.77 63.92 71.82 64.93 71.88 65.94 71.94 66.94 72 67.92 72.05 68.9 72.11 69.87 72.17 70.82 72.23 71.76 72.29 72.68 72.34 73.59 72.4 74.48 72.46 75.35 72.52 76.2 72.58 77.04 72.63 77.85 72.69 78.65 72.75 79.42 72.81 80.17 72.86 80.9 72.92 81.6 72.98 82.28 73.04 82.93 73.1 83.56 73.15 84.16 73.21 84.73 73.27 85.28 73.33 85.8 73.38 86.28 73.44 86.74 73.5 87.17 73.56 87.57 73.62 87.94 73.67 88.28 73.73 88.59 73.79 88.86 73.85 89.11 73.9 89.32 73.96 89.5 74.02 89.65 74.08 89.76 74.14 89.84 74.19 89.89 74.25 89.91 74.31 89.89 74.37 89.84 74.42 89.76 74.48 89.65 74.54 89.5 74.6 89.32 74.66 89.11 74.71 88.86 74.77 88.59 74.83 88.28 74.89 87.94 74.94 87.57 75 87.17 75.06 86.74 75.12 86.28 75.18 85.8 75.23 85.28 75.29 84.73 75.35 84.16 75.41 83.56 75.47 82.93 75.52 82.28 75.58 81.6 75.64 80.9 75.7 80.17 75.75 79.42 75.81 78.65 75.87 77.85 75.93 77.04 75.99 76.2 76.04 75.35 76.1 74.48 76.16 73.59 76.22 72.68 76.27 71.76 76.33 70.82 76.39 69.87 76.45 68.9 76.51 67.92 76.56 66.94 76.62 65.94 76.68 64.93 76.74 63.92 76.79 62.89 76.85 61.86 76.91 60.83 76.97 59.79 77.03 58.75 77.08 57.71 77.14 56.66 77.2 55.62 77.26 54.58 77.31 53.53 77.37 52.5 77.43 51.46 77.49 50.43 77.55 49.41 77.6 48.4 77.66 47.39 77.72 46.39 77.78 45.4 77.83 44.43 77.89 43.46 77.95 42.51 78.01 41.57 78.07 40.65 78.12 39.74 78.18 38.85 78.24 37.98 78.3 37.12 78.36 36.29 78.41 35.47 78.47 34.68 78.53 33.91 78.59 33.16 78.64 32.43 78.7 31.73 78.76 31.05 78.82 30.39 78.88 29.77 78.93 29.17 78.99 28.59 79.05 28.05 79.11 27.53 79.16 27.04 79.22 26.58 79.28 26.15 79.34 25.75 79.4 25.38 79.45 25.05 79.51 24.74 79.57 24.46 79.63 24.22 79.68 24.01 79.74 23.83 79.8 23.68 79.86 23.57 79.92 23.48 79.97 23.43 80.03 23.42 80.09 23.43 80.15 23.48 80.2 23.57 80.26 23.68 80.32 23.83 80.38 24.01 80.44 24.22 80.49 24.46 80.55 24.74 80.61 25.05 80.67 25.38 80.73 25.75 80.78 26.15 80.84 26.58 80.9 27.04 80.96 27.53 81.01 28.05 81.07 28.59 81.13 29.17 81.19 29.77 81.25 30.39 81.3 31.05 81.36 31.73 81.42 32.43 81.48 33.16 81.53 33.91 81.59 34.68 81.65 35.47 81.71 36.29 81.77 37.12 81.82 37.98 81.88 38.85 81.94 39.74 82 40.65 82.05 41.57 82.11 42.51 82.17 43.46 82.23 44.43 82.29 45.4 82.34 46.39 82.4 47.39 82.46 48.4 82.52 49.41 82.57 50.43 82.63 51.46 82.69 52.5 82.75 53.53 82.81 54.58 82.86 55.62 82.92 56.66 82.98 56.66 83.04 56.66 83.09 56.66 83.15 56.66 83.21 56.66 83.27 56.66 83.33 56.66 83.38 56.66 83.44 56.66 83.5 56.66 83.56 56.66 83.62 56.66 83.67 56.66 83.73 56.66 83.79 56.66 83.85 56.66 83.9 56.66 83.96 56.66 84.02 56.66 84.08 56.66 84.14 56.66 84.19 56.66 84.25 56.66 84.31 56.66 84.37 56.66 84.42 56.66 84.48 56.66 84.54 56.66 84.6 56.66 84.66 56.66 84.71 56.66 84.77 56.66 84.83 56.66 84.89 56.66 84.94 56.66 85 56.66 85.06 56.66 85.12 56.66 85.18 56.66 85.23 56.66 85.29 56.66 85.35 56.66 85.41 56.66 85.46 56.66 85.52 56.66 85.58 56.66 85.64 56.66 85.7 56.66 85.75 56.66 85.81 56.66 85.87 56.66 85.93 56.66 85.98 56.66 86.04 56.66 86.1 56.66 86.16 56.66 86.22 56.66 86.27 56.66 86.33 56.66 86.39 56.66 86.45 56.66 86.51 56.66 86.56 56.66 86.62 56.66 86.68 56.66 86.74 56.66 86.79 56.66 86.85 56.66 86.91 56.66 86.97 56.66 87.03 56.66 87.08 56.66 87.14 56.66 87.2 56.66 87.26 56.66 87.31 56.66 87.37 56.66 87.43 56.66 87.49 56.66 87.55 56.66 87.6 56.66 87.66 56.66 87.72 56.66 87.78 56.66 87.83 56.66 87.89 56.66 87.95 56.66 88.01 56.66 88.07 56.66 88.12 56.66 88.18 56.66 88.24 56.66 88.3 56.66 88.35 56.66 88.41 56.66 88.47 56.66 88.53 56.66 88.59 56.66 88.64 56.66 88.7 56.66 88.76 56.66 88.82 56.66 88.87 56.66 88.93 56.66 88.99 56.66 89.05 56.66 89.11 56.66 89.16 56.66 89.22 56.66 89.28 56.66 89.34 56.66 89.4 56.66 89.45 56.66 89.51 56.66 89.57 56.66 89.63 56.66 89.68 56.66 89.74 56.66 89.8 56.66 89.86 56.66 89.92 56.66 89.97 56.66 90.03 56.66 90.09 56.66 90.15 56.66 90.2 56.66 90.26 56.66 90.32 56.66 90.38 56.66 90.44 56.66 90.49 56.66 90.55 56.66 90.61 56.66 90.67 56.66 90.72 56.66 90.78 56.66 90.84 56.66 90.9 56.66 90.96 56.66 91.01 56.66 91.07 56.66 91.13 56.66 91.19 56.66 91.24 56.66 91.3 56.66 91.36 56.66 91.42 56.66 91.48 56.66 91.53 56.66 91.59 56.66 91.65 56.66 91.71 56.66 91.76 56.66 91.82 56.66 91.88 56.66 91.94 56.66 92 56.66 92.05 56.66 92.11 56.66 92.17 56.66 92.23 56.66 92.29 56.66 92.34 56.66 92.4 56.66 92.46 56.66 92.52 56.66 92.57 56.66 92.63 56.66 92.69 56.66 92.75 56.66 92.81 56.66 92.86 56.66 92.92 56.66 92.98 56.66 93.04 56.66 93.09 56.66 93.15 56.66 93.21 56.66 93.27 56.66 93.33 56.66 93.38 56.66 93.44 56.66 93.5 56.66 93.56 56.66 93.61 56.66 93.67 56.66 93.73 56.66 93.79 56.66 93.85 56.66 93.9 56.66 93.96 56.66 94.02 56.66 94.08 56.66 94.13 56.66 94.19 56.66 94.25 56.66 94.31 56.66 94.37 56.66 94.42 56.66 94.48 56.66 94.54 56.66 94.6 56.66 94.66 56.66 94.71 56.66 94.77 56.66 94.83 56.66 94.89 56.66 94.94 56.66 95 56.66 95.06 56.66 95.12 56.66 95.18 56.66 95.23 56.66 95.29 56.66 95.35 56.66 95.41 56.66 95.46 56.66 95.52 56.66 95.58 56.66 95.64 56.66 95.7 56.66 95.75 56.66 95.81 56.66 95.87 56.66 95.93 56.66 95.98 56.66 96.04 56.66 96.1 56.66 96.16 56.66 96.22 56.66 96.27 56.66 96.33 56.66 96.39 56.66 96.45 56.66 96.5 56.66 96.56 56.66 96.62 56.66 96.68 56.66 96.74 56.66 96.79 56.66 96.85 56.66 96.91 56.66 96.97 56.66 97.02 56.66 97.08 56.66 97.14 56.66 97.2 56.66 97.26 56.66 97.31 56.66 97.37 56.66 97.43 56.66 97.49 56.66 97.55 56.66 97.6 56.66 97.66 56.66 97.72 56.66 97.78 56.66 97.83 56.66 97.89 56.66 97.95 56.66 98.01 56.66 98.07 56.66 98.12 56.66 98.18 56.66 98.24 56.66 98.3 56.66 98.35 56.66 98.41 56.66 98.47 56.66 98.53 56.66 98.59 56.66 98.64 56.66 98.7 56.66 98.76 56.66 98.82 56.66 98.87 56.66 98.93 56.66 98.99 56.66 99.05 56.66 99.11 56.66 99.16 56.66 99.22 56.66 99.28 56.66 99.34 56.66 99.39 56.66 99.45 56.66 99.51 56.66 99.57 56.66 99.63 56.66 99.68 56.66 99.74 56.66 99.8 56.66 99.86 56.66 99.91 56.66 99.97 56.66 100.03 56.66 100.09 56.66 100.15 56.66 100.2 56.66 100.26 56.66 100.32 56.66 100.38 56.66 100.44 56.66 100.49 56.66 100.55 56.66 100.61 56.66 100.67 56.66 100.72 56.66 100.78 56.66 100.84 56.66 100.9 56.66 100.96 56.66 101.01 56.66 101.07 56.66 101.13 56.66 101.19 56.66 101.24 56.66 101.3 56.66 101.36 56.66 101.42 56.66 101.48 56.66 101.53 56.66 101.59 56.66 101.65 56.66 101.71 56.66 101.76 56.66 101.82 56.66 101.88 56.66 101.94 56.66 102 56.66 102.05 56.66 102.11 56.66 102.17 56.66 102.23 56.66 102.28 56.66 102.34 56.66 102.4 56.66 102.46 56.66 102.52 56.66 102.57 56.66 102.63 56.66 102.69 56.66 102.75 56.66 102.8 56.66 102.86 56.66 102.92 56.66 102.98 56.66 103.04 56.66 103.09 56.66 103.15 56.66 103.21 56.66 103.27 56.66 103.33 56.66 103.38 56.66 103.44 56.66 103.5 56.66 103.56 56.66 103.61 56.66 103.67 56.66 103.73 56.66 103.79 56.66 103.85 56.66 103.9 56.66 103.96 56.66 104.02 56.66 104.08 56.66 104.13 56.66 104.19 56.66 104.25 56.66 104.31 56.66 104.37 56.66 104.42 56.66 104.48 56.66 104.54 56.66 104.6 56.66 104.65 56.66 104.71 56.66 104.77 56.66 104.83 56.66 104.89 56.66 104.94 56.66 105 56.66 105.06 56.66 105.12 56.66 105.17 56.66 105.23 56.66 105.29 56.66 105.35 56.66 105.41 56.66 105.46 56.66 105.52 56.66 105.58 56.66 105.64 56.66 105.69 56.66 105.75 56.66 105.81 56.66 105.87 56.66 105.93 56.66 105.98 56.66 106.04 56.66 106.1 56.66 106.16 56.66 106.22 56.66 106.27 56.66 106.33 56.66 106.39 56.66 106.45 56.66 106.5 56.66 106.56 56.66 106.62 56.66 106.68 56.66 106.74 56.66 106.79 56.66 106.85 56.66 106.91 56.66 106.97 56.66 107.02 56.66 107.08 56.66 107.14 56.66 107.2 56.66 107.26 56.66 107.31 56.66 107.37 56.66 107.43 56.66 107.49 56.66 107.54 56.66 107.6 56.66 107.66 56.66 107.72 56.66 107.78 56.66 107.83 56.66 107.89 56.66 107.95 56.66 108.01 56.66 108.06 56.66 108.12 56.66 108.18 56.66 108.24 56.66 108.3 56.66 108.35 56.66 108.41 56.66 108.47 56.66 108.53 56.66 108.59 56.66 108.64 56.66 108.7 56.66 108.76 56.66 108.82 56.66 108.87 56.66 108.93 56.66 108.99 56.66 109.05 56.66 109.11 56.66 109.16 56.66 109.22 56.66 109.28 56.66 109.34 56.66 109.39 56.66 109.45 56.66 109.51 56.66 109.57 56.66 109.63 56.66 109.68 56.66 109.74 56.66 109.8 56.66 109.86 56.66 109.91 56.66 109.97 56.66 110.03 56.66 110.09 56.66 110.15 56.66 110.2 56.66 110.26 56.66 110.32 56.66 110.38 56.66 110.43 56.66 110.49 56.66 110.55 56.66 110.61 56.66 110.67 56.66 110.72 56.66 110.78 56.66 110.84 56.66 110.9 56.66 110.95 56.66 111.01 56.66 111.07 56.66 111.13 56.66 111.19 56.66 111.24 56.66 111.3 56.66 111.36 56.66 111.42 56.66 111.48 56.66 111.53 56.66 111.59 56.66 111.65 56.66 111.71 56.66 111.76 56.66 111.82 56.66 111.88 56.66 111.94 56.66 112 56.66 112.05 56.66 112.11 56.66 112.17 56.66 112.23 56.66 112.28 56.66 112.34 56.66 112.4 56.66 112.46 56.66 112.52 56.66 112.57 56.66 112.63 56.66 112.69 56.66 112.75 56.66 112.8 56.66 112.86 56.66 112.92 56.66 112.98 56.66 113.04 56.66 113.09 56.66 113.15 56.66 113.21 56.66 113.27 56.66 113.32 56.66 113.38 56.66 113.44 56.66 113.5 56.66 113.56 56.66 113.61 56.66 113.67 56.66 113.73 56.66 113.79 56.66 113.84 56.66 113.9 56.66 113.96 56.66 114.02 56.66 114.08 56.66 114.13 56.66 114.19 56.66 114.25 56.66 114.31 56.66 114.37 56.66 114.42 56.66 114.48 56.66 114.54 56.66 114.6 56.66 114.65 56.66 114.71 56.66 114.77 56.66 114.83 56.66 114.89 56.66 114.94 56.66 115 56.66 115.06 56.66 115.12 56.66 115.17 56.66 115.23 56.66 115.29 56.66 115.35 56.66 115.41 56.66 115.46 56.66 115.52 56.66 115.58 56.66 115.64 56.66 115.69 56.66 115.75 56.66 115.81 56.66 115.87 56.66 115.93 56.66 115.98 56.66 116.04 56.66 116.1 56.66 116.16 56.66 116.21 56.66 116.27 56.66 116.33 56.66 116.39 56.66 116.45 56.66 116.5 56.66 116.56 56.66 116.62 56.66 116.68 56.66 116.73 56.66 116.79 56.66 116.85 56.66 116.91 56.66 116.97 56.66 117.02 56.66 117.08 56.66 117.14 56.66 117.2 56.66 117.26 56.66 117.31 56.66 117.37 56.66 117.43 56.66 117.49 56.66 117.54 56.66 117.6 56.66 117.66 56.66 117.72 56.66 117.78 56.66 117.83 56.66 117.89 56.66 117.95 56.66 118.01 56.66 118.06 56.66 118.12 56.66 118.18 56.66 118.24 56.66 118.3 56.66 118.35 56.66 118.41 56.66 118.47 56.66 118.53 56.66 118.58 56.66 118.64 56.66 118.7 56.66 118.76 56.66 118.82 56.66 118.87 56.66 118.93 56.66 118.99 56.66 119.05 56.66 119.1 56.66 119.16 56.66 119.22 56.66 119.28 56.66 119.34 56.66 119.39 56.66 119.45 56.66 119.51 56.66 119.57 56.66 119.62 56.66 119.68 56.66 119.74 56.66 119.8 56.66 119.86 56.66 119.91 56.66 119.97 56.66 120.03 56.66 120.09 56.66 120.15 56.66 120.2 56.66 120.26 56.66 120.32 56.66 120.38 56.66 120.43 56.66 120.49 56.66 120.55 56.66 120.61 56.66 120.67 56.66 120.72 56.66 120.78 56.66 120.84 56.66 120.9 56.66 120.95 56.66 121.01 56.66 121.07 56.66 121.13 56.66 121.19 56.66 121.24 56.66 121.3 56.66 121.36 56.66 121.42 56.66 121.47 56.66 121.53 56.66 121.59 56.66 121.65 56.66 121.71 56.66 121.76 56.66 121.82 56.66 121.88 56.66 121.94 56.66 121.99 56.66 122.05 56.66 122.11 56.66 122.17 56.66 122.23 56.66 122.28 56.66 122.34 56.66 122.4 56.66 122.46 56.66 122.52 56.66 122.57 56.66 122.63 56.66 122.69 56.66 122.75 56.66 122.8 56.66 122.86 56.66 122.92 56.66 122.98 56.66 123.04 56.66 123.09 56.66 123.15 56.66 123.21 56.66 123.27 56.66 123.32 56.66 123.38 56.66 123.44 56.66 123.5 56.66 123.56 56.66 123.61 56.66 123.67 56.66 123.73 56.66 123.79 56.66 123.84 56.66 123.9 56.66 123.96 56.66 124.02 56.66 124.08 56.66 124.13 56.66 124.19 56.66 124.25 56.66 124.31 56.66 124.36 56.66 124.42 56.66 124.48 56.66 124.54 56.66 124.6 56.66 124.65 56.66 124.71 56.66 124.77 56.66 124.83 56.66 124.88 56.66 124.94 56.66 125 56.66 125.06 56.66 125.12 56.66 125.17 56.66 125.23 56.66 125.29 56.66 125.35 56.66 125.41 56.66 125.46 56.66 125.52 56.66 125.58 56.66 125.64 56.66 125.69 56.66 125.75 56.66 125.81 56.66 125.87 56.66 125.93 56.66 125.98 56.66 126.04 56.66 126.1 56.66 126.16 56.66 126.21 56.66 126.27 56.66 126.33 56.66 126.39 56.66 126.45 56.66 126.5 56.66 126.56 56.66 126.62 56.66 126.68 56.66 126.73 56.66 126.79 56.66 126.85 56.66 126.91 56.66 126.97 56.66 127.02 56.66 127.08 56.66 127.14 56.66 127.2 56.66 127.25 56.66 127.31 56.66 127.37 56.66 127.43 56.66 127.49 56.66 127.54 56.66 127.6 56.66 127.66 56.66 127.72 56.66 127.77 56.66 127.83 56.66 127.89 56.66 127.95 56.66 128.01 56.66 128.06 56.66 128.12 56.66 128.18 56.66 128.24 56.66 128.3 56.66 128.35 56.66 128.41 56.66 128.47 56.66 128.53 56.66 128.58 56.66 128.64 56.66 128.7 56.66 128.76 56.66 128.82 56.66 128.87 56.66 128.93 56.66 128.99 56.66 129.05 56.66 129.1 56.66 129.16 56.66 129.22 56.66 129.28 56.66 129.34 56.66 129.39 56.66 129.45 56.66 129.51 56.66 129.57 56.66 129.62 56.66 129.68 56.66 129.74 56.66 129.8 56.66 129.86 56.66 129.91 56.66 129.97 56.66 130.03 56.66 130.09 56.66 130.14 56.66 130.2 56.66 130.26 56.66 130.32 56.66 130.38 56.66 130.43 56.66 130.49 56.66 130.55 56.66 130.61 56.66 130.66 56.66 130.72 56.66 130.78 56.66 130.84 56.66 130.9 56.66 130.95 56.66 131.01 56.66 131.07 56.66 131.13 56.66 131.19 56.66 131.24 56.66 131.3 56.66 131.36 56.66 131.42 56.66 131.47 56.66 131.53 56.66 131.59 56.66 131.65 56.66 131.71 56.66 131.76 56.66 131.82 56.66 131.88 56.66 131.94 56.66 131.99 56.66 132.05 56.66 132.11 56.66 132.17 56.66 132.23 56.66 132.28 56.66 132.34 56.66 132.4 56.66 132.46 56.66 132.51 56.66 132.57 56.66 132.63 56.66 132.69 56.66 132.75 56.66 132.8 56.66 132.86 56.66 132.92 56.66 132.98 56.66 133.03 56.66 133.09 56.66 133.15 56.66 133.21 56.66 133.27 56.66 133.32 56.66 133.38 56.66 133.44 56.66 133.5 56.66 133.55 56.66 133.61 56.66 133.67 56.66 133.73 56.66 133.79 56.66 133.84 56.66 133.9 56.66 133.96 56.66 134.02 56.66 134.08 56.66 134.13 56.66 134.19 56.66 134.25 56.66 134.31 56.66 134.36 56.66 134.42 56.66 134.48 56.66 134.54 56.66 134.6 56.66 134.65 56.66 134.71 56.66 134.77 56.66 134.83 56.66 134.88 56.66 134.94 56.66 135 56.66" id="fig-b7aa33d5d153428094a4c8063f392ea6-element-33"/>
      </g>
    </g>
  </g>
  <g class="guide ylabels" font-size="2.82" font-family="'PT Sans Caption','Helvetica Neue','Helvetica',sans-serif" fill="#6C606B" id="fig-b7aa33d5d153428094a4c8063f392ea6-element-34">
    <text x="16.4" y="98.71" text-anchor="end" dy="0.35em" id="fig-b7aa33d5d153428094a4c8063f392ea6-element-35">-4</text>
    <text x="16.4" y="77.69" text-anchor="end" dy="0.35em" id="fig-b7aa33d5d153428094a4c8063f392ea6-element-36">-2</text>
    <text x="16.4" y="56.66" text-anchor="end" dy="0.35em" id="fig-b7aa33d5d153428094a4c8063f392ea6-element-37">0</text>
    <text x="16.4" y="35.64" text-anchor="end" dy="0.35em" id="fig-b7aa33d5d153428094a4c8063f392ea6-element-38">2</text>
    <text x="16.4" y="14.61" text-anchor="end" dy="0.35em" id="fig-b7aa33d5d153428094a4c8063f392ea6-element-39">4</text>
  </g>
  <g font-size="3.88" font-family="'PT Sans','Helvetica Neue','Helvetica',sans-serif" fill="#564A55" stroke="none" id="fig-b7aa33d5d153428094a4c8063f392ea6-element-40">
    <text x="8.81" y="54.66" text-anchor="middle" dy="0.35em" transform="rotate(-90, 8.81, 56.66)" id="fig-b7aa33d5d153428094a4c8063f392ea6-element-41">Re()</text>
  </g>
  <g font-size="3.88" font-family="'PT Sans','Helvetica Neue','Helvetica',sans-serif" fill="#564A55" stroke="none" id="fig-b7aa33d5d153428094a4c8063f392ea6-element-42">
    <text x="77.2" y="10.61" text-anchor="middle" id="fig-b7aa33d5d153428094a4c8063f392ea6-element-43"> initial and final starting from excited with wall thickness s = 0.1</text>
  </g>
</g>
<defs>
<clipPath id="fig-b7aa33d5d153428094a4c8063f392ea6-element-14">
  <path d="M17.4,12.61 L 137 12.61 137 100.72 17.4 100.72" />
</clipPath
></defs>
</svg>
