<?xml version="1.0" encoding="UTF-8"?>
<svg xmlns="http://www.w3.org/2000/svg"
     xmlns:xlink="http://www.w3.org/1999/xlink"
     xmlns:gadfly="http://www.gadflyjl.org/ns"
     version="1.2"
     width="200mm" height="120mm" viewBox="0 0 200 120"
     stroke="none"
     fill="#000000"
     stroke-width="0.3"
     font-size="3.88"
>
<g class="plotroot xscalable yscalable" id="fig-ae2886e2854646cb8f50a2fecd9fc313-element-1">
  <g font-size="3.88" font-family="'PT Sans','Helvetica Neue','Helvetica',sans-serif" fill="#564A55" stroke="none" id="fig-ae2886e2854646cb8f50a2fecd9fc313-element-2">
    <text x="77.2" y="112" text-anchor="middle">x</text>
  </g>
  <g class="guide xlabels" font-size="2.82" font-family="'PT Sans Caption','Helvetica Neue','Helvetica',sans-serif" fill="#6C606B" id="fig-ae2886e2854646cb8f50a2fecd9fc313-element-3">
    <text x="19.4" y="104.39" text-anchor="middle">-1.0</text>
    <text x="48.3" y="104.39" text-anchor="middle">-0.5</text>
    <text x="77.2" y="104.39" text-anchor="middle">0.0</text>
    <text x="106.1" y="104.39" text-anchor="middle">0.5</text>
    <text x="135" y="104.39" text-anchor="middle">1.0</text>
  </g>
  <g class="guide colorkey" id="fig-ae2886e2854646cb8f50a2fecd9fc313-element-4">
    <g fill="#4C404B" font-size="2.82" font-family="'PT Sans','Helvetica Neue','Helvetica',sans-serif" id="fig-ae2886e2854646cb8f50a2fecd9fc313-element-5">
      <text x="140.81" y="56.66" dy="0.35em" id="fig-ae2886e2854646cb8f50a2fecd9fc313-element-6" class="color_Wavefunction_at_t=0">Wavefunction at t=0</text>
      <text x="140.81" y="60.29" dy="0.35em" id="fig-ae2886e2854646cb8f50a2fecd9fc313-element-7" class="color_Wavefunction_at_t=0.0013499999999999999">Wavefunction at t=0.0013499999999999999</text>
    </g>
    <g stroke="none" id="fig-ae2886e2854646cb8f50a2fecd9fc313-element-8">
      <rect x="138" y="55.76" width="1.81" height="1.81" id="fig-ae2886e2854646cb8f50a2fecd9fc313-element-9" class="color_Wavefunction_at_t=0" fill="#00BFFF"/>
      <rect x="138" y="59.38" width="1.81" height="1.81" id="fig-ae2886e2854646cb8f50a2fecd9fc313-element-10" class="color_Wavefunction_at_t=0.0013499999999999999" fill="#D4CA3A"/>
    </g>
    <g fill="#362A35" font-size="3.88" font-family="'PT Sans','Helvetica Neue','Helvetica',sans-serif" stroke="none" id="fig-ae2886e2854646cb8f50a2fecd9fc313-element-11">
      <text x="138" y="52.84" id="fig-ae2886e2854646cb8f50a2fecd9fc313-element-12">Color</text>
    </g>
  </g>
  <g clip-path="url(#fig-ae2886e2854646cb8f50a2fecd9fc313-element-14)" id="fig-ae2886e2854646cb8f50a2fecd9fc313-element-13">
    <g pointer-events="visible" opacity="1" fill="none" stroke="none" class="guide background" id="fig-ae2886e2854646cb8f50a2fecd9fc313-element-15">
      <rect x="17.4" y="12.61" width="119.6" height="88.1" id="fig-ae2886e2854646cb8f50a2fecd9fc313-element-16"/>
    </g>
    <g class="guide ygridlines xfixed" stroke-dasharray="0.5,0.5" stroke-width="0.2" stroke="#D0D0E0" id="fig-ae2886e2854646cb8f50a2fecd9fc313-element-17">
      <path fill="none" d="M17.4,98.71 L 137 98.71" id="fig-ae2886e2854646cb8f50a2fecd9fc313-element-18"/>
      <path fill="none" d="M17.4,77.69 L 137 77.69" id="fig-ae2886e2854646cb8f50a2fecd9fc313-element-19"/>
      <path fill="none" d="M17.4,56.66 L 137 56.66" id="fig-ae2886e2854646cb8f50a2fecd9fc313-element-20"/>
      <path fill="none" d="M17.4,35.64 L 137 35.64" id="fig-ae2886e2854646cb8f50a2fecd9fc313-element-21"/>
      <path fill="none" d="M17.4,14.61 L 137 14.61" id="fig-ae2886e2854646cb8f50a2fecd9fc313-element-22"/>
    </g>
    <g class="guide xgridlines yfixed" stroke-dasharray="0.5,0.5" stroke-width="0.2" stroke="#D0D0E0" id="fig-ae2886e2854646cb8f50a2fecd9fc313-element-23">
      <path fill="none" d="M19.4,12.61 L 19.4 100.72" id="fig-ae2886e2854646cb8f50a2fecd9fc313-element-24"/>
      <path fill="none" d="M48.3,12.61 L 48.3 100.72" id="fig-ae2886e2854646cb8f50a2fecd9fc313-element-25"/>
      <path fill="none" d="M77.2,12.61 L 77.2 100.72" id="fig-ae2886e2854646cb8f50a2fecd9fc313-element-26"/>
      <path fill="none" d="M106.1,12.61 L 106.1 100.72" id="fig-ae2886e2854646cb8f50a2fecd9fc313-element-27"/>
      <path fill="none" d="M135,12.61 L 135 100.72" id="fig-ae2886e2854646cb8f50a2fecd9fc313-element-28"/>
    </g>
    <g class="plotpanel" id="fig-ae2886e2854646cb8f50a2fecd9fc313-element-29">
      <g stroke-width="0.3" fill="none" class="geometry color_Wavefunction_at_t=0.0013499999999999999" stroke="#D4CA3A" id="fig-ae2886e2854646cb8f50a2fecd9fc313-element-30">
        <path fill="none" d="M19.4,56.66 L 19.46 56.71 19.51 56.66 19.57 56.6 19.63 56.63 19.69 56.69 19.75 56.73 19.8 56.7 19.86 56.64 19.92 56.61 19.98 56.64 20.03 56.69 20.09 56.67 20.15 56.65 20.21 56.68 20.27 56.69 20.32 56.66 20.38 56.66 20.44 56.65 20.5 56.63 20.55 56.63 20.61 56.69 20.67 56.73 20.73 56.71 20.79 56.66 20.84 56.61 20.9 56.6 20.96 56.65 21.02 56.7 21.07 56.7 21.13 56.68 21.19 56.69 21.25 56.67 21.31 56.62 21.36 56.62 21.42 56.66 21.48 56.66 21.54 56.66 21.59 56.7 21.65 56.72 21.71 56.69 21.77 56.63 21.83 56.6 21.88 56.61 21.94 56.65 22 56.71 22.06 56.73 22.11 56.7 22.17 56.67 22.23 56.62 22.29 56.59 22.35 56.63 22.4 56.69 22.46 56.71 22.52 56.69 22.58 56.67 22.64 56.66 22.69 56.65 22.75 56.65 22.81 56.65 22.87 56.67 22.92 56.66 22.98 56.64 23.04 56.67 23.1 56.7 23.16 56.69 23.21 56.65 23.27 56.65 23.33 56.66 23.39 56.63 23.44 56.64 23.5 56.69 23.56 56.7 23.62 56.67 23.68 56.67 23.73 56.68 23.79 56.66 23.85 56.64 23.91 56.64 23.96 56.64 24.02 56.66 24.08 56.68 24.14 56.7 24.2 56.71 24.25 56.68 24.31 56.63 24.37 56.61 24.43 56.63 24.48 56.65 24.54 56.68 24.6 56.72 24.66 56.71 24.72 56.66 24.77 56.64 24.83 56.63 24.89 56.63 24.95 56.66 25.01 56.68 25.06 56.67 25.12 56.67 25.18 56.67 25.24 56.67 25.29 56.68 25.35 56.69 25.41 56.66 25.47 56.63 25.53 56.63 25.58 56.63 25.64 56.66 25.7 56.71 25.76 56.73 25.81 56.69 25.87 56.66 25.93 56.63 25.99 56.61 26.05 56.62 26.1 56.67 26.16 56.69 26.22 56.7 26.28 56.69 26.33 56.67 26.39 56.67 26.45 56.65 26.51 56.63 26.57 56.65 26.62 56.66 26.68 56.64 26.74 56.65 26.8 56.7 26.85 56.7 26.91 56.67 26.97 56.67 27.03 56.67 27.09 56.64 27.14 56.62 27.2 56.64 27.26 56.66 27.32 56.66 27.37 56.67 27.43 56.7 27.49 56.73 27.55 56.69 27.61 56.63 27.66 56.62 27.72 56.61 27.78 56.61 27.84 56.66 27.9 56.73 27.95 56.73 28.01 56.69 28.07 56.65 28.13 56.63 28.18 56.64 28.24 56.66 28.3 56.66 28.36 56.66 28.42 56.65 28.47 56.64 28.53 56.65 28.59 56.69 28.65 56.72 28.7 56.71 28.76 56.66 28.82 56.61 28.88 56.62 28.94 56.64 28.99 56.63 29.05 56.66 29.11 56.71 29.17 56.71 29.22 56.69 29.28 56.7 29.34 56.68 29.4 56.63 29.46 56.59 29.51 56.6 29.57 56.65 29.63 56.71 29.69 56.72 29.74 56.69 29.8 56.66 29.86 56.66 29.92 56.67 29.98 56.67 30.03 56.65 30.09 56.65 30.15 56.64 30.21 56.61 30.26 56.63 30.32 56.7 30.38 56.71 30.44 56.69 30.5 56.68 30.55 56.69 30.61 56.69 30.67 56.66 30.73 56.59 30.79 56.56 30.84 56.62 30.9 56.71 30.96 56.74 31.02 56.71 31.07 56.67 31.13 56.68 31.19 56.68 31.25 56.63 31.31 56.61 31.36 56.61 31.42 56.64 31.48 56.69 31.54 56.7 31.59 56.66 31.65 56.66 31.71 56.69 31.77 56.69 31.83 56.68 31.88 56.67 31.94 56.65 32 56.64 32.06 56.63 32.11 56.62 32.17 56.63 32.23 56.66 32.29 56.7 32.35 56.73 32.4 56.72 32.46 56.7 32.52 56.67 32.58 56.62 32.63 56.59 32.69 56.61 32.75 56.62 32.81 56.65 32.87 56.71 32.92 56.72 32.98 56.71 33.04 56.71 33.1 56.67 33.15 56.64 33.21 56.64 33.27 56.63 33.33 56.64 33.39 56.65 33.44 56.65 33.5 56.66 33.56 56.66 33.62 56.67 33.68 56.69 33.73 56.69 33.79 56.7 33.85 56.71 33.91 56.67 33.96 56.63 34.02 56.62 34.08 56.6 34.14 56.6 34.2 56.64 34.25 56.68 34.31 56.71 34.37 56.74 34.43 56.74 34.48 56.7 34.54 56.67 34.6 56.63 34.66 56.6 34.72 56.6 34.77 56.62 34.83 56.65 34.89 56.67 34.95 56.7 35 56.71 35.06 56.69 35.12 56.68 35.18 56.68 35.24 56.66 35.29 56.66 35.35 56.66 35.41 56.64 35.47 56.63 35.52 56.64 35.58 56.62 35.64 56.63 35.7 56.66 35.76 56.69 35.81 56.71 35.87 56.73 35.93 56.73 35.99 56.7 36.04 56.66 36.1 56.62 36.16 56.59 36.22 56.57 36.28 56.61 36.33 56.64 36.39 56.68 36.45 56.73 36.51 56.74 36.57 56.72 36.62 56.72 36.68 56.67 36.74 56.63 36.8 56.63 36.85 56.61 36.91 56.61 36.97 56.64 37.03 56.65 37.09 56.66 37.14 56.67 37.2 56.68 37.26 56.68 37.32 56.69 37.37 56.7 37.43 56.7 37.49 56.69 37.55 56.69 37.61 56.66 37.66 56.62 37.72 56.61 37.78 56.59 37.84 56.59 37.89 56.63 37.95 56.67 38.01 56.7 38.07 56.75 38.13 56.76 38.18 56.73 38.24 56.71 38.3 56.66 38.36 56.61 38.41 56.59 38.47 56.58 38.53 56.6 38.59 56.63 38.65 56.67 38.7 56.7 38.76 56.71 38.82 56.72 38.88 56.71 38.94 56.69 38.99 56.69 39.05 56.67 39.11 56.65 39.17 56.66 39.22 56.64 39.28 56.63 39.34 56.63 39.4 56.61 39.46 56.61 39.51 56.63 39.57 56.65 39.63 56.68 39.69 56.72 39.74 56.74 39.8 56.75 39.86 56.74 39.92 56.7 39.98 56.65 40.03 56.61 40.09 56.58 40.15 56.55 40.21 56.57 40.26 56.61 40.32 56.64 40.38 56.7 40.44 56.74 40.5 56.74 40.55 56.75 40.61 56.73 40.67 56.68 40.73 56.67 40.78 56.63 40.84 56.61 40.9 56.62 40.96 56.62 41.02 56.63 41.07 56.64 41.13 56.64 41.19 56.65 41.25 56.66 41.3 56.67 41.36 56.68 41.42 56.7 41.48 56.73 41.54 56.73 41.59 56.73 41.65 56.72 41.71 56.67 41.77 56.64 41.83 56.6 41.88 56.56 41.94 56.56 42 56.57 42.06 56.6 42.11 56.66 42.17 56.7 42.23 56.75 42.29 56.78 42.35 56.77 42.4 56.75 42.46 56.72 42.52 56.67 42.58 56.62 42.63 56.59 42.69 56.58 42.75 56.58 42.81 56.6 42.87 56.63 42.92 56.64 42.98 56.67 43.04 56.68 43.1 56.68 43.15 56.7 43.21 56.7 43.27 56.7 43.33 56.72 43.39 56.71 43.44 56.71 43.5 56.71 43.56 56.68 43.62 56.65 43.67 56.62 43.73 56.58 43.79 56.56 43.85 56.56 43.91 56.57 43.96 56.6 44.02 56.66 44.08 56.71 44.14 56.75 44.19 56.8 44.25 56.79 44.31 56.78 44.37 56.75 44.43 56.68 44.48 56.64 44.54 56.59 44.6 56.55 44.66 56.56 44.72 56.56 44.77 56.58 44.83 56.62 44.89 56.65 44.95 56.68 45 56.7 45.06 56.71 45.12 56.72 45.18 56.72 45.24 56.72 45.29 56.71 45.35 56.72 45.41 56.71 45.47 56.7 45.52 56.69 45.58 56.66 45.64 56.63 45.7 56.61 45.76 56.56 45.81 56.56 45.87 56.55 45.93 56.56 45.99 56.6 46.04 56.64 46.1 56.7 46.16 56.76 46.22 56.79 46.28 56.82 46.33 56.81 46.39 56.78 46.45 56.74 46.51 56.68 46.56 56.62 46.62 56.57 46.68 56.55 46.74 56.52 46.8 56.54 46.85 56.57 46.91 56.59 46.97 56.64 47.03 56.67 47.08 56.69 47.14 56.72 47.2 56.72 47.26 56.73 47.32 56.73 47.37 56.72 47.43 56.73 47.49 56.72 47.55 56.72 47.61 56.72 47.66 56.7 47.72 56.67 47.78 56.64 47.84 56.61 47.89 56.56 47.95 56.54 48.01 56.52 48.07 56.52 48.13 56.55 48.18 56.58 48.24 56.64 48.3 56.71 48.36 56.75 48.41 56.81 48.47 56.84 48.53 56.84 48.59 56.83 48.65 56.78 48.7 56.74 48.76 56.68 48.82 56.61 48.88 56.57 48.93 56.53 48.99 56.52 49.05 56.52 49.11 56.55 49.17 56.57 49.22 56.6 49.28 56.64 49.34 56.65 49.4 56.69 49.45 56.69 49.51 56.7 49.57 56.72 49.63 56.72 49.69 56.75 49.74 56.75 49.8 56.76 49.86 56.78 49.92 56.77 49.97 56.76 50.03 56.73 50.09 56.69 50.15 56.64 50.21 56.58 50.26 56.53 50.32 56.49 50.38 56.47 50.44 56.46 50.5 56.48 50.55 56.52 50.61 56.58 50.67 56.66 50.73 56.71 50.78 56.79 50.84 56.84 50.9 56.85 50.96 56.88 51.02 56.85 51.07 56.82 51.13 56.78 51.19 56.72 51.25 56.68 51.3 56.63 51.36 56.59 51.42 56.57 51.48 56.55 51.54 56.55 51.59 56.55 51.65 56.56 51.71 56.56 51.77 56.57 51.82 56.57 51.88 56.58 51.94 56.59 52 56.6 52.06 56.64 52.11 56.66 52.17 56.7 52.23 56.75 52.29 56.79 52.34 56.85 52.4 56.87 52.46 56.89 52.52 56.89 52.58 56.85 52.63 56.81 52.69 56.75 52.75 56.67 52.81 56.6 52.87 56.53 52.92 56.46 52.98 56.42 53.04 56.4 53.1 56.4 53.15 56.44 53.21 56.47 53.27 56.53 53.33 56.59 53.39 56.65 53.44 56.72 53.5 56.75 53.56 56.79 53.62 56.81 53.67 56.82 53.73 56.83 53.79 56.81 53.85 56.81 53.91 56.8 53.96 56.79 54.02 56.78 54.08 56.77 54.14 56.76 54.19 56.74 54.25 56.72 54.31 56.68 54.37 56.65 54.43 56.58 54.48 56.54 54.54 56.48 54.6 56.43 54.66 56.4 54.71 56.37 54.77 56.38 54.83 56.39 54.89 56.43 54.95 56.51 55 56.57 55.06 56.66 55.12 56.74 55.18 56.83 55.23 56.9 55.29 56.95 55.35 56.98 55.41 56.99 55.47 56.97 55.52 56.94 55.58 56.9 55.64 56.83 55.7 56.79 55.76 56.72 55.81 56.67 55.87 56.62 55.93 56.57 55.99 56.56 56.04 56.52 56.1 56.51 56.16 56.5 56.22 56.48 56.28 56.48 56.33 56.46 56.39 56.45 56.45 56.44 56.51 56.43 56.56 56.43 56.62 56.44 56.68 56.46 56.74 56.5 56.8 56.55 56.85 56.62 56.91 56.7 56.97 56.77 57.03 56.87 57.08 56.93 57.14 57.01 57.2 57.06 57.26 57.08 57.32 57.11 57.37 57.08 57.43 57.05 57.49 56.98 57.55 56.91 57.6 56.83 57.66 56.73 57.72 56.64 57.78 56.55 57.84 56.48 57.89 56.42 57.95 56.37 58.01 56.34 58.07 56.33 58.12 56.32 58.18 56.34 58.24 56.35 58.3 56.37 58.36 56.4 58.41 56.4 58.47 56.44 58.53 56.44 58.59 56.47 58.65 56.49 58.7 56.52 58.76 56.56 58.82 56.59 58.88 56.66 58.93 56.71 58.99 56.79 59.05 56.86 59.11 56.94 59.17 57.02 59.22 57.09 59.28 57.15 59.34 57.2 59.4 57.22 59.45 57.22 59.51 57.22 59.57 57.16 59.63 57.11 59.69 57.02 59.74 56.93 59.8 56.82 59.86 56.7 59.92 56.6 59.97 56.48 60.03 56.4 60.09 56.31 60.15 56.25 60.21 56.2 60.26 56.17 60.32 56.15 60.38 56.15 60.44 56.16 60.49 56.18 60.55 56.2 60.61 56.22 60.67 56.25 60.73 56.27 60.78 56.31 60.84 56.32 60.9 56.36 60.96 56.38 61.01 56.42 61.07 56.47 61.13 56.51 61.19 56.58 61.25 56.65 61.3 56.74 61.36 56.83 61.42 56.93 61.48 57.04 61.54 57.14 61.59 57.24 61.65 57.34 61.71 57.42 61.77 57.49 61.82 57.52 61.88 57.55 61.94 57.55 62 57.52 62.06 57.48 62.11 57.39 62.17 57.32 62.23 57.2 62.29 57.09 62.34 56.97 62.4 56.84 62.46 56.73 62.52 56.6 62.58 56.5 62.63 56.4 62.69 56.31 62.75 56.24 62.81 56.17 62.86 56.12 62.92 56.07 62.98 56.02 63.04 55.99 63.1 55.94 63.15 55.92 63.21 55.87 63.27 55.84 63.33 55.8 63.38 55.76 63.44 55.74 63.5 55.69 63.56 55.69 63.62 55.66 63.67 55.67 63.73 55.68 63.79 55.72 63.85 55.77 63.9 55.85 63.96 55.95 64.02 56.06 64.08 56.19 64.14 56.35 64.19 56.5 64.25 56.68 64.31 56.85 64.37 57.04 64.43 57.21 64.48 57.38 64.54 57.54 64.6 57.68 64.66 57.82 64.71 57.91 64.77 58.02 64.83 58.08 64.89 58.15 64.95 58.18 65 58.21 65.06 58.22 65.12 58.22 65.18 58.21 65.23 58.2 65.29 58.17 65.35 58.16 65.41 58.13 65.47 58.11 65.52 58.08 65.58 58.05 65.64 58.03 65.7 57.98 65.75 57.96 65.81 57.89 65.87 57.85 65.93 57.76 65.99 57.68 66.04 57.57 66.1 57.46 66.16 57.31 66.22 57.15 66.27 56.98 66.33 56.78 66.39 56.58 66.45 56.35 66.51 56.12 66.56 55.88 66.62 55.63 66.68 55.39 66.74 55.15 66.8 54.91 66.85 54.69 66.91 54.47 66.97 54.28 67.03 54.09 67.08 53.94 67.14 53.78 67.2 53.67 67.26 53.55 67.32 53.47 67.37 53.39 67.43 53.34 67.49 53.3 67.55 53.26 67.6 53.24 67.66 53.22 67.72 53.21 67.78 53.21 67.84 53.2 67.89 53.2 67.95 53.19 68.01 53.2 68.07 53.2 68.12 53.21 68.18 53.22 68.24 53.24 68.3 53.27 68.36 53.3 68.41 53.36 68.47 53.41 68.53 53.5 68.59 53.59 68.64 53.72 68.7 53.86 68.76 54.04 68.82 54.23 68.88 54.44 68.93 54.69 68.99 54.95 69.05 55.24 69.11 55.55 69.16 55.87 69.22 56.22 69.28 56.57 69.34 56.95 69.4 57.31 69.45 57.72 69.51 58.09 69.57 58.49 69.63 58.87 69.69 59.27 69.74 59.64 69.8 60.02 69.86 60.38 69.92 60.74 69.97 61.09 70.03 61.43 70.09 61.76 70.15 62.09 70.21 62.4 70.26 62.71 70.32 63.01 70.38 63.33 70.44 63.61 70.49 63.93 70.55 64.22 70.61 64.54 70.67 64.83 70.73 65.16 70.78 65.47 70.84 65.81 70.9 66.16 70.96 66.54 71.01 66.94 71.07 67.38 71.13 67.84 71.19 68.32 71.25 68.83 71.3 69.37 71.36 69.93 71.42 70.52 71.48 71.09 71.53 71.67 71.59 72.22 71.65 72.79 71.71 73.31 71.77 73.84 71.82 74.33 71.88 74.82 71.94 75.27 72 75.72 72.05 76.13 72.11 76.52 72.17 76.88 72.23 77.21 72.29 77.52 72.34 77.8 72.4 78.06 72.46 78.29 72.52 78.5 72.58 78.69 72.63 78.84 72.69 79 72.75 79.11 72.81 79.23 72.86 79.31 72.92 79.41 72.98 79.46 73.04 79.53 73.1 79.57 73.15 79.63 73.21 79.65 73.27 79.7 73.33 79.72 73.38 79.75 73.44 79.78 73.5 79.81 73.56 79.83 73.62 79.86 73.67 79.89 73.73 79.91 73.79 79.94 73.85 79.96 73.9 79.98 73.96 80 74.02 80.01 74.08 80.02 74.14 80.01 74.19 80.01 74.25 79.98 74.31 79.96 74.37 79.91 74.42 79.86 74.48 79.78 74.54 79.7 74.6 79.59 74.66 79.47 74.71 79.31 74.77 79.15 74.83 78.96 74.89 78.74 74.94 78.51 75 78.25 75.06 77.97 75.12 77.65 75.18 77.34 75.23 76.97 75.29 76.61 75.35 76.19 75.41 75.78 75.47 75.32 75.52 74.87 75.58 74.37 75.64 73.88 75.7 73.34 75.75 72.81 75.81 72.24 75.87 71.66 75.93 71.07 75.99 70.46 76.04 69.84 76.1 69.21 76.16 68.57 76.22 67.91 76.27 67.25 76.33 66.57 76.39 65.89 76.45 65.2 76.51 64.51 76.56 63.8 76.62 63.11 76.68 62.39 76.74 61.68 76.79 60.96 76.85 60.25 76.91 59.52 76.97 58.81 77.03 58.08 77.08 57.36 77.14 56.64 77.2 55.91 77.26 55.19 77.31 54.47 77.37 53.75 77.43 53.03 77.49 52.32 77.55 51.6 77.6 50.9 77.66 50.18 77.72 49.49 77.78 48.78 77.83 48.1 77.89 47.41 77.95 46.74 78.01 46.06 78.07 45.41 78.12 44.75 78.18 44.12 78.24 43.48 78.3 42.87 78.36 42.27 78.41 41.68 78.47 41.11 78.53 40.54 78.59 40.01 78.64 39.48 78.7 38.99 78.76 38.49 78.82 38.05 78.88 37.59 78.93 37.18 78.99 36.77 79.05 36.41 79.11 36.05 79.16 35.73 79.22 35.42 79.28 35.14 79.34 34.88 79.4 34.65 79.45 34.43 79.51 34.24 79.57 34.08 79.63 33.93 79.68 33.8 79.74 33.69 79.8 33.61 79.86 33.53 79.92 33.48 79.97 33.42 80.03 33.4 80.09 33.38 80.15 33.37 80.2 33.37 80.26 33.38 80.32 33.39 80.38 33.4 80.44 33.42 80.49 33.44 80.55 33.47 80.61 33.49 80.67 33.52 80.73 33.54 80.78 33.57 80.84 33.6 80.9 33.62 80.96 33.65 81.01 33.67 81.07 33.71 81.13 33.73 81.19 33.79 81.25 33.82 81.3 33.88 81.36 33.93 81.42 34.02 81.48 34.09 81.53 34.21 81.59 34.31 81.65 34.46 81.71 34.61 81.77 34.79 81.82 34.99 81.88 35.21 81.94 35.46 82 35.74 82.05 36.04 82.11 36.37 82.17 36.72 82.23 37.1 82.29 37.5 82.34 37.93 82.4 38.38 82.46 38.86 82.52 39.34 82.57 39.87 82.63 40.38 82.69 40.94 82.75 41.48 82.81 42.06 82.86 42.62 82.92 43.21 82.98 43.78 83.04 44.35 83.09 44.87 83.15 45.38 83.21 45.86 83.27 46.31 83.33 46.73 83.38 47.13 83.44 47.5 83.5 47.86 83.56 48.17 83.62 48.5 83.67 48.79 83.73 49.12 83.79 49.4 83.85 49.72 83.9 50.01 83.96 50.32 84.02 50.62 84.08 50.93 84.14 51.24 84.19 51.57 84.25 51.9 84.31 52.24 84.37 52.59 84.42 52.94 84.48 53.31 84.54 53.69 84.6 54.06 84.66 54.45 84.71 54.83 84.77 55.23 84.83 55.61 84.89 56.01 84.94 56.37 85 56.76 85.06 57.1 85.12 57.46 85.18 57.78 85.23 58.09 85.29 58.38 85.35 58.64 85.41 58.88 85.46 59.1 85.52 59.29 85.58 59.46 85.64 59.6 85.7 59.73 85.75 59.83 85.81 59.92 85.87 59.97 85.93 60.03 85.98 60.06 86.04 60.09 86.1 60.11 86.16 60.12 86.22 60.13 86.27 60.12 86.33 60.13 86.39 60.12 86.45 60.13 86.51 60.12 86.56 60.12 86.62 60.1 86.68 60.09 86.74 60.06 86.79 60.03 86.85 59.99 86.91 59.93 86.97 59.85 87.03 59.77 87.08 59.66 87.14 59.55 87.2 59.39 87.26 59.24 87.31 59.05 87.37 58.86 87.43 58.64 87.49 58.42 87.55 58.18 87.6 57.94 87.66 57.7 87.72 57.45 87.78 57.21 87.83 56.97 87.89 56.75 87.95 56.54 88.01 56.35 88.07 56.17 88.12 56.01 88.18 55.87 88.24 55.75 88.3 55.64 88.35 55.57 88.41 55.48 88.47 55.44 88.53 55.37 88.59 55.34 88.64 55.3 88.7 55.28 88.76 55.25 88.82 55.22 88.87 55.2 88.93 55.17 88.99 55.15 89.05 55.13 89.11 55.12 89.16 55.11 89.22 55.11 89.28 55.12 89.34 55.14 89.4 55.18 89.45 55.24 89.51 55.3 89.57 55.41 89.63 55.51 89.68 55.65 89.74 55.78 89.8 55.95 89.86 56.11 89.92 56.29 89.97 56.47 90.03 56.64 90.09 56.82 90.15 56.98 90.2 57.14 90.26 57.27 90.32 57.38 90.38 57.48 90.44 57.55 90.49 57.61 90.55 57.65 90.61 57.65 90.67 57.67 90.72 57.64 90.78 57.63 90.84 57.59 90.9 57.56 90.96 57.53 91.01 57.48 91.07 57.46 91.13 57.41 91.19 57.38 91.24 57.34 91.3 57.31 91.36 57.26 91.42 57.21 91.48 57.16 91.53 57.09 91.59 57.01 91.65 56.93 91.71 56.82 91.76 56.72 91.82 56.6 91.88 56.48 91.94 56.36 92 56.23 92.05 56.13 92.11 56.01 92.17 55.94 92.23 55.85 92.29 55.81 92.34 55.78 92.4 55.78 92.46 55.8 92.52 55.84 92.57 55.91 92.63 55.99 92.69 56.08 92.75 56.18 92.81 56.29 92.86 56.39 92.92 56.5 92.98 56.59 93.04 56.68 93.09 56.74 93.15 56.82 93.21 56.86 93.27 56.91 93.33 56.95 93.38 56.97 93.44 57.01 93.5 57.02 93.56 57.06 93.61 57.07 93.67 57.1 93.73 57.13 93.79 57.15 93.85 57.17 93.9 57.18 93.96 57.18 94.02 57.16 94.08 57.13 94.13 57.08 94.19 57.02 94.25 56.93 94.31 56.85 94.37 56.73 94.42 56.63 94.48 56.51 94.54 56.4 94.6 56.31 94.66 56.22 94.71 56.17 94.77 56.11 94.83 56.1 94.89 56.1 94.94 56.13 95 56.18 95.06 56.23 95.12 56.31 95.18 56.39 95.23 56.46 95.29 56.54 95.35 56.61 95.41 56.67 95.46 56.73 95.52 56.76 95.58 56.81 95.64 56.83 95.7 56.85 95.75 56.88 95.81 56.89 95.87 56.92 95.93 56.93 95.98 56.96 96.04 56.98 96.1 56.99 96.16 57 96.22 56.99 96.27 56.98 96.33 56.95 96.39 56.91 96.45 56.85 96.5 56.77 96.56 56.68 96.62 56.6 96.68 56.5 96.74 56.42 96.79 56.34 96.85 56.28 96.91 56.25 96.97 56.22 97.02 56.24 97.08 56.27 97.14 56.32 97.2 56.39 97.26 56.46 97.31 56.56 97.37 56.63 97.43 56.71 97.49 56.77 97.55 56.82 97.6 56.86 97.66 56.88 97.72 56.89 97.78 56.9 97.83 56.89 97.89 56.88 97.95 56.87 98.01 56.85 98.07 56.85 98.12 56.83 98.18 56.81 98.24 56.81 98.3 56.77 98.35 56.76 98.41 56.7 98.47 56.66 98.53 56.61 98.59 56.54 98.64 56.49 98.7 56.43 98.76 56.39 98.82 56.35 98.87 56.34 98.93 56.35 98.99 56.38 99.05 56.43 99.11 56.5 99.16 56.58 99.22 56.66 99.28 56.76 99.34 56.82 99.39 56.89 99.45 56.93 99.51 56.95 99.57 56.96 99.63 56.92 99.68 56.9 99.74 56.84 99.8 56.79 99.86 56.74 99.91 56.68 99.97 56.65 100.03 56.61 100.09 56.58 100.15 56.57 100.2 56.56 100.26 56.54 100.32 56.54 100.38 56.53 100.44 56.52 100.49 56.52 100.55 56.5 100.61 56.51 100.67 56.52 100.72 56.53 100.78 56.58 100.84 56.61 100.9 56.68 100.96 56.74 101.01 56.79 101.07 56.86 101.13 56.89 101.19 56.92 101.24 56.92 101.3 56.9 101.36 56.86 101.42 56.8 101.48 56.73 101.53 56.65 101.59 56.58 101.65 56.51 101.71 56.47 101.76 56.44 101.82 56.44 101.88 56.46 101.94 56.48 102 56.54 102.05 56.57 102.11 56.62 102.17 56.67 102.23 56.69 102.28 56.73 102.34 56.74 102.4 56.75 102.46 56.76 102.52 56.76 102.57 56.77 102.63 56.77 102.69 56.77 102.75 56.78 102.8 56.77 102.86 56.76 102.92 56.74 102.98 56.7 103.04 56.65 103.09 56.61 103.15 56.54 103.21 56.51 103.27 56.48 103.33 56.45 103.38 56.47 103.44 56.49 103.5 56.54 103.56 56.61 103.61 56.67 103.67 56.75 103.73 56.8 103.79 56.84 103.85 56.87 103.9 56.86 103.96 56.84 104.02 56.79 104.08 56.74 104.13 56.69 104.19 56.64 104.25 56.59 104.31 56.57 104.37 56.56 104.42 56.55 104.48 56.57 104.54 56.57 104.6 56.58 104.65 56.61 104.71 56.6 104.77 56.62 104.83 56.64 104.89 56.64 104.94 56.67 105 56.69 105.06 56.72 105.12 56.76 105.17 56.78 105.23 56.8 105.29 56.81 105.35 56.79 105.41 56.76 105.46 56.71 105.52 56.65 105.58 56.59 105.64 56.54 105.69 56.49 105.75 56.49 105.81 56.49 105.87 56.51 105.93 56.58 105.98 56.62 106.04 56.69 106.1 56.75 106.16 56.78 106.22 56.81 106.27 56.8 106.33 56.79 106.39 56.76 106.45 56.72 106.5 56.68 106.56 56.65 106.62 56.63 106.68 56.61 106.74 56.61 106.79 56.6 106.85 56.6 106.91 56.61 106.97 56.59 107.02 56.6 107.08 56.61 107.14 56.6 107.2 56.64 107.26 56.66 107.31 56.69 107.37 56.74 107.43 56.76 107.49 56.79 107.54 56.8 107.6 56.78 107.66 56.76 107.72 56.7 107.78 56.64 107.83 56.59 107.89 56.54 107.95 56.51 108.01 56.51 108.06 56.54 108.12 56.57 108.18 56.63 108.24 56.69 108.3 56.72 108.35 56.77 108.41 56.78 108.47 56.77 108.53 56.76 108.59 56.72 108.64 56.69 108.7 56.67 108.76 56.63 108.82 56.63 108.87 56.62 108.93 56.61 108.99 56.62 109.05 56.61 109.11 56.61 109.16 56.61 109.22 56.61 109.28 56.62 109.34 56.64 109.39 56.68 109.45 56.7 109.51 56.74 109.57 56.77 109.63 56.77 109.68 56.77 109.74 56.73 109.8 56.68 109.86 56.65 109.91 56.58 109.97 56.55 110.03 56.54 110.09 56.53 110.15 56.57 110.2 56.62 110.26 56.67 110.32 56.72 110.38 56.76 110.43 56.77 110.49 56.77 110.55 56.75 110.61 56.71 110.67 56.67 110.72 56.65 110.78 56.62 110.84 56.61 110.9 56.62 110.95 56.61 111.01 56.63 111.07 56.63 111.13 56.62 111.19 56.65 111.24 56.65 111.3 56.65 111.36 56.69 111.42 56.7 111.48 56.73 111.53 56.75 111.59 56.74 111.65 56.73 111.71 56.7 111.76 56.66 111.82 56.61 111.88 56.57 111.94 56.55 112 56.55 112.05 56.58 112.11 56.62 112.17 56.67 112.23 56.73 112.28 56.76 112.34 56.77 112.4 56.77 112.46 56.73 112.52 56.69 112.57 56.66 112.63 56.61 112.69 56.6 112.75 56.6 112.8 56.6 112.86 56.62 112.92 56.64 112.98 56.66 113.04 56.67 113.09 56.68 113.15 56.68 113.21 56.69 113.27 56.7 113.32 56.71 113.38 56.71 113.44 56.71 113.5 56.69 113.56 56.66 113.61 56.64 113.67 56.6 113.73 56.57 113.79 56.58 113.84 56.59 113.9 56.62 113.96 56.68 114.02 56.71 114.08 56.75 114.13 56.77 114.19 56.75 114.25 56.72 114.31 56.67 114.37 56.62 114.42 56.59 114.48 56.58 114.54 56.59 114.6 56.61 114.65 56.64 114.71 56.68 114.77 56.69 114.83 56.71 114.89 56.72 114.94 56.69 115 56.7 115.06 56.68 115.12 56.66 115.17 56.67 115.23 56.66 115.29 56.64 115.35 56.64 115.41 56.62 115.46 56.6 115.52 56.62 115.58 56.63 115.64 56.66 115.69 56.7 115.75 56.73 115.81 56.75 115.87 56.74 115.93 56.72 115.98 56.67 116.04 56.62 116.1 56.59 116.16 56.57 116.21 56.57 116.27 56.62 116.33 56.65 116.39 56.69 116.45 56.74 116.5 56.73 116.56 56.72 116.62 56.71 116.68 56.67 116.73 56.64 116.79 56.63 116.85 56.62 116.91 56.63 116.97 56.64 117.02 56.65 117.08 56.65 117.14 56.65 117.2 56.67 117.26 56.68 117.31 56.69 117.37 56.71 117.43 56.71 117.49 56.7 117.54 56.7 117.6 56.65 117.66 56.61 117.72 56.6 117.78 56.59 117.83 56.6 117.89 56.65 117.95 56.69 118.01 56.72 118.06 56.75 118.12 56.74 118.18 56.71 118.24 56.67 118.3 56.63 118.35 56.6 118.41 56.59 118.47 56.61 118.53 56.64 118.58 56.66 118.64 56.69 118.7 56.7 118.76 56.69 118.82 56.69 118.87 56.69 118.93 56.66 118.99 56.67 119.05 56.67 119.1 56.64 119.16 56.64 119.22 56.63 119.28 56.61 119.34 56.63 119.39 56.65 119.45 56.68 119.51 56.71 119.57 56.73 119.62 56.73 119.68 56.7 119.74 56.66 119.8 56.63 119.86 56.59 119.91 56.58 119.97 56.62 120.03 56.65 120.09 56.68 120.15 56.73 120.2 56.73 120.26 56.7 120.32 56.69 120.38 56.66 120.43 56.62 120.49 56.63 120.55 56.63 120.61 56.63 120.67 56.66 120.72 56.67 120.78 56.67 120.84 56.67 120.9 56.68 120.95 56.69 121.01 56.69 121.07 56.69 121.13 56.68 121.19 56.65 121.24 56.62 121.3 56.62 121.36 56.61 121.42 56.62 121.47 56.68 121.53 56.71 121.59 56.72 121.65 56.74 121.71 56.71 121.76 56.65 121.82 56.62 121.88 56.6 121.94 56.6 121.99 56.63 122.05 56.67 122.11 56.69 122.17 56.7 122.23 56.7 122.28 56.7 122.34 56.67 122.4 56.65 122.46 56.65 122.52 56.65 122.57 56.65 122.63 56.65 122.69 56.65 122.75 56.63 122.8 56.66 122.86 56.7 122.92 56.7 122.98 56.69 123.04 56.69 123.09 56.68 123.15 56.66 123.21 56.63 123.27 56.58 123.32 56.58 123.38 56.66 123.44 56.73 123.5 56.74 123.56 56.69 123.61 56.67 123.67 56.68 123.73 56.67 123.79 56.62 123.84 56.59 123.9 56.61 123.96 56.66 124.02 56.73 124.08 56.71 124.13 56.65 124.19 56.65 124.25 56.69 124.31 56.68 124.36 56.67 124.42 56.66 124.48 56.64 124.54 56.62 124.6 56.62 124.65 56.65 124.71 56.7 124.77 56.71 124.83 56.69 124.88 56.68 124.94 56.68 125 56.67 125.06 56.64 125.12 56.59 125.17 56.59 125.23 56.67 125.29 56.72 125.35 56.72 125.41 56.71 125.46 56.69 125.52 56.63 125.58 56.61 125.64 56.64 125.69 56.67 125.75 56.67 125.81 56.65 125.87 56.64 125.93 56.67 125.98 56.69 126.04 56.7 126.1 56.69 126.16 56.67 126.21 56.64 126.27 56.63 126.33 56.63 126.39 56.63 126.45 56.67 126.5 56.69 126.56 56.68 126.62 56.69 126.68 56.72 126.73 56.67 126.79 56.61 126.85 56.61 126.91 56.62 126.97 56.64 127.02 56.68 127.08 56.72 127.14 56.73 127.2 56.68 127.25 56.62 127.31 56.63 127.37 56.66 127.43 56.66 127.49 56.66 127.54 56.67 127.6 56.66 127.66 56.63 127.72 56.67 127.77 56.71 127.83 56.71 127.89 56.68 127.95 56.64 128.01 56.6 128.06 56.6 128.12 56.64 128.18 56.7 128.24 56.74 128.3 56.73 128.35 56.67 128.41 56.63 128.47 56.62 128.53 56.62 128.58 56.66 128.64 56.69 128.7 56.69 128.76 56.66 128.82 56.66 128.87 56.66 128.93 56.67 128.99 56.69 129.05 56.67 129.1 56.64 129.16 56.62 129.22 56.63 129.28 56.65 129.34 56.7 129.39 56.73 129.45 56.71 129.51 56.66 129.57 56.62 129.62 56.59 129.68 56.62 129.74 56.68 129.8 56.71 129.86 56.71 129.91 56.69 129.97 56.65 130.03 56.62 130.09 56.63 130.14 56.67 130.2 56.68 130.26 56.67 130.32 56.66 130.38 56.65 130.43 56.66 130.49 56.69 130.55 56.69 130.61 56.69 130.66 56.66 130.72 56.61 130.78 56.6 130.84 56.66 130.9 56.71 130.95 56.71 131.01 56.71 131.07 56.69 131.13 56.62 131.19 56.58 131.24 56.63 131.3 56.69 131.36 56.7 131.42 56.7 131.47 56.69 131.53 56.67 131.59 56.64 131.65 56.62 131.71 56.65 131.76 56.68 131.82 56.67 131.88 56.66 131.94 56.69 131.99 56.7 132.05 56.66 132.11 56.64 132.17 56.64 132.23 56.64 132.28 56.65 132.34 56.68 132.4 56.7 132.46 56.68 132.51 56.66 132.57 56.65 132.63 56.64 132.69 56.67 132.75 56.69 132.8 56.66 132.86 56.63 132.92 56.66 132.98 56.69 133.03 56.68 133.09 56.68 133.15 56.69 133.21 56.65 133.27 56.6 133.32 56.63 133.38 56.69 133.44 56.71 133.5 56.69 133.55 56.66 133.61 56.64 133.67 56.64 133.73 56.66 133.79 56.65 133.84 56.64 133.9 56.68 133.96 56.71 134.02 56.69 134.08 56.67 134.13 56.65 134.19 56.62 134.25 56.61 134.31 56.65 134.36 56.71 134.42 56.73 134.48 56.69 134.54 56.64 134.6 56.62 134.65 56.63 134.71 56.65 134.77 56.66 134.83 56.68 134.88 56.71 134.94 56.71 135 56.66" id="fig-ae2886e2854646cb8f50a2fecd9fc313-element-31"/>
      </g>
      <g stroke-width="0.3" fill="none" class="geometry color_Wavefunction_at_t=0" stroke="#00BFFF" id="fig-ae2886e2854646cb8f50a2fecd9fc313-element-32">
        <path fill="none" d="M19.4,56.66 L 19.46 56.66 19.51 56.66 19.57 56.66 19.63 56.66 19.69 56.66 19.75 56.66 19.8 56.66 19.86 56.66 19.92 56.66 19.98 56.66 20.03 56.66 20.09 56.66 20.15 56.66 20.21 56.66 20.27 56.66 20.32 56.66 20.38 56.66 20.44 56.66 20.5 56.66 20.55 56.66 20.61 56.66 20.67 56.66 20.73 56.66 20.79 56.66 20.84 56.66 20.9 56.66 20.96 56.66 21.02 56.66 21.07 56.66 21.13 56.66 21.19 56.66 21.25 56.66 21.31 56.66 21.36 56.66 21.42 56.66 21.48 56.66 21.54 56.66 21.59 56.66 21.65 56.66 21.71 56.66 21.77 56.66 21.83 56.66 21.88 56.66 21.94 56.66 22 56.66 22.06 56.66 22.11 56.66 22.17 56.66 22.23 56.66 22.29 56.66 22.35 56.66 22.4 56.66 22.46 56.66 22.52 56.66 22.58 56.66 22.64 56.66 22.69 56.66 22.75 56.66 22.81 56.66 22.87 56.66 22.92 56.66 22.98 56.66 23.04 56.66 23.1 56.66 23.16 56.66 23.21 56.66 23.27 56.66 23.33 56.66 23.39 56.66 23.44 56.66 23.5 56.66 23.56 56.66 23.62 56.66 23.68 56.66 23.73 56.66 23.79 56.66 23.85 56.66 23.91 56.66 23.96 56.66 24.02 56.66 24.08 56.66 24.14 56.66 24.2 56.66 24.25 56.66 24.31 56.66 24.37 56.66 24.43 56.66 24.48 56.66 24.54 56.66 24.6 56.66 24.66 56.66 24.72 56.66 24.77 56.66 24.83 56.66 24.89 56.66 24.95 56.66 25.01 56.66 25.06 56.66 25.12 56.66 25.18 56.66 25.24 56.66 25.29 56.66 25.35 56.66 25.41 56.66 25.47 56.66 25.53 56.66 25.58 56.66 25.64 56.66 25.7 56.66 25.76 56.66 25.81 56.66 25.87 56.66 25.93 56.66 25.99 56.66 26.05 56.66 26.1 56.66 26.16 56.66 26.22 56.66 26.28 56.66 26.33 56.66 26.39 56.66 26.45 56.66 26.51 56.66 26.57 56.66 26.62 56.66 26.68 56.66 26.74 56.66 26.8 56.66 26.85 56.66 26.91 56.66 26.97 56.66 27.03 56.66 27.09 56.66 27.14 56.66 27.2 56.66 27.26 56.66 27.32 56.66 27.37 56.66 27.43 56.66 27.49 56.66 27.55 56.66 27.61 56.66 27.66 56.66 27.72 56.66 27.78 56.66 27.84 56.66 27.9 56.66 27.95 56.66 28.01 56.66 28.07 56.66 28.13 56.66 28.18 56.66 28.24 56.66 28.3 56.66 28.36 56.66 28.42 56.66 28.47 56.66 28.53 56.66 28.59 56.66 28.65 56.66 28.7 56.66 28.76 56.66 28.82 56.66 28.88 56.66 28.94 56.66 28.99 56.66 29.05 56.66 29.11 56.66 29.17 56.66 29.22 56.66 29.28 56.66 29.34 56.66 29.4 56.66 29.46 56.66 29.51 56.66 29.57 56.66 29.63 56.66 29.69 56.66 29.74 56.66 29.8 56.66 29.86 56.66 29.92 56.66 29.98 56.66 30.03 56.66 30.09 56.66 30.15 56.66 30.21 56.66 30.26 56.66 30.32 56.66 30.38 56.66 30.44 56.66 30.5 56.66 30.55 56.66 30.61 56.66 30.67 56.66 30.73 56.66 30.79 56.66 30.84 56.66 30.9 56.66 30.96 56.66 31.02 56.66 31.07 56.66 31.13 56.66 31.19 56.66 31.25 56.66 31.31 56.66 31.36 56.66 31.42 56.66 31.48 56.66 31.54 56.66 31.59 56.66 31.65 56.66 31.71 56.66 31.77 56.66 31.83 56.66 31.88 56.66 31.94 56.66 32 56.66 32.06 56.66 32.11 56.66 32.17 56.66 32.23 56.66 32.29 56.66 32.35 56.66 32.4 56.66 32.46 56.66 32.52 56.66 32.58 56.66 32.63 56.66 32.69 56.66 32.75 56.66 32.81 56.66 32.87 56.66 32.92 56.66 32.98 56.66 33.04 56.66 33.1 56.66 33.15 56.66 33.21 56.66 33.27 56.66 33.33 56.66 33.39 56.66 33.44 56.66 33.5 56.66 33.56 56.66 33.62 56.66 33.68 56.66 33.73 56.66 33.79 56.66 33.85 56.66 33.91 56.66 33.96 56.66 34.02 56.66 34.08 56.66 34.14 56.66 34.2 56.66 34.25 56.66 34.31 56.66 34.37 56.66 34.43 56.66 34.48 56.66 34.54 56.66 34.6 56.66 34.66 56.66 34.72 56.66 34.77 56.66 34.83 56.66 34.89 56.66 34.95 56.66 35 56.66 35.06 56.66 35.12 56.66 35.18 56.66 35.24 56.66 35.29 56.66 35.35 56.66 35.41 56.66 35.47 56.66 35.52 56.66 35.58 56.66 35.64 56.66 35.7 56.66 35.76 56.66 35.81 56.66 35.87 56.66 35.93 56.66 35.99 56.66 36.04 56.66 36.1 56.66 36.16 56.66 36.22 56.66 36.28 56.66 36.33 56.66 36.39 56.66 36.45 56.66 36.51 56.66 36.57 56.66 36.62 56.66 36.68 56.66 36.74 56.66 36.8 56.66 36.85 56.66 36.91 56.66 36.97 56.66 37.03 56.66 37.09 56.66 37.14 56.66 37.2 56.66 37.26 56.66 37.32 56.66 37.37 56.66 37.43 56.66 37.49 56.66 37.55 56.66 37.61 56.66 37.66 56.66 37.72 56.66 37.78 56.66 37.84 56.66 37.89 56.66 37.95 56.66 38.01 56.66 38.07 56.66 38.13 56.66 38.18 56.66 38.24 56.66 38.3 56.66 38.36 56.66 38.41 56.66 38.47 56.66 38.53 56.66 38.59 56.66 38.65 56.66 38.7 56.66 38.76 56.66 38.82 56.66 38.88 56.66 38.94 56.66 38.99 56.66 39.05 56.66 39.11 56.66 39.17 56.66 39.22 56.66 39.28 56.66 39.34 56.66 39.4 56.66 39.46 56.66 39.51 56.66 39.57 56.66 39.63 56.66 39.69 56.66 39.74 56.66 39.8 56.66 39.86 56.66 39.92 56.66 39.98 56.66 40.03 56.66 40.09 56.66 40.15 56.66 40.21 56.66 40.26 56.66 40.32 56.66 40.38 56.66 40.44 56.66 40.5 56.66 40.55 56.66 40.61 56.66 40.67 56.66 40.73 56.66 40.78 56.66 40.84 56.66 40.9 56.66 40.96 56.66 41.02 56.66 41.07 56.66 41.13 56.66 41.19 56.66 41.25 56.66 41.3 56.66 41.36 56.66 41.42 56.66 41.48 56.66 41.54 56.66 41.59 56.66 41.65 56.66 41.71 56.66 41.77 56.66 41.83 56.66 41.88 56.66 41.94 56.66 42 56.66 42.06 56.66 42.11 56.66 42.17 56.66 42.23 56.66 42.29 56.66 42.35 56.66 42.4 56.66 42.46 56.66 42.52 56.66 42.58 56.66 42.63 56.66 42.69 56.66 42.75 56.66 42.81 56.66 42.87 56.66 42.92 56.66 42.98 56.66 43.04 56.66 43.1 56.66 43.15 56.66 43.21 56.66 43.27 56.66 43.33 56.66 43.39 56.66 43.44 56.66 43.5 56.66 43.56 56.66 43.62 56.66 43.67 56.66 43.73 56.66 43.79 56.66 43.85 56.66 43.91 56.66 43.96 56.66 44.02 56.66 44.08 56.66 44.14 56.66 44.19 56.66 44.25 56.66 44.31 56.66 44.37 56.66 44.43 56.66 44.48 56.66 44.54 56.66 44.6 56.66 44.66 56.66 44.72 56.66 44.77 56.66 44.83 56.66 44.89 56.66 44.95 56.66 45 56.66 45.06 56.66 45.12 56.66 45.18 56.66 45.24 56.66 45.29 56.66 45.35 56.66 45.41 56.66 45.47 56.66 45.52 56.66 45.58 56.66 45.64 56.66 45.7 56.66 45.76 56.66 45.81 56.66 45.87 56.66 45.93 56.66 45.99 56.66 46.04 56.66 46.1 56.66 46.16 56.66 46.22 56.66 46.28 56.66 46.33 56.66 46.39 56.66 46.45 56.66 46.51 56.66 46.56 56.66 46.62 56.66 46.68 56.66 46.74 56.66 46.8 56.66 46.85 56.66 46.91 56.66 46.97 56.66 47.03 56.66 47.08 56.66 47.14 56.66 47.2 56.66 47.26 56.66 47.32 56.66 47.37 56.66 47.43 56.66 47.49 56.66 47.55 56.66 47.61 56.66 47.66 56.66 47.72 56.66 47.78 56.66 47.84 56.66 47.89 56.66 47.95 56.66 48.01 56.66 48.07 56.66 48.13 56.66 48.18 56.66 48.24 56.66 48.3 56.66 48.36 56.66 48.41 56.66 48.47 56.66 48.53 56.66 48.59 56.66 48.65 56.66 48.7 56.66 48.76 56.66 48.82 56.66 48.88 56.66 48.93 56.66 48.99 56.66 49.05 56.66 49.11 56.66 49.17 56.66 49.22 56.66 49.28 56.66 49.34 56.66 49.4 56.66 49.45 56.66 49.51 56.66 49.57 56.66 49.63 56.66 49.69 56.66 49.74 56.66 49.8 56.66 49.86 56.66 49.92 56.66 49.97 56.66 50.03 56.66 50.09 56.66 50.15 56.66 50.21 56.66 50.26 56.66 50.32 56.66 50.38 56.66 50.44 56.66 50.5 56.66 50.55 56.66 50.61 56.66 50.67 56.66 50.73 56.66 50.78 56.66 50.84 56.66 50.9 56.66 50.96 56.66 51.02 56.66 51.07 56.66 51.13 56.66 51.19 56.66 51.25 56.66 51.3 56.66 51.36 56.66 51.42 56.66 51.48 56.66 51.54 56.66 51.59 56.66 51.65 56.66 51.71 56.66 51.77 56.66 51.82 56.66 51.88 56.66 51.94 56.66 52 56.66 52.06 56.66 52.11 56.66 52.17 56.66 52.23 56.66 52.29 56.66 52.34 56.66 52.4 56.66 52.46 56.66 52.52 56.66 52.58 56.66 52.63 56.66 52.69 56.66 52.75 56.66 52.81 56.66 52.87 56.66 52.92 56.66 52.98 56.66 53.04 56.66 53.1 56.66 53.15 56.66 53.21 56.66 53.27 56.66 53.33 56.66 53.39 56.66 53.44 56.66 53.5 56.66 53.56 56.66 53.62 56.66 53.67 56.66 53.73 56.66 53.79 56.66 53.85 56.66 53.91 56.66 53.96 56.66 54.02 56.66 54.08 56.66 54.14 56.66 54.19 56.66 54.25 56.66 54.31 56.66 54.37 56.66 54.43 56.66 54.48 56.66 54.54 56.66 54.6 56.66 54.66 56.66 54.71 56.66 54.77 56.66 54.83 56.66 54.89 56.66 54.95 56.66 55 56.66 55.06 56.66 55.12 56.66 55.18 56.66 55.23 56.66 55.29 56.66 55.35 56.66 55.41 56.66 55.47 56.66 55.52 56.66 55.58 56.66 55.64 56.66 55.7 56.66 55.76 56.66 55.81 56.66 55.87 56.66 55.93 56.66 55.99 56.66 56.04 56.66 56.1 56.66 56.16 56.66 56.22 56.66 56.28 56.66 56.33 56.66 56.39 56.66 56.45 56.66 56.51 56.66 56.56 56.66 56.62 56.66 56.68 56.66 56.74 56.66 56.8 56.66 56.85 56.66 56.91 56.66 56.97 56.66 57.03 56.66 57.08 56.66 57.14 56.66 57.2 56.66 57.26 56.66 57.32 56.66 57.37 56.66 57.43 56.66 57.49 56.66 57.55 56.66 57.6 56.66 57.66 56.66 57.72 56.66 57.78 56.66 57.84 56.66 57.89 56.66 57.95 56.66 58.01 56.66 58.07 56.66 58.12 56.66 58.18 56.66 58.24 56.66 58.3 56.66 58.36 56.66 58.41 56.66 58.47 56.66 58.53 56.66 58.59 56.66 58.65 56.66 58.7 56.66 58.76 56.66 58.82 56.66 58.88 56.66 58.93 56.66 58.99 56.66 59.05 56.66 59.11 56.66 59.17 56.66 59.22 56.66 59.28 56.66 59.34 56.66 59.4 56.66 59.45 56.66 59.51 56.66 59.57 56.66 59.63 56.66 59.69 56.66 59.74 56.66 59.8 56.66 59.86 56.66 59.92 56.66 59.97 56.66 60.03 56.66 60.09 56.66 60.15 56.66 60.21 56.66 60.26 56.66 60.32 56.66 60.38 56.66 60.44 56.66 60.49 56.66 60.55 56.66 60.61 56.66 60.67 56.66 60.73 56.66 60.78 56.66 60.84 56.66 60.9 56.66 60.96 56.66 61.01 56.66 61.07 56.66 61.13 56.66 61.19 56.66 61.25 56.66 61.3 56.66 61.36 56.66 61.42 56.66 61.48 56.66 61.54 56.66 61.59 56.66 61.65 56.66 61.71 56.66 61.77 56.66 61.82 56.66 61.88 56.66 61.94 56.66 62 56.66 62.06 56.66 62.11 56.66 62.17 56.66 62.23 56.66 62.29 56.66 62.34 56.66 62.4 56.66 62.46 56.66 62.52 56.66 62.58 56.66 62.63 56.66 62.69 56.66 62.75 56.66 62.81 56.66 62.86 56.66 62.92 56.66 62.98 56.66 63.04 56.66 63.1 56.66 63.15 56.66 63.21 56.66 63.27 56.66 63.33 56.66 63.38 56.66 63.44 56.66 63.5 56.66 63.56 56.66 63.62 56.66 63.67 56.66 63.73 56.66 63.79 56.66 63.85 56.66 63.9 56.66 63.96 56.66 64.02 56.66 64.08 56.66 64.14 56.66 64.19 56.66 64.25 56.66 64.31 56.66 64.37 56.66 64.43 56.66 64.48 56.66 64.54 56.66 64.6 56.66 64.66 56.66 64.71 56.66 64.77 56.66 64.83 56.66 64.89 56.66 64.95 56.66 65 56.66 65.06 56.66 65.12 56.66 65.18 56.66 65.23 56.66 65.29 56.66 65.35 56.66 65.41 56.66 65.47 56.66 65.52 56.66 65.58 56.66 65.64 56.66 65.7 56.66 65.75 56.66 65.81 56.66 65.87 56.66 65.93 56.66 65.99 56.66 66.04 56.66 66.1 56.66 66.16 56.66 66.22 56.66 66.27 56.66 66.33 56.66 66.39 56.66 66.45 56.66 66.51 56.66 66.56 56.66 66.62 56.66 66.68 56.66 66.74 56.66 66.8 56.66 66.85 56.66 66.91 56.66 66.97 56.66 67.03 56.66 67.08 56.66 67.14 56.66 67.2 56.66 67.26 56.66 67.32 56.66 67.37 56.66 67.43 56.66 67.49 56.66 67.55 56.66 67.6 56.66 67.66 56.66 67.72 56.66 67.78 56.66 67.84 56.66 67.89 56.66 67.95 56.66 68.01 56.66 68.07 56.66 68.12 56.66 68.18 56.66 68.24 56.66 68.3 56.66 68.36 56.66 68.41 56.66 68.47 56.66 68.53 56.66 68.59 56.66 68.64 56.66 68.7 56.66 68.76 56.66 68.82 56.66 68.88 56.66 68.93 56.66 68.99 56.66 69.05 56.66 69.11 56.66 69.16 56.66 69.22 56.66 69.28 56.66 69.34 56.66 69.4 56.66 69.45 56.66 69.51 56.66 69.57 56.66 69.63 56.66 69.69 56.66 69.74 56.66 69.8 56.66 69.86 56.66 69.92 56.66 69.97 56.66 70.03 56.66 70.09 56.66 70.15 56.66 70.21 56.66 70.26 56.66 70.32 56.66 70.38 56.66 70.44 56.66 70.49 56.66 70.55 56.66 70.61 56.66 70.67 56.66 70.73 56.66 70.78 56.66 70.84 56.66 70.9 56.66 70.96 56.66 71.01 56.66 71.07 56.66 71.13 56.66 71.19 56.66 71.25 56.66 71.3 56.66 71.36 56.66 71.42 57.71 71.48 58.75 71.53 59.79 71.59 60.83 71.65 61.86 71.71 62.89 71.77 63.92 71.82 64.93 71.88 65.94 71.94 66.94 72 67.92 72.05 68.9 72.11 69.87 72.17 70.82 72.23 71.76 72.29 72.68 72.34 73.59 72.4 74.48 72.46 75.35 72.52 76.2 72.58 77.04 72.63 77.85 72.69 78.65 72.75 79.42 72.81 80.17 72.86 80.9 72.92 81.6 72.98 82.28 73.04 82.93 73.1 83.56 73.15 84.16 73.21 84.73 73.27 85.28 73.33 85.8 73.38 86.28 73.44 86.74 73.5 87.17 73.56 87.57 73.62 87.94 73.67 88.28 73.73 88.59 73.79 88.86 73.85 89.11 73.9 89.32 73.96 89.5 74.02 89.65 74.08 89.76 74.14 89.84 74.19 89.89 74.25 89.91 74.31 89.89 74.37 89.84 74.42 89.76 74.48 89.65 74.54 89.5 74.6 89.32 74.66 89.11 74.71 88.86 74.77 88.59 74.83 88.28 74.89 87.94 74.94 87.57 75 87.17 75.06 86.74 75.12 86.28 75.18 85.8 75.23 85.28 75.29 84.73 75.35 84.16 75.41 83.56 75.47 82.93 75.52 82.28 75.58 81.6 75.64 80.9 75.7 80.17 75.75 79.42 75.81 78.65 75.87 77.85 75.93 77.04 75.99 76.2 76.04 75.35 76.1 74.48 76.16 73.59 76.22 72.68 76.27 71.76 76.33 70.82 76.39 69.87 76.45 68.9 76.51 67.92 76.56 66.94 76.62 65.94 76.68 64.93 76.74 63.92 76.79 62.89 76.85 61.86 76.91 60.83 76.97 59.79 77.03 58.75 77.08 57.71 77.14 56.66 77.2 55.62 77.26 54.58 77.31 53.53 77.37 52.5 77.43 51.46 77.49 50.43 77.55 49.41 77.6 48.4 77.66 47.39 77.72 46.39 77.78 45.4 77.83 44.43 77.89 43.46 77.95 42.51 78.01 41.57 78.07 40.65 78.12 39.74 78.18 38.85 78.24 37.98 78.3 37.12 78.36 36.29 78.41 35.47 78.47 34.68 78.53 33.91 78.59 33.16 78.64 32.43 78.7 31.73 78.76 31.05 78.82 30.39 78.88 29.77 78.93 29.17 78.99 28.59 79.05 28.05 79.11 27.53 79.16 27.04 79.22 26.58 79.28 26.15 79.34 25.75 79.4 25.38 79.45 25.05 79.51 24.74 79.57 24.46 79.63 24.22 79.68 24.01 79.74 23.83 79.8 23.68 79.86 23.57 79.92 23.48 79.97 23.43 80.03 23.42 80.09 23.43 80.15 23.48 80.2 23.57 80.26 23.68 80.32 23.83 80.38 24.01 80.44 24.22 80.49 24.46 80.55 24.74 80.61 25.05 80.67 25.38 80.73 25.75 80.78 26.15 80.84 26.58 80.9 27.04 80.96 27.53 81.01 28.05 81.07 28.59 81.13 29.17 81.19 29.77 81.25 30.39 81.3 31.05 81.36 31.73 81.42 32.43 81.48 33.16 81.53 33.91 81.59 34.68 81.65 35.47 81.71 36.29 81.77 37.12 81.82 37.98 81.88 38.85 81.94 39.74 82 40.65 82.05 41.57 82.11 42.51 82.17 43.46 82.23 44.43 82.29 45.4 82.34 46.39 82.4 47.39 82.46 48.4 82.52 49.41 82.57 50.43 82.63 51.46 82.69 52.5 82.75 53.53 82.81 54.58 82.86 55.62 82.92 56.66 82.98 56.66 83.04 56.66 83.09 56.66 83.15 56.66 83.21 56.66 83.27 56.66 83.33 56.66 83.38 56.66 83.44 56.66 83.5 56.66 83.56 56.66 83.62 56.66 83.67 56.66 83.73 56.66 83.79 56.66 83.85 56.66 83.9 56.66 83.96 56.66 84.02 56.66 84.08 56.66 84.14 56.66 84.19 56.66 84.25 56.66 84.31 56.66 84.37 56.66 84.42 56.66 84.48 56.66 84.54 56.66 84.6 56.66 84.66 56.66 84.71 56.66 84.77 56.66 84.83 56.66 84.89 56.66 84.94 56.66 85 56.66 85.06 56.66 85.12 56.66 85.18 56.66 85.23 56.66 85.29 56.66 85.35 56.66 85.41 56.66 85.46 56.66 85.52 56.66 85.58 56.66 85.64 56.66 85.7 56.66 85.75 56.66 85.81 56.66 85.87 56.66 85.93 56.66 85.98 56.66 86.04 56.66 86.1 56.66 86.16 56.66 86.22 56.66 86.27 56.66 86.33 56.66 86.39 56.66 86.45 56.66 86.51 56.66 86.56 56.66 86.62 56.66 86.68 56.66 86.74 56.66 86.79 56.66 86.85 56.66 86.91 56.66 86.97 56.66 87.03 56.66 87.08 56.66 87.14 56.66 87.2 56.66 87.26 56.66 87.31 56.66 87.37 56.66 87.43 56.66 87.49 56.66 87.55 56.66 87.6 56.66 87.66 56.66 87.72 56.66 87.78 56.66 87.83 56.66 87.89 56.66 87.95 56.66 88.01 56.66 88.07 56.66 88.12 56.66 88.18 56.66 88.24 56.66 88.3 56.66 88.35 56.66 88.41 56.66 88.47 56.66 88.53 56.66 88.59 56.66 88.64 56.66 88.7 56.66 88.76 56.66 88.82 56.66 88.87 56.66 88.93 56.66 88.99 56.66 89.05 56.66 89.11 56.66 89.16 56.66 89.22 56.66 89.28 56.66 89.34 56.66 89.4 56.66 89.45 56.66 89.51 56.66 89.57 56.66 89.63 56.66 89.68 56.66 89.74 56.66 89.8 56.66 89.86 56.66 89.92 56.66 89.97 56.66 90.03 56.66 90.09 56.66 90.15 56.66 90.2 56.66 90.26 56.66 90.32 56.66 90.38 56.66 90.44 56.66 90.49 56.66 90.55 56.66 90.61 56.66 90.67 56.66 90.72 56.66 90.78 56.66 90.84 56.66 90.9 56.66 90.96 56.66 91.01 56.66 91.07 56.66 91.13 56.66 91.19 56.66 91.24 56.66 91.3 56.66 91.36 56.66 91.42 56.66 91.48 56.66 91.53 56.66 91.59 56.66 91.65 56.66 91.71 56.66 91.76 56.66 91.82 56.66 91.88 56.66 91.94 56.66 92 56.66 92.05 56.66 92.11 56.66 92.17 56.66 92.23 56.66 92.29 56.66 92.34 56.66 92.4 56.66 92.46 56.66 92.52 56.66 92.57 56.66 92.63 56.66 92.69 56.66 92.75 56.66 92.81 56.66 92.86 56.66 92.92 56.66 92.98 56.66 93.04 56.66 93.09 56.66 93.15 56.66 93.21 56.66 93.27 56.66 93.33 56.66 93.38 56.66 93.44 56.66 93.5 56.66 93.56 56.66 93.61 56.66 93.67 56.66 93.73 56.66 93.79 56.66 93.85 56.66 93.9 56.66 93.96 56.66 94.02 56.66 94.08 56.66 94.13 56.66 94.19 56.66 94.25 56.66 94.31 56.66 94.37 56.66 94.42 56.66 94.48 56.66 94.54 56.66 94.6 56.66 94.66 56.66 94.71 56.66 94.77 56.66 94.83 56.66 94.89 56.66 94.94 56.66 95 56.66 95.06 56.66 95.12 56.66 95.18 56.66 95.23 56.66 95.29 56.66 95.35 56.66 95.41 56.66 95.46 56.66 95.52 56.66 95.58 56.66 95.64 56.66 95.7 56.66 95.75 56.66 95.81 56.66 95.87 56.66 95.93 56.66 95.98 56.66 96.04 56.66 96.1 56.66 96.16 56.66 96.22 56.66 96.27 56.66 96.33 56.66 96.39 56.66 96.45 56.66 96.5 56.66 96.56 56.66 96.62 56.66 96.68 56.66 96.74 56.66 96.79 56.66 96.85 56.66 96.91 56.66 96.97 56.66 97.02 56.66 97.08 56.66 97.14 56.66 97.2 56.66 97.26 56.66 97.31 56.66 97.37 56.66 97.43 56.66 97.49 56.66 97.55 56.66 97.6 56.66 97.66 56.66 97.72 56.66 97.78 56.66 97.83 56.66 97.89 56.66 97.95 56.66 98.01 56.66 98.07 56.66 98.12 56.66 98.18 56.66 98.24 56.66 98.3 56.66 98.35 56.66 98.41 56.66 98.47 56.66 98.53 56.66 98.59 56.66 98.64 56.66 98.7 56.66 98.76 56.66 98.82 56.66 98.87 56.66 98.93 56.66 98.99 56.66 99.05 56.66 99.11 56.66 99.16 56.66 99.22 56.66 99.28 56.66 99.34 56.66 99.39 56.66 99.45 56.66 99.51 56.66 99.57 56.66 99.63 56.66 99.68 56.66 99.74 56.66 99.8 56.66 99.86 56.66 99.91 56.66 99.97 56.66 100.03 56.66 100.09 56.66 100.15 56.66 100.2 56.66 100.26 56.66 100.32 56.66 100.38 56.66 100.44 56.66 100.49 56.66 100.55 56.66 100.61 56.66 100.67 56.66 100.72 56.66 100.78 56.66 100.84 56.66 100.9 56.66 100.96 56.66 101.01 56.66 101.07 56.66 101.13 56.66 101.19 56.66 101.24 56.66 101.3 56.66 101.36 56.66 101.42 56.66 101.48 56.66 101.53 56.66 101.59 56.66 101.65 56.66 101.71 56.66 101.76 56.66 101.82 56.66 101.88 56.66 101.94 56.66 102 56.66 102.05 56.66 102.11 56.66 102.17 56.66 102.23 56.66 102.28 56.66 102.34 56.66 102.4 56.66 102.46 56.66 102.52 56.66 102.57 56.66 102.63 56.66 102.69 56.66 102.75 56.66 102.8 56.66 102.86 56.66 102.92 56.66 102.98 56.66 103.04 56.66 103.09 56.66 103.15 56.66 103.21 56.66 103.27 56.66 103.33 56.66 103.38 56.66 103.44 56.66 103.5 56.66 103.56 56.66 103.61 56.66 103.67 56.66 103.73 56.66 103.79 56.66 103.85 56.66 103.9 56.66 103.96 56.66 104.02 56.66 104.08 56.66 104.13 56.66 104.19 56.66 104.25 56.66 104.31 56.66 104.37 56.66 104.42 56.66 104.48 56.66 104.54 56.66 104.6 56.66 104.65 56.66 104.71 56.66 104.77 56.66 104.83 56.66 104.89 56.66 104.94 56.66 105 56.66 105.06 56.66 105.12 56.66 105.17 56.66 105.23 56.66 105.29 56.66 105.35 56.66 105.41 56.66 105.46 56.66 105.52 56.66 105.58 56.66 105.64 56.66 105.69 56.66 105.75 56.66 105.81 56.66 105.87 56.66 105.93 56.66 105.98 56.66 106.04 56.66 106.1 56.66 106.16 56.66 106.22 56.66 106.27 56.66 106.33 56.66 106.39 56.66 106.45 56.66 106.5 56.66 106.56 56.66 106.62 56.66 106.68 56.66 106.74 56.66 106.79 56.66 106.85 56.66 106.91 56.66 106.97 56.66 107.02 56.66 107.08 56.66 107.14 56.66 107.2 56.66 107.26 56.66 107.31 56.66 107.37 56.66 107.43 56.66 107.49 56.66 107.54 56.66 107.6 56.66 107.66 56.66 107.72 56.66 107.78 56.66 107.83 56.66 107.89 56.66 107.95 56.66 108.01 56.66 108.06 56.66 108.12 56.66 108.18 56.66 108.24 56.66 108.3 56.66 108.35 56.66 108.41 56.66 108.47 56.66 108.53 56.66 108.59 56.66 108.64 56.66 108.7 56.66 108.76 56.66 108.82 56.66 108.87 56.66 108.93 56.66 108.99 56.66 109.05 56.66 109.11 56.66 109.16 56.66 109.22 56.66 109.28 56.66 109.34 56.66 109.39 56.66 109.45 56.66 109.51 56.66 109.57 56.66 109.63 56.66 109.68 56.66 109.74 56.66 109.8 56.66 109.86 56.66 109.91 56.66 109.97 56.66 110.03 56.66 110.09 56.66 110.15 56.66 110.2 56.66 110.26 56.66 110.32 56.66 110.38 56.66 110.43 56.66 110.49 56.66 110.55 56.66 110.61 56.66 110.67 56.66 110.72 56.66 110.78 56.66 110.84 56.66 110.9 56.66 110.95 56.66 111.01 56.66 111.07 56.66 111.13 56.66 111.19 56.66 111.24 56.66 111.3 56.66 111.36 56.66 111.42 56.66 111.48 56.66 111.53 56.66 111.59 56.66 111.65 56.66 111.71 56.66 111.76 56.66 111.82 56.66 111.88 56.66 111.94 56.66 112 56.66 112.05 56.66 112.11 56.66 112.17 56.66 112.23 56.66 112.28 56.66 112.34 56.66 112.4 56.66 112.46 56.66 112.52 56.66 112.57 56.66 112.63 56.66 112.69 56.66 112.75 56.66 112.8 56.66 112.86 56.66 112.92 56.66 112.98 56.66 113.04 56.66 113.09 56.66 113.15 56.66 113.21 56.66 113.27 56.66 113.32 56.66 113.38 56.66 113.44 56.66 113.5 56.66 113.56 56.66 113.61 56.66 113.67 56.66 113.73 56.66 113.79 56.66 113.84 56.66 113.9 56.66 113.96 56.66 114.02 56.66 114.08 56.66 114.13 56.66 114.19 56.66 114.25 56.66 114.31 56.66 114.37 56.66 114.42 56.66 114.48 56.66 114.54 56.66 114.6 56.66 114.65 56.66 114.71 56.66 114.77 56.66 114.83 56.66 114.89 56.66 114.94 56.66 115 56.66 115.06 56.66 115.12 56.66 115.17 56.66 115.23 56.66 115.29 56.66 115.35 56.66 115.41 56.66 115.46 56.66 115.52 56.66 115.58 56.66 115.64 56.66 115.69 56.66 115.75 56.66 115.81 56.66 115.87 56.66 115.93 56.66 115.98 56.66 116.04 56.66 116.1 56.66 116.16 56.66 116.21 56.66 116.27 56.66 116.33 56.66 116.39 56.66 116.45 56.66 116.5 56.66 116.56 56.66 116.62 56.66 116.68 56.66 116.73 56.66 116.79 56.66 116.85 56.66 116.91 56.66 116.97 56.66 117.02 56.66 117.08 56.66 117.14 56.66 117.2 56.66 117.26 56.66 117.31 56.66 117.37 56.66 117.43 56.66 117.49 56.66 117.54 56.66 117.6 56.66 117.66 56.66 117.72 56.66 117.78 56.66 117.83 56.66 117.89 56.66 117.95 56.66 118.01 56.66 118.06 56.66 118.12 56.66 118.18 56.66 118.24 56.66 118.3 56.66 118.35 56.66 118.41 56.66 118.47 56.66 118.53 56.66 118.58 56.66 118.64 56.66 118.7 56.66 118.76 56.66 118.82 56.66 118.87 56.66 118.93 56.66 118.99 56.66 119.05 56.66 119.1 56.66 119.16 56.66 119.22 56.66 119.28 56.66 119.34 56.66 119.39 56.66 119.45 56.66 119.51 56.66 119.57 56.66 119.62 56.66 119.68 56.66 119.74 56.66 119.8 56.66 119.86 56.66 119.91 56.66 119.97 56.66 120.03 56.66 120.09 56.66 120.15 56.66 120.2 56.66 120.26 56.66 120.32 56.66 120.38 56.66 120.43 56.66 120.49 56.66 120.55 56.66 120.61 56.66 120.67 56.66 120.72 56.66 120.78 56.66 120.84 56.66 120.9 56.66 120.95 56.66 121.01 56.66 121.07 56.66 121.13 56.66 121.19 56.66 121.24 56.66 121.3 56.66 121.36 56.66 121.42 56.66 121.47 56.66 121.53 56.66 121.59 56.66 121.65 56.66 121.71 56.66 121.76 56.66 121.82 56.66 121.88 56.66 121.94 56.66 121.99 56.66 122.05 56.66 122.11 56.66 122.17 56.66 122.23 56.66 122.28 56.66 122.34 56.66 122.4 56.66 122.46 56.66 122.52 56.66 122.57 56.66 122.63 56.66 122.69 56.66 122.75 56.66 122.8 56.66 122.86 56.66 122.92 56.66 122.98 56.66 123.04 56.66 123.09 56.66 123.15 56.66 123.21 56.66 123.27 56.66 123.32 56.66 123.38 56.66 123.44 56.66 123.5 56.66 123.56 56.66 123.61 56.66 123.67 56.66 123.73 56.66 123.79 56.66 123.84 56.66 123.9 56.66 123.96 56.66 124.02 56.66 124.08 56.66 124.13 56.66 124.19 56.66 124.25 56.66 124.31 56.66 124.36 56.66 124.42 56.66 124.48 56.66 124.54 56.66 124.6 56.66 124.65 56.66 124.71 56.66 124.77 56.66 124.83 56.66 124.88 56.66 124.94 56.66 125 56.66 125.06 56.66 125.12 56.66 125.17 56.66 125.23 56.66 125.29 56.66 125.35 56.66 125.41 56.66 125.46 56.66 125.52 56.66 125.58 56.66 125.64 56.66 125.69 56.66 125.75 56.66 125.81 56.66 125.87 56.66 125.93 56.66 125.98 56.66 126.04 56.66 126.1 56.66 126.16 56.66 126.21 56.66 126.27 56.66 126.33 56.66 126.39 56.66 126.45 56.66 126.5 56.66 126.56 56.66 126.62 56.66 126.68 56.66 126.73 56.66 126.79 56.66 126.85 56.66 126.91 56.66 126.97 56.66 127.02 56.66 127.08 56.66 127.14 56.66 127.2 56.66 127.25 56.66 127.31 56.66 127.37 56.66 127.43 56.66 127.49 56.66 127.54 56.66 127.6 56.66 127.66 56.66 127.72 56.66 127.77 56.66 127.83 56.66 127.89 56.66 127.95 56.66 128.01 56.66 128.06 56.66 128.12 56.66 128.18 56.66 128.24 56.66 128.3 56.66 128.35 56.66 128.41 56.66 128.47 56.66 128.53 56.66 128.58 56.66 128.64 56.66 128.7 56.66 128.76 56.66 128.82 56.66 128.87 56.66 128.93 56.66 128.99 56.66 129.05 56.66 129.1 56.66 129.16 56.66 129.22 56.66 129.28 56.66 129.34 56.66 129.39 56.66 129.45 56.66 129.51 56.66 129.57 56.66 129.62 56.66 129.68 56.66 129.74 56.66 129.8 56.66 129.86 56.66 129.91 56.66 129.97 56.66 130.03 56.66 130.09 56.66 130.14 56.66 130.2 56.66 130.26 56.66 130.32 56.66 130.38 56.66 130.43 56.66 130.49 56.66 130.55 56.66 130.61 56.66 130.66 56.66 130.72 56.66 130.78 56.66 130.84 56.66 130.9 56.66 130.95 56.66 131.01 56.66 131.07 56.66 131.13 56.66 131.19 56.66 131.24 56.66 131.3 56.66 131.36 56.66 131.42 56.66 131.47 56.66 131.53 56.66 131.59 56.66 131.65 56.66 131.71 56.66 131.76 56.66 131.82 56.66 131.88 56.66 131.94 56.66 131.99 56.66 132.05 56.66 132.11 56.66 132.17 56.66 132.23 56.66 132.28 56.66 132.34 56.66 132.4 56.66 132.46 56.66 132.51 56.66 132.57 56.66 132.63 56.66 132.69 56.66 132.75 56.66 132.8 56.66 132.86 56.66 132.92 56.66 132.98 56.66 133.03 56.66 133.09 56.66 133.15 56.66 133.21 56.66 133.27 56.66 133.32 56.66 133.38 56.66 133.44 56.66 133.5 56.66 133.55 56.66 133.61 56.66 133.67 56.66 133.73 56.66 133.79 56.66 133.84 56.66 133.9 56.66 133.96 56.66 134.02 56.66 134.08 56.66 134.13 56.66 134.19 56.66 134.25 56.66 134.31 56.66 134.36 56.66 134.42 56.66 134.48 56.66 134.54 56.66 134.6 56.66 134.65 56.66 134.71 56.66 134.77 56.66 134.83 56.66 134.88 56.66 134.94 56.66 135 56.66" id="fig-ae2886e2854646cb8f50a2fecd9fc313-element-33"/>
      </g>
    </g>
  </g>
  <g class="guide ylabels" font-size="2.82" font-family="'PT Sans Caption','Helvetica Neue','Helvetica',sans-serif" fill="#6C606B" id="fig-ae2886e2854646cb8f50a2fecd9fc313-element-34">
    <text x="16.4" y="98.71" text-anchor="end" dy="0.35em" id="fig-ae2886e2854646cb8f50a2fecd9fc313-element-35">-4</text>
    <text x="16.4" y="77.69" text-anchor="end" dy="0.35em" id="fig-ae2886e2854646cb8f50a2fecd9fc313-element-36">-2</text>
    <text x="16.4" y="56.66" text-anchor="end" dy="0.35em" id="fig-ae2886e2854646cb8f50a2fecd9fc313-element-37">0</text>
    <text x="16.4" y="35.64" text-anchor="end" dy="0.35em" id="fig-ae2886e2854646cb8f50a2fecd9fc313-element-38">2</text>
    <text x="16.4" y="14.61" text-anchor="end" dy="0.35em" id="fig-ae2886e2854646cb8f50a2fecd9fc313-element-39">4</text>
  </g>
  <g font-size="3.88" font-family="'PT Sans','Helvetica Neue','Helvetica',sans-serif" fill="#564A55" stroke="none" id="fig-ae2886e2854646cb8f50a2fecd9fc313-element-40">
    <text x="8.81" y="54.66" text-anchor="middle" dy="0.35em" transform="rotate(-90, 8.81, 56.66)" id="fig-ae2886e2854646cb8f50a2fecd9fc313-element-41">Re()</text>
  </g>
  <g font-size="3.88" font-family="'PT Sans','Helvetica Neue','Helvetica',sans-serif" fill="#564A55" stroke="none" id="fig-ae2886e2854646cb8f50a2fecd9fc313-element-42">
    <text x="77.2" y="10.61" text-anchor="middle" id="fig-ae2886e2854646cb8f50a2fecd9fc313-element-43"> initial and final starting from excited with wall thickness s = 0.01</text>
  </g>
</g>
<defs>
<clipPath id="fig-ae2886e2854646cb8f50a2fecd9fc313-element-14">
  <path d="M17.4,12.61 L 137 12.61 137 100.72 17.4 100.72" />
</clipPath
></defs>
</svg>
