<?xml version="1.0" encoding="UTF-8"?>
<svg xmlns="http://www.w3.org/2000/svg"
     xmlns:xlink="http://www.w3.org/1999/xlink"
     xmlns:gadfly="http://www.gadflyjl.org/ns"
     version="1.2"
     width="200mm" height="120mm" viewBox="0 0 200 120"
     stroke="none"
     fill="#000000"
     stroke-width="0.3"
     font-size="3.88"
>
<g class="plotroot xscalable yscalable" id="fig-fbea7e971a8b4297bd810e7d235f8bf7-element-1">
  <g font-size="3.88" font-family="'PT Sans','Helvetica Neue','Helvetica',sans-serif" fill="#564A55" stroke="none" id="fig-fbea7e971a8b4297bd810e7d235f8bf7-element-2">
    <text x="87.98" y="112" text-anchor="middle">x</text>
  </g>
  <g class="guide xlabels" font-size="2.82" font-family="'PT Sans Caption','Helvetica Neue','Helvetica',sans-serif" fill="#6C606B" id="fig-fbea7e971a8b4297bd810e7d235f8bf7-element-3">
    <text x="19.4" y="104.39" text-anchor="middle">-1.0</text>
    <text x="53.69" y="104.39" text-anchor="middle">-0.5</text>
    <text x="87.98" y="104.39" text-anchor="middle">0.0</text>
    <text x="122.27" y="104.39" text-anchor="middle">0.5</text>
    <text x="156.56" y="104.39" text-anchor="middle">1.0</text>
  </g>
  <g class="guide colorkey" id="fig-fbea7e971a8b4297bd810e7d235f8bf7-element-4">
    <g fill="#4C404B" font-size="2.82" font-family="'PT Sans','Helvetica Neue','Helvetica',sans-serif" id="fig-fbea7e971a8b4297bd810e7d235f8bf7-element-5">
      <text x="162.37" y="56.66" dy="0.35em" id="fig-fbea7e971a8b4297bd810e7d235f8bf7-element-6" class="color_Wavefunction_at_t=0">Wavefunction at t=0</text>
      <text x="162.37" y="60.29" dy="0.35em" id="fig-fbea7e971a8b4297bd810e7d235f8bf7-element-7" class="color_Wavefunction_at_t=0.00635">Wavefunction at t=0.00635</text>
    </g>
    <g stroke="none" id="fig-fbea7e971a8b4297bd810e7d235f8bf7-element-8">
      <rect x="159.56" y="55.76" width="1.81" height="1.81" id="fig-fbea7e971a8b4297bd810e7d235f8bf7-element-9" class="color_Wavefunction_at_t=0" fill="#00BFFF"/>
      <rect x="159.56" y="59.38" width="1.81" height="1.81" id="fig-fbea7e971a8b4297bd810e7d235f8bf7-element-10" class="color_Wavefunction_at_t=0.00635" fill="#D4CA3A"/>
    </g>
    <g fill="#362A35" font-size="3.88" font-family="'PT Sans','Helvetica Neue','Helvetica',sans-serif" stroke="none" id="fig-fbea7e971a8b4297bd810e7d235f8bf7-element-11">
      <text x="159.56" y="52.84" id="fig-fbea7e971a8b4297bd810e7d235f8bf7-element-12">Color</text>
    </g>
  </g>
  <g clip-path="url(#fig-fbea7e971a8b4297bd810e7d235f8bf7-element-14)" id="fig-fbea7e971a8b4297bd810e7d235f8bf7-element-13">
    <g pointer-events="visible" opacity="1" fill="none" stroke="none" class="guide background" id="fig-fbea7e971a8b4297bd810e7d235f8bf7-element-15">
      <rect x="17.4" y="12.61" width="141.16" height="88.1" id="fig-fbea7e971a8b4297bd810e7d235f8bf7-element-16"/>
    </g>
    <g class="guide ygridlines xfixed" stroke-dasharray="0.5,0.5" stroke-width="0.2" stroke="#D0D0E0" id="fig-fbea7e971a8b4297bd810e7d235f8bf7-element-17">
      <path fill="none" d="M17.4,98.72 L 158.56 98.72" id="fig-fbea7e971a8b4297bd810e7d235f8bf7-element-18"/>
      <path fill="none" d="M17.4,81.89 L 158.56 81.89" id="fig-fbea7e971a8b4297bd810e7d235f8bf7-element-19"/>
      <path fill="none" d="M17.4,65.07 L 158.56 65.07" id="fig-fbea7e971a8b4297bd810e7d235f8bf7-element-20"/>
      <path fill="none" d="M17.4,48.25 L 158.56 48.25" id="fig-fbea7e971a8b4297bd810e7d235f8bf7-element-21"/>
      <path fill="none" d="M17.4,31.43 L 158.56 31.43" id="fig-fbea7e971a8b4297bd810e7d235f8bf7-element-22"/>
      <path fill="none" d="M17.4,14.61 L 158.56 14.61" id="fig-fbea7e971a8b4297bd810e7d235f8bf7-element-23"/>
    </g>
    <g class="guide xgridlines yfixed" stroke-dasharray="0.5,0.5" stroke-width="0.2" stroke="#D0D0E0" id="fig-fbea7e971a8b4297bd810e7d235f8bf7-element-24">
      <path fill="none" d="M19.4,12.61 L 19.4 100.71" id="fig-fbea7e971a8b4297bd810e7d235f8bf7-element-25"/>
      <path fill="none" d="M53.69,12.61 L 53.69 100.71" id="fig-fbea7e971a8b4297bd810e7d235f8bf7-element-26"/>
      <path fill="none" d="M87.98,12.61 L 87.98 100.71" id="fig-fbea7e971a8b4297bd810e7d235f8bf7-element-27"/>
      <path fill="none" d="M122.27,12.61 L 122.27 100.71" id="fig-fbea7e971a8b4297bd810e7d235f8bf7-element-28"/>
      <path fill="none" d="M156.56,12.61 L 156.56 100.71" id="fig-fbea7e971a8b4297bd810e7d235f8bf7-element-29"/>
    </g>
    <g class="plotpanel" id="fig-fbea7e971a8b4297bd810e7d235f8bf7-element-30">
      <g stroke-width="0.3" fill="none" class="geometry color_Wavefunction_at_t=0.00635" stroke="#D4CA3A" id="fig-fbea7e971a8b4297bd810e7d235f8bf7-element-31">
        <path fill="none" d="M19.4,31.43 L 19.47 31.37 19.54 31.34 19.6 31.27 19.67 31.21 19.74 31.14 19.81 31.06 19.88 30.97 19.95 30.92 20.02 30.87 20.08 30.9 20.15 30.93 20.22 30.96 20.29 31.04 20.36 31.1 20.43 31.17 20.5 31.23 20.56 31.31 20.63 31.36 20.7 31.41 20.77 31.43 20.84 31.48 20.91 31.56 20.98 31.61 21.04 31.71 21.11 31.8 21.18 31.87 21.25 31.91 21.32 31.93 21.39 31.94 21.46 31.94 21.52 31.9 21.59 31.84 21.66 31.79 21.73 31.71 21.8 31.64 21.87 31.59 21.94 31.58 22 31.54 22.07 31.48 22.14 31.41 22.21 31.35 22.28 31.28 22.35 31.2 22.42 31.15 22.48 31.1 22.55 31.03 22.62 30.97 22.69 30.96 22.76 30.99 22.83 31.03 22.9 31.06 22.96 31.1 23.03 31.13 23.1 31.16 23.17 31.19 23.24 31.25 23.31 31.31 23.38 31.35 23.44 31.37 23.51 31.42 23.58 31.48 23.65 31.55 23.72 31.62 23.79 31.67 23.86 31.71 23.92 31.72 23.99 31.73 24.06 31.74 24.13 31.74 24.2 31.73 24.27 31.72 24.34 31.7 24.4 31.67 24.47 31.67 24.54 31.65 24.61 31.62 24.68 31.58 24.75 31.55 24.82 31.53 24.88 31.48 24.95 31.43 25.02 31.4 25.09 31.38 25.16 31.36 25.23 31.36 25.3 31.35 25.36 31.35 25.43 31.32 25.5 31.28 25.57 31.29 25.64 31.3 25.71 31.29 25.78 31.27 25.84 31.26 25.91 31.25 25.98 31.27 26.05 31.28 26.12 31.31 26.19 31.33 26.26 31.31 26.32 31.29 26.39 31.28 26.46 31.28 26.53 31.29 26.6 31.29 26.67 31.29 26.74 31.29 26.81 31.31 26.87 31.35 26.94 31.38 27.01 31.41 27.08 31.44 27.15 31.47 27.22 31.48 27.29 31.5 27.35 31.52 27.42 31.55 27.49 31.56 27.56 31.59 27.63 31.64 27.7 31.68 27.77 31.7 27.83 31.71 27.9 31.74 27.97 31.76 28.04 31.78 28.11 31.76 28.18 31.74 28.25 31.69 28.31 31.65 28.38 31.62 28.45 31.59 28.52 31.56 28.59 31.52 28.66 31.47 28.73 31.41 28.79 31.38 28.86 31.35 28.93 31.33 29 31.28 29.07 31.22 29.14 31.19 29.21 31.15 29.27 31.12 29.34 31.09 29.41 31.08 29.48 31.08 29.55 31.09 29.62 31.1 29.69 31.13 29.75 31.18 29.82 31.21 29.89 31.25 29.96 31.29 30.03 31.32 30.1 31.34 30.17 31.34 30.23 31.34 30.3 31.36 30.37 31.4 30.44 31.43 30.51 31.44 30.58 31.47 30.65 31.52 30.71 31.57 30.78 31.58 30.85 31.59 30.92 31.59 30.99 31.58 31.06 31.54 31.13 31.53 31.19 31.54 31.26 31.52 31.33 31.52 31.4 31.55 31.47 31.61 31.54 31.68 31.61 31.72 31.67 31.75 31.74 31.76 31.81 31.75 31.88 31.75 31.95 31.77 32.02 31.75 32.09 31.7 32.15 31.68 32.22 31.68 32.29 31.7 32.36 31.7 32.43 31.71 32.5 31.7 32.57 31.64 32.63 31.55 32.7 31.45 32.77 31.38 32.84 31.29 32.91 31.19 32.98 31.08 33.05 31.02 33.11 30.94 33.18 30.88 33.25 30.86 33.32 30.83 33.39 30.85 33.46 30.8 33.53 30.75 33.59 30.71 33.66 30.73 33.73 30.77 33.8 30.83 33.87 30.88 33.94 30.94 34.01 31.05 34.07 31.13 34.14 31.26 34.21 31.38 34.28 31.48 34.35 31.57 34.42 31.67 34.49 31.75 34.55 31.84 34.62 31.92 34.69 31.99 34.76 32.06 34.83 32.12 34.9 32.17 34.97 32.19 35.03 32.17 35.1 32.13 35.17 32.11 35.24 32.08 35.31 32.05 35.38 31.98 35.45 31.9 35.51 31.83 35.58 31.79 35.65 31.74 35.72 31.67 35.79 31.57 35.86 31.5 35.93 31.44 35.99 31.37 36.06 31.26 36.13 31.19 36.2 31.18 36.27 31.16 36.34 31.11 36.41 31.07 36.47 31.04 36.54 31.05 36.61 31.05 36.68 31.04 36.75 31.02 36.82 30.99 36.89 30.99 36.96 31.02 37.02 31.04 37.09 31.02 37.16 31.01 37.23 31.03 37.3 31.07 37.37 31.11 37.44 31.13 37.5 31.16 37.57 31.19 37.64 31.23 37.71 31.27 37.78 31.31 37.85 31.35 37.92 31.39 37.98 31.42 38.05 31.43 38.12 31.43 38.19 31.48 38.26 31.52 38.33 31.56 38.4 31.59 38.46 31.62 38.53 31.66 38.6 31.68 38.67 31.69 38.74 31.71 38.81 31.73 38.88 31.71 38.94 31.72 39.01 31.7 39.08 31.69 39.15 31.65 39.22 31.64 39.29 31.65 39.36 31.68 39.42 31.69 39.49 31.68 39.56 31.67 39.63 31.66 39.7 31.68 39.77 31.68 39.84 31.7 39.9 31.69 39.97 31.66 40.04 31.62 40.11 31.58 40.18 31.56 40.25 31.56 40.32 31.55 40.38 31.53 40.45 31.51 40.52 31.5 40.59 31.49 40.66 31.48 40.73 31.45 40.8 31.43 40.86 31.4 40.93 31.32 41 31.27 41.07 31.2 41.14 31.17 41.21 31.13 41.28 31.13 41.34 31.17 41.41 31.2 41.48 31.22 41.55 31.22 41.62 31.23 41.69 31.25 41.76 31.25 41.82 31.23 41.89 31.22 41.96 31.17 42.03 31.14 42.1 31.14 42.17 31.15 42.24 31.17 42.3 31.19 42.37 31.18 42.44 31.17 42.51 31.15 42.58 31.13 42.65 31.11 42.72 31.06 42.78 31.02 42.85 31.02 42.92 31.02 42.99 31 43.06 31.01 43.13 31.04 43.2 31.07 43.26 31.11 43.33 31.18 43.4 31.25 43.47 31.33 43.54 31.42 43.61 31.51 43.68 31.63 43.74 31.74 43.81 31.84 43.88 31.92 43.95 31.98 44.02 32.03 44.09 32.11 44.16 32.15 44.22 32.17 44.29 32.21 44.36 32.26 44.43 32.3 44.5 32.34 44.57 32.34 44.64 32.33 44.7 32.28 44.77 32.21 44.84 32.13 44.91 32.06 44.98 31.98 45.05 31.91 45.12 31.84 45.18 31.8 45.25 31.76 45.32 31.74 45.39 31.69 45.46 31.65 45.53 31.63 45.6 31.59 45.66 31.53 45.73 31.45 45.8 31.37 45.87 31.31 45.94 31.28 46.01 31.24 46.08 31.18 46.14 31.11 46.21 31.03 46.28 30.93 46.35 30.83 46.42 30.76 46.49 30.69 46.56 30.61 46.62 30.53 46.69 30.46 46.76 30.41 46.83 30.35 46.9 30.29 46.97 30.27 47.04 30.26 47.1 30.28 47.17 30.29 47.24 30.3 47.31 30.31 47.38 30.39 47.45 30.5 47.52 30.62 47.59 30.72 47.65 30.82 47.72 30.93 47.79 31.03 47.86 31.13 47.93 31.24 48 31.35 48.07 31.47 48.13 31.57 48.2 31.66 48.27 31.75 48.34 31.8 48.41 31.88 48.48 31.94 48.55 32 48.61 32.06 48.68 32.13 48.75 32.14 48.82 32.17 48.89 32.21 48.96 32.28 49.03 32.34 49.09 32.37 49.16 32.4 49.23 32.42 49.3 32.45 49.37 32.46 49.44 32.45 49.51 32.44 49.57 32.44 49.64 32.46 49.71 32.46 49.78 32.4 49.85 32.35 49.92 32.34 49.99 32.32 50.05 32.28 50.12 32.22 50.19 32.13 50.26 32.07 50.33 31.99 50.4 31.89 50.47 31.77 50.53 31.65 50.6 31.57 50.67 31.5 50.74 31.41 50.81 31.33 50.88 31.27 50.95 31.23 51.01 31.18 51.08 31.13 51.15 31.07 51.22 31 51.29 30.95 51.36 30.91 51.43 30.85 51.49 30.79 51.56 30.75 51.63 30.72 51.7 30.7 51.77 30.67 51.84 30.65 51.91 30.64 51.97 30.66 52.04 30.65 52.11 30.67 52.18 30.69 52.25 30.71 52.32 30.74 52.39 30.76 52.45 30.77 52.52 30.77 52.59 30.76 52.66 30.74 52.73 30.73 52.8 30.74 52.87 30.75 52.93 30.81 53 30.86 53.07 30.9 53.14 30.95 53.21 30.97 53.28 30.98 53.35 30.97 53.41 30.99 53.48 30.98 53.55 30.98 53.62 30.99 53.69 31 53.76 31.01 53.83 31.05 53.89 31.1 53.96 31.16 54.03 31.21 54.1 31.27 54.17 31.31 54.24 31.35 54.31 31.38 54.37 31.44 54.44 31.49 54.51 31.53 54.58 31.57 54.65 31.56 54.72 31.55 54.79 31.5 54.85 31.5 54.92 31.49 54.99 31.5 55.06 31.55 55.13 31.61 55.2 31.65 55.27 31.7 55.33 31.75 55.4 31.79 55.47 31.83 55.54 31.88 55.61 31.93 55.68 31.98 55.75 32.02 55.81 32.08 55.88 32.15 55.95 32.23 56.02 32.33 56.09 32.42 56.16 32.52 56.23 32.57 56.29 32.62 56.36 32.66 56.43 32.67 56.5 32.7 56.57 32.74 56.64 32.75 56.71 32.75 56.77 32.74 56.84 32.7 56.91 32.65 56.98 32.62 57.05 32.6 57.12 32.58 57.19 32.59 57.25 32.62 57.32 32.63 57.39 32.65 57.46 32.66 57.53 32.65 57.6 32.65 57.67 32.63 57.74 32.59 57.8 32.55 57.87 32.48 57.94 32.4 58.01 32.33 58.08 32.24 58.15 32.14 58.22 32.04 58.28 31.92 58.35 31.79 58.42 31.64 58.49 31.5 58.56 31.34 58.63 31.2 58.7 31.06 58.76 30.91 58.83 30.79 58.9 30.65 58.97 30.52 59.04 30.4 59.11 30.29 59.18 30.17 59.24 30.08 59.31 30 59.38 29.91 59.45 29.83 59.52 29.77 59.59 29.68 59.66 29.61 59.72 29.52 59.79 29.43 59.86 29.33 59.93 29.24 60 29.15 60.07 29.07 60.14 28.99 60.2 28.92 60.27 28.86 60.34 28.8 60.41 28.74 60.48 28.73 60.55 28.72 60.62 28.73 60.68 28.77 60.75 28.81 60.82 28.86 60.89 28.91 60.96 29 61.03 29.07 61.1 29.18 61.16 29.31 61.23 29.44 61.3 29.56 61.37 29.67 61.44 29.78 61.51 29.87 61.58 29.95 61.64 30.07 61.71 30.17 61.78 30.29 61.85 30.41 61.92 30.54 61.99 30.66 62.06 30.79 62.12 30.94 62.19 31.1 62.26 31.26 62.33 31.43 62.4 31.61 62.47 31.77 62.54 31.93 62.6 32.1 62.67 32.27 62.74 32.44 62.81 32.59 62.88 32.75 62.95 32.88 63.02 32.98 63.08 33.11 63.15 33.22 63.22 33.35 63.29 33.5 63.36 33.64 63.43 33.78 63.5 33.88 63.56 33.97 63.63 34.03 63.7 34.06 63.77 34.12 63.84 34.17 63.91 34.23 63.98 34.3 64.04 34.35 64.11 34.38 64.18 34.41 64.25 34.43 64.32 34.44 64.39 34.47 64.46 34.51 64.52 34.54 64.59 34.57 64.66 34.6 64.73 34.59 64.8 34.58 64.87 34.55 64.94 34.5 65 34.45 65.07 34.39 65.14 34.31 65.21 34.25 65.28 34.19 65.35 34.13 65.42 34.09 65.48 34.06 65.55 34.03 65.62 33.98 65.69 33.92 65.76 33.85 65.83 33.76 65.9 33.68 65.96 33.59 66.03 33.51 66.1 33.43 66.17 33.34 66.24 33.24 66.31 33.14 66.38 33.01 66.44 32.92 66.51 32.84 66.58 32.77 66.65 32.72 66.72 32.71 66.79 32.67 66.86 32.63 66.92 32.58 66.99 32.51 67.06 32.41 67.13 32.32 67.2 32.21 67.27 32.1 67.34 31.98 67.4 31.89 67.47 31.78 67.54 31.67 67.61 31.58 67.68 31.48 67.75 31.38 67.82 31.3 67.88 31.23 67.95 31.18 68.02 31.13 68.09 31.1 68.16 31.05 68.23 30.99 68.3 30.93 68.37 30.84 68.43 30.74 68.5 30.63 68.57 30.54 68.64 30.44 68.71 30.34 68.78 30.24 68.85 30.14 68.91 30.02 68.98 29.9 69.05 29.78 69.12 29.66 69.19 29.54 69.26 29.44 69.33 29.31 69.39 29.19 69.46 29.06 69.53 28.93 69.6 28.8 69.67 28.68 69.74 28.57 69.81 28.46 69.87 28.34 69.94 28.23 70.01 28.11 70.08 27.99 70.15 27.85 70.22 27.74 70.29 27.6 70.35 27.46 70.42 27.32 70.49 27.14 70.56 26.96 70.63 26.76 70.7 26.56 70.77 26.37 70.83 26.19 70.9 26.03 70.97 25.87 71.04 25.72 71.11 25.58 71.18 25.43 71.25 25.3 71.31 25.2 71.38 25.08 71.45 24.99 71.52 24.9 71.59 24.79 71.66 24.67 71.73 24.55 71.79 24.41 71.86 24.27 71.93 24.14 72 24.02 72.07 23.87 72.14 23.75 72.21 23.62 72.27 23.48 72.34 23.37 72.41 23.28 72.48 23.2 72.55 23.17 72.62 23.14 72.69 23.11 72.75 23.09 72.82 23.08 72.89 23.06 72.96 23.06 73.03 23.09 73.1 23.13 73.17 23.18 73.23 23.24 73.3 23.28 73.37 23.3 73.44 23.32 73.51 23.34 73.58 23.37 73.65 23.42 73.71 23.5 73.78 23.6 73.85 23.7 73.92 23.81 73.99 23.93 74.06 24.04 74.13 24.19 74.19 24.35 74.26 24.56 74.33 24.78 74.4 25.02 74.47 25.28 74.54 25.53 74.61 25.76 74.67 26 74.74 26.22 74.81 26.45 74.88 26.69 74.95 26.95 75.02 27.2 75.09 27.47 75.15 27.76 75.22 28.03 75.29 28.31 75.36 28.62 75.43 28.92 75.5 29.26 75.57 29.61 75.63 30 75.7 30.38 75.77 30.78 75.84 31.18 75.91 31.57 75.98 31.95 76.05 32.32 76.11 32.69 76.18 33.06 76.25 33.43 76.32 33.83 76.39 34.22 76.46 34.63 76.53 35.03 76.59 35.43 76.66 35.84 76.73 36.25 76.8 36.68 76.87 37.1 76.94 37.55 77.01 38.02 77.07 38.45 77.14 38.9 77.21 39.32 77.28 39.72 77.35 40.13 77.42 40.51 77.49 40.92 77.55 41.32 77.62 41.74 77.69 42.17 77.76 42.57 77.83 43 77.9 43.42 77.97 43.83 78.03 44.26 78.1 44.68 78.17 45.11 78.24 45.54 78.31 45.95 78.38 46.35 78.45 46.71 78.52 47.08 78.58 47.42 78.65 47.76 78.72 48.1 78.79 48.43 78.86 48.77 78.93 49.11 79 49.43 79.06 49.77 79.13 50.11 79.2 50.46 79.27 50.81 79.34 51.17 79.41 51.52 79.48 51.85 79.54 52.16 79.61 52.47 79.68 52.73 79.75 53.01 79.82 53.27 79.89 53.52 79.96 53.75 80.02 53.98 80.09 54.18 80.16 54.37 80.23 54.57 80.3 54.78 80.37 54.97 80.44 55.21 80.5 55.44 80.57 55.67 80.64 55.89 80.71 56.11 80.78 56.29 80.85 56.46 80.92 56.64 80.98 56.81 81.05 56.96 81.12 57.18 81.19 57.35 81.26 57.51 81.33 57.65 81.4 57.78 81.46 57.89 81.53 58.01 81.6 58.15 81.67 58.28 81.74 58.42 81.81 58.58 81.88 58.71 81.94 58.84 82.01 58.96 82.08 59.08 82.15 59.19 82.22 59.31 82.29 59.43 82.36 59.53 82.42 59.63 82.49 59.72 82.56 59.77 82.63 59.82 82.7 59.86 82.77 59.89 82.84 59.91 82.9 59.95 82.97 59.99 83.04 60.01 83.11 60.05 83.18 60.08 83.25 60.09 83.32 60.12 83.38 60.14 83.45 60.18 83.52 60.2 83.59 60.24 83.66 60.28 83.73 60.3 83.8 60.33 83.86 60.35 83.93 60.34 84 60.33 84.07 60.31 84.14 60.29 84.21 60.26 84.28 60.24 84.34 60.22 84.41 60.17 84.48 60.15 84.55 60.12 84.62 60.07 84.69 60.05 84.76 60.02 84.82 60.01 84.89 60 84.96 60.01 85.03 60.03 85.1 60.03 85.17 60.04 85.24 60.02 85.3 59.98 85.37 59.96 85.44 59.92 85.51 59.89 85.58 59.85 85.65 59.81 85.72 59.77 85.78 59.71 85.85 59.66 85.92 59.6 85.99 59.54 86.06 59.52 86.13 59.5 86.2 59.51 86.26 59.53 86.33 59.55 86.4 59.56 86.47 59.56 86.54 59.55 86.61 59.54 86.68 59.52 86.74 59.52 86.81 59.5 86.88 59.5 86.95 59.47 87.02 59.43 87.09 59.38 87.16 59.32 87.22 59.27 87.29 59.24 87.36 59.23 87.43 59.26 87.5 59.28 87.57 59.32 87.64 59.34 87.7 59.37 87.77 59.38 87.84 59.4 87.91 59.42 87.98 59.46 88.05 59.48 88.12 59.51 88.18 59.52 88.25 59.51 88.32 59.48 88.39 59.44 88.46 59.41 88.53 59.4 88.6 59.4 88.66 59.43 88.73 59.46 88.8 59.51 88.87 59.55 88.94 59.58 89.01 59.62 89.08 59.66 89.15 59.71 89.21 59.77 89.28 59.83 89.35 59.89 89.42 59.92 89.49 59.94 89.56 59.94 89.63 59.92 89.69 59.92 89.76 59.91 89.83 59.92 89.9 59.95 89.97 59.97 90.04 60.01 90.11 60.04 90.17 60.08 90.24 60.12 90.31 60.15 90.38 60.22 90.45 60.27 90.52 60.34 90.59 60.4 90.65 60.44 90.72 60.48 90.79 60.49 90.86 60.49 90.93 60.49 91 60.47 91.07 60.48 91.13 60.48 91.2 60.48 91.27 60.5 91.34 60.49 91.41 60.5 91.48 60.5 91.55 60.51 91.61 60.53 91.68 60.55 91.75 60.58 91.82 60.6 91.89 60.62 91.96 60.64 92.03 60.63 92.09 60.63 92.16 60.6 92.23 60.57 92.3 60.53 92.37 60.49 92.44 60.45 92.51 60.39 92.57 60.35 92.64 60.3 92.71 60.23 92.78 60.17 92.85 60.1 92.92 60.04 92.99 59.97 93.05 59.91 93.12 59.87 93.19 59.81 93.26 59.76 93.33 59.7 93.4 59.61 93.47 59.52 93.53 59.41 93.6 59.3 93.67 59.18 93.74 59.07 93.81 58.94 93.88 58.79 93.95 58.65 94.01 58.48 94.08 58.28 94.15 58.1 94.22 57.91 94.29 57.73 94.36 57.55 94.43 57.4 94.49 57.23 94.56 57.05 94.63 56.88 94.7 56.68 94.77 56.47 94.84 56.27 94.91 56.11 94.97 55.99 95.04 55.86 95.11 55.75 95.18 55.56 95.25 55.38 95.32 55.18 95.39 54.95 95.45 54.71 95.52 54.5 95.59 54.27 95.66 54.06 95.73 53.84 95.8 53.64 95.87 53.4 95.93 53.19 96 52.97 96.07 52.74 96.14 52.51 96.21 52.3 96.28 52.05 96.35 51.8 96.41 51.52 96.48 51.23 96.55 50.89 96.62 50.57 96.69 50.23 96.76 49.87 96.83 49.52 96.89 49.17 96.96 48.8 97.03 48.45 97.1 48.1 97.17 47.75 97.24 47.41 97.31 47.08 97.37 46.75 97.44 46.41 97.51 46.07 97.58 45.7 97.65 45.32 97.72 44.94 97.79 44.54 97.85 44.14 97.92 43.74 97.99 43.31 98.06 42.89 98.13 42.45 98.2 42.01 98.27 41.57 98.33 41.14 98.4 40.74 98.47 40.33 98.54 39.95 98.61 39.57 98.68 39.16 98.75 38.76 98.81 38.34 98.88 37.92 98.95 37.49 99.02 37.07 99.09 36.67 99.16 36.24 99.23 35.83 99.3 35.41 99.36 34.98 99.43 34.56 99.5 34.14 99.57 33.74 99.64 33.36 99.71 32.99 99.78 32.65 99.84 32.29 99.91 31.95 99.98 31.59 100.05 31.22 100.12 30.84 100.19 30.48 100.26 30.1 100.32 29.74 100.39 29.39 100.46 29.06 100.53 28.71 100.6 28.41 100.67 28.09 100.74 27.78 100.8 27.49 100.87 27.22 100.94 26.96 101.01 26.73 101.08 26.53 101.15 26.33 101.22 26.13 101.28 25.94 101.35 25.72 101.42 25.49 101.49 25.26 101.56 25.04 101.63 24.83 101.7 24.64 101.76 24.48 101.83 24.32 101.9 24.17 101.97 24.02 102.04 23.87 102.11 23.75 102.18 23.64 102.24 23.57 102.31 23.53 102.38 23.51 102.45 23.51 102.52 23.5 102.59 23.48 102.66 23.45 102.72 23.43 102.79 23.41 102.86 23.39 102.93 23.4 103 23.43 103.07 23.44 103.14 23.45 103.2 23.46 103.27 23.45 103.34 23.46 103.41 23.5 103.48 23.55 103.55 23.62 103.62 23.72 103.68 23.82 103.75 23.92 103.82 24.03 103.89 24.16 103.96 24.29 104.03 24.44 104.1 24.6 104.16 24.75 104.23 24.9 104.3 25.04 104.37 25.16 104.44 25.28 104.51 25.4 104.58 25.51 104.64 25.63 104.71 25.74 104.78 25.85 104.85 25.96 104.92 26.07 104.99 26.18 105.06 26.31 105.12 26.47 105.19 26.64 105.26 26.81 105.33 27.01 105.4 27.18 105.47 27.35 105.54 27.52 105.6 27.68 105.67 27.84 105.74 27.98 105.81 28.14 105.88 28.27 105.95 28.38 106.02 28.5 106.08 28.59 106.15 28.69 106.22 28.78 106.29 28.89 106.36 29 106.43 29.1 106.5 29.22 106.56 29.33 106.63 29.43 106.7 29.55 106.77 29.66 106.84 29.78 106.91 29.89 106.98 30.01 107.04 30.11 107.11 30.2 107.18 30.29 107.25 30.39 107.32 30.49 107.39 30.6 107.46 30.72 107.52 30.82 107.59 30.92 107.66 31.01 107.73 31.07 107.8 31.13 107.87 31.19 107.94 31.25 108 31.31 108.07 31.36 108.14 31.44 108.21 31.49 108.28 31.55 108.35 31.61 108.42 31.68 108.48 31.76 108.55 31.85 108.62 31.97 108.69 32.1 108.76 32.22 108.83 32.37 108.9 32.48 108.96 32.58 109.03 32.66 109.1 32.74 109.17 32.77 109.24 32.82 109.31 32.88 109.38 32.93 109.44 33 109.51 33.08 109.58 33.14 109.65 33.21 109.72 33.28 109.79 33.35 109.86 33.43 109.93 33.53 109.99 33.65 110.06 33.76 110.13 33.88 110.2 33.97 110.27 34.04 110.34 34.09 110.41 34.12 110.47 34.15 110.54 34.19 110.61 34.22 110.68 34.27 110.75 34.32 110.82 34.37 110.89 34.41 110.95 34.47 111.02 34.51 111.09 34.55 111.16 34.58 111.23 34.6 111.3 34.59 111.37 34.59 111.43 34.57 111.5 34.54 111.57 34.52 111.64 34.49 111.71 34.43 111.78 34.38 111.85 34.3 111.91 34.21 111.98 34.14 112.05 34.07 112.12 34.02 112.19 33.99 112.26 33.95 112.33 33.89 112.39 33.79 112.46 33.69 112.53 33.55 112.6 33.41 112.67 33.29 112.74 33.16 112.81 33.04 112.87 32.93 112.94 32.78 113.01 32.64 113.08 32.47 113.15 32.32 113.22 32.15 113.29 32 113.35 31.85 113.42 31.7 113.49 31.54 113.56 31.37 113.63 31.19 113.7 31.03 113.77 30.85 113.83 30.7 113.9 30.55 113.97 30.39 114.04 30.25 114.11 30.12 114.18 30 114.25 29.89 114.31 29.81 114.38 29.73 114.45 29.67 114.52 29.58 114.59 29.5 114.66 29.4 114.73 29.3 114.79 29.22 114.86 29.14 114.93 29.06 115 29 115.07 28.94 115.14 28.88 115.21 28.81 115.27 28.78 115.34 28.75 115.41 28.74 115.48 28.76 115.55 28.79 115.62 28.84 115.69 28.89 115.75 28.96 115.82 29.04 115.89 29.13 115.96 29.24 116.03 29.35 116.1 29.47 116.17 29.58 116.23 29.7 116.3 29.81 116.37 29.9 116.44 30.01 116.51 30.11 116.58 30.2 116.65 30.29 116.71 30.39 116.78 30.48 116.85 30.57 116.92 30.67 116.99 30.77 117.06 30.87 117.13 30.98 117.19 31.1 117.26 31.23 117.33 31.37 117.4 31.51 117.47 31.65 117.54 31.79 117.61 31.92 117.67 32.03 117.74 32.14 117.81 32.24 117.88 32.33 117.95 32.43 118.02 32.52 118.09 32.59 118.15 32.66 118.22 32.7 118.29 32.74 118.36 32.76 118.43 32.77 118.5 32.76 118.57 32.73 118.63 32.7 118.7 32.65 118.77 32.62 118.84 32.6 118.91 32.58 118.98 32.59 119.05 32.59 119.11 32.57 119.18 32.56 119.25 32.56 119.32 32.54 119.39 32.55 119.46 32.57 119.53 32.59 119.59 32.59 119.66 32.57 119.73 32.52 119.8 32.44 119.87 32.35 119.94 32.27 120.01 32.17 120.07 32.11 120.14 32.03 120.21 31.98 120.28 31.92 120.35 31.85 120.42 31.82 120.49 31.77 120.56 31.73 120.62 31.69 120.69 31.64 120.76 31.56 120.83 31.51 120.9 31.47 120.97 31.45 121.04 31.44 121.1 31.45 121.17 31.46 121.24 31.45 121.31 31.42 121.38 31.42 121.45 31.39 121.52 31.39 121.58 31.4 121.65 31.41 121.72 31.41 121.79 31.37 121.86 31.33 121.93 31.25 122 31.17 122.06 31.1 122.13 31.04 122.2 30.99 122.27 30.95 122.34 30.92 122.41 30.91 122.48 30.9 122.54 30.91 122.61 30.93 122.68 30.93 122.75 30.91 122.82 30.89 122.89 30.84 122.96 30.79 123.02 30.76 123.09 30.73 123.16 30.72 123.23 30.71 123.3 30.72 123.37 30.71 123.44 30.7 123.5 30.68 123.57 30.68 123.64 30.69 123.71 30.69 123.78 30.7 123.85 30.72 123.92 30.72 123.98 30.72 124.05 30.72 124.12 30.72 124.19 30.71 124.26 30.73 124.33 30.75 124.4 30.79 124.46 30.84 124.53 30.89 124.6 30.96 124.67 31.06 124.74 31.14 124.81 31.19 124.88 31.26 124.94 31.32 125.01 31.37 125.08 31.44 125.15 31.48 125.22 31.53 125.29 31.61 125.36 31.7 125.42 31.8 125.49 31.88 125.56 31.96 125.63 32.07 125.7 32.18 125.77 32.25 125.84 32.3 125.9 32.35 125.97 32.42 126.04 32.48 126.11 32.52 126.18 32.52 126.25 32.5 126.32 32.52 126.38 32.53 126.45 32.5 126.52 32.47 126.59 32.45 126.66 32.44 126.73 32.42 126.8 32.36 126.86 32.28 126.93 32.22 127 32.16 127.07 32.14 127.14 32.08 127.21 31.98 127.28 31.91 127.34 31.85 127.41 31.79 127.48 31.71 127.55 31.65 127.62 31.59 127.69 31.52 127.76 31.45 127.82 31.37 127.89 31.27 127.96 31.18 128.03 31.11 128.1 31.03 128.17 30.95 128.24 30.85 128.3 30.74 128.37 30.62 128.44 30.51 128.51 30.44 128.58 30.41 128.65 30.35 128.72 30.3 128.78 30.26 128.85 30.26 128.92 30.25 128.99 30.26 129.06 30.27 129.13 30.32 129.2 30.39 129.26 30.48 129.33 30.56 129.4 30.62 129.47 30.74 129.54 30.86 129.61 31 129.68 31.09 129.74 31.18 129.81 31.25 129.88 31.31 129.95 31.37 130.02 31.45 130.09 31.54 130.16 31.63 130.22 31.69 130.29 31.75 130.36 31.8 130.43 31.85 130.5 31.86 130.57 31.86 130.64 31.87 130.71 31.89 130.77 31.91 130.84 31.91 130.91 31.93 130.98 31.96 131.05 32.03 131.12 32.1 131.19 32.14 131.25 32.16 131.32 32.18 131.39 32.19 131.46 32.19 131.53 32.19 131.6 32.17 131.67 32.17 131.73 32.13 131.8 32.08 131.87 32.04 131.94 31.99 132.01 31.9 132.08 31.8 132.15 31.72 132.21 31.64 132.28 31.57 132.35 31.49 132.42 31.4 132.49 31.33 132.56 31.26 132.63 31.19 132.69 31.12 132.76 31.03 132.83 30.95 132.9 30.92 132.97 30.87 133.04 30.86 133.11 30.89 133.17 30.93 133.24 30.96 133.31 31.02 133.38 31.1 133.45 31.16 133.52 31.18 133.59 31.17 133.65 31.17 133.72 31.17 133.79 31.18 133.86 31.19 133.93 31.22 134 31.24 134.07 31.26 134.13 31.29 134.2 31.31 134.27 31.32 134.34 31.35 134.41 31.33 134.48 31.3 134.55 31.27 134.61 31.25 134.68 31.23 134.75 31.21 134.82 31.21 134.89 31.25 134.96 31.29 135.03 31.29 135.09 31.33 135.16 31.34 135.23 31.38 135.3 31.43 135.37 31.48 135.44 31.53 135.51 31.55 135.57 31.56 135.64 31.56 135.71 31.58 135.78 31.6 135.85 31.64 135.92 31.64 135.99 31.64 136.05 31.65 136.12 31.67 136.19 31.7 136.26 31.73 136.33 31.76 136.4 31.78 136.47 31.77 136.53 31.75 136.6 31.73 136.67 31.71 136.74 31.69 136.81 31.67 136.88 31.67 136.95 31.68 137.01 31.69 137.08 31.67 137.15 31.67 137.22 31.66 137.29 31.69 137.36 31.67 137.43 31.64 137.49 31.6 137.56 31.54 137.63 31.48 137.7 31.43 137.77 31.42 137.84 31.39 137.91 31.33 137.97 31.28 138.04 31.25 138.11 31.23 138.18 31.2 138.25 31.18 138.32 31.15 138.39 31.13 138.45 31.09 138.52 31.05 138.59 31.02 138.66 31.01 138.73 31 138.8 30.99 138.87 30.98 138.93 30.97 139 31.02 139.07 31.07 139.14 31.08 139.21 31.08 139.28 31.11 139.35 31.15 139.41 31.18 139.48 31.2 139.55 31.21 139.62 31.23 139.69 31.25 139.76 31.32 139.83 31.4 139.89 31.44 139.96 31.47 140.03 31.56 140.1 31.64 140.17 31.68 140.24 31.71 140.31 31.74 140.37 31.82 140.44 31.88 140.51 31.92 140.58 31.96 140.65 32.01 140.72 32.05 140.79 32.1 140.85 32.11 140.92 32.09 140.99 32.09 141.06 32.07 141.13 32.02 141.2 31.95 141.27 31.87 141.34 31.82 141.4 31.78 141.47 31.72 141.54 31.65 141.61 31.54 141.68 31.41 141.75 31.29 141.82 31.2 141.88 31.1 141.95 30.99 142.02 30.87 142.09 30.78 142.16 30.7 142.23 30.69 142.3 30.71 142.36 30.72 142.43 30.74 142.5 30.72 142.57 30.75 142.64 30.79 142.71 30.83 142.78 30.86 142.84 30.93 142.91 31.02 142.98 31.12 143.05 31.22 143.12 31.31 143.19 31.45 143.26 31.58 143.32 31.69 143.39 31.74 143.46 31.79 143.53 31.83 143.6 31.86 143.67 31.86 143.74 31.88 143.8 31.92 143.87 31.9 143.94 31.89 144.01 31.87 144.08 31.87 144.15 31.84 144.22 31.8 144.28 31.75 144.35 31.7 144.42 31.65 144.49 31.59 144.56 31.54 144.63 31.48 144.7 31.44 144.76 31.42 144.83 31.42 144.9 31.4 144.97 31.35 145.04 31.33 145.11 31.34 145.18 31.35 145.24 31.36 145.31 31.37 145.38 31.37 145.45 31.36 145.52 31.35 145.59 31.36 145.66 31.38 145.72 31.36 145.79 31.33 145.86 31.31 145.93 31.3 146 31.31 146.07 31.31 146.14 31.3 146.2 31.29 146.27 31.3 146.34 31.29 146.41 31.28 146.48 31.26 146.55 31.24 146.62 31.21 146.68 31.19 146.75 31.18 146.82 31.22 146.89 31.25 146.96 31.27 147.03 31.31 147.1 31.36 147.16 31.41 147.23 31.46 147.3 31.48 147.37 31.5 147.44 31.53 147.51 31.52 147.58 31.54 147.64 31.56 147.71 31.59 147.78 31.64 147.85 31.68 147.92 31.71 147.99 31.72 148.06 31.74 148.12 31.73 148.19 31.74 148.26 31.71 148.33 31.68 148.4 31.63 148.47 31.56 148.54 31.52 148.6 31.52 148.67 31.53 148.74 31.51 148.81 31.49 148.88 31.44 148.95 31.42 149.02 31.4 149.08 31.39 149.15 31.38 149.22 31.34 149.29 31.28 149.36 31.23 149.43 31.23 149.5 31.23 149.56 31.27 149.63 31.26 149.7 31.24 149.77 31.23 149.84 31.23 149.91 31.26 149.98 31.27 150.04 31.27 150.11 31.27 150.18 31.25 150.25 31.23 150.32 31.25 150.39 31.28 150.46 31.3 150.52 31.31 150.59 31.31 150.66 31.35 150.73 31.39 150.8 31.41 150.87 31.45 150.94 31.49 151 31.53 151.07 31.55 151.14 31.56 151.21 31.59 151.28 31.63 151.35 31.64 151.42 31.67 151.49 31.7 151.55 31.72 151.62 31.74 151.69 31.76 151.76 31.77 151.83 31.79 151.9 31.78 151.97 31.75 152.03 31.72 152.1 31.67 152.17 31.62 152.24 31.57 152.31 31.5 152.38 31.45 152.45 31.39 152.51 31.34 152.58 31.29 152.65 31.25 152.72 31.21 152.79 31.16 152.86 31.09 152.93 31.04 152.99 31.01 153.06 30.97 153.13 30.94 153.2 30.92 153.27 30.94 153.34 30.96 153.41 31.01 153.47 31.07 153.54 31.16 153.61 31.23 153.68 31.27 153.75 31.34 153.82 31.43 153.89 31.51 153.95 31.56 154.02 31.62 154.09 31.68 154.16 31.75 154.23 31.81 154.3 31.89 154.37 31.98 154.43 32.01 154.5 32 154.57 32 154.64 32 154.71 31.97 154.78 31.92 154.85 31.84 154.91 31.77 154.98 31.67 155.05 31.58 155.12 31.52 155.19 31.47 155.26 31.39 155.33 31.3 155.39 31.21 155.46 31.13 155.53 31.07 155.6 30.98 155.67 30.93 155.74 30.87 155.81 30.82 155.87 30.79 155.94 30.81 156.01 30.85 156.08 30.9 156.15 30.96 156.22 31.02 156.29 31.11 156.35 31.19 156.42 31.28 156.49 31.36 156.56 31.43" id="fig-fbea7e971a8b4297bd810e7d235f8bf7-element-32"/>
      </g>
      <g stroke-width="0.3" fill="none" class="geometry color_Wavefunction_at_t=0" stroke="#00BFFF" id="fig-fbea7e971a8b4297bd810e7d235f8bf7-element-33">
        <path fill="none" d="M19.4,31.43 L 19.47 31.43 19.54 31.43 19.6 31.43 19.67 31.43 19.74 31.43 19.81 31.43 19.88 31.43 19.95 31.43 20.02 31.43 20.08 31.43 20.15 31.43 20.22 31.43 20.29 31.43 20.36 31.43 20.43 31.43 20.5 31.43 20.56 31.43 20.63 31.43 20.7 31.43 20.77 31.43 20.84 31.43 20.91 31.43 20.98 31.43 21.04 31.43 21.11 31.43 21.18 31.43 21.25 31.43 21.32 31.43 21.39 31.43 21.46 31.43 21.52 31.43 21.59 31.43 21.66 31.43 21.73 31.43 21.8 31.43 21.87 31.43 21.94 31.43 22 31.43 22.07 31.43 22.14 31.43 22.21 31.43 22.28 31.43 22.35 31.43 22.42 31.43 22.48 31.43 22.55 31.43 22.62 31.43 22.69 31.43 22.76 31.43 22.83 31.43 22.9 31.43 22.96 31.43 23.03 31.43 23.1 31.43 23.17 31.43 23.24 31.43 23.31 31.43 23.38 31.43 23.44 31.43 23.51 31.43 23.58 31.43 23.65 31.43 23.72 31.43 23.79 31.43 23.86 31.43 23.92 31.43 23.99 31.43 24.06 31.43 24.13 31.43 24.2 31.43 24.27 31.43 24.34 31.43 24.4 31.43 24.47 31.43 24.54 31.43 24.61 31.43 24.68 31.43 24.75 31.43 24.82 31.43 24.88 31.43 24.95 31.43 25.02 31.43 25.09 31.43 25.16 31.43 25.23 31.43 25.3 31.43 25.36 31.43 25.43 31.43 25.5 31.43 25.57 31.43 25.64 31.43 25.71 31.43 25.78 31.43 25.84 31.43 25.91 31.43 25.98 31.43 26.05 31.43 26.12 31.43 26.19 31.43 26.26 31.43 26.32 31.43 26.39 31.43 26.46 31.43 26.53 31.43 26.6 31.43 26.67 31.43 26.74 31.43 26.81 31.43 26.87 31.43 26.94 31.43 27.01 31.43 27.08 31.43 27.15 31.43 27.22 31.43 27.29 31.43 27.35 31.43 27.42 31.43 27.49 31.43 27.56 31.43 27.63 31.43 27.7 31.43 27.77 31.43 27.83 31.43 27.9 31.43 27.97 31.43 28.04 31.43 28.11 31.43 28.18 31.43 28.25 31.43 28.31 31.43 28.38 31.43 28.45 31.43 28.52 31.43 28.59 31.43 28.66 31.43 28.73 31.43 28.79 31.43 28.86 31.43 28.93 31.43 29 31.43 29.07 31.43 29.14 31.43 29.21 31.43 29.27 31.43 29.34 31.43 29.41 31.43 29.48 31.43 29.55 31.43 29.62 31.43 29.69 31.43 29.75 31.43 29.82 31.43 29.89 31.43 29.96 31.43 30.03 31.43 30.1 31.43 30.17 31.43 30.23 31.43 30.3 31.43 30.37 31.43 30.44 31.43 30.51 31.43 30.58 31.43 30.65 31.43 30.71 31.43 30.78 31.43 30.85 31.43 30.92 31.43 30.99 31.43 31.06 31.43 31.13 31.43 31.19 31.43 31.26 31.43 31.33 31.43 31.4 31.43 31.47 31.43 31.54 31.43 31.61 31.43 31.67 31.43 31.74 31.43 31.81 31.43 31.88 31.43 31.95 31.43 32.02 31.43 32.09 31.43 32.15 31.43 32.22 31.43 32.29 31.43 32.36 31.43 32.43 31.43 32.5 31.43 32.57 31.43 32.63 31.43 32.7 31.43 32.77 31.43 32.84 31.43 32.91 31.43 32.98 31.43 33.05 31.43 33.11 31.43 33.18 31.43 33.25 31.43 33.32 31.43 33.39 31.43 33.46 31.43 33.53 31.43 33.59 31.43 33.66 31.43 33.73 31.43 33.8 31.43 33.87 31.43 33.94 31.43 34.01 31.43 34.07 31.43 34.14 31.43 34.21 31.43 34.28 31.43 34.35 31.43 34.42 31.43 34.49 31.43 34.55 31.43 34.62 31.43 34.69 31.43 34.76 31.43 34.83 31.43 34.9 31.43 34.97 31.43 35.03 31.43 35.1 31.43 35.17 31.43 35.24 31.43 35.31 31.43 35.38 31.43 35.45 31.43 35.51 31.43 35.58 31.43 35.65 31.43 35.72 31.43 35.79 31.43 35.86 31.43 35.93 31.43 35.99 31.43 36.06 31.43 36.13 31.43 36.2 31.43 36.27 31.43 36.34 31.43 36.41 31.43 36.47 31.43 36.54 31.43 36.61 31.43 36.68 31.43 36.75 31.43 36.82 31.43 36.89 31.43 36.96 31.43 37.02 31.43 37.09 31.43 37.16 31.43 37.23 31.43 37.3 31.43 37.37 31.43 37.44 31.43 37.5 31.43 37.57 31.43 37.64 31.43 37.71 31.43 37.78 31.43 37.85 31.43 37.92 31.43 37.98 31.43 38.05 31.43 38.12 31.43 38.19 31.43 38.26 31.43 38.33 31.43 38.4 31.43 38.46 31.43 38.53 31.43 38.6 31.43 38.67 31.43 38.74 31.43 38.81 31.43 38.88 31.43 38.94 31.43 39.01 31.43 39.08 31.43 39.15 31.43 39.22 31.43 39.29 31.43 39.36 31.43 39.42 31.43 39.49 31.43 39.56 31.43 39.63 31.43 39.7 31.43 39.77 31.43 39.84 31.43 39.9 31.43 39.97 31.43 40.04 31.43 40.11 31.43 40.18 31.43 40.25 31.43 40.32 31.43 40.38 31.43 40.45 31.43 40.52 31.43 40.59 31.43 40.66 31.43 40.73 31.43 40.8 31.43 40.86 31.43 40.93 31.43 41 31.43 41.07 31.43 41.14 31.43 41.21 31.43 41.28 31.43 41.34 31.43 41.41 31.43 41.48 31.43 41.55 31.43 41.62 31.43 41.69 31.43 41.76 31.43 41.82 31.43 41.89 31.43 41.96 31.43 42.03 31.43 42.1 31.43 42.17 31.43 42.24 31.43 42.3 31.43 42.37 31.43 42.44 31.43 42.51 31.43 42.58 31.43 42.65 31.43 42.72 31.43 42.78 31.43 42.85 31.43 42.92 31.43 42.99 31.43 43.06 31.43 43.13 31.43 43.2 31.43 43.26 31.43 43.33 31.43 43.4 31.43 43.47 31.43 43.54 31.43 43.61 31.43 43.68 31.43 43.74 31.43 43.81 31.43 43.88 31.43 43.95 31.43 44.02 31.43 44.09 31.43 44.16 31.43 44.22 31.43 44.29 31.43 44.36 31.43 44.43 31.43 44.5 31.43 44.57 31.43 44.64 31.43 44.7 31.43 44.77 31.43 44.84 31.43 44.91 31.43 44.98 31.43 45.05 31.43 45.12 31.43 45.18 31.43 45.25 31.43 45.32 31.43 45.39 31.43 45.46 31.43 45.53 31.43 45.6 31.43 45.66 31.43 45.73 31.43 45.8 31.43 45.87 31.43 45.94 31.43 46.01 31.43 46.08 31.43 46.14 31.43 46.21 31.43 46.28 31.43 46.35 31.43 46.42 31.43 46.49 31.43 46.56 31.43 46.62 31.43 46.69 31.43 46.76 31.43 46.83 31.43 46.9 31.43 46.97 31.43 47.04 31.43 47.1 31.43 47.17 31.43 47.24 31.43 47.31 31.43 47.38 31.43 47.45 31.43 47.52 31.43 47.59 31.43 47.65 31.43 47.72 31.43 47.79 31.43 47.86 31.43 47.93 31.43 48 31.43 48.07 31.43 48.13 31.43 48.2 31.43 48.27 31.43 48.34 31.43 48.41 31.43 48.48 31.43 48.55 31.43 48.61 31.43 48.68 31.43 48.75 31.43 48.82 31.43 48.89 31.43 48.96 31.43 49.03 31.43 49.09 31.43 49.16 31.43 49.23 31.43 49.3 31.43 49.37 31.43 49.44 31.43 49.51 31.43 49.57 31.43 49.64 31.43 49.71 31.43 49.78 31.43 49.85 31.43 49.92 31.43 49.99 31.43 50.05 31.43 50.12 31.43 50.19 31.43 50.26 31.43 50.33 31.43 50.4 31.43 50.47 31.43 50.53 31.43 50.6 31.43 50.67 31.43 50.74 31.43 50.81 31.43 50.88 31.43 50.95 31.43 51.01 31.43 51.08 31.43 51.15 31.43 51.22 31.43 51.29 31.43 51.36 31.43 51.43 31.43 51.49 31.43 51.56 31.43 51.63 31.43 51.7 31.43 51.77 31.43 51.84 31.43 51.91 31.43 51.97 31.43 52.04 31.43 52.11 31.43 52.18 31.43 52.25 31.43 52.32 31.43 52.39 31.43 52.45 31.43 52.52 31.43 52.59 31.43 52.66 31.43 52.73 31.43 52.8 31.43 52.87 31.43 52.93 31.43 53 31.43 53.07 31.43 53.14 31.43 53.21 31.43 53.28 31.43 53.35 31.43 53.41 31.43 53.48 31.43 53.55 31.43 53.62 31.43 53.69 31.43 53.76 31.43 53.83 31.43 53.89 31.43 53.96 31.43 54.03 31.43 54.1 31.43 54.17 31.43 54.24 31.43 54.31 31.43 54.37 31.43 54.44 31.43 54.51 31.43 54.58 31.43 54.65 31.43 54.72 31.43 54.79 31.43 54.85 31.43 54.92 31.43 54.99 31.43 55.06 31.43 55.13 31.43 55.2 31.43 55.27 31.43 55.33 31.43 55.4 31.43 55.47 31.43 55.54 31.43 55.61 31.43 55.68 31.43 55.75 31.43 55.81 31.43 55.88 31.43 55.95 31.43 56.02 31.43 56.09 31.43 56.16 31.43 56.23 31.43 56.29 31.43 56.36 31.43 56.43 31.43 56.5 31.43 56.57 31.43 56.64 31.43 56.71 31.43 56.77 31.43 56.84 31.43 56.91 31.43 56.98 31.43 57.05 31.43 57.12 31.43 57.19 31.43 57.25 31.43 57.32 31.43 57.39 31.43 57.46 31.43 57.53 31.43 57.6 31.43 57.67 31.43 57.74 31.43 57.8 31.43 57.87 31.43 57.94 31.43 58.01 31.43 58.08 31.43 58.15 31.43 58.22 31.43 58.28 31.43 58.35 31.43 58.42 31.43 58.49 31.43 58.56 31.43 58.63 31.43 58.7 31.43 58.76 31.43 58.83 31.43 58.9 31.43 58.97 31.43 59.04 31.43 59.11 31.43 59.18 31.43 59.24 31.43 59.31 31.43 59.38 31.43 59.45 31.43 59.52 31.43 59.59 31.43 59.66 31.43 59.72 31.43 59.79 31.43 59.86 31.43 59.93 31.43 60 31.43 60.07 31.43 60.14 31.43 60.2 31.43 60.27 31.43 60.34 31.43 60.41 31.43 60.48 31.43 60.55 31.43 60.62 31.43 60.68 31.43 60.75 31.43 60.82 31.43 60.89 31.43 60.96 31.43 61.03 31.43 61.1 31.43 61.16 31.43 61.23 31.43 61.3 31.43 61.37 31.43 61.44 31.43 61.51 31.43 61.58 31.43 61.64 31.43 61.71 31.43 61.78 31.43 61.85 31.43 61.92 31.43 61.99 31.43 62.06 31.43 62.12 31.43 62.19 31.43 62.26 31.43 62.33 31.43 62.4 31.43 62.47 31.43 62.54 31.43 62.6 31.43 62.67 31.43 62.74 31.43 62.81 31.43 62.88 31.43 62.95 31.43 63.02 31.43 63.08 31.43 63.15 31.43 63.22 31.43 63.29 31.43 63.36 31.43 63.43 31.43 63.5 31.43 63.56 31.43 63.63 31.43 63.7 31.43 63.77 31.43 63.84 31.43 63.91 31.43 63.98 31.43 64.04 31.43 64.11 31.43 64.18 31.43 64.25 31.43 64.32 31.43 64.39 31.43 64.46 31.43 64.52 31.43 64.59 31.43 64.66 31.43 64.73 31.43 64.8 31.43 64.87 31.43 64.94 31.43 65 31.43 65.07 31.43 65.14 31.43 65.21 31.43 65.28 31.43 65.35 31.43 65.42 31.43 65.48 31.43 65.55 31.43 65.62 31.43 65.69 31.43 65.76 31.43 65.83 31.43 65.9 31.43 65.96 31.43 66.03 31.43 66.1 31.43 66.17 31.43 66.24 31.43 66.31 31.43 66.38 31.43 66.44 31.43 66.51 31.43 66.58 31.43 66.65 31.43 66.72 31.43 66.79 31.43 66.86 31.43 66.92 31.43 66.99 31.43 67.06 31.43 67.13 31.43 67.2 31.43 67.27 31.43 67.34 31.43 67.4 31.43 67.47 31.43 67.54 31.43 67.61 31.43 67.68 31.43 67.75 31.43 67.82 31.43 67.88 31.43 67.95 31.43 68.02 31.43 68.09 31.43 68.16 31.43 68.23 31.43 68.3 31.43 68.37 31.43 68.43 31.43 68.5 31.43 68.57 31.43 68.64 31.43 68.71 31.43 68.78 31.43 68.85 31.43 68.91 31.43 68.98 31.43 69.05 31.43 69.12 31.43 69.19 31.43 69.26 31.43 69.33 31.43 69.39 31.43 69.46 31.43 69.53 31.43 69.6 31.43 69.67 31.43 69.74 31.43 69.81 31.43 69.87 31.43 69.94 31.43 70.01 31.43 70.08 31.43 70.15 31.43 70.22 31.43 70.29 31.43 70.35 31.43 70.42 31.43 70.49 31.43 70.56 31.43 70.63 31.43 70.7 31.43 70.77 31.43 70.83 31.43 70.9 31.43 70.97 31.43 71.04 31.43 71.11 31.43 71.18 31.43 71.25 31.43 71.31 31.43 71.38 31.43 71.45 31.43 71.52 31.43 71.59 31.43 71.66 31.43 71.73 31.43 71.79 31.43 71.86 31.43 71.93 31.43 72 31.43 72.07 31.43 72.14 31.43 72.21 31.43 72.27 31.43 72.34 31.43 72.41 31.43 72.48 31.43 72.55 31.43 72.62 31.43 72.69 31.43 72.75 31.43 72.82 31.43 72.89 31.43 72.96 31.43 73.03 31.43 73.1 31.43 73.17 31.43 73.23 31.43 73.3 31.43 73.37 31.43 73.44 31.43 73.51 31.43 73.58 31.43 73.65 31.43 73.71 31.43 73.78 31.43 73.85 31.43 73.92 31.43 73.99 31.43 74.06 31.43 74.13 31.43 74.19 31.43 74.26 31.43 74.33 31.43 74.4 31.43 74.47 31.43 74.54 31.43 74.61 31.43 74.67 31.43 74.74 31.43 74.81 31.43 74.88 31.43 74.95 31.43 75.02 31.43 75.09 31.43 75.15 31.43 75.22 31.43 75.29 31.43 75.36 31.43 75.43 31.43 75.5 31.43 75.57 31.43 75.63 31.43 75.7 31.43 75.77 31.43 75.84 31.43 75.91 31.43 75.98 31.43 76.05 31.43 76.11 31.43 76.18 31.43 76.25 31.43 76.32 31.43 76.39 31.43 76.46 31.43 76.53 31.43 76.59 31.43 76.66 31.43 76.73 31.43 76.8 31.43 76.87 31.43 76.94 31.43 77.01 31.43 77.07 31.43 77.14 31.43 77.21 31.43 77.28 31.43 77.35 31.43 77.42 31.43 77.49 31.43 77.55 31.43 77.62 31.43 77.69 31.43 77.76 31.43 77.83 31.43 77.9 31.43 77.97 31.43 78.03 31.43 78.1 31.43 78.17 31.43 78.24 31.43 78.31 31.43 78.38 31.43 78.45 31.43 78.52 31.43 78.58 31.43 78.65 31.43 78.72 31.43 78.79 31.43 78.86 31.43 78.93 31.43 79 31.43 79.06 31.43 79.13 31.43 79.2 31.43 79.27 31.43 79.34 31.43 79.41 31.43 79.48 31.43 79.54 31.43 79.61 31.43 79.68 31.43 79.75 31.43 79.82 31.43 79.89 31.43 79.96 31.43 80.02 31.43 80.09 31.43 80.16 31.43 80.23 31.43 80.3 31.43 80.37 31.43 80.44 31.43 80.5 31.43 80.57 31.43 80.64 31.43 80.71 31.43 80.78 31.43 80.85 31.43 80.92 31.43 80.98 31.43 81.05 31.43 81.12 32.27 81.19 33.1 81.26 33.94 81.33 34.77 81.4 35.61 81.46 36.44 81.53 37.27 81.6 38.1 81.67 38.93 81.74 39.75 81.81 40.58 81.88 41.4 81.94 42.22 82.01 43.04 82.08 43.85 82.15 44.66 82.22 45.47 82.29 46.27 82.36 47.07 82.42 47.87 82.49 48.66 82.56 49.45 82.63 50.23 82.7 51.01 82.77 51.79 82.84 52.56 82.9 53.32 82.97 54.08 83.04 54.83 83.11 55.58 83.18 56.32 83.25 57.06 83.32 57.79 83.38 58.51 83.45 59.22 83.52 59.93 83.59 60.64 83.66 61.33 83.73 62.02 83.8 62.7 83.86 63.37 83.93 64.03 84 64.69 84.07 65.34 84.14 65.98 84.21 66.61 84.28 67.23 84.34 67.84 84.41 68.45 84.48 69.04 84.55 69.63 84.62 70.21 84.69 70.77 84.76 71.33 84.82 71.88 84.89 72.42 84.96 72.94 85.03 73.46 85.1 73.97 85.17 74.47 85.24 74.95 85.3 75.43 85.37 75.89 85.44 76.34 85.51 76.79 85.58 77.22 85.65 77.64 85.72 78.04 85.78 78.44 85.85 78.83 85.92 79.2 85.99 79.56 86.06 79.91 86.13 80.25 86.2 80.57 86.26 80.89 86.33 81.19 86.4 81.48 86.47 81.76 86.54 82.02 86.61 82.27 86.68 82.51 86.74 82.74 86.81 82.95 86.88 83.15 86.95 83.34 87.02 83.52 87.09 83.68 87.16 83.83 87.22 83.97 87.29 84.09 87.36 84.2 87.43 84.3 87.5 84.39 87.57 84.46 87.64 84.52 87.7 84.56 87.77 84.6 87.84 84.62 87.91 84.62 87.98 84.62 88.05 84.6 88.12 84.56 88.18 84.52 88.25 84.46 88.32 84.39 88.39 84.3 88.46 84.2 88.53 84.09 88.6 83.97 88.66 83.83 88.73 83.68 88.8 83.52 88.87 83.34 88.94 83.15 89.01 82.95 89.08 82.74 89.15 82.51 89.21 82.27 89.28 82.02 89.35 81.76 89.42 81.48 89.49 81.19 89.56 80.89 89.63 80.57 89.69 80.25 89.76 79.91 89.83 79.56 89.9 79.2 89.97 78.83 90.04 78.44 90.11 78.04 90.17 77.64 90.24 77.22 90.31 76.79 90.38 76.34 90.45 75.89 90.52 75.43 90.59 74.95 90.65 74.47 90.72 73.97 90.79 73.46 90.86 72.94 90.93 72.42 91 71.88 91.07 71.33 91.13 70.77 91.2 70.21 91.27 69.63 91.34 69.04 91.41 68.45 91.48 67.84 91.55 67.23 91.61 66.61 91.68 65.98 91.75 65.34 91.82 64.69 91.89 64.03 91.96 63.37 92.03 62.7 92.09 62.02 92.16 61.33 92.23 60.64 92.3 59.93 92.37 59.22 92.44 58.51 92.51 57.79 92.57 57.06 92.64 56.32 92.71 55.58 92.78 54.83 92.85 54.08 92.92 53.32 92.99 52.56 93.05 51.79 93.12 51.01 93.19 50.23 93.26 49.45 93.33 48.66 93.4 47.87 93.47 47.07 93.53 46.27 93.6 45.47 93.67 44.66 93.74 43.85 93.81 43.04 93.88 42.22 93.95 41.4 94.01 40.58 94.08 39.75 94.15 38.93 94.22 38.1 94.29 37.27 94.36 36.44 94.43 35.61 94.49 34.77 94.56 33.94 94.63 33.1 94.7 32.27 94.77 31.43 94.84 31.43 94.91 31.43 94.97 31.43 95.04 31.43 95.11 31.43 95.18 31.43 95.25 31.43 95.32 31.43 95.39 31.43 95.45 31.43 95.52 31.43 95.59 31.43 95.66 31.43 95.73 31.43 95.8 31.43 95.87 31.43 95.93 31.43 96 31.43 96.07 31.43 96.14 31.43 96.21 31.43 96.28 31.43 96.35 31.43 96.41 31.43 96.48 31.43 96.55 31.43 96.62 31.43 96.69 31.43 96.76 31.43 96.83 31.43 96.89 31.43 96.96 31.43 97.03 31.43 97.1 31.43 97.17 31.43 97.24 31.43 97.31 31.43 97.37 31.43 97.44 31.43 97.51 31.43 97.58 31.43 97.65 31.43 97.72 31.43 97.79 31.43 97.85 31.43 97.92 31.43 97.99 31.43 98.06 31.43 98.13 31.43 98.2 31.43 98.27 31.43 98.33 31.43 98.4 31.43 98.47 31.43 98.54 31.43 98.61 31.43 98.68 31.43 98.75 31.43 98.81 31.43 98.88 31.43 98.95 31.43 99.02 31.43 99.09 31.43 99.16 31.43 99.23 31.43 99.3 31.43 99.36 31.43 99.43 31.43 99.5 31.43 99.57 31.43 99.64 31.43 99.71 31.43 99.78 31.43 99.84 31.43 99.91 31.43 99.98 31.43 100.05 31.43 100.12 31.43 100.19 31.43 100.26 31.43 100.32 31.43 100.39 31.43 100.46 31.43 100.53 31.43 100.6 31.43 100.67 31.43 100.74 31.43 100.8 31.43 100.87 31.43 100.94 31.43 101.01 31.43 101.08 31.43 101.15 31.43 101.22 31.43 101.28 31.43 101.35 31.43 101.42 31.43 101.49 31.43 101.56 31.43 101.63 31.43 101.7 31.43 101.76 31.43 101.83 31.43 101.9 31.43 101.97 31.43 102.04 31.43 102.11 31.43 102.18 31.43 102.24 31.43 102.31 31.43 102.38 31.43 102.45 31.43 102.52 31.43 102.59 31.43 102.66 31.43 102.72 31.43 102.79 31.43 102.86 31.43 102.93 31.43 103 31.43 103.07 31.43 103.14 31.43 103.2 31.43 103.27 31.43 103.34 31.43 103.41 31.43 103.48 31.43 103.55 31.43 103.62 31.43 103.68 31.43 103.75 31.43 103.82 31.43 103.89 31.43 103.96 31.43 104.03 31.43 104.1 31.43 104.16 31.43 104.23 31.43 104.3 31.43 104.37 31.43 104.44 31.43 104.51 31.43 104.58 31.43 104.64 31.43 104.71 31.43 104.78 31.43 104.85 31.43 104.92 31.43 104.99 31.43 105.06 31.43 105.12 31.43 105.19 31.43 105.26 31.43 105.33 31.43 105.4 31.43 105.47 31.43 105.54 31.43 105.6 31.43 105.67 31.43 105.74 31.43 105.81 31.43 105.88 31.43 105.95 31.43 106.02 31.43 106.08 31.43 106.15 31.43 106.22 31.43 106.29 31.43 106.36 31.43 106.43 31.43 106.5 31.43 106.56 31.43 106.63 31.43 106.7 31.43 106.77 31.43 106.84 31.43 106.91 31.43 106.98 31.43 107.04 31.43 107.11 31.43 107.18 31.43 107.25 31.43 107.32 31.43 107.39 31.43 107.46 31.43 107.52 31.43 107.59 31.43 107.66 31.43 107.73 31.43 107.8 31.43 107.87 31.43 107.94 31.43 108 31.43 108.07 31.43 108.14 31.43 108.21 31.43 108.28 31.43 108.35 31.43 108.42 31.43 108.48 31.43 108.55 31.43 108.62 31.43 108.69 31.43 108.76 31.43 108.83 31.43 108.9 31.43 108.96 31.43 109.03 31.43 109.1 31.43 109.17 31.43 109.24 31.43 109.31 31.43 109.38 31.43 109.44 31.43 109.51 31.43 109.58 31.43 109.65 31.43 109.72 31.43 109.79 31.43 109.86 31.43 109.93 31.43 109.99 31.43 110.06 31.43 110.13 31.43 110.2 31.43 110.27 31.43 110.34 31.43 110.41 31.43 110.47 31.43 110.54 31.43 110.61 31.43 110.68 31.43 110.75 31.43 110.82 31.43 110.89 31.43 110.95 31.43 111.02 31.43 111.09 31.43 111.16 31.43 111.23 31.43 111.3 31.43 111.37 31.43 111.43 31.43 111.5 31.43 111.57 31.43 111.64 31.43 111.71 31.43 111.78 31.43 111.85 31.43 111.91 31.43 111.98 31.43 112.05 31.43 112.12 31.43 112.19 31.43 112.26 31.43 112.33 31.43 112.39 31.43 112.46 31.43 112.53 31.43 112.6 31.43 112.67 31.43 112.74 31.43 112.81 31.43 112.87 31.43 112.94 31.43 113.01 31.43 113.08 31.43 113.15 31.43 113.22 31.43 113.29 31.43 113.35 31.43 113.42 31.43 113.49 31.43 113.56 31.43 113.63 31.43 113.7 31.43 113.77 31.43 113.83 31.43 113.9 31.43 113.97 31.43 114.04 31.43 114.11 31.43 114.18 31.43 114.25 31.43 114.31 31.43 114.38 31.43 114.45 31.43 114.52 31.43 114.59 31.43 114.66 31.43 114.73 31.43 114.79 31.43 114.86 31.43 114.93 31.43 115 31.43 115.07 31.43 115.14 31.43 115.21 31.43 115.27 31.43 115.34 31.43 115.41 31.43 115.48 31.43 115.55 31.43 115.62 31.43 115.69 31.43 115.75 31.43 115.82 31.43 115.89 31.43 115.96 31.43 116.03 31.43 116.1 31.43 116.17 31.43 116.23 31.43 116.3 31.43 116.37 31.43 116.44 31.43 116.51 31.43 116.58 31.43 116.65 31.43 116.71 31.43 116.78 31.43 116.85 31.43 116.92 31.43 116.99 31.43 117.06 31.43 117.13 31.43 117.19 31.43 117.26 31.43 117.33 31.43 117.4 31.43 117.47 31.43 117.54 31.43 117.61 31.43 117.67 31.43 117.74 31.43 117.81 31.43 117.88 31.43 117.95 31.43 118.02 31.43 118.09 31.43 118.15 31.43 118.22 31.43 118.29 31.43 118.36 31.43 118.43 31.43 118.5 31.43 118.57 31.43 118.63 31.43 118.7 31.43 118.77 31.43 118.84 31.43 118.91 31.43 118.98 31.43 119.05 31.43 119.11 31.43 119.18 31.43 119.25 31.43 119.32 31.43 119.39 31.43 119.46 31.43 119.53 31.43 119.59 31.43 119.66 31.43 119.73 31.43 119.8 31.43 119.87 31.43 119.94 31.43 120.01 31.43 120.07 31.43 120.14 31.43 120.21 31.43 120.28 31.43 120.35 31.43 120.42 31.43 120.49 31.43 120.56 31.43 120.62 31.43 120.69 31.43 120.76 31.43 120.83 31.43 120.9 31.43 120.97 31.43 121.04 31.43 121.1 31.43 121.17 31.43 121.24 31.43 121.31 31.43 121.38 31.43 121.45 31.43 121.52 31.43 121.58 31.43 121.65 31.43 121.72 31.43 121.79 31.43 121.86 31.43 121.93 31.43 122 31.43 122.06 31.43 122.13 31.43 122.2 31.43 122.27 31.43 122.34 31.43 122.41 31.43 122.48 31.43 122.54 31.43 122.61 31.43 122.68 31.43 122.75 31.43 122.82 31.43 122.89 31.43 122.96 31.43 123.02 31.43 123.09 31.43 123.16 31.43 123.23 31.43 123.3 31.43 123.37 31.43 123.44 31.43 123.5 31.43 123.57 31.43 123.64 31.43 123.71 31.43 123.78 31.43 123.85 31.43 123.92 31.43 123.98 31.43 124.05 31.43 124.12 31.43 124.19 31.43 124.26 31.43 124.33 31.43 124.4 31.43 124.46 31.43 124.53 31.43 124.6 31.43 124.67 31.43 124.74 31.43 124.81 31.43 124.88 31.43 124.94 31.43 125.01 31.43 125.08 31.43 125.15 31.43 125.22 31.43 125.29 31.43 125.36 31.43 125.42 31.43 125.49 31.43 125.56 31.43 125.63 31.43 125.7 31.43 125.77 31.43 125.84 31.43 125.9 31.43 125.97 31.43 126.04 31.43 126.11 31.43 126.18 31.43 126.25 31.43 126.32 31.43 126.38 31.43 126.45 31.43 126.52 31.43 126.59 31.43 126.66 31.43 126.73 31.43 126.8 31.43 126.86 31.43 126.93 31.43 127 31.43 127.07 31.43 127.14 31.43 127.21 31.43 127.28 31.43 127.34 31.43 127.41 31.43 127.48 31.43 127.55 31.43 127.62 31.43 127.69 31.43 127.76 31.43 127.82 31.43 127.89 31.43 127.96 31.43 128.03 31.43 128.1 31.43 128.17 31.43 128.24 31.43 128.3 31.43 128.37 31.43 128.44 31.43 128.51 31.43 128.58 31.43 128.65 31.43 128.72 31.43 128.78 31.43 128.85 31.43 128.92 31.43 128.99 31.43 129.06 31.43 129.13 31.43 129.2 31.43 129.26 31.43 129.33 31.43 129.4 31.43 129.47 31.43 129.54 31.43 129.61 31.43 129.68 31.43 129.74 31.43 129.81 31.43 129.88 31.43 129.95 31.43 130.02 31.43 130.09 31.43 130.16 31.43 130.22 31.43 130.29 31.43 130.36 31.43 130.43 31.43 130.5 31.43 130.57 31.43 130.64 31.43 130.71 31.43 130.77 31.43 130.84 31.43 130.91 31.43 130.98 31.43 131.05 31.43 131.12 31.43 131.19 31.43 131.25 31.43 131.32 31.43 131.39 31.43 131.46 31.43 131.53 31.43 131.6 31.43 131.67 31.43 131.73 31.43 131.8 31.43 131.87 31.43 131.94 31.43 132.01 31.43 132.08 31.43 132.15 31.43 132.21 31.43 132.28 31.43 132.35 31.43 132.42 31.43 132.49 31.43 132.56 31.43 132.63 31.43 132.69 31.43 132.76 31.43 132.83 31.43 132.9 31.43 132.97 31.43 133.04 31.43 133.11 31.43 133.17 31.43 133.24 31.43 133.31 31.43 133.38 31.43 133.45 31.43 133.52 31.43 133.59 31.43 133.65 31.43 133.72 31.43 133.79 31.43 133.86 31.43 133.93 31.43 134 31.43 134.07 31.43 134.13 31.43 134.2 31.43 134.27 31.43 134.34 31.43 134.41 31.43 134.48 31.43 134.55 31.43 134.61 31.43 134.68 31.43 134.75 31.43 134.82 31.43 134.89 31.43 134.96 31.43 135.03 31.43 135.09 31.43 135.16 31.43 135.23 31.43 135.3 31.43 135.37 31.43 135.44 31.43 135.51 31.43 135.57 31.43 135.64 31.43 135.71 31.43 135.78 31.43 135.85 31.43 135.92 31.43 135.99 31.43 136.05 31.43 136.12 31.43 136.19 31.43 136.26 31.43 136.33 31.43 136.4 31.43 136.47 31.43 136.53 31.43 136.6 31.43 136.67 31.43 136.74 31.43 136.81 31.43 136.88 31.43 136.95 31.43 137.01 31.43 137.08 31.43 137.15 31.43 137.22 31.43 137.29 31.43 137.36 31.43 137.43 31.43 137.49 31.43 137.56 31.43 137.63 31.43 137.7 31.43 137.77 31.43 137.84 31.43 137.91 31.43 137.97 31.43 138.04 31.43 138.11 31.43 138.18 31.43 138.25 31.43 138.32 31.43 138.39 31.43 138.45 31.43 138.52 31.43 138.59 31.43 138.66 31.43 138.73 31.43 138.8 31.43 138.87 31.43 138.93 31.43 139 31.43 139.07 31.43 139.14 31.43 139.21 31.43 139.28 31.43 139.35 31.43 139.41 31.43 139.48 31.43 139.55 31.43 139.62 31.43 139.69 31.43 139.76 31.43 139.83 31.43 139.89 31.43 139.96 31.43 140.03 31.43 140.1 31.43 140.17 31.43 140.24 31.43 140.31 31.43 140.37 31.43 140.44 31.43 140.51 31.43 140.58 31.43 140.65 31.43 140.72 31.43 140.79 31.43 140.85 31.43 140.92 31.43 140.99 31.43 141.06 31.43 141.13 31.43 141.2 31.43 141.27 31.43 141.34 31.43 141.4 31.43 141.47 31.43 141.54 31.43 141.61 31.43 141.68 31.43 141.75 31.43 141.82 31.43 141.88 31.43 141.95 31.43 142.02 31.43 142.09 31.43 142.16 31.43 142.23 31.43 142.3 31.43 142.36 31.43 142.43 31.43 142.5 31.43 142.57 31.43 142.64 31.43 142.71 31.43 142.78 31.43 142.84 31.43 142.91 31.43 142.98 31.43 143.05 31.43 143.12 31.43 143.19 31.43 143.26 31.43 143.32 31.43 143.39 31.43 143.46 31.43 143.53 31.43 143.6 31.43 143.67 31.43 143.74 31.43 143.8 31.43 143.87 31.43 143.94 31.43 144.01 31.43 144.08 31.43 144.15 31.43 144.22 31.43 144.28 31.43 144.35 31.43 144.42 31.43 144.49 31.43 144.56 31.43 144.63 31.43 144.7 31.43 144.76 31.43 144.83 31.43 144.9 31.43 144.97 31.43 145.04 31.43 145.11 31.43 145.18 31.43 145.24 31.43 145.31 31.43 145.38 31.43 145.45 31.43 145.52 31.43 145.59 31.43 145.66 31.43 145.72 31.43 145.79 31.43 145.86 31.43 145.93 31.43 146 31.43 146.07 31.43 146.14 31.43 146.2 31.43 146.27 31.43 146.34 31.43 146.41 31.43 146.48 31.43 146.55 31.43 146.62 31.43 146.68 31.43 146.75 31.43 146.82 31.43 146.89 31.43 146.96 31.43 147.03 31.43 147.1 31.43 147.16 31.43 147.23 31.43 147.3 31.43 147.37 31.43 147.44 31.43 147.51 31.43 147.58 31.43 147.64 31.43 147.71 31.43 147.78 31.43 147.85 31.43 147.92 31.43 147.99 31.43 148.06 31.43 148.12 31.43 148.19 31.43 148.26 31.43 148.33 31.43 148.4 31.43 148.47 31.43 148.54 31.43 148.6 31.43 148.67 31.43 148.74 31.43 148.81 31.43 148.88 31.43 148.95 31.43 149.02 31.43 149.08 31.43 149.15 31.43 149.22 31.43 149.29 31.43 149.36 31.43 149.43 31.43 149.5 31.43 149.56 31.43 149.63 31.43 149.7 31.43 149.77 31.43 149.84 31.43 149.91 31.43 149.98 31.43 150.04 31.43 150.11 31.43 150.18 31.43 150.25 31.43 150.32 31.43 150.39 31.43 150.46 31.43 150.52 31.43 150.59 31.43 150.66 31.43 150.73 31.43 150.8 31.43 150.87 31.43 150.94 31.43 151 31.43 151.07 31.43 151.14 31.43 151.21 31.43 151.28 31.43 151.35 31.43 151.42 31.43 151.49 31.43 151.55 31.43 151.62 31.43 151.69 31.43 151.76 31.43 151.83 31.43 151.9 31.43 151.97 31.43 152.03 31.43 152.1 31.43 152.17 31.43 152.24 31.43 152.31 31.43 152.38 31.43 152.45 31.43 152.51 31.43 152.58 31.43 152.65 31.43 152.72 31.43 152.79 31.43 152.86 31.43 152.93 31.43 152.99 31.43 153.06 31.43 153.13 31.43 153.2 31.43 153.27 31.43 153.34 31.43 153.41 31.43 153.47 31.43 153.54 31.43 153.61 31.43 153.68 31.43 153.75 31.43 153.82 31.43 153.89 31.43 153.95 31.43 154.02 31.43 154.09 31.43 154.16 31.43 154.23 31.43 154.3 31.43 154.37 31.43 154.43 31.43 154.5 31.43 154.57 31.43 154.64 31.43 154.71 31.43 154.78 31.43 154.85 31.43 154.91 31.43 154.98 31.43 155.05 31.43 155.12 31.43 155.19 31.43 155.26 31.43 155.33 31.43 155.39 31.43 155.46 31.43 155.53 31.43 155.6 31.43 155.67 31.43 155.74 31.43 155.81 31.43 155.87 31.43 155.94 31.43 156.01 31.43 156.08 31.43 156.15 31.43 156.22 31.43 156.29 31.43 156.35 31.43 156.42 31.43 156.49 31.43 156.56 31.43" id="fig-fbea7e971a8b4297bd810e7d235f8bf7-element-34"/>
      </g>
    </g>
  </g>
  <g class="guide ylabels" font-size="2.82" font-family="'PT Sans Caption','Helvetica Neue','Helvetica',sans-serif" fill="#6C606B" id="fig-fbea7e971a8b4297bd810e7d235f8bf7-element-35">
    <text x="16.4" y="98.72" text-anchor="end" dy="0.35em" id="fig-fbea7e971a8b4297bd810e7d235f8bf7-element-36">-4</text>
    <text x="16.4" y="81.89" text-anchor="end" dy="0.35em" id="fig-fbea7e971a8b4297bd810e7d235f8bf7-element-37">-3</text>
    <text x="16.4" y="65.07" text-anchor="end" dy="0.35em" id="fig-fbea7e971a8b4297bd810e7d235f8bf7-element-38">-2</text>
    <text x="16.4" y="48.25" text-anchor="end" dy="0.35em" id="fig-fbea7e971a8b4297bd810e7d235f8bf7-element-39">-1</text>
    <text x="16.4" y="31.43" text-anchor="end" dy="0.35em" id="fig-fbea7e971a8b4297bd810e7d235f8bf7-element-40">0</text>
    <text x="16.4" y="14.61" text-anchor="end" dy="0.35em" id="fig-fbea7e971a8b4297bd810e7d235f8bf7-element-41">1</text>
  </g>
  <g font-size="3.88" font-family="'PT Sans','Helvetica Neue','Helvetica',sans-serif" fill="#564A55" stroke="none" id="fig-fbea7e971a8b4297bd810e7d235f8bf7-element-42">
    <text x="8.81" y="54.66" text-anchor="middle" dy="0.35em" transform="rotate(-90, 8.81, 56.66)" id="fig-fbea7e971a8b4297bd810e7d235f8bf7-element-43">Re()</text>
  </g>
  <g font-size="3.88" font-family="'PT Sans','Helvetica Neue','Helvetica',sans-serif" fill="#564A55" stroke="none" id="fig-fbea7e971a8b4297bd810e7d235f8bf7-element-44">
    <text x="87.98" y="10.61" text-anchor="middle" id="fig-fbea7e971a8b4297bd810e7d235f8bf7-element-45"> initial and final starting from ground with wall thickness s = 0.001</text>
  </g>
</g>
<defs>
<clipPath id="fig-fbea7e971a8b4297bd810e7d235f8bf7-element-14">
  <path d="M17.4,12.61 L 158.56 12.61 158.56 100.71 17.4 100.71" />
</clipPath
></defs>
</svg>
